%TF.GenerationSoftware,KiCad,Pcbnew,9.99.0-1005-g8ef54c3651*%
%TF.CreationDate,2025-04-23T14:57:33+05:30*%
%TF.ProjectId,Mitayi-Pico-RP2040,4d697461-7969-42d5-9069-636f2d525032,0.6*%
%TF.SameCoordinates,PX73df160PY5f2d3c0*%
%TF.FileFunction,Paste,Top*%
%TF.FilePolarity,Positive*%
%FSLAX45Y45*%
G04 Gerber Fmt 4.5, Leading zero omitted, Abs format (unit mm)*
G04 Created by KiCad (PCBNEW 9.99.0-1005-g8ef54c3651) date 2025-04-23 14:57:33*
%MOMM*%
%LPD*%
G01*
G04 APERTURE LIST*
G04 Aperture macros list*
%AMRoundRect*
0 Rectangle with rounded corners*
0 $1 Rounding radius*
0 $2 $3 $4 $5 $6 $7 $8 $9 X,Y pos of 4 corners*
0 Add a 4 corners polygon primitive as box body*
4,1,4,$2,$3,$4,$5,$6,$7,$8,$9,$2,$3,0*
0 Add four circle primitives for the rounded corners*
1,1,$1+$1,$2,$3*
1,1,$1+$1,$4,$5*
1,1,$1+$1,$6,$7*
1,1,$1+$1,$8,$9*
0 Add four rect primitives between the rounded corners*
20,1,$1+$1,$2,$3,$4,$5,0*
20,1,$1+$1,$4,$5,$6,$7,0*
20,1,$1+$1,$6,$7,$8,$9,0*
20,1,$1+$1,$8,$9,$2,$3,0*%
G04 Aperture macros list end*
%ADD10C,0.150000*%
%ADD11RoundRect,0.160000X-0.197500X-0.160000X0.197500X-0.160000X0.197500X0.160000X-0.197500X0.160000X0*%
%ADD12RoundRect,0.218750X0.218750X0.256250X-0.218750X0.256250X-0.218750X-0.256250X0.218750X-0.256250X0*%
%ADD13RoundRect,0.140000X0.140000X0.170000X-0.140000X0.170000X-0.140000X-0.170000X0.140000X-0.170000X0*%
%ADD14RoundRect,0.140000X-0.170000X0.140000X-0.170000X-0.140000X0.170000X-0.140000X0.170000X0.140000X0*%
%ADD15RoundRect,0.225000X-0.250000X0.225000X-0.250000X-0.225000X0.250000X-0.225000X0.250000X0.225000X0*%
%ADD16RoundRect,0.135000X-0.185000X0.135000X-0.185000X-0.135000X0.185000X-0.135000X0.185000X0.135000X0*%
%ADD17RoundRect,0.135000X0.135000X0.185000X-0.135000X0.185000X-0.135000X-0.185000X0.135000X-0.185000X0*%
%ADD18RoundRect,0.135000X-0.135000X-0.185000X0.135000X-0.185000X0.135000X0.185000X-0.135000X0.185000X0*%
%ADD19RoundRect,0.140000X0.170000X-0.140000X0.170000X0.140000X-0.170000X0.140000X-0.170000X-0.140000X0*%
%ADD20RoundRect,0.250000X0.292217X-0.292217X0.292217X0.292217X-0.292217X0.292217X-0.292217X-0.292217X0*%
%ADD21RoundRect,0.050000X0.050000X-0.387500X0.050000X0.387500X-0.050000X0.387500X-0.050000X-0.387500X0*%
%ADD22RoundRect,0.050000X0.387500X-0.050000X0.387500X0.050000X-0.387500X0.050000X-0.387500X-0.050000X0*%
%ADD23RoundRect,0.140000X-0.140000X-0.170000X0.140000X-0.170000X0.140000X0.170000X-0.140000X0.170000X0*%
%ADD24RoundRect,0.150000X0.650000X0.150000X-0.650000X0.150000X-0.650000X-0.150000X0.650000X-0.150000X0*%
%ADD25RoundRect,0.160000X0.197500X0.160000X-0.197500X0.160000X-0.197500X-0.160000X0.197500X-0.160000X0*%
%ADD26RoundRect,0.225000X0.250000X-0.225000X0.250000X0.225000X-0.250000X0.225000X-0.250000X-0.225000X0*%
%ADD27R,1.450000X0.600000*%
%ADD28R,1.450000X0.300000*%
%ADD29R,1.200000X1.400000*%
%ADD30R,1.000000X1.000000*%
%ADD31R,1.150000X1.700000*%
%ADD32RoundRect,0.250000X0.275000X-0.312500X0.275000X0.312500X-0.275000X0.312500X-0.275000X-0.312500X0*%
%ADD33RoundRect,0.135000X0.185000X-0.135000X0.185000X0.135000X-0.185000X0.135000X-0.185000X-0.135000X0*%
%ADD34RoundRect,0.150000X-0.150000X0.512500X-0.150000X-0.512500X0.150000X-0.512500X0.150000X0.512500X0*%
G04 APERTURE END LIST*
%TO.C,J2*%
D10*
X218000Y1533000D02*
X58000Y1533000D01*
X58000Y1433000D01*
X218000Y1433000D01*
X218000Y1533000D01*
G36*
X218000Y1533000D02*
G01*
X58000Y1533000D01*
X58000Y1433000D01*
X218000Y1433000D01*
X218000Y1533000D01*
G37*
X218000Y669000D02*
X58000Y669000D01*
X58000Y569000D01*
X218000Y569000D01*
X218000Y669000D01*
G36*
X218000Y669000D02*
G01*
X58000Y669000D01*
X58000Y569000D01*
X218000Y569000D01*
X218000Y669000D01*
G37*
X661000Y1533000D02*
X451000Y1533000D01*
X451000Y1433000D01*
X661000Y1433000D01*
X661000Y1533000D01*
G36*
X661000Y1533000D02*
G01*
X451000Y1533000D01*
X451000Y1433000D01*
X661000Y1433000D01*
X661000Y1533000D01*
G37*
X661000Y669000D02*
X451000Y669000D01*
X451000Y569000D01*
X661000Y569000D01*
X661000Y669000D01*
G36*
X661000Y669000D02*
G01*
X451000Y669000D01*
X451000Y569000D01*
X661000Y569000D01*
X661000Y669000D01*
G37*
%TD*%
D11*
%TO.C,JP5*%
X3111250Y1740000D03*
X3230750Y1740000D03*
%TD*%
D12*
%TO.C,D2*%
X3573750Y1703000D03*
X3416250Y1703000D03*
%TD*%
D13*
%TO.C,C17*%
X3770000Y851000D03*
X3674000Y851000D03*
%TD*%
D14*
%TO.C,C12*%
X2467000Y567000D03*
X2467000Y471000D03*
%TD*%
D15*
%TO.C,C13*%
X971000Y1558500D03*
X971000Y1403500D03*
%TD*%
D14*
%TO.C,C6*%
X3060000Y556000D03*
X3060000Y460000D03*
%TD*%
D13*
%TO.C,C11*%
X2155000Y1590500D03*
X2059000Y1590500D03*
%TD*%
%TO.C,C19*%
X849000Y524000D03*
X753000Y524000D03*
%TD*%
D16*
%TO.C,R2*%
X1883000Y836000D03*
X1883000Y734000D03*
%TD*%
D17*
%TO.C,R7*%
X3848000Y1696000D03*
X3746000Y1696000D03*
%TD*%
D18*
%TO.C,R10*%
X3327000Y1022000D03*
X3429000Y1022000D03*
%TD*%
D19*
%TO.C,C10*%
X2337000Y1575000D03*
X2337000Y1671000D03*
%TD*%
D20*
%TO.C,U3*%
X2673250Y1018250D03*
X2800750Y1018250D03*
X2673250Y1145750D03*
X2800750Y1145750D03*
D21*
X2477000Y738250D03*
X2517000Y738250D03*
X2557000Y738250D03*
X2597000Y738250D03*
X2637000Y738250D03*
X2677000Y738250D03*
X2717000Y738250D03*
X2757000Y738250D03*
X2797000Y738250D03*
X2837000Y738250D03*
X2877000Y738250D03*
X2917000Y738250D03*
X2957000Y738250D03*
X2997000Y738250D03*
D22*
X3080750Y822000D03*
X3080750Y862000D03*
X3080750Y902000D03*
X3080750Y942000D03*
X3080750Y982000D03*
X3080750Y1022000D03*
X3080750Y1062000D03*
X3080750Y1102000D03*
X3080750Y1142000D03*
X3080750Y1182000D03*
X3080750Y1222000D03*
X3080750Y1262000D03*
X3080750Y1302000D03*
X3080750Y1342000D03*
D21*
X2997000Y1425750D03*
X2957000Y1425750D03*
X2917000Y1425750D03*
X2877000Y1425750D03*
X2837000Y1425750D03*
X2797000Y1425750D03*
X2757000Y1425750D03*
X2717000Y1425750D03*
X2677000Y1425750D03*
X2637000Y1425750D03*
X2597000Y1425750D03*
X2557000Y1425750D03*
X2517000Y1425750D03*
X2477000Y1425750D03*
D22*
X2393250Y1342000D03*
X2393250Y1302000D03*
X2393250Y1262000D03*
X2393250Y1222000D03*
X2393250Y1182000D03*
X2393250Y1142000D03*
X2393250Y1102000D03*
X2393250Y1062000D03*
X2393250Y1022000D03*
X2393250Y982000D03*
X2393250Y942000D03*
X2393250Y902000D03*
X2393250Y862000D03*
X2393250Y822000D03*
%TD*%
D18*
%TO.C,R5*%
X2054000Y1182500D03*
X2156000Y1182500D03*
%TD*%
D23*
%TO.C,C2*%
X3329000Y1275000D03*
X3425000Y1275000D03*
%TD*%
D24*
%TO.C,U1*%
X1715000Y795500D03*
X1715000Y922500D03*
X1715000Y1049500D03*
X1715000Y1176500D03*
X995000Y1176500D03*
X995000Y1049500D03*
X995000Y922500D03*
X995000Y795500D03*
%TD*%
D13*
%TO.C,C5*%
X2145500Y1072000D03*
X2049500Y1072000D03*
%TD*%
D16*
%TO.C,R1*%
X1883000Y1069000D03*
X1883000Y967000D03*
%TD*%
D13*
%TO.C,C4*%
X2154000Y1393000D03*
X2058000Y1393000D03*
%TD*%
D19*
%TO.C,C1*%
X830000Y643000D03*
X830000Y739000D03*
%TD*%
D25*
%TO.C,JP1*%
X1234750Y1750000D03*
X1115250Y1750000D03*
%TD*%
D18*
%TO.C,R9*%
X1730000Y1730000D03*
X1832000Y1730000D03*
%TD*%
D13*
%TO.C,C9*%
X3426000Y1163000D03*
X3330000Y1163000D03*
%TD*%
D23*
%TO.C,C8*%
X3121000Y1610000D03*
X3217000Y1610000D03*
%TD*%
D26*
%TO.C,C15*%
X1908000Y1401500D03*
X1908000Y1556500D03*
%TD*%
D27*
%TO.C,J2*%
X647500Y1376000D03*
X647500Y1296000D03*
D28*
X647500Y1176000D03*
X647500Y1076000D03*
X647500Y1026000D03*
X647500Y926000D03*
D27*
X647500Y806000D03*
X647500Y726000D03*
X647500Y726000D03*
X647500Y806000D03*
D28*
X647500Y876000D03*
X647500Y976000D03*
X647500Y1126000D03*
X647500Y1226000D03*
D27*
X647500Y1296000D03*
X647500Y1376000D03*
%TD*%
D13*
%TO.C,C16*%
X1216000Y1376000D03*
X1120000Y1376000D03*
%TD*%
D11*
%TO.C,JP4*%
X1115250Y1575000D03*
X1234750Y1575000D03*
%TD*%
D16*
%TO.C,R4*%
X830000Y986000D03*
X830000Y884000D03*
%TD*%
D29*
%TO.C,Y1*%
X3790000Y1033000D03*
X3790000Y1253000D03*
X3620000Y1253000D03*
X3620000Y1033000D03*
%TD*%
D17*
%TO.C,R8*%
X849000Y417000D03*
X747000Y417000D03*
%TD*%
D30*
%TO.C,D1*%
X765000Y1690000D03*
X515000Y1690000D03*
%TD*%
D12*
%TO.C,D3*%
X558750Y420000D03*
X401250Y420000D03*
%TD*%
D31*
%TO.C,SW1*%
X1022500Y530000D03*
X1457500Y530000D03*
%TD*%
D23*
%TO.C,C18*%
X3671000Y1433000D03*
X3767000Y1433000D03*
%TD*%
D13*
%TO.C,C7*%
X2145000Y972000D03*
X2049000Y972000D03*
%TD*%
D18*
%TO.C,R6*%
X2054000Y1282500D03*
X2156000Y1282500D03*
%TD*%
D32*
%TO.C,C14*%
X1740000Y1414750D03*
X1740000Y1592250D03*
%TD*%
D33*
%TO.C,R3*%
X830000Y1389000D03*
X830000Y1491000D03*
%TD*%
D34*
%TO.C,U2*%
X1562000Y1648750D03*
X1467000Y1648750D03*
X1372000Y1648750D03*
X1372000Y1421250D03*
X1562000Y1421250D03*
%TD*%
D18*
%TO.C,R11*%
X2046000Y833000D03*
X2148000Y833000D03*
%TD*%
D31*
%TO.C,SW2*%
X2094000Y528500D03*
X1659000Y528500D03*
%TD*%
M02*
