%TF.GenerationSoftware,KiCad,Pcbnew,9.99.0-1005-g8ef54c3651*%
%TF.CreationDate,2025-04-23T14:57:33+05:30*%
%TF.ProjectId,Mitayi-Pico-RP2040,4d697461-7969-42d5-9069-636f2d525032,0.6*%
%TF.SameCoordinates,PX73df160PY5f2d3c0*%
%TF.FileFunction,Other,User*%
%FSLAX45Y45*%
G04 Gerber Fmt 4.5, Leading zero omitted, Abs format (unit mm)*
G04 Created by KiCad (PCBNEW 9.99.0-1005-g8ef54c3651) date 2025-04-23 14:57:33*
%MOMM*%
%LPD*%
G01*
G04 APERTURE LIST*
%ADD10C,0.050000*%
G04 APERTURE END LIST*
D10*
%TO.C,JP5*%
X3061000Y1787000D02*
X3281000Y1787000D01*
X3061000Y1693000D02*
X3061000Y1787000D01*
X3281000Y1787000D02*
X3281000Y1693000D01*
X3281000Y1693000D02*
X3061000Y1693000D01*
%TO.C,D2*%
X3347000Y1776000D02*
X3643000Y1776000D01*
X3347000Y1630000D02*
X3347000Y1776000D01*
X3643000Y1776000D02*
X3643000Y1630000D01*
X3643000Y1630000D02*
X3347000Y1630000D01*
%TO.C,C17*%
X3631000Y897000D02*
X3813000Y897000D01*
X3631000Y805000D02*
X3631000Y897000D01*
X3813000Y897000D02*
X3813000Y805000D01*
X3813000Y805000D02*
X3631000Y805000D01*
%TO.C,C12*%
X2421000Y610000D02*
X2513000Y610000D01*
X2421000Y428000D02*
X2421000Y610000D01*
X2513000Y610000D02*
X2513000Y428000D01*
X2513000Y428000D02*
X2421000Y428000D01*
%TO.C,C13*%
X898000Y1629000D02*
X1044000Y1629000D01*
X898000Y1333000D02*
X898000Y1629000D01*
X1044000Y1629000D02*
X1044000Y1333000D01*
X1044000Y1333000D02*
X898000Y1333000D01*
%TO.C,C6*%
X3014000Y599000D02*
X3106000Y599000D01*
X3014000Y417000D02*
X3014000Y599000D01*
X3106000Y599000D02*
X3106000Y417000D01*
X3106000Y417000D02*
X3014000Y417000D01*
%TO.C,C11*%
X2016000Y1636500D02*
X2198000Y1636500D01*
X2016000Y1544500D02*
X2016000Y1636500D01*
X2198000Y1636500D02*
X2198000Y1544500D01*
X2198000Y1544500D02*
X2016000Y1544500D01*
%TO.C,C19*%
X710000Y570000D02*
X892000Y570000D01*
X710000Y478000D02*
X710000Y570000D01*
X892000Y570000D02*
X892000Y478000D01*
X892000Y478000D02*
X710000Y478000D01*
%TO.C,R2*%
X1836000Y878000D02*
X1930000Y878000D01*
X1836000Y692000D02*
X1836000Y878000D01*
X1930000Y878000D02*
X1930000Y692000D01*
X1930000Y692000D02*
X1836000Y692000D01*
%TO.C,R7*%
X3704000Y1743000D02*
X3890000Y1743000D01*
X3704000Y1649000D02*
X3704000Y1743000D01*
X3890000Y1743000D02*
X3890000Y1649000D01*
X3890000Y1649000D02*
X3704000Y1649000D01*
%TO.C,H3*%
X5062803Y1700000D02*
G75*
G02*
X4839197Y1700000I-111803J0D01*
G01*
X4839197Y1700000D02*
G75*
G02*
X5062803Y1700000I111803J0D01*
G01*
%TO.C,R10*%
X3285000Y1069000D02*
X3471000Y1069000D01*
X3285000Y975000D02*
X3285000Y1069000D01*
X3471000Y1069000D02*
X3471000Y975000D01*
X3471000Y975000D02*
X3285000Y975000D01*
%TO.C,C10*%
X2291000Y1714000D02*
X2383000Y1714000D01*
X2291000Y1532000D02*
X2291000Y1714000D01*
X2383000Y1714000D02*
X2383000Y1532000D01*
X2383000Y1532000D02*
X2291000Y1532000D01*
%TO.C,U3*%
X2325000Y1494000D02*
X2325000Y670000D01*
X2325000Y670000D02*
X3149000Y670000D01*
X3149000Y1494000D02*
X2325000Y1494000D01*
X3149000Y670000D02*
X3149000Y1494000D01*
%TO.C,R5*%
X2012000Y1229500D02*
X2198000Y1229500D01*
X2012000Y1135500D02*
X2012000Y1229500D01*
X2198000Y1229500D02*
X2198000Y1135500D01*
X2198000Y1135500D02*
X2012000Y1135500D01*
%TO.C,C2*%
X3286000Y1321000D02*
X3468000Y1321000D01*
X3286000Y1229000D02*
X3286000Y1321000D01*
X3468000Y1321000D02*
X3468000Y1229000D01*
X3468000Y1229000D02*
X3286000Y1229000D01*
%TO.C,U1*%
X890000Y1272000D02*
X890000Y700000D01*
X890000Y700000D02*
X1820000Y700000D01*
X1820000Y1272000D02*
X890000Y1272000D01*
X1820000Y700000D02*
X1820000Y1272000D01*
%TO.C,C5*%
X2006500Y1118000D02*
X2188500Y1118000D01*
X2006500Y1026000D02*
X2006500Y1118000D01*
X2188500Y1118000D02*
X2188500Y1026000D01*
X2188500Y1026000D02*
X2006500Y1026000D01*
%TO.C,R1*%
X1836000Y1111000D02*
X1930000Y1111000D01*
X1836000Y925000D02*
X1836000Y1111000D01*
X1930000Y1111000D02*
X1930000Y925000D01*
X1930000Y925000D02*
X1836000Y925000D01*
%TO.C,C4*%
X2015000Y1439000D02*
X2197000Y1439000D01*
X2015000Y1347000D02*
X2015000Y1439000D01*
X2197000Y1439000D02*
X2197000Y1347000D01*
X2197000Y1347000D02*
X2015000Y1347000D01*
%TO.C,C1*%
X784000Y782000D02*
X876000Y782000D01*
X784000Y600000D02*
X784000Y782000D01*
X876000Y782000D02*
X876000Y600000D01*
X876000Y600000D02*
X784000Y600000D01*
%TO.C,J5*%
X4760000Y1480000D02*
X4760000Y615000D01*
X4760000Y615000D02*
X5120000Y615000D01*
X5120000Y1480000D02*
X4760000Y1480000D01*
X5120000Y615000D02*
X5120000Y1480000D01*
%TO.C,JP1*%
X1065000Y1797000D02*
X1285000Y1797000D01*
X1065000Y1703000D02*
X1065000Y1797000D01*
X1285000Y1797000D02*
X1285000Y1703000D01*
X1285000Y1703000D02*
X1065000Y1703000D01*
%TO.C,R9*%
X1688000Y1777000D02*
X1874000Y1777000D01*
X1688000Y1683000D02*
X1688000Y1777000D01*
X1874000Y1777000D02*
X1874000Y1683000D01*
X1874000Y1683000D02*
X1688000Y1683000D01*
%TO.C,C9*%
X3287000Y1209000D02*
X3469000Y1209000D01*
X3287000Y1117000D02*
X3287000Y1209000D01*
X3469000Y1209000D02*
X3469000Y1117000D01*
X3469000Y1117000D02*
X3287000Y1117000D01*
%TO.C,C8*%
X3078000Y1656000D02*
X3260000Y1656000D01*
X3078000Y1564000D02*
X3078000Y1656000D01*
X3260000Y1656000D02*
X3260000Y1564000D01*
X3260000Y1564000D02*
X3078000Y1564000D01*
%TO.C,C15*%
X1835000Y1627000D02*
X1981000Y1627000D01*
X1835000Y1331000D02*
X1835000Y1627000D01*
X1981000Y1627000D02*
X1981000Y1331000D01*
X1981000Y1331000D02*
X1835000Y1331000D01*
%TO.C,H2*%
X5062803Y400000D02*
G75*
G02*
X4839197Y400000I-111803J0D01*
G01*
X4839197Y400000D02*
G75*
G02*
X5062803Y400000I111803J0D01*
G01*
%TO.C,J2*%
X-172000Y1583000D02*
X-172000Y519000D01*
X770000Y1583000D02*
X-172000Y1583000D01*
X770000Y1583000D02*
X770000Y519000D01*
X770000Y519000D02*
X-172000Y519000D01*
%TO.C,JP6*%
X2223500Y389000D02*
X2223500Y699000D01*
X2223500Y389000D02*
X2383500Y389000D01*
X2383500Y699000D02*
X2223500Y699000D01*
X2383500Y699000D02*
X2383500Y389000D01*
%TO.C,C16*%
X1077000Y1422000D02*
X1259000Y1422000D01*
X1077000Y1330000D02*
X1077000Y1422000D01*
X1259000Y1422000D02*
X1259000Y1330000D01*
X1259000Y1330000D02*
X1077000Y1330000D01*
%TO.C,JP4*%
X1065000Y1622000D02*
X1285000Y1622000D01*
X1065000Y1528000D02*
X1065000Y1622000D01*
X1285000Y1622000D02*
X1285000Y1528000D01*
X1285000Y1528000D02*
X1065000Y1528000D01*
%TO.C,R4*%
X783000Y1028000D02*
X877000Y1028000D01*
X783000Y842000D02*
X783000Y1028000D01*
X877000Y1028000D02*
X877000Y842000D01*
X877000Y842000D02*
X783000Y842000D01*
%TO.C,Y1*%
X3535000Y1353000D02*
X3535000Y933000D01*
X3535000Y933000D02*
X3875000Y933000D01*
X3875000Y1353000D02*
X3535000Y1353000D01*
X3875000Y933000D02*
X3875000Y1353000D01*
%TO.C,R8*%
X705000Y464000D02*
X891000Y464000D01*
X705000Y370000D02*
X705000Y464000D01*
X891000Y464000D02*
X891000Y370000D01*
X891000Y370000D02*
X705000Y370000D01*
%TO.C,D1*%
X440000Y1595000D02*
X440000Y1785000D01*
X840000Y1785000D02*
X440000Y1785000D01*
X840000Y1595000D02*
X440000Y1595000D01*
X840000Y1595000D02*
X840000Y1785000D01*
%TO.C,D3*%
X332000Y493000D02*
X628000Y493000D01*
X332000Y347000D02*
X332000Y493000D01*
X628000Y493000D02*
X628000Y347000D01*
X628000Y347000D02*
X332000Y347000D01*
%TO.C,H4*%
X262803Y1700000D02*
G75*
G02*
X39197Y1700000I-111803J0D01*
G01*
X39197Y1700000D02*
G75*
G02*
X262803Y1700000I111803J0D01*
G01*
%TO.C,H1*%
X262803Y400000D02*
G75*
G02*
X39197Y400000I-111803J0D01*
G01*
X39197Y400000D02*
G75*
G02*
X262803Y400000I111803J0D01*
G01*
%TO.C,SW1*%
X945000Y690000D02*
X1535000Y690000D01*
X1535000Y370000D01*
X945000Y370000D01*
X945000Y690000D01*
%TO.C,C18*%
X3628000Y1479000D02*
X3810000Y1479000D01*
X3628000Y1387000D02*
X3628000Y1479000D01*
X3810000Y1479000D02*
X3810000Y1387000D01*
X3810000Y1387000D02*
X3628000Y1387000D01*
%TO.C,C7*%
X2006000Y1018000D02*
X2188000Y1018000D01*
X2006000Y926000D02*
X2006000Y1018000D01*
X2188000Y1018000D02*
X2188000Y926000D01*
X2188000Y926000D02*
X2006000Y926000D01*
%TO.C,R6*%
X2012000Y1329500D02*
X2198000Y1329500D01*
X2012000Y1235500D02*
X2012000Y1329500D01*
X2198000Y1329500D02*
X2198000Y1235500D01*
X2198000Y1235500D02*
X2012000Y1235500D01*
%TO.C,J3*%
X-50000Y340000D02*
X-50000Y-20000D01*
X-50000Y-20000D02*
X5135000Y-20000D01*
X5135000Y340000D02*
X-50000Y340000D01*
X5135000Y-20000D02*
X5135000Y340000D01*
%TO.C,C14*%
X1652000Y1673500D02*
X1828000Y1673500D01*
X1652000Y1333500D02*
X1652000Y1673500D01*
X1828000Y1673500D02*
X1828000Y1333500D01*
X1828000Y1333500D02*
X1652000Y1333500D01*
%TO.C,R3*%
X783000Y1533000D02*
X877000Y1533000D01*
X783000Y1347000D02*
X783000Y1533000D01*
X877000Y1533000D02*
X877000Y1347000D01*
X877000Y1347000D02*
X783000Y1347000D01*
%TO.C,U2*%
X1297000Y1740000D02*
X1297000Y1330000D01*
X1297000Y1330000D02*
X1637000Y1330000D01*
X1637000Y1740000D02*
X1297000Y1740000D01*
X1637000Y1330000D02*
X1637000Y1740000D01*
%TO.C,R11*%
X2004000Y880000D02*
X2190000Y880000D01*
X2004000Y786000D02*
X2004000Y880000D01*
X2190000Y880000D02*
X2190000Y786000D01*
X2190000Y786000D02*
X2004000Y786000D01*
%TO.C,SW2*%
X2171500Y368500D02*
X1581500Y368500D01*
X1581500Y688500D01*
X2171500Y688500D01*
X2171500Y368500D01*
%TD*%
M02*
