%TF.GenerationSoftware,KiCad,Pcbnew,9.99.0-1005-g8ef54c3651*%
%TF.CreationDate,2025-04-23T14:57:33+05:30*%
%TF.ProjectId,Mitayi-Pico-RP2040,4d697461-7969-42d5-9069-636f2d525032,0.6*%
%TF.SameCoordinates,PX73df160PY5f2d3c0*%
%TF.FileFunction,Soldermask,Bot*%
%TF.FilePolarity,Negative*%
%FSLAX45Y45*%
G04 Gerber Fmt 4.5, Leading zero omitted, Abs format (unit mm)*
G04 Created by KiCad (PCBNEW 9.99.0-1005-g8ef54c3651) date 2025-04-23 14:57:33*
%MOMM*%
%LPD*%
G01*
G04 APERTURE LIST*
G04 Aperture macros list*
%AMRoundRect*
0 Rectangle with rounded corners*
0 $1 Rounding radius*
0 $2 $3 $4 $5 $6 $7 $8 $9 X,Y pos of 4 corners*
0 Add a 4 corners polygon primitive as box body*
4,1,4,$2,$3,$4,$5,$6,$7,$8,$9,$2,$3,0*
0 Add four circle primitives for the rounded corners*
1,1,$1+$1,$2,$3*
1,1,$1+$1,$4,$5*
1,1,$1+$1,$6,$7*
1,1,$1+$1,$8,$9*
0 Add four rect primitives between the rounded corners*
20,1,$1+$1,$2,$3,$4,$5,0*
20,1,$1+$1,$4,$5,$6,$7,0*
20,1,$1+$1,$6,$7,$8,$9,0*
20,1,$1+$1,$8,$9,$2,$3,0*%
%AMOutline5P*
0 Free polygon, 5 corners , with rotation*
0 The origin of the aperture is its center*
0 number of corners: always 5*
0 $1 to $10 corner X, Y*
0 $11 Rotation angle, in degrees counterclockwise*
0 create outline with 5 corners*
4,1,5,$1,$2,$3,$4,$5,$6,$7,$8,$9,$10,$1,$2,$11*%
%AMOutline6P*
0 Free polygon, 6 corners , with rotation*
0 The origin of the aperture is its center*
0 number of corners: always 6*
0 $1 to $12 corner X, Y*
0 $13 Rotation angle, in degrees counterclockwise*
0 create outline with 6 corners*
4,1,6,$1,$2,$3,$4,$5,$6,$7,$8,$9,$10,$11,$12,$1,$2,$13*%
%AMOutline7P*
0 Free polygon, 7 corners , with rotation*
0 The origin of the aperture is its center*
0 number of corners: always 7*
0 $1 to $14 corner X, Y*
0 $15 Rotation angle, in degrees counterclockwise*
0 create outline with 7 corners*
4,1,7,$1,$2,$3,$4,$5,$6,$7,$8,$9,$10,$11,$12,$13,$14,$1,$2,$15*%
%AMOutline8P*
0 Free polygon, 8 corners , with rotation*
0 The origin of the aperture is its center*
0 number of corners: always 8*
0 $1 to $16 corner X, Y*
0 $17 Rotation angle, in degrees counterclockwise*
0 create outline with 8 corners*
4,1,8,$1,$2,$3,$4,$5,$6,$7,$8,$9,$10,$11,$12,$13,$14,$15,$16,$1,$2,$17*%
G04 Aperture macros list end*
%ADD10C,0.150000*%
%ADD11C,0.000000*%
%ADD12C,1.500000*%
%ADD13R,3.200000X1.600000*%
%ADD14O,1.700000X1.600000*%
%ADD15C,0.650000*%
%ADD16O,2.100000X1.000000*%
%ADD17O,1.600000X1.000000*%
%ADD18R,1.600000X3.200000*%
%ADD19O,1.600000X1.700000*%
%ADD20R,1.600000X1.700000*%
%ADD21RoundRect,0.200000X-0.450000X0.200000X-0.450000X-0.200000X0.450000X-0.200000X0.450000X0.200000X0*%
%ADD22R,1.700000X1.700000*%
%ADD23O,1.700000X1.700000*%
%ADD24Outline5P,-0.400000X0.650000X0.400000X0.650000X0.400000X-0.650000X-0.080000X-0.650000X-0.400000X-0.330000X270.000000*%
G04 APERTURE END LIST*
D10*
X1016977Y1120000D02*
X1016977Y1108571D01*
X1016977Y1108571D02*
X1019834Y1102857D01*
X1019834Y1102857D02*
X1025548Y1097143D01*
X1025548Y1097143D02*
X1036977Y1094286D01*
X1036977Y1094286D02*
X1056977Y1094286D01*
X1056977Y1094286D02*
X1068406Y1097143D01*
X1068406Y1097143D02*
X1074120Y1102857D01*
X1074120Y1102857D02*
X1076977Y1108571D01*
X1076977Y1108571D02*
X1076977Y1120000D01*
X1076977Y1120000D02*
X1074120Y1125714D01*
X1074120Y1125714D02*
X1068406Y1131429D01*
X1068406Y1131429D02*
X1056977Y1134286D01*
X1056977Y1134286D02*
X1036977Y1134286D01*
X1036977Y1134286D02*
X1025548Y1131429D01*
X1025548Y1131429D02*
X1019834Y1125714D01*
X1019834Y1125714D02*
X1016977Y1120000D01*
X1074120Y1071429D02*
X1076977Y1062857D01*
X1076977Y1062857D02*
X1076977Y1048571D01*
X1076977Y1048571D02*
X1074120Y1042857D01*
X1074120Y1042857D02*
X1071263Y1040000D01*
X1071263Y1040000D02*
X1065549Y1037143D01*
X1065549Y1037143D02*
X1059834Y1037143D01*
X1059834Y1037143D02*
X1054120Y1040000D01*
X1054120Y1040000D02*
X1051263Y1042857D01*
X1051263Y1042857D02*
X1048406Y1048571D01*
X1048406Y1048571D02*
X1045548Y1060000D01*
X1045548Y1060000D02*
X1042691Y1065714D01*
X1042691Y1065714D02*
X1039834Y1068571D01*
X1039834Y1068571D02*
X1034120Y1071429D01*
X1034120Y1071429D02*
X1028406Y1071429D01*
X1028406Y1071429D02*
X1022691Y1068571D01*
X1022691Y1068571D02*
X1019834Y1065714D01*
X1019834Y1065714D02*
X1016977Y1060000D01*
X1016977Y1060000D02*
X1016977Y1045714D01*
X1016977Y1045714D02*
X1019834Y1037143D01*
X1076977Y1011428D02*
X1016977Y1011428D01*
X1045548Y1011428D02*
X1045548Y977143D01*
X1076977Y977143D02*
X1016977Y977143D01*
X1016977Y954286D02*
X1076977Y940000D01*
X1076977Y940000D02*
X1034120Y928571D01*
X1034120Y928571D02*
X1076977Y917143D01*
X1076977Y917143D02*
X1016977Y902857D01*
D11*
%TO.C,G\u002A\u002A\u002A*%
G36*
X851998Y1185043D02*
G01*
X856699Y1185032D01*
X861084Y1185005D01*
X865020Y1184964D01*
X868376Y1184911D01*
X871020Y1184849D01*
X872819Y1184778D01*
X873643Y1184702D01*
X873744Y1184675D01*
X874114Y1184554D01*
X874437Y1184340D01*
X874738Y1183933D01*
X875043Y1183234D01*
X875375Y1182143D01*
X875760Y1180561D01*
X876222Y1178387D01*
X876787Y1175522D01*
X877478Y1171868D01*
X878321Y1167323D01*
X879341Y1161788D01*
X879678Y1159969D01*
X880690Y1154623D01*
X881548Y1150307D01*
X882264Y1146971D01*
X882850Y1144565D01*
X883315Y1143038D01*
X883671Y1142342D01*
X883675Y1142338D01*
X884436Y1141898D01*
X886074Y1141129D01*
X888429Y1140096D01*
X891344Y1138861D01*
X894662Y1137488D01*
X898224Y1136040D01*
X901873Y1134580D01*
X905450Y1133172D01*
X908798Y1131877D01*
X911759Y1130761D01*
X914174Y1129885D01*
X915886Y1129314D01*
X916737Y1129109D01*
X917397Y1129390D01*
X918870Y1130235D01*
X921036Y1131575D01*
X923785Y1133339D01*
X927007Y1135456D01*
X930590Y1137854D01*
X934426Y1140464D01*
X938107Y1142970D01*
X941704Y1145379D01*
X944943Y1147508D01*
X947714Y1149288D01*
X949907Y1150647D01*
X951412Y1151514D01*
X952118Y1151819D01*
X952186Y1151808D01*
X953046Y1151276D01*
X954651Y1149942D01*
X956992Y1147812D01*
X960062Y1144895D01*
X963852Y1141198D01*
X968353Y1136730D01*
X969668Y1135413D01*
X973924Y1131114D01*
X977382Y1127555D01*
X980053Y1124722D01*
X981947Y1122606D01*
X983076Y1121193D01*
X983450Y1120473D01*
X983208Y1119880D01*
X982399Y1118452D01*
X981092Y1116327D01*
X979357Y1113616D01*
X977266Y1110432D01*
X974891Y1106885D01*
X972303Y1103088D01*
X969996Y1099705D01*
X967594Y1096125D01*
X965469Y1092894D01*
X963691Y1090124D01*
X962334Y1087926D01*
X961467Y1086414D01*
X961163Y1085697D01*
X961218Y1085405D01*
X961689Y1084151D01*
X962562Y1082224D01*
X963745Y1079829D01*
X965141Y1077167D01*
X965414Y1076659D01*
X966907Y1073759D01*
X968010Y1071402D01*
X968662Y1069723D01*
X968804Y1068859D01*
X968364Y1068498D01*
X966993Y1067758D01*
X964680Y1066655D01*
X961408Y1065184D01*
X957165Y1063337D01*
X951933Y1061108D01*
X945700Y1058490D01*
X938449Y1055478D01*
X932350Y1052954D01*
X925640Y1050179D01*
X919834Y1047779D01*
X914864Y1045729D01*
X910664Y1044001D01*
X907166Y1042569D01*
X904305Y1041407D01*
X902013Y1040488D01*
X900224Y1039786D01*
X898870Y1039274D01*
X897886Y1038927D01*
X897204Y1038716D01*
X896758Y1038617D01*
X896480Y1038602D01*
X896305Y1038645D01*
X896165Y1038720D01*
X896127Y1038746D01*
X895494Y1039423D01*
X894393Y1040803D01*
X892967Y1042698D01*
X891360Y1044924D01*
X887404Y1050005D01*
X882389Y1055126D01*
X876999Y1059247D01*
X871168Y1062411D01*
X864826Y1064661D01*
X857905Y1066040D01*
X852407Y1066406D01*
X845789Y1065901D01*
X839378Y1064410D01*
X833270Y1061997D01*
X827561Y1058731D01*
X822349Y1054677D01*
X817728Y1049901D01*
X813796Y1044470D01*
X810648Y1038450D01*
X808381Y1031908D01*
X807789Y1029111D01*
X807259Y1024284D01*
X807179Y1019160D01*
X807548Y1014173D01*
X808367Y1009754D01*
X810367Y1003757D01*
X813514Y997470D01*
X817526Y991798D01*
X822335Y986813D01*
X827868Y982586D01*
X834057Y979189D01*
X840831Y976693D01*
X842472Y976253D01*
X844515Y975839D01*
X846691Y975590D01*
X849324Y975470D01*
X852739Y975447D01*
X855550Y975489D01*
X859386Y975720D01*
X862715Y976229D01*
X865894Y977099D01*
X869280Y978413D01*
X873231Y980257D01*
X873736Y980506D01*
X876213Y981790D01*
X878206Y982997D01*
X880020Y984351D01*
X881964Y986078D01*
X884343Y988401D01*
X886491Y990659D01*
X888863Y993372D01*
X890996Y996020D01*
X892603Y998261D01*
X893390Y999449D01*
X894818Y1001394D01*
X895893Y1002488D01*
X896702Y1002830D01*
X897370Y1002638D01*
X898967Y1002056D01*
X901385Y1001126D01*
X904519Y999890D01*
X908268Y998391D01*
X912528Y996671D01*
X917198Y994772D01*
X922174Y992737D01*
X927355Y990609D01*
X932638Y988429D01*
X937919Y986240D01*
X943098Y984085D01*
X948070Y982006D01*
X952734Y980045D01*
X956986Y978245D01*
X960726Y976648D01*
X963849Y975297D01*
X966253Y974233D01*
X967836Y973500D01*
X968495Y973140D01*
X968579Y973051D01*
X968782Y972620D01*
X968740Y971956D01*
X968395Y970909D01*
X967690Y969333D01*
X966569Y967080D01*
X964974Y964002D01*
X960623Y955677D01*
X964204Y950314D01*
X964803Y949422D01*
X966426Y947022D01*
X968464Y944027D01*
X970772Y940650D01*
X973205Y937103D01*
X975617Y933598D01*
X977266Y931182D01*
X979262Y928185D01*
X980964Y925544D01*
X982287Y923397D01*
X983144Y921881D01*
X983449Y921132D01*
X983429Y921046D01*
X982888Y920228D01*
X981679Y918784D01*
X979905Y916816D01*
X977668Y914425D01*
X975069Y911713D01*
X972212Y908784D01*
X969199Y905738D01*
X966131Y902679D01*
X963111Y899707D01*
X960241Y896925D01*
X957624Y894436D01*
X955361Y892341D01*
X953555Y890743D01*
X952308Y889743D01*
X951722Y889443D01*
X951116Y889804D01*
X949698Y890723D01*
X947582Y892129D01*
X944874Y893947D01*
X941684Y896106D01*
X938118Y898532D01*
X934284Y901155D01*
X930527Y903716D01*
X926952Y906122D01*
X923745Y908249D01*
X921016Y910026D01*
X918872Y911382D01*
X917422Y912247D01*
X916774Y912551D01*
X916575Y912517D01*
X915438Y912161D01*
X913505Y911466D01*
X910928Y910495D01*
X907860Y909309D01*
X904454Y907969D01*
X900861Y906536D01*
X897235Y905073D01*
X893727Y903640D01*
X890490Y902298D01*
X887677Y901109D01*
X885441Y900135D01*
X883932Y899437D01*
X883305Y899076D01*
X883299Y899067D01*
X883075Y898339D01*
X882683Y896653D01*
X882146Y894132D01*
X881490Y890903D01*
X880740Y887090D01*
X879923Y882818D01*
X879063Y878212D01*
X878170Y873423D01*
X877214Y868444D01*
X876409Y864457D01*
X875742Y861406D01*
X875203Y859235D01*
X874777Y857886D01*
X874454Y857304D01*
X873721Y857117D01*
X872022Y856949D01*
X869517Y856811D01*
X866352Y856702D01*
X862674Y856621D01*
X858631Y856569D01*
X854370Y856545D01*
X850038Y856549D01*
X845783Y856581D01*
X841751Y856641D01*
X838090Y856729D01*
X834948Y856844D01*
X832471Y856987D01*
X830808Y857157D01*
X830104Y857354D01*
X830084Y857384D01*
X829824Y858209D01*
X829396Y859985D01*
X828825Y862586D01*
X828138Y865889D01*
X827360Y869769D01*
X826518Y874102D01*
X825637Y878764D01*
X824747Y883464D01*
X823866Y887954D01*
X823059Y891911D01*
X822348Y895224D01*
X821759Y897781D01*
X821314Y899470D01*
X821038Y900180D01*
X820481Y900522D01*
X819017Y901252D01*
X816826Y902274D01*
X814066Y903520D01*
X810895Y904924D01*
X807470Y906417D01*
X803950Y907931D01*
X800492Y909398D01*
X797255Y910751D01*
X794396Y911921D01*
X792074Y912841D01*
X790446Y913443D01*
X789671Y913659D01*
X789607Y913646D01*
X788777Y913219D01*
X787164Y912242D01*
X784873Y910783D01*
X782008Y908910D01*
X778674Y906691D01*
X774976Y904196D01*
X771018Y901491D01*
X770172Y900910D01*
X766267Y898244D01*
X762651Y895801D01*
X759426Y893648D01*
X756696Y891854D01*
X754564Y890487D01*
X753136Y889615D01*
X752513Y889306D01*
X751953Y889681D01*
X750723Y890746D01*
X748928Y892398D01*
X746672Y894534D01*
X744058Y897050D01*
X741192Y899844D01*
X738176Y902812D01*
X735115Y905851D01*
X732112Y908858D01*
X729273Y911729D01*
X726700Y914361D01*
X724498Y916651D01*
X722770Y918496D01*
X721621Y919793D01*
X721155Y920438D01*
X721205Y920783D01*
X721742Y921931D01*
X722852Y923843D01*
X724550Y926547D01*
X726854Y930066D01*
X729780Y934428D01*
X733343Y939658D01*
X734232Y940957D01*
X736911Y944895D01*
X739361Y948532D01*
X741516Y951769D01*
X743309Y954501D01*
X744673Y956628D01*
X745540Y958047D01*
X745844Y958658D01*
X745771Y959009D01*
X745335Y960324D01*
X744561Y962398D01*
X743519Y965066D01*
X742275Y968168D01*
X740897Y971541D01*
X739454Y975021D01*
X738012Y978447D01*
X736639Y981655D01*
X735403Y984484D01*
X734371Y986770D01*
X733612Y988351D01*
X733192Y989065D01*
X732762Y989305D01*
X731460Y989730D01*
X729287Y990280D01*
X726200Y990963D01*
X722154Y991790D01*
X717103Y992771D01*
X711003Y993915D01*
X709892Y994122D01*
X705225Y995003D01*
X700915Y995840D01*
X697083Y996607D01*
X693852Y997279D01*
X691344Y997830D01*
X689681Y998236D01*
X688987Y998471D01*
X688798Y999122D01*
X688626Y1000745D01*
X688482Y1003189D01*
X688365Y1006304D01*
X688276Y1009945D01*
X688214Y1013963D01*
X688181Y1018212D01*
X688175Y1022543D01*
X688198Y1026811D01*
X688248Y1030867D01*
X688328Y1034565D01*
X688436Y1037756D01*
X688573Y1040294D01*
X688739Y1042032D01*
X688935Y1042822D01*
X689308Y1043058D01*
X690468Y1043458D01*
X692439Y1043968D01*
X695278Y1044600D01*
X699041Y1045367D01*
X703785Y1046282D01*
X709566Y1047356D01*
X712397Y1047876D01*
X717659Y1048847D01*
X721971Y1049654D01*
X725430Y1050320D01*
X728133Y1050865D01*
X730174Y1051312D01*
X731649Y1051681D01*
X732656Y1051995D01*
X733290Y1052276D01*
X733646Y1052544D01*
X733822Y1052821D01*
X733835Y1052853D01*
X734160Y1053648D01*
X734844Y1055313D01*
X735828Y1057709D01*
X737056Y1060699D01*
X738472Y1064145D01*
X740020Y1067909D01*
X740852Y1069939D01*
X742451Y1073881D01*
X743668Y1076972D01*
X744544Y1079327D01*
X745118Y1081062D01*
X745429Y1082290D01*
X745517Y1083129D01*
X745422Y1083694D01*
X745412Y1083718D01*
X744947Y1084535D01*
X743930Y1086146D01*
X742432Y1088438D01*
X740527Y1091302D01*
X738290Y1094628D01*
X735792Y1098306D01*
X733107Y1102225D01*
X732857Y1102588D01*
X730204Y1106461D01*
X727757Y1110059D01*
X725587Y1113277D01*
X723766Y1116009D01*
X722363Y1118148D01*
X721449Y1119589D01*
X721095Y1120225D01*
X721196Y1120500D01*
X721985Y1121549D01*
X723517Y1123300D01*
X725756Y1125712D01*
X728666Y1128747D01*
X732209Y1132364D01*
X736349Y1136525D01*
X736487Y1136662D01*
X740440Y1140599D01*
X743695Y1143813D01*
X746325Y1146372D01*
X748405Y1148343D01*
X750007Y1149791D01*
X751206Y1150785D01*
X752076Y1151390D01*
X752690Y1151675D01*
X753123Y1151705D01*
X753141Y1151701D01*
X753929Y1151302D01*
X755510Y1150346D01*
X757775Y1148905D01*
X760614Y1147051D01*
X763918Y1144854D01*
X767575Y1142387D01*
X771477Y1139721D01*
X775297Y1137115D01*
X779043Y1134602D01*
X782389Y1132400D01*
X785235Y1130573D01*
X787479Y1129188D01*
X789019Y1128309D01*
X789754Y1128001D01*
X790118Y1128069D01*
X791471Y1128509D01*
X793583Y1129300D01*
X796290Y1130371D01*
X799432Y1131656D01*
X802847Y1133083D01*
X806372Y1134585D01*
X809847Y1136091D01*
X813110Y1137533D01*
X815998Y1138842D01*
X818351Y1139948D01*
X820006Y1140783D01*
X820803Y1141277D01*
X821031Y1141604D01*
X821393Y1142489D01*
X821823Y1143954D01*
X822340Y1146084D01*
X822964Y1148964D01*
X823714Y1152679D01*
X824609Y1157316D01*
X825668Y1162960D01*
X826068Y1165110D01*
X827086Y1170475D01*
X827944Y1174847D01*
X828661Y1178298D01*
X829252Y1180902D01*
X829733Y1182731D01*
X830121Y1183858D01*
X830432Y1184358D01*
X830635Y1184459D01*
X831439Y1184632D01*
X832846Y1184770D01*
X834940Y1184877D01*
X837807Y1184955D01*
X841529Y1185007D01*
X846190Y1185035D01*
X851875Y1185043D01*
X851998Y1185043D01*
G37*
%TD*%
D12*
%TO.C,H3*%
X4951000Y1700000D03*
%TD*%
D13*
%TO.C,J5*%
X5101000Y795000D03*
D14*
X4940000Y795000D03*
D13*
X5101000Y1049000D03*
D14*
X4940000Y1049000D03*
D13*
X5101000Y1303000D03*
D14*
X4940000Y1303000D03*
%TD*%
D12*
%TO.C,H2*%
X4951000Y400000D03*
%TD*%
D15*
%TO.C,J2*%
X503000Y1340000D03*
X503000Y762000D03*
D16*
X556000Y1483000D03*
D17*
X138000Y1483000D03*
D16*
X556000Y619000D03*
D17*
X138000Y619000D03*
%TD*%
D12*
%TO.C,H4*%
X151000Y1700000D03*
%TD*%
%TO.C,H1*%
X151000Y400000D03*
%TD*%
D18*
%TO.C,J3*%
X130000Y-1000D03*
D19*
X130000Y160000D03*
D18*
X384000Y-1000D03*
D19*
X384000Y160000D03*
D18*
X638000Y-1000D03*
D19*
X638000Y160000D03*
D18*
X892000Y-1000D03*
D19*
X892000Y160000D03*
D18*
X1146000Y-1000D03*
D19*
X1146000Y160000D03*
D18*
X1400000Y-1000D03*
D19*
X1400000Y160000D03*
D18*
X1654000Y-1000D03*
D19*
X1654000Y160000D03*
D18*
X1908000Y-1000D03*
D19*
X1908000Y160000D03*
D18*
X2162000Y-1000D03*
D19*
X2162000Y160000D03*
D18*
X2416000Y-1000D03*
D19*
X2416000Y160000D03*
D18*
X2670000Y-1000D03*
D19*
X2670000Y160000D03*
D18*
X2924000Y-1000D03*
D19*
X2924000Y160000D03*
D18*
X3178000Y-1000D03*
D19*
X3178000Y160000D03*
D18*
X3432000Y-1000D03*
D19*
X3432000Y160000D03*
D18*
X3686000Y-1000D03*
D19*
X3686000Y160000D03*
D18*
X3940000Y-1000D03*
D19*
X3940000Y160000D03*
D18*
X4194000Y-1000D03*
D19*
X4194000Y160000D03*
D18*
X4448000Y-1000D03*
D19*
X4448000Y160000D03*
D18*
X4702000Y-1000D03*
D19*
X4702000Y160000D03*
D18*
X4956000Y-1000D03*
D20*
X4956000Y160000D03*
%TD*%
D21*
%TO.C,J9*%
X137500Y985833D03*
%TD*%
D22*
%TO.C,J1*%
X4340000Y667500D03*
D23*
X4594000Y667500D03*
X4340000Y921500D03*
X4594000Y921500D03*
X4340000Y1175500D03*
X4594000Y1175500D03*
X4340000Y1429500D03*
X4594000Y1429500D03*
%TD*%
D18*
%TO.C,J4*%
X130000Y2101000D03*
D19*
X130000Y1940000D03*
D18*
X384000Y2101000D03*
D19*
X384000Y1940000D03*
D18*
X638000Y2101000D03*
D20*
X638000Y1940000D03*
D18*
X892000Y2101000D03*
D19*
X892000Y1940000D03*
D18*
X1146000Y2101000D03*
D19*
X1146000Y1940000D03*
D18*
X1400000Y2101000D03*
D19*
X1400000Y1940000D03*
D18*
X1654000Y2101000D03*
D19*
X1654000Y1940000D03*
D18*
X1908000Y2101000D03*
D19*
X1908000Y1940000D03*
D18*
X2162000Y2101000D03*
D19*
X2162000Y1940000D03*
D18*
X2416000Y2101000D03*
D19*
X2416000Y1940000D03*
D18*
X2670000Y2101000D03*
D19*
X2670000Y1940000D03*
D18*
X2924000Y2101000D03*
D20*
X2924000Y1940000D03*
D18*
X3178000Y2101000D03*
D19*
X3178000Y1940000D03*
D18*
X3432000Y2101000D03*
D19*
X3432000Y1940000D03*
D18*
X3686000Y2101000D03*
D19*
X3686000Y1940000D03*
D18*
X3940000Y2101000D03*
D19*
X3940000Y1940000D03*
D18*
X4194000Y2101000D03*
D19*
X4194000Y1940000D03*
D18*
X4448000Y2101000D03*
D19*
X4448000Y1940000D03*
D18*
X4702000Y2101000D03*
D19*
X4702000Y1940000D03*
D18*
X4956000Y2101000D03*
D20*
X4956000Y1940000D03*
%TD*%
D21*
%TO.C,J8*%
X137500Y1114167D03*
%TD*%
%TO.C,J7*%
X137500Y857500D03*
%TD*%
D24*
%TO.C,J10*%
X137500Y1242500D03*
%TD*%
M02*
