%TF.GenerationSoftware,KiCad,Pcbnew,9.99.0-1005-g8ef54c3651*%
%TF.CreationDate,2025-04-23T14:57:33+05:30*%
%TF.ProjectId,Mitayi-Pico-RP2040,4d697461-7969-42d5-9069-636f2d525032,0.6*%
%TF.SameCoordinates,PX73df160PY5f2d3c0*%
%TF.FileFunction,OtherDrawing,Comment*%
%FSLAX45Y45*%
G04 Gerber Fmt 4.5, Leading zero omitted, Abs format (unit mm)*
G04 Created by KiCad (PCBNEW 9.99.0-1005-g8ef54c3651) date 2025-04-23 14:57:33*
%MOMM*%
%LPD*%
G01*
G04 APERTURE LIST*
%ADD10C,0.150000*%
G04 APERTURE END LIST*
D10*
X5760482Y645238D02*
X5760482Y588095D01*
X5760482Y616667D02*
X5660482Y616667D01*
X5660482Y616667D02*
X5674768Y607143D01*
X5674768Y607143D02*
X5684291Y597619D01*
X5684291Y597619D02*
X5689053Y588095D01*
X5660482Y678572D02*
X5660482Y740476D01*
X5660482Y740476D02*
X5698577Y707143D01*
X5698577Y707143D02*
X5698577Y721429D01*
X5698577Y721429D02*
X5703339Y730952D01*
X5703339Y730952D02*
X5708101Y735714D01*
X5708101Y735714D02*
X5717625Y740476D01*
X5717625Y740476D02*
X5741434Y740476D01*
X5741434Y740476D02*
X5750958Y735714D01*
X5750958Y735714D02*
X5755720Y730952D01*
X5755720Y730952D02*
X5760482Y721429D01*
X5760482Y721429D02*
X5760482Y692857D01*
X5760482Y692857D02*
X5755720Y683334D01*
X5755720Y683334D02*
X5750958Y678572D01*
X5750958Y783333D02*
X5755720Y788095D01*
X5755720Y788095D02*
X5760482Y783333D01*
X5760482Y783333D02*
X5755720Y778572D01*
X5755720Y778572D02*
X5750958Y783333D01*
X5750958Y783333D02*
X5760482Y783333D01*
X5660482Y850000D02*
X5660482Y859524D01*
X5660482Y859524D02*
X5665244Y869048D01*
X5665244Y869048D02*
X5670006Y873810D01*
X5670006Y873810D02*
X5679529Y878571D01*
X5679529Y878571D02*
X5698577Y883333D01*
X5698577Y883333D02*
X5722387Y883333D01*
X5722387Y883333D02*
X5741434Y878571D01*
X5741434Y878571D02*
X5750958Y873810D01*
X5750958Y873810D02*
X5755720Y869048D01*
X5755720Y869048D02*
X5760482Y859524D01*
X5760482Y859524D02*
X5760482Y850000D01*
X5760482Y850000D02*
X5755720Y840476D01*
X5755720Y840476D02*
X5750958Y835714D01*
X5750958Y835714D02*
X5741434Y830952D01*
X5741434Y830952D02*
X5722387Y826191D01*
X5722387Y826191D02*
X5698577Y826191D01*
X5698577Y826191D02*
X5679529Y830952D01*
X5679529Y830952D02*
X5670006Y835714D01*
X5670006Y835714D02*
X5665244Y840476D01*
X5665244Y840476D02*
X5660482Y850000D01*
X5660482Y945238D02*
X5660482Y954762D01*
X5660482Y954762D02*
X5665244Y964286D01*
X5665244Y964286D02*
X5670006Y969048D01*
X5670006Y969048D02*
X5679529Y973810D01*
X5679529Y973810D02*
X5698577Y978571D01*
X5698577Y978571D02*
X5722387Y978571D01*
X5722387Y978571D02*
X5741434Y973810D01*
X5741434Y973810D02*
X5750958Y969048D01*
X5750958Y969048D02*
X5755720Y964286D01*
X5755720Y964286D02*
X5760482Y954762D01*
X5760482Y954762D02*
X5760482Y945238D01*
X5760482Y945238D02*
X5755720Y935714D01*
X5755720Y935714D02*
X5750958Y930952D01*
X5750958Y930952D02*
X5741434Y926191D01*
X5741434Y926191D02*
X5722387Y921429D01*
X5722387Y921429D02*
X5698577Y921429D01*
X5698577Y921429D02*
X5679529Y926191D01*
X5679529Y926191D02*
X5670006Y930952D01*
X5670006Y930952D02*
X5665244Y935714D01*
X5665244Y935714D02*
X5660482Y945238D01*
X5660482Y1040476D02*
X5660482Y1050000D01*
X5660482Y1050000D02*
X5665244Y1059524D01*
X5665244Y1059524D02*
X5670006Y1064286D01*
X5670006Y1064286D02*
X5679529Y1069048D01*
X5679529Y1069048D02*
X5698577Y1073810D01*
X5698577Y1073810D02*
X5722387Y1073810D01*
X5722387Y1073810D02*
X5741434Y1069048D01*
X5741434Y1069048D02*
X5750958Y1064286D01*
X5750958Y1064286D02*
X5755720Y1059524D01*
X5755720Y1059524D02*
X5760482Y1050000D01*
X5760482Y1050000D02*
X5760482Y1040476D01*
X5760482Y1040476D02*
X5755720Y1030952D01*
X5755720Y1030952D02*
X5750958Y1026191D01*
X5750958Y1026191D02*
X5741434Y1021429D01*
X5741434Y1021429D02*
X5722387Y1016667D01*
X5722387Y1016667D02*
X5698577Y1016667D01*
X5698577Y1016667D02*
X5679529Y1021429D01*
X5679529Y1021429D02*
X5670006Y1026191D01*
X5670006Y1026191D02*
X5665244Y1030952D01*
X5665244Y1030952D02*
X5660482Y1040476D01*
X5660482Y1135714D02*
X5660482Y1145238D01*
X5660482Y1145238D02*
X5665244Y1154762D01*
X5665244Y1154762D02*
X5670006Y1159524D01*
X5670006Y1159524D02*
X5679529Y1164286D01*
X5679529Y1164286D02*
X5698577Y1169048D01*
X5698577Y1169048D02*
X5722387Y1169048D01*
X5722387Y1169048D02*
X5741434Y1164286D01*
X5741434Y1164286D02*
X5750958Y1159524D01*
X5750958Y1159524D02*
X5755720Y1154762D01*
X5755720Y1154762D02*
X5760482Y1145238D01*
X5760482Y1145238D02*
X5760482Y1135714D01*
X5760482Y1135714D02*
X5755720Y1126191D01*
X5755720Y1126191D02*
X5750958Y1121429D01*
X5750958Y1121429D02*
X5741434Y1116667D01*
X5741434Y1116667D02*
X5722387Y1111905D01*
X5722387Y1111905D02*
X5698577Y1111905D01*
X5698577Y1111905D02*
X5679529Y1116667D01*
X5679529Y1116667D02*
X5670006Y1121429D01*
X5670006Y1121429D02*
X5665244Y1126191D01*
X5665244Y1126191D02*
X5660482Y1135714D01*
X5760482Y1288095D02*
X5693815Y1288095D01*
X5703339Y1288095D02*
X5698577Y1292857D01*
X5698577Y1292857D02*
X5693815Y1302381D01*
X5693815Y1302381D02*
X5693815Y1316667D01*
X5693815Y1316667D02*
X5698577Y1326191D01*
X5698577Y1326191D02*
X5708101Y1330953D01*
X5708101Y1330953D02*
X5760482Y1330953D01*
X5708101Y1330953D02*
X5698577Y1335714D01*
X5698577Y1335714D02*
X5693815Y1345238D01*
X5693815Y1345238D02*
X5693815Y1359524D01*
X5693815Y1359524D02*
X5698577Y1369048D01*
X5698577Y1369048D02*
X5708101Y1373810D01*
X5708101Y1373810D02*
X5760482Y1373810D01*
X5760482Y1421429D02*
X5693815Y1421429D01*
X5703339Y1421429D02*
X5698577Y1426191D01*
X5698577Y1426191D02*
X5693815Y1435714D01*
X5693815Y1435714D02*
X5693815Y1450000D01*
X5693815Y1450000D02*
X5698577Y1459524D01*
X5698577Y1459524D02*
X5708101Y1464286D01*
X5708101Y1464286D02*
X5760482Y1464286D01*
X5708101Y1464286D02*
X5698577Y1469048D01*
X5698577Y1469048D02*
X5693815Y1478571D01*
X5693815Y1478571D02*
X5693815Y1492857D01*
X5693815Y1492857D02*
X5698577Y1502381D01*
X5698577Y1502381D02*
X5708101Y1507143D01*
X5708101Y1507143D02*
X5760482Y1507143D01*
X5001000Y400000D02*
X5888642Y400000D01*
X5001000Y1700000D02*
X5888642Y1700000D01*
X5830000Y400000D02*
X5830000Y1700000D01*
X5830000Y400000D02*
X5771358Y512650D01*
X5830000Y400000D02*
X5888642Y512650D01*
X5830000Y1700000D02*
X5888642Y1587350D01*
X5830000Y1700000D02*
X5771358Y1587350D01*
X-709994Y588095D02*
X-714756Y592857D01*
X-714756Y592857D02*
X-719518Y602381D01*
X-719518Y602381D02*
X-719518Y626191D01*
X-719518Y626191D02*
X-714756Y635714D01*
X-714756Y635714D02*
X-709994Y640476D01*
X-709994Y640476D02*
X-700470Y645238D01*
X-700470Y645238D02*
X-690947Y645238D01*
X-690947Y645238D02*
X-676661Y640476D01*
X-676661Y640476D02*
X-619518Y583334D01*
X-619518Y583334D02*
X-619518Y645238D01*
X-619518Y740476D02*
X-619518Y683334D01*
X-619518Y711905D02*
X-719518Y711905D01*
X-719518Y711905D02*
X-705232Y702381D01*
X-705232Y702381D02*
X-695709Y692857D01*
X-695709Y692857D02*
X-690947Y683334D01*
X-629042Y783333D02*
X-624280Y788095D01*
X-624280Y788095D02*
X-619518Y783333D01*
X-619518Y783333D02*
X-624280Y778572D01*
X-624280Y778572D02*
X-629042Y783333D01*
X-629042Y783333D02*
X-619518Y783333D01*
X-719518Y850000D02*
X-719518Y859524D01*
X-719518Y859524D02*
X-714756Y869048D01*
X-714756Y869048D02*
X-709994Y873810D01*
X-709994Y873810D02*
X-700470Y878571D01*
X-700470Y878571D02*
X-681423Y883333D01*
X-681423Y883333D02*
X-657613Y883333D01*
X-657613Y883333D02*
X-638566Y878571D01*
X-638566Y878571D02*
X-629042Y873810D01*
X-629042Y873810D02*
X-624280Y869048D01*
X-624280Y869048D02*
X-619518Y859524D01*
X-619518Y859524D02*
X-619518Y850000D01*
X-619518Y850000D02*
X-624280Y840476D01*
X-624280Y840476D02*
X-629042Y835714D01*
X-629042Y835714D02*
X-638566Y830952D01*
X-638566Y830952D02*
X-657613Y826191D01*
X-657613Y826191D02*
X-681423Y826191D01*
X-681423Y826191D02*
X-700470Y830952D01*
X-700470Y830952D02*
X-709994Y835714D01*
X-709994Y835714D02*
X-714756Y840476D01*
X-714756Y840476D02*
X-719518Y850000D01*
X-719518Y945238D02*
X-719518Y954762D01*
X-719518Y954762D02*
X-714756Y964286D01*
X-714756Y964286D02*
X-709994Y969048D01*
X-709994Y969048D02*
X-700470Y973810D01*
X-700470Y973810D02*
X-681423Y978571D01*
X-681423Y978571D02*
X-657613Y978571D01*
X-657613Y978571D02*
X-638566Y973810D01*
X-638566Y973810D02*
X-629042Y969048D01*
X-629042Y969048D02*
X-624280Y964286D01*
X-624280Y964286D02*
X-619518Y954762D01*
X-619518Y954762D02*
X-619518Y945238D01*
X-619518Y945238D02*
X-624280Y935714D01*
X-624280Y935714D02*
X-629042Y930952D01*
X-629042Y930952D02*
X-638566Y926191D01*
X-638566Y926191D02*
X-657613Y921429D01*
X-657613Y921429D02*
X-681423Y921429D01*
X-681423Y921429D02*
X-700470Y926191D01*
X-700470Y926191D02*
X-709994Y930952D01*
X-709994Y930952D02*
X-714756Y935714D01*
X-714756Y935714D02*
X-719518Y945238D01*
X-719518Y1040476D02*
X-719518Y1050000D01*
X-719518Y1050000D02*
X-714756Y1059524D01*
X-714756Y1059524D02*
X-709994Y1064286D01*
X-709994Y1064286D02*
X-700470Y1069048D01*
X-700470Y1069048D02*
X-681423Y1073810D01*
X-681423Y1073810D02*
X-657613Y1073810D01*
X-657613Y1073810D02*
X-638566Y1069048D01*
X-638566Y1069048D02*
X-629042Y1064286D01*
X-629042Y1064286D02*
X-624280Y1059524D01*
X-624280Y1059524D02*
X-619518Y1050000D01*
X-619518Y1050000D02*
X-619518Y1040476D01*
X-619518Y1040476D02*
X-624280Y1030952D01*
X-624280Y1030952D02*
X-629042Y1026191D01*
X-629042Y1026191D02*
X-638566Y1021429D01*
X-638566Y1021429D02*
X-657613Y1016667D01*
X-657613Y1016667D02*
X-681423Y1016667D01*
X-681423Y1016667D02*
X-700470Y1021429D01*
X-700470Y1021429D02*
X-709994Y1026191D01*
X-709994Y1026191D02*
X-714756Y1030952D01*
X-714756Y1030952D02*
X-719518Y1040476D01*
X-719518Y1135714D02*
X-719518Y1145238D01*
X-719518Y1145238D02*
X-714756Y1154762D01*
X-714756Y1154762D02*
X-709994Y1159524D01*
X-709994Y1159524D02*
X-700470Y1164286D01*
X-700470Y1164286D02*
X-681423Y1169048D01*
X-681423Y1169048D02*
X-657613Y1169048D01*
X-657613Y1169048D02*
X-638566Y1164286D01*
X-638566Y1164286D02*
X-629042Y1159524D01*
X-629042Y1159524D02*
X-624280Y1154762D01*
X-624280Y1154762D02*
X-619518Y1145238D01*
X-619518Y1145238D02*
X-619518Y1135714D01*
X-619518Y1135714D02*
X-624280Y1126191D01*
X-624280Y1126191D02*
X-629042Y1121429D01*
X-629042Y1121429D02*
X-638566Y1116667D01*
X-638566Y1116667D02*
X-657613Y1111905D01*
X-657613Y1111905D02*
X-681423Y1111905D01*
X-681423Y1111905D02*
X-700470Y1116667D01*
X-700470Y1116667D02*
X-709994Y1121429D01*
X-709994Y1121429D02*
X-714756Y1126191D01*
X-714756Y1126191D02*
X-719518Y1135714D01*
X-619518Y1288095D02*
X-686185Y1288095D01*
X-676661Y1288095D02*
X-681423Y1292857D01*
X-681423Y1292857D02*
X-686185Y1302381D01*
X-686185Y1302381D02*
X-686185Y1316667D01*
X-686185Y1316667D02*
X-681423Y1326191D01*
X-681423Y1326191D02*
X-671899Y1330953D01*
X-671899Y1330953D02*
X-619518Y1330953D01*
X-671899Y1330953D02*
X-681423Y1335714D01*
X-681423Y1335714D02*
X-686185Y1345238D01*
X-686185Y1345238D02*
X-686185Y1359524D01*
X-686185Y1359524D02*
X-681423Y1369048D01*
X-681423Y1369048D02*
X-671899Y1373810D01*
X-671899Y1373810D02*
X-619518Y1373810D01*
X-619518Y1421429D02*
X-686185Y1421429D01*
X-676661Y1421429D02*
X-681423Y1426191D01*
X-681423Y1426191D02*
X-686185Y1435714D01*
X-686185Y1435714D02*
X-686185Y1450000D01*
X-686185Y1450000D02*
X-681423Y1459524D01*
X-681423Y1459524D02*
X-671899Y1464286D01*
X-671899Y1464286D02*
X-619518Y1464286D01*
X-671899Y1464286D02*
X-681423Y1469048D01*
X-681423Y1469048D02*
X-686185Y1478571D01*
X-686185Y1478571D02*
X-686185Y1492857D01*
X-686185Y1492857D02*
X-681423Y1502381D01*
X-681423Y1502381D02*
X-671899Y1507143D01*
X-671899Y1507143D02*
X-619518Y1507143D01*
X-50000Y0D02*
X-608642Y0D01*
X-50000Y2100000D02*
X-608642Y2100000D01*
X-550000Y0D02*
X-550000Y2100000D01*
X-550000Y0D02*
X-608642Y112650D01*
X-550000Y0D02*
X-491358Y112650D01*
X-550000Y2100000D02*
X-491358Y1987350D01*
X-550000Y2100000D02*
X-608642Y1987350D01*
X2140476Y2899518D02*
X2092857Y2899518D01*
X2092857Y2899518D02*
X2088095Y2851899D01*
X2088095Y2851899D02*
X2092857Y2856661D01*
X2092857Y2856661D02*
X2102381Y2861423D01*
X2102381Y2861423D02*
X2126191Y2861423D01*
X2126191Y2861423D02*
X2135714Y2856661D01*
X2135714Y2856661D02*
X2140476Y2851899D01*
X2140476Y2851899D02*
X2145238Y2842375D01*
X2145238Y2842375D02*
X2145238Y2818566D01*
X2145238Y2818566D02*
X2140476Y2809042D01*
X2140476Y2809042D02*
X2135714Y2804280D01*
X2135714Y2804280D02*
X2126191Y2799518D01*
X2126191Y2799518D02*
X2102381Y2799518D01*
X2102381Y2799518D02*
X2092857Y2804280D01*
X2092857Y2804280D02*
X2088095Y2809042D01*
X2240476Y2799518D02*
X2183333Y2799518D01*
X2211905Y2799518D02*
X2211905Y2899518D01*
X2211905Y2899518D02*
X2202381Y2885232D01*
X2202381Y2885232D02*
X2192857Y2875709D01*
X2192857Y2875709D02*
X2183333Y2870947D01*
X2283333Y2809042D02*
X2288095Y2804280D01*
X2288095Y2804280D02*
X2283333Y2799518D01*
X2283333Y2799518D02*
X2278572Y2804280D01*
X2278572Y2804280D02*
X2283333Y2809042D01*
X2283333Y2809042D02*
X2283333Y2799518D01*
X2350000Y2899518D02*
X2359524Y2899518D01*
X2359524Y2899518D02*
X2369048Y2894756D01*
X2369048Y2894756D02*
X2373810Y2889994D01*
X2373810Y2889994D02*
X2378571Y2880470D01*
X2378571Y2880470D02*
X2383333Y2861423D01*
X2383333Y2861423D02*
X2383333Y2837613D01*
X2383333Y2837613D02*
X2378571Y2818566D01*
X2378571Y2818566D02*
X2373810Y2809042D01*
X2373810Y2809042D02*
X2369048Y2804280D01*
X2369048Y2804280D02*
X2359524Y2799518D01*
X2359524Y2799518D02*
X2350000Y2799518D01*
X2350000Y2799518D02*
X2340476Y2804280D01*
X2340476Y2804280D02*
X2335714Y2809042D01*
X2335714Y2809042D02*
X2330952Y2818566D01*
X2330952Y2818566D02*
X2326191Y2837613D01*
X2326191Y2837613D02*
X2326191Y2861423D01*
X2326191Y2861423D02*
X2330952Y2880470D01*
X2330952Y2880470D02*
X2335714Y2889994D01*
X2335714Y2889994D02*
X2340476Y2894756D01*
X2340476Y2894756D02*
X2350000Y2899518D01*
X2445238Y2899518D02*
X2454762Y2899518D01*
X2454762Y2899518D02*
X2464286Y2894756D01*
X2464286Y2894756D02*
X2469048Y2889994D01*
X2469048Y2889994D02*
X2473810Y2880470D01*
X2473810Y2880470D02*
X2478571Y2861423D01*
X2478571Y2861423D02*
X2478571Y2837613D01*
X2478571Y2837613D02*
X2473810Y2818566D01*
X2473810Y2818566D02*
X2469048Y2809042D01*
X2469048Y2809042D02*
X2464286Y2804280D01*
X2464286Y2804280D02*
X2454762Y2799518D01*
X2454762Y2799518D02*
X2445238Y2799518D01*
X2445238Y2799518D02*
X2435714Y2804280D01*
X2435714Y2804280D02*
X2430952Y2809042D01*
X2430952Y2809042D02*
X2426191Y2818566D01*
X2426191Y2818566D02*
X2421429Y2837613D01*
X2421429Y2837613D02*
X2421429Y2861423D01*
X2421429Y2861423D02*
X2426191Y2880470D01*
X2426191Y2880470D02*
X2430952Y2889994D01*
X2430952Y2889994D02*
X2435714Y2894756D01*
X2435714Y2894756D02*
X2445238Y2899518D01*
X2540476Y2899518D02*
X2550000Y2899518D01*
X2550000Y2899518D02*
X2559524Y2894756D01*
X2559524Y2894756D02*
X2564286Y2889994D01*
X2564286Y2889994D02*
X2569048Y2880470D01*
X2569048Y2880470D02*
X2573810Y2861423D01*
X2573810Y2861423D02*
X2573810Y2837613D01*
X2573810Y2837613D02*
X2569048Y2818566D01*
X2569048Y2818566D02*
X2564286Y2809042D01*
X2564286Y2809042D02*
X2559524Y2804280D01*
X2559524Y2804280D02*
X2550000Y2799518D01*
X2550000Y2799518D02*
X2540476Y2799518D01*
X2540476Y2799518D02*
X2530952Y2804280D01*
X2530952Y2804280D02*
X2526191Y2809042D01*
X2526191Y2809042D02*
X2521429Y2818566D01*
X2521429Y2818566D02*
X2516667Y2837613D01*
X2516667Y2837613D02*
X2516667Y2861423D01*
X2516667Y2861423D02*
X2521429Y2880470D01*
X2521429Y2880470D02*
X2526191Y2889994D01*
X2526191Y2889994D02*
X2530952Y2894756D01*
X2530952Y2894756D02*
X2540476Y2899518D01*
X2635714Y2899518D02*
X2645238Y2899518D01*
X2645238Y2899518D02*
X2654762Y2894756D01*
X2654762Y2894756D02*
X2659524Y2889994D01*
X2659524Y2889994D02*
X2664286Y2880470D01*
X2664286Y2880470D02*
X2669048Y2861423D01*
X2669048Y2861423D02*
X2669048Y2837613D01*
X2669048Y2837613D02*
X2664286Y2818566D01*
X2664286Y2818566D02*
X2659524Y2809042D01*
X2659524Y2809042D02*
X2654762Y2804280D01*
X2654762Y2804280D02*
X2645238Y2799518D01*
X2645238Y2799518D02*
X2635714Y2799518D01*
X2635714Y2799518D02*
X2626191Y2804280D01*
X2626191Y2804280D02*
X2621429Y2809042D01*
X2621429Y2809042D02*
X2616667Y2818566D01*
X2616667Y2818566D02*
X2611905Y2837613D01*
X2611905Y2837613D02*
X2611905Y2861423D01*
X2611905Y2861423D02*
X2616667Y2880470D01*
X2616667Y2880470D02*
X2621429Y2889994D01*
X2621429Y2889994D02*
X2626191Y2894756D01*
X2626191Y2894756D02*
X2635714Y2899518D01*
X2788095Y2799518D02*
X2788095Y2866185D01*
X2788095Y2856661D02*
X2792857Y2861423D01*
X2792857Y2861423D02*
X2802381Y2866185D01*
X2802381Y2866185D02*
X2816667Y2866185D01*
X2816667Y2866185D02*
X2826190Y2861423D01*
X2826190Y2861423D02*
X2830952Y2851899D01*
X2830952Y2851899D02*
X2830952Y2799518D01*
X2830952Y2851899D02*
X2835714Y2861423D01*
X2835714Y2861423D02*
X2845238Y2866185D01*
X2845238Y2866185D02*
X2859524Y2866185D01*
X2859524Y2866185D02*
X2869048Y2861423D01*
X2869048Y2861423D02*
X2873810Y2851899D01*
X2873810Y2851899D02*
X2873810Y2799518D01*
X2921429Y2799518D02*
X2921429Y2866185D01*
X2921429Y2856661D02*
X2926190Y2861423D01*
X2926190Y2861423D02*
X2935714Y2866185D01*
X2935714Y2866185D02*
X2950000Y2866185D01*
X2950000Y2866185D02*
X2959524Y2861423D01*
X2959524Y2861423D02*
X2964286Y2851899D01*
X2964286Y2851899D02*
X2964286Y2799518D01*
X2964286Y2851899D02*
X2969048Y2861423D01*
X2969048Y2861423D02*
X2978571Y2866185D01*
X2978571Y2866185D02*
X2992857Y2866185D01*
X2992857Y2866185D02*
X3002381Y2861423D01*
X3002381Y2861423D02*
X3007143Y2851899D01*
X3007143Y2851899D02*
X3007143Y2799518D01*
X0Y2150000D02*
X0Y2788642D01*
X5100000Y2150000D02*
X5100000Y2788642D01*
X0Y2730000D02*
X5100000Y2730000D01*
X0Y2730000D02*
X112650Y2788642D01*
X0Y2730000D02*
X112650Y2671358D01*
X5100000Y2730000D02*
X4987350Y2671358D01*
X5100000Y2730000D02*
X4987350Y2788642D01*
X2136714Y-473815D02*
X2136714Y-540482D01*
X2112905Y-435720D02*
X2089095Y-507148D01*
X2089095Y-507148D02*
X2151000Y-507148D01*
X2203381Y-483339D02*
X2193857Y-478577D01*
X2193857Y-478577D02*
X2189095Y-473815D01*
X2189095Y-473815D02*
X2184333Y-464291D01*
X2184333Y-464291D02*
X2184333Y-459529D01*
X2184333Y-459529D02*
X2189095Y-450006D01*
X2189095Y-450006D02*
X2193857Y-445244D01*
X2193857Y-445244D02*
X2203381Y-440482D01*
X2203381Y-440482D02*
X2222429Y-440482D01*
X2222429Y-440482D02*
X2231952Y-445244D01*
X2231952Y-445244D02*
X2236714Y-450006D01*
X2236714Y-450006D02*
X2241476Y-459529D01*
X2241476Y-459529D02*
X2241476Y-464291D01*
X2241476Y-464291D02*
X2236714Y-473815D01*
X2236714Y-473815D02*
X2231952Y-478577D01*
X2231952Y-478577D02*
X2222429Y-483339D01*
X2222429Y-483339D02*
X2203381Y-483339D01*
X2203381Y-483339D02*
X2193857Y-488101D01*
X2193857Y-488101D02*
X2189095Y-492863D01*
X2189095Y-492863D02*
X2184333Y-502387D01*
X2184333Y-502387D02*
X2184333Y-521434D01*
X2184333Y-521434D02*
X2189095Y-530958D01*
X2189095Y-530958D02*
X2193857Y-535720D01*
X2193857Y-535720D02*
X2203381Y-540482D01*
X2203381Y-540482D02*
X2222429Y-540482D01*
X2222429Y-540482D02*
X2231952Y-535720D01*
X2231952Y-535720D02*
X2236714Y-530958D01*
X2236714Y-530958D02*
X2241476Y-521434D01*
X2241476Y-521434D02*
X2241476Y-502387D01*
X2241476Y-502387D02*
X2236714Y-492863D01*
X2236714Y-492863D02*
X2231952Y-488101D01*
X2231952Y-488101D02*
X2222429Y-483339D01*
X2284333Y-530958D02*
X2289095Y-535720D01*
X2289095Y-535720D02*
X2284333Y-540482D01*
X2284333Y-540482D02*
X2279572Y-535720D01*
X2279572Y-535720D02*
X2284333Y-530958D01*
X2284333Y-530958D02*
X2284333Y-540482D01*
X2351000Y-440482D02*
X2360524Y-440482D01*
X2360524Y-440482D02*
X2370048Y-445244D01*
X2370048Y-445244D02*
X2374810Y-450006D01*
X2374810Y-450006D02*
X2379571Y-459529D01*
X2379571Y-459529D02*
X2384333Y-478577D01*
X2384333Y-478577D02*
X2384333Y-502387D01*
X2384333Y-502387D02*
X2379571Y-521434D01*
X2379571Y-521434D02*
X2374810Y-530958D01*
X2374810Y-530958D02*
X2370048Y-535720D01*
X2370048Y-535720D02*
X2360524Y-540482D01*
X2360524Y-540482D02*
X2351000Y-540482D01*
X2351000Y-540482D02*
X2341476Y-535720D01*
X2341476Y-535720D02*
X2336714Y-530958D01*
X2336714Y-530958D02*
X2331952Y-521434D01*
X2331952Y-521434D02*
X2327191Y-502387D01*
X2327191Y-502387D02*
X2327191Y-478577D01*
X2327191Y-478577D02*
X2331952Y-459529D01*
X2331952Y-459529D02*
X2336714Y-450006D01*
X2336714Y-450006D02*
X2341476Y-445244D01*
X2341476Y-445244D02*
X2351000Y-440482D01*
X2446238Y-440482D02*
X2455762Y-440482D01*
X2455762Y-440482D02*
X2465286Y-445244D01*
X2465286Y-445244D02*
X2470048Y-450006D01*
X2470048Y-450006D02*
X2474810Y-459529D01*
X2474810Y-459529D02*
X2479571Y-478577D01*
X2479571Y-478577D02*
X2479571Y-502387D01*
X2479571Y-502387D02*
X2474810Y-521434D01*
X2474810Y-521434D02*
X2470048Y-530958D01*
X2470048Y-530958D02*
X2465286Y-535720D01*
X2465286Y-535720D02*
X2455762Y-540482D01*
X2455762Y-540482D02*
X2446238Y-540482D01*
X2446238Y-540482D02*
X2436714Y-535720D01*
X2436714Y-535720D02*
X2431952Y-530958D01*
X2431952Y-530958D02*
X2427191Y-521434D01*
X2427191Y-521434D02*
X2422429Y-502387D01*
X2422429Y-502387D02*
X2422429Y-478577D01*
X2422429Y-478577D02*
X2427191Y-459529D01*
X2427191Y-459529D02*
X2431952Y-450006D01*
X2431952Y-450006D02*
X2436714Y-445244D01*
X2436714Y-445244D02*
X2446238Y-440482D01*
X2541476Y-440482D02*
X2551000Y-440482D01*
X2551000Y-440482D02*
X2560524Y-445244D01*
X2560524Y-445244D02*
X2565286Y-450006D01*
X2565286Y-450006D02*
X2570048Y-459529D01*
X2570048Y-459529D02*
X2574810Y-478577D01*
X2574810Y-478577D02*
X2574810Y-502387D01*
X2574810Y-502387D02*
X2570048Y-521434D01*
X2570048Y-521434D02*
X2565286Y-530958D01*
X2565286Y-530958D02*
X2560524Y-535720D01*
X2560524Y-535720D02*
X2551000Y-540482D01*
X2551000Y-540482D02*
X2541476Y-540482D01*
X2541476Y-540482D02*
X2531952Y-535720D01*
X2531952Y-535720D02*
X2527191Y-530958D01*
X2527191Y-530958D02*
X2522429Y-521434D01*
X2522429Y-521434D02*
X2517667Y-502387D01*
X2517667Y-502387D02*
X2517667Y-478577D01*
X2517667Y-478577D02*
X2522429Y-459529D01*
X2522429Y-459529D02*
X2527191Y-450006D01*
X2527191Y-450006D02*
X2531952Y-445244D01*
X2531952Y-445244D02*
X2541476Y-440482D01*
X2636714Y-440482D02*
X2646238Y-440482D01*
X2646238Y-440482D02*
X2655762Y-445244D01*
X2655762Y-445244D02*
X2660524Y-450006D01*
X2660524Y-450006D02*
X2665286Y-459529D01*
X2665286Y-459529D02*
X2670048Y-478577D01*
X2670048Y-478577D02*
X2670048Y-502387D01*
X2670048Y-502387D02*
X2665286Y-521434D01*
X2665286Y-521434D02*
X2660524Y-530958D01*
X2660524Y-530958D02*
X2655762Y-535720D01*
X2655762Y-535720D02*
X2646238Y-540482D01*
X2646238Y-540482D02*
X2636714Y-540482D01*
X2636714Y-540482D02*
X2627191Y-535720D01*
X2627191Y-535720D02*
X2622429Y-530958D01*
X2622429Y-530958D02*
X2617667Y-521434D01*
X2617667Y-521434D02*
X2612905Y-502387D01*
X2612905Y-502387D02*
X2612905Y-478577D01*
X2612905Y-478577D02*
X2617667Y-459529D01*
X2617667Y-459529D02*
X2622429Y-450006D01*
X2622429Y-450006D02*
X2627191Y-445244D01*
X2627191Y-445244D02*
X2636714Y-440482D01*
X2789095Y-540482D02*
X2789095Y-473815D01*
X2789095Y-483339D02*
X2793857Y-478577D01*
X2793857Y-478577D02*
X2803381Y-473815D01*
X2803381Y-473815D02*
X2817667Y-473815D01*
X2817667Y-473815D02*
X2827190Y-478577D01*
X2827190Y-478577D02*
X2831952Y-488101D01*
X2831952Y-488101D02*
X2831952Y-540482D01*
X2831952Y-488101D02*
X2836714Y-478577D01*
X2836714Y-478577D02*
X2846238Y-473815D01*
X2846238Y-473815D02*
X2860524Y-473815D01*
X2860524Y-473815D02*
X2870048Y-478577D01*
X2870048Y-478577D02*
X2874810Y-488101D01*
X2874810Y-488101D02*
X2874810Y-540482D01*
X2922429Y-540482D02*
X2922429Y-473815D01*
X2922429Y-483339D02*
X2927190Y-478577D01*
X2927190Y-478577D02*
X2936714Y-473815D01*
X2936714Y-473815D02*
X2951000Y-473815D01*
X2951000Y-473815D02*
X2960524Y-478577D01*
X2960524Y-478577D02*
X2965286Y-488101D01*
X2965286Y-488101D02*
X2965286Y-540482D01*
X2965286Y-488101D02*
X2970048Y-478577D01*
X2970048Y-478577D02*
X2979571Y-473815D01*
X2979571Y-473815D02*
X2993857Y-473815D01*
X2993857Y-473815D02*
X3003381Y-478577D01*
X3003381Y-478577D02*
X3008143Y-488101D01*
X3008143Y-488101D02*
X3008143Y-540482D01*
X151000Y350000D02*
X151000Y-668642D01*
X4951000Y350000D02*
X4951000Y-668642D01*
X151000Y-610000D02*
X4951000Y-610000D01*
X151000Y-610000D02*
X263650Y-551358D01*
X151000Y-610000D02*
X263650Y-668642D01*
X4951000Y-610000D02*
X4838350Y-668642D01*
X4951000Y-610000D02*
X4838350Y-551358D01*
M02*
