%TF.GenerationSoftware,KiCad,Pcbnew,9.99.0-1005-g8ef54c3651*%
%TF.CreationDate,2025-04-23T14:57:33+05:30*%
%TF.ProjectId,Mitayi-Pico-RP2040,4d697461-7969-42d5-9069-636f2d525032,0.6*%
%TF.SameCoordinates,PX73df160PY5f2d3c0*%
%TF.FileFunction,AssemblyDrawing,Top*%
%FSLAX45Y45*%
G04 Gerber Fmt 4.5, Leading zero omitted, Abs format (unit mm)*
G04 Created by KiCad (PCBNEW 9.99.0-1005-g8ef54c3651) date 2025-04-23 14:57:33*
%MOMM*%
%LPD*%
G01*
G04 APERTURE LIST*
%ADD10C,0.070000*%
%ADD11C,0.075000*%
%ADD12C,0.100000*%
G04 APERTURE END LIST*
D10*
X3154571Y1819485D02*
X3157428Y1819485D01*
X3157428Y1819485D02*
X3160286Y1818057D01*
X3160286Y1818057D02*
X3161714Y1816628D01*
X3161714Y1816628D02*
X3163143Y1813771D01*
X3163143Y1813771D02*
X3164571Y1808057D01*
X3164571Y1808057D02*
X3164571Y1800914D01*
X3164571Y1800914D02*
X3163143Y1795200D01*
X3163143Y1795200D02*
X3161714Y1792343D01*
X3161714Y1792343D02*
X3160286Y1790914D01*
X3160286Y1790914D02*
X3157428Y1789485D01*
X3157428Y1789485D02*
X3154571Y1789485D01*
X3154571Y1789485D02*
X3151714Y1790914D01*
X3151714Y1790914D02*
X3150286Y1792343D01*
X3150286Y1792343D02*
X3148857Y1795200D01*
X3148857Y1795200D02*
X3147428Y1800914D01*
X3147428Y1800914D02*
X3147428Y1808057D01*
X3147428Y1808057D02*
X3148857Y1813771D01*
X3148857Y1813771D02*
X3150286Y1816628D01*
X3150286Y1816628D02*
X3151714Y1818057D01*
X3151714Y1818057D02*
X3154571Y1819485D01*
X3194571Y1789485D02*
X3184571Y1803771D01*
X3177428Y1789485D02*
X3177428Y1819485D01*
X3177428Y1819485D02*
X3188857Y1819485D01*
X3188857Y1819485D02*
X3191714Y1818057D01*
X3191714Y1818057D02*
X3193143Y1816628D01*
X3193143Y1816628D02*
X3194571Y1813771D01*
X3194571Y1813771D02*
X3194571Y1809485D01*
X3194571Y1809485D02*
X3193143Y1806628D01*
X3193143Y1806628D02*
X3191714Y1805200D01*
X3191714Y1805200D02*
X3188857Y1803771D01*
X3188857Y1803771D02*
X3177428Y1803771D01*
X3146000Y1756485D02*
X3146000Y1735057D01*
X3146000Y1735057D02*
X3144571Y1730771D01*
X3144571Y1730771D02*
X3141714Y1727914D01*
X3141714Y1727914D02*
X3137429Y1726485D01*
X3137429Y1726485D02*
X3134571Y1726485D01*
X3160286Y1726485D02*
X3160286Y1756485D01*
X3160286Y1756485D02*
X3171714Y1756485D01*
X3171714Y1756485D02*
X3174571Y1755057D01*
X3174571Y1755057D02*
X3176000Y1753628D01*
X3176000Y1753628D02*
X3177429Y1750771D01*
X3177429Y1750771D02*
X3177429Y1746485D01*
X3177429Y1746485D02*
X3176000Y1743628D01*
X3176000Y1743628D02*
X3174571Y1742200D01*
X3174571Y1742200D02*
X3171714Y1740771D01*
X3171714Y1740771D02*
X3160286Y1740771D01*
X3204571Y1756485D02*
X3190286Y1756485D01*
X3190286Y1756485D02*
X3188857Y1742200D01*
X3188857Y1742200D02*
X3190286Y1743628D01*
X3190286Y1743628D02*
X3193143Y1745057D01*
X3193143Y1745057D02*
X3200286Y1745057D01*
X3200286Y1745057D02*
X3203143Y1743628D01*
X3203143Y1743628D02*
X3204571Y1742200D01*
X3204571Y1742200D02*
X3206000Y1739343D01*
X3206000Y1739343D02*
X3206000Y1732200D01*
X3206000Y1732200D02*
X3204571Y1729343D01*
X3204571Y1729343D02*
X3203143Y1727914D01*
X3203143Y1727914D02*
X3200286Y1726485D01*
X3200286Y1726485D02*
X3193143Y1726485D01*
X3193143Y1726485D02*
X3190286Y1727914D01*
X3190286Y1727914D02*
X3188857Y1729343D01*
X3449714Y1785200D02*
X3454000Y1783771D01*
X3454000Y1783771D02*
X3455428Y1782343D01*
X3455428Y1782343D02*
X3456857Y1779485D01*
X3456857Y1779485D02*
X3456857Y1775200D01*
X3456857Y1775200D02*
X3455428Y1772343D01*
X3455428Y1772343D02*
X3454000Y1770914D01*
X3454000Y1770914D02*
X3451143Y1769485D01*
X3451143Y1769485D02*
X3439714Y1769485D01*
X3439714Y1769485D02*
X3439714Y1799485D01*
X3439714Y1799485D02*
X3449714Y1799485D01*
X3449714Y1799485D02*
X3452571Y1798057D01*
X3452571Y1798057D02*
X3454000Y1796628D01*
X3454000Y1796628D02*
X3455428Y1793771D01*
X3455428Y1793771D02*
X3455428Y1790914D01*
X3455428Y1790914D02*
X3454000Y1788057D01*
X3454000Y1788057D02*
X3452571Y1786628D01*
X3452571Y1786628D02*
X3449714Y1785200D01*
X3449714Y1785200D02*
X3439714Y1785200D01*
X3484000Y1769485D02*
X3469714Y1769485D01*
X3469714Y1769485D02*
X3469714Y1799485D01*
X3494000Y1799485D02*
X3494000Y1775200D01*
X3494000Y1775200D02*
X3495428Y1772343D01*
X3495428Y1772343D02*
X3496857Y1770914D01*
X3496857Y1770914D02*
X3499714Y1769485D01*
X3499714Y1769485D02*
X3505428Y1769485D01*
X3505428Y1769485D02*
X3508286Y1770914D01*
X3508286Y1770914D02*
X3509714Y1772343D01*
X3509714Y1772343D02*
X3511143Y1775200D01*
X3511143Y1775200D02*
X3511143Y1799485D01*
X3525428Y1785200D02*
X3535428Y1785200D01*
X3539714Y1769485D02*
X3525428Y1769485D01*
X3525428Y1769485D02*
X3525428Y1799485D01*
X3525428Y1799485D02*
X3539714Y1799485D01*
X3472857Y1689485D02*
X3472857Y1719485D01*
X3472857Y1719485D02*
X3480000Y1719485D01*
X3480000Y1719485D02*
X3484286Y1718057D01*
X3484286Y1718057D02*
X3487143Y1715200D01*
X3487143Y1715200D02*
X3488571Y1712343D01*
X3488571Y1712343D02*
X3490000Y1706628D01*
X3490000Y1706628D02*
X3490000Y1702343D01*
X3490000Y1702343D02*
X3488571Y1696628D01*
X3488571Y1696628D02*
X3487143Y1693771D01*
X3487143Y1693771D02*
X3484286Y1690914D01*
X3484286Y1690914D02*
X3480000Y1689485D01*
X3480000Y1689485D02*
X3472857Y1689485D01*
X3501428Y1716628D02*
X3502857Y1718057D01*
X3502857Y1718057D02*
X3505714Y1719485D01*
X3505714Y1719485D02*
X3512857Y1719485D01*
X3512857Y1719485D02*
X3515714Y1718057D01*
X3515714Y1718057D02*
X3517143Y1716628D01*
X3517143Y1716628D02*
X3518571Y1713771D01*
X3518571Y1713771D02*
X3518571Y1710914D01*
X3518571Y1710914D02*
X3517143Y1706628D01*
X3517143Y1706628D02*
X3500000Y1689485D01*
X3500000Y1689485D02*
X3518571Y1689485D01*
X3671286Y803485D02*
X3689857Y803485D01*
X3689857Y803485D02*
X3679857Y792057D01*
X3679857Y792057D02*
X3684143Y792057D01*
X3684143Y792057D02*
X3687000Y790628D01*
X3687000Y790628D02*
X3688428Y789200D01*
X3688428Y789200D02*
X3689857Y786343D01*
X3689857Y786343D02*
X3689857Y779200D01*
X3689857Y779200D02*
X3688428Y776343D01*
X3688428Y776343D02*
X3687000Y774914D01*
X3687000Y774914D02*
X3684143Y773485D01*
X3684143Y773485D02*
X3675571Y773485D01*
X3675571Y773485D02*
X3672714Y774914D01*
X3672714Y774914D02*
X3671286Y776343D01*
X3708428Y803485D02*
X3711286Y803485D01*
X3711286Y803485D02*
X3714143Y802057D01*
X3714143Y802057D02*
X3715571Y800628D01*
X3715571Y800628D02*
X3717000Y797771D01*
X3717000Y797771D02*
X3718428Y792057D01*
X3718428Y792057D02*
X3718428Y784914D01*
X3718428Y784914D02*
X3717000Y779200D01*
X3717000Y779200D02*
X3715571Y776343D01*
X3715571Y776343D02*
X3714143Y774914D01*
X3714143Y774914D02*
X3711286Y773485D01*
X3711286Y773485D02*
X3708428Y773485D01*
X3708428Y773485D02*
X3705571Y774914D01*
X3705571Y774914D02*
X3704143Y776343D01*
X3704143Y776343D02*
X3702714Y779200D01*
X3702714Y779200D02*
X3701286Y784914D01*
X3701286Y784914D02*
X3701286Y792057D01*
X3701286Y792057D02*
X3702714Y797771D01*
X3702714Y797771D02*
X3704143Y800628D01*
X3704143Y800628D02*
X3705571Y802057D01*
X3705571Y802057D02*
X3708428Y803485D01*
X3731286Y793485D02*
X3731286Y763485D01*
X3731286Y792057D02*
X3734143Y793485D01*
X3734143Y793485D02*
X3739857Y793485D01*
X3739857Y793485D02*
X3742714Y792057D01*
X3742714Y792057D02*
X3744143Y790628D01*
X3744143Y790628D02*
X3745571Y787771D01*
X3745571Y787771D02*
X3745571Y779200D01*
X3745571Y779200D02*
X3744143Y776343D01*
X3744143Y776343D02*
X3742714Y774914D01*
X3742714Y774914D02*
X3739857Y773485D01*
X3739857Y773485D02*
X3734143Y773485D01*
X3734143Y773485D02*
X3731286Y774914D01*
X3768428Y789200D02*
X3758428Y789200D01*
X3758428Y773485D02*
X3758428Y803485D01*
X3758428Y803485D02*
X3772714Y803485D01*
X3702453Y839029D02*
X3701024Y837600D01*
X3701024Y837600D02*
X3696739Y836172D01*
X3696739Y836172D02*
X3693881Y836172D01*
X3693881Y836172D02*
X3689596Y837600D01*
X3689596Y837600D02*
X3686739Y840457D01*
X3686739Y840457D02*
X3685310Y843315D01*
X3685310Y843315D02*
X3683881Y849029D01*
X3683881Y849029D02*
X3683881Y853315D01*
X3683881Y853315D02*
X3685310Y859029D01*
X3685310Y859029D02*
X3686739Y861886D01*
X3686739Y861886D02*
X3689596Y864743D01*
X3689596Y864743D02*
X3693881Y866172D01*
X3693881Y866172D02*
X3696739Y866172D01*
X3696739Y866172D02*
X3701024Y864743D01*
X3701024Y864743D02*
X3702453Y863315D01*
X3731024Y836172D02*
X3713881Y836172D01*
X3722453Y836172D02*
X3722453Y866172D01*
X3722453Y866172D02*
X3719596Y861886D01*
X3719596Y861886D02*
X3716739Y859029D01*
X3716739Y859029D02*
X3713881Y857600D01*
X3741024Y866172D02*
X3761024Y866172D01*
X3761024Y866172D02*
X3748167Y836172D01*
X2514515Y469714D02*
X2514515Y472571D01*
X2514515Y472571D02*
X2515943Y475429D01*
X2515943Y475429D02*
X2517372Y476857D01*
X2517372Y476857D02*
X2520229Y478286D01*
X2520229Y478286D02*
X2525943Y479714D01*
X2525943Y479714D02*
X2533086Y479714D01*
X2533086Y479714D02*
X2538800Y478286D01*
X2538800Y478286D02*
X2541657Y476857D01*
X2541657Y476857D02*
X2543086Y475429D01*
X2543086Y475429D02*
X2544515Y472571D01*
X2544515Y472571D02*
X2544515Y469714D01*
X2544515Y469714D02*
X2543086Y466857D01*
X2543086Y466857D02*
X2541657Y465429D01*
X2541657Y465429D02*
X2538800Y464000D01*
X2538800Y464000D02*
X2533086Y462571D01*
X2533086Y462571D02*
X2525943Y462571D01*
X2525943Y462571D02*
X2520229Y464000D01*
X2520229Y464000D02*
X2517372Y465429D01*
X2517372Y465429D02*
X2515943Y466857D01*
X2515943Y466857D02*
X2514515Y469714D01*
X2541657Y492571D02*
X2543086Y494000D01*
X2543086Y494000D02*
X2544515Y492571D01*
X2544515Y492571D02*
X2543086Y491143D01*
X2543086Y491143D02*
X2541657Y492571D01*
X2541657Y492571D02*
X2544515Y492571D01*
X2544515Y522571D02*
X2544515Y505429D01*
X2544515Y514000D02*
X2514515Y514000D01*
X2514515Y514000D02*
X2518800Y511143D01*
X2518800Y511143D02*
X2521657Y508286D01*
X2521657Y508286D02*
X2523086Y505429D01*
X2524515Y548286D02*
X2544515Y548286D01*
X2524515Y535429D02*
X2540229Y535429D01*
X2540229Y535429D02*
X2543086Y536857D01*
X2543086Y536857D02*
X2544515Y539714D01*
X2544515Y539714D02*
X2544515Y544000D01*
X2544515Y544000D02*
X2543086Y546857D01*
X2543086Y546857D02*
X2541657Y548286D01*
X2528800Y572572D02*
X2528800Y562572D01*
X2544515Y562572D02*
X2514515Y562572D01*
X2514515Y562572D02*
X2514515Y576857D01*
X2479023Y498750D02*
X2480452Y497321D01*
X2480452Y497321D02*
X2481880Y493036D01*
X2481880Y493036D02*
X2481880Y490178D01*
X2481880Y490178D02*
X2480452Y485893D01*
X2480452Y485893D02*
X2477595Y483036D01*
X2477595Y483036D02*
X2474737Y481607D01*
X2474737Y481607D02*
X2469023Y480178D01*
X2469023Y480178D02*
X2464737Y480178D01*
X2464737Y480178D02*
X2459023Y481607D01*
X2459023Y481607D02*
X2456166Y483036D01*
X2456166Y483036D02*
X2453309Y485893D01*
X2453309Y485893D02*
X2451880Y490178D01*
X2451880Y490178D02*
X2451880Y493036D01*
X2451880Y493036D02*
X2453309Y497321D01*
X2453309Y497321D02*
X2454737Y498750D01*
X2481880Y527321D02*
X2481880Y510178D01*
X2481880Y518750D02*
X2451880Y518750D01*
X2451880Y518750D02*
X2456166Y515893D01*
X2456166Y515893D02*
X2459023Y513036D01*
X2459023Y513036D02*
X2460452Y510178D01*
X2454737Y538750D02*
X2453309Y540178D01*
X2453309Y540178D02*
X2451880Y543036D01*
X2451880Y543036D02*
X2451880Y550178D01*
X2451880Y550178D02*
X2453309Y553036D01*
X2453309Y553036D02*
X2454737Y554464D01*
X2454737Y554464D02*
X2457595Y555893D01*
X2457595Y555893D02*
X2460452Y555893D01*
X2460452Y555893D02*
X2464737Y554464D01*
X2464737Y554464D02*
X2481880Y537321D01*
X2481880Y537321D02*
X2481880Y555893D01*
X1057515Y1455857D02*
X1057515Y1438714D01*
X1057515Y1447286D02*
X1027514Y1447286D01*
X1027514Y1447286D02*
X1031800Y1444429D01*
X1031800Y1444429D02*
X1034657Y1441571D01*
X1034657Y1441571D02*
X1036086Y1438714D01*
X1027514Y1474429D02*
X1027514Y1477286D01*
X1027514Y1477286D02*
X1028943Y1480143D01*
X1028943Y1480143D02*
X1030372Y1481571D01*
X1030372Y1481571D02*
X1033229Y1483000D01*
X1033229Y1483000D02*
X1038943Y1484429D01*
X1038943Y1484429D02*
X1046086Y1484429D01*
X1046086Y1484429D02*
X1051800Y1483000D01*
X1051800Y1483000D02*
X1054657Y1481571D01*
X1054657Y1481571D02*
X1056086Y1480143D01*
X1056086Y1480143D02*
X1057515Y1477286D01*
X1057515Y1477286D02*
X1057515Y1474429D01*
X1057515Y1474429D02*
X1056086Y1471571D01*
X1056086Y1471571D02*
X1054657Y1470143D01*
X1054657Y1470143D02*
X1051800Y1468714D01*
X1051800Y1468714D02*
X1046086Y1467286D01*
X1046086Y1467286D02*
X1038943Y1467286D01*
X1038943Y1467286D02*
X1033229Y1468714D01*
X1033229Y1468714D02*
X1030372Y1470143D01*
X1030372Y1470143D02*
X1028943Y1471571D01*
X1028943Y1471571D02*
X1027514Y1474429D01*
X1037514Y1510143D02*
X1057515Y1510143D01*
X1037514Y1497286D02*
X1053229Y1497286D01*
X1053229Y1497286D02*
X1056086Y1498714D01*
X1056086Y1498714D02*
X1057515Y1501571D01*
X1057515Y1501571D02*
X1057515Y1505857D01*
X1057515Y1505857D02*
X1056086Y1508714D01*
X1056086Y1508714D02*
X1054657Y1510143D01*
X1041800Y1534429D02*
X1041800Y1524429D01*
X1057515Y1524429D02*
X1027514Y1524429D01*
X1027514Y1524429D02*
X1027514Y1538714D01*
X981657Y1461714D02*
X983086Y1460286D01*
X983086Y1460286D02*
X984514Y1456000D01*
X984514Y1456000D02*
X984514Y1453143D01*
X984514Y1453143D02*
X983086Y1448857D01*
X983086Y1448857D02*
X980229Y1446000D01*
X980229Y1446000D02*
X977372Y1444571D01*
X977372Y1444571D02*
X971657Y1443143D01*
X971657Y1443143D02*
X967372Y1443143D01*
X967372Y1443143D02*
X961657Y1444571D01*
X961657Y1444571D02*
X958800Y1446000D01*
X958800Y1446000D02*
X955943Y1448857D01*
X955943Y1448857D02*
X954514Y1453143D01*
X954514Y1453143D02*
X954514Y1456000D01*
X954514Y1456000D02*
X955943Y1460286D01*
X955943Y1460286D02*
X957372Y1461714D01*
X984514Y1490286D02*
X984514Y1473143D01*
X984514Y1481714D02*
X954514Y1481714D01*
X954514Y1481714D02*
X958800Y1478857D01*
X958800Y1478857D02*
X961657Y1476000D01*
X961657Y1476000D02*
X963086Y1473143D01*
X954514Y1500286D02*
X954514Y1518857D01*
X954514Y1518857D02*
X965943Y1508857D01*
X965943Y1508857D02*
X965943Y1513143D01*
X965943Y1513143D02*
X967372Y1516000D01*
X967372Y1516000D02*
X968800Y1517429D01*
X968800Y1517429D02*
X971657Y1518857D01*
X971657Y1518857D02*
X978800Y1518857D01*
X978800Y1518857D02*
X981657Y1517429D01*
X981657Y1517429D02*
X983086Y1516000D01*
X983086Y1516000D02*
X984514Y1513143D01*
X984514Y1513143D02*
X984514Y1504571D01*
X984514Y1504571D02*
X983086Y1501714D01*
X983086Y1501714D02*
X981657Y1500286D01*
X2987514Y463714D02*
X2987514Y466571D01*
X2987514Y466571D02*
X2988943Y469429D01*
X2988943Y469429D02*
X2990372Y470857D01*
X2990372Y470857D02*
X2993229Y472286D01*
X2993229Y472286D02*
X2998943Y473714D01*
X2998943Y473714D02*
X3006086Y473714D01*
X3006086Y473714D02*
X3011800Y472286D01*
X3011800Y472286D02*
X3014657Y470857D01*
X3014657Y470857D02*
X3016086Y469429D01*
X3016086Y469429D02*
X3017514Y466571D01*
X3017514Y466571D02*
X3017514Y463714D01*
X3017514Y463714D02*
X3016086Y460857D01*
X3016086Y460857D02*
X3014657Y459429D01*
X3014657Y459429D02*
X3011800Y458000D01*
X3011800Y458000D02*
X3006086Y456571D01*
X3006086Y456571D02*
X2998943Y456571D01*
X2998943Y456571D02*
X2993229Y458000D01*
X2993229Y458000D02*
X2990372Y459429D01*
X2990372Y459429D02*
X2988943Y460857D01*
X2988943Y460857D02*
X2987514Y463714D01*
X3014657Y486571D02*
X3016086Y488000D01*
X3016086Y488000D02*
X3017514Y486571D01*
X3017514Y486571D02*
X3016086Y485143D01*
X3016086Y485143D02*
X3014657Y486571D01*
X3014657Y486571D02*
X3017514Y486571D01*
X3017514Y516571D02*
X3017514Y499429D01*
X3017514Y508000D02*
X2987514Y508000D01*
X2987514Y508000D02*
X2991800Y505143D01*
X2991800Y505143D02*
X2994657Y502286D01*
X2994657Y502286D02*
X2996086Y499429D01*
X2997514Y542286D02*
X3017514Y542286D01*
X2997514Y529429D02*
X3013229Y529429D01*
X3013229Y529429D02*
X3016086Y530857D01*
X3016086Y530857D02*
X3017514Y533714D01*
X3017514Y533714D02*
X3017514Y538000D01*
X3017514Y538000D02*
X3016086Y540857D01*
X3016086Y540857D02*
X3014657Y542286D01*
X3001800Y566572D02*
X3001800Y556572D01*
X3017514Y556572D02*
X2987514Y556572D01*
X2987514Y556572D02*
X2987514Y570857D01*
X3072250Y500862D02*
X3073678Y499434D01*
X3073678Y499434D02*
X3075107Y495148D01*
X3075107Y495148D02*
X3075107Y492291D01*
X3075107Y492291D02*
X3073678Y488005D01*
X3073678Y488005D02*
X3070821Y485148D01*
X3070821Y485148D02*
X3067964Y483719D01*
X3067964Y483719D02*
X3062250Y482291D01*
X3062250Y482291D02*
X3057964Y482291D01*
X3057964Y482291D02*
X3052250Y483719D01*
X3052250Y483719D02*
X3049392Y485148D01*
X3049392Y485148D02*
X3046535Y488005D01*
X3046535Y488005D02*
X3045107Y492291D01*
X3045107Y492291D02*
X3045107Y495148D01*
X3045107Y495148D02*
X3046535Y499434D01*
X3046535Y499434D02*
X3047964Y500862D01*
X3045107Y526577D02*
X3045107Y520862D01*
X3045107Y520862D02*
X3046535Y518005D01*
X3046535Y518005D02*
X3047964Y516577D01*
X3047964Y516577D02*
X3052250Y513719D01*
X3052250Y513719D02*
X3057964Y512291D01*
X3057964Y512291D02*
X3069392Y512291D01*
X3069392Y512291D02*
X3072250Y513719D01*
X3072250Y513719D02*
X3073678Y515148D01*
X3073678Y515148D02*
X3075107Y518005D01*
X3075107Y518005D02*
X3075107Y523719D01*
X3075107Y523719D02*
X3073678Y526577D01*
X3073678Y526577D02*
X3072250Y528005D01*
X3072250Y528005D02*
X3069392Y529434D01*
X3069392Y529434D02*
X3062250Y529434D01*
X3062250Y529434D02*
X3059392Y528005D01*
X3059392Y528005D02*
X3057964Y526577D01*
X3057964Y526577D02*
X3056535Y523719D01*
X3056535Y523719D02*
X3056535Y518005D01*
X3056535Y518005D02*
X3057964Y515148D01*
X3057964Y515148D02*
X3059392Y513719D01*
X3059392Y513719D02*
X3062250Y512291D01*
X2057714Y1662985D02*
X2060571Y1662985D01*
X2060571Y1662985D02*
X2063429Y1661557D01*
X2063429Y1661557D02*
X2064857Y1660128D01*
X2064857Y1660128D02*
X2066286Y1657271D01*
X2066286Y1657271D02*
X2067714Y1651557D01*
X2067714Y1651557D02*
X2067714Y1644414D01*
X2067714Y1644414D02*
X2066286Y1638700D01*
X2066286Y1638700D02*
X2064857Y1635843D01*
X2064857Y1635843D02*
X2063429Y1634414D01*
X2063429Y1634414D02*
X2060571Y1632985D01*
X2060571Y1632985D02*
X2057714Y1632985D01*
X2057714Y1632985D02*
X2054857Y1634414D01*
X2054857Y1634414D02*
X2053429Y1635843D01*
X2053429Y1635843D02*
X2052000Y1638700D01*
X2052000Y1638700D02*
X2050571Y1644414D01*
X2050571Y1644414D02*
X2050571Y1651557D01*
X2050571Y1651557D02*
X2052000Y1657271D01*
X2052000Y1657271D02*
X2053429Y1660128D01*
X2053429Y1660128D02*
X2054857Y1661557D01*
X2054857Y1661557D02*
X2057714Y1662985D01*
X2080571Y1635843D02*
X2082000Y1634414D01*
X2082000Y1634414D02*
X2080571Y1632985D01*
X2080571Y1632985D02*
X2079143Y1634414D01*
X2079143Y1634414D02*
X2080571Y1635843D01*
X2080571Y1635843D02*
X2080571Y1632985D01*
X2110571Y1632985D02*
X2093428Y1632985D01*
X2102000Y1632985D02*
X2102000Y1662985D01*
X2102000Y1662985D02*
X2099143Y1658700D01*
X2099143Y1658700D02*
X2096286Y1655843D01*
X2096286Y1655843D02*
X2093428Y1654414D01*
X2136286Y1652985D02*
X2136286Y1632985D01*
X2123429Y1652985D02*
X2123429Y1637271D01*
X2123429Y1637271D02*
X2124857Y1634414D01*
X2124857Y1634414D02*
X2127714Y1632985D01*
X2127714Y1632985D02*
X2132000Y1632985D01*
X2132000Y1632985D02*
X2134857Y1634414D01*
X2134857Y1634414D02*
X2136286Y1635843D01*
X2160571Y1648700D02*
X2150571Y1648700D01*
X2150571Y1632985D02*
X2150571Y1662985D01*
X2150571Y1662985D02*
X2164857Y1662985D01*
X2087558Y1578587D02*
X2086129Y1577158D01*
X2086129Y1577158D02*
X2081843Y1575730D01*
X2081843Y1575730D02*
X2078986Y1575730D01*
X2078986Y1575730D02*
X2074701Y1577158D01*
X2074701Y1577158D02*
X2071843Y1580015D01*
X2071843Y1580015D02*
X2070415Y1582873D01*
X2070415Y1582873D02*
X2068986Y1588587D01*
X2068986Y1588587D02*
X2068986Y1592873D01*
X2068986Y1592873D02*
X2070415Y1598587D01*
X2070415Y1598587D02*
X2071843Y1601444D01*
X2071843Y1601444D02*
X2074701Y1604301D01*
X2074701Y1604301D02*
X2078986Y1605730D01*
X2078986Y1605730D02*
X2081843Y1605730D01*
X2081843Y1605730D02*
X2086129Y1604301D01*
X2086129Y1604301D02*
X2087558Y1602873D01*
X2116129Y1575730D02*
X2098986Y1575730D01*
X2107558Y1575730D02*
X2107558Y1605730D01*
X2107558Y1605730D02*
X2104701Y1601444D01*
X2104701Y1601444D02*
X2101844Y1598587D01*
X2101844Y1598587D02*
X2098986Y1597158D01*
X2144701Y1575730D02*
X2127558Y1575730D01*
X2136129Y1575730D02*
X2136129Y1605730D01*
X2136129Y1605730D02*
X2133272Y1601444D01*
X2133272Y1601444D02*
X2130415Y1598587D01*
X2130415Y1598587D02*
X2127558Y1597158D01*
X793143Y566486D02*
X776000Y566486D01*
X784571Y566486D02*
X784571Y596486D01*
X784571Y596486D02*
X781714Y592200D01*
X781714Y592200D02*
X778857Y589343D01*
X778857Y589343D02*
X776000Y587914D01*
X818857Y586486D02*
X818857Y566486D01*
X806000Y586486D02*
X806000Y570771D01*
X806000Y570771D02*
X807428Y567914D01*
X807428Y567914D02*
X810286Y566486D01*
X810286Y566486D02*
X814571Y566486D01*
X814571Y566486D02*
X817428Y567914D01*
X817428Y567914D02*
X818857Y569343D01*
X843143Y582200D02*
X833143Y582200D01*
X833143Y566486D02*
X833143Y596486D01*
X833143Y596486D02*
X847428Y596486D01*
X781714Y513343D02*
X780286Y511914D01*
X780286Y511914D02*
X776000Y510485D01*
X776000Y510485D02*
X773143Y510485D01*
X773143Y510485D02*
X768857Y511914D01*
X768857Y511914D02*
X766000Y514771D01*
X766000Y514771D02*
X764571Y517628D01*
X764571Y517628D02*
X763143Y523343D01*
X763143Y523343D02*
X763143Y527628D01*
X763143Y527628D02*
X764571Y533343D01*
X764571Y533343D02*
X766000Y536200D01*
X766000Y536200D02*
X768857Y539057D01*
X768857Y539057D02*
X773143Y540486D01*
X773143Y540486D02*
X776000Y540486D01*
X776000Y540486D02*
X780286Y539057D01*
X780286Y539057D02*
X781714Y537628D01*
X810286Y510485D02*
X793143Y510485D01*
X801714Y510485D02*
X801714Y540486D01*
X801714Y540486D02*
X798857Y536200D01*
X798857Y536200D02*
X796000Y533343D01*
X796000Y533343D02*
X793143Y531914D01*
X824571Y510485D02*
X830286Y510485D01*
X830286Y510485D02*
X833143Y511914D01*
X833143Y511914D02*
X834571Y513343D01*
X834571Y513343D02*
X837428Y517628D01*
X837428Y517628D02*
X838857Y523343D01*
X838857Y523343D02*
X838857Y534771D01*
X838857Y534771D02*
X837428Y537628D01*
X837428Y537628D02*
X836000Y539057D01*
X836000Y539057D02*
X833143Y540486D01*
X833143Y540486D02*
X827428Y540486D01*
X827428Y540486D02*
X824571Y539057D01*
X824571Y539057D02*
X823143Y537628D01*
X823143Y537628D02*
X821714Y534771D01*
X821714Y534771D02*
X821714Y527628D01*
X821714Y527628D02*
X823143Y524771D01*
X823143Y524771D02*
X824571Y523343D01*
X824571Y523343D02*
X827428Y521914D01*
X827428Y521914D02*
X833143Y521914D01*
X833143Y521914D02*
X836000Y523343D01*
X836000Y523343D02*
X837428Y524771D01*
X837428Y524771D02*
X838857Y527628D01*
X1839514Y778571D02*
X1839514Y761429D01*
X1839514Y770000D02*
X1809514Y770000D01*
X1809514Y770000D02*
X1813800Y767143D01*
X1813800Y767143D02*
X1816657Y764286D01*
X1816657Y764286D02*
X1818086Y761429D01*
X1839514Y791429D02*
X1809514Y791429D01*
X1839514Y808571D02*
X1822372Y795714D01*
X1809514Y808571D02*
X1826657Y791429D01*
X1896514Y780000D02*
X1882229Y770000D01*
X1896514Y762857D02*
X1866514Y762857D01*
X1866514Y762857D02*
X1866514Y774286D01*
X1866514Y774286D02*
X1867943Y777143D01*
X1867943Y777143D02*
X1869372Y778571D01*
X1869372Y778571D02*
X1872229Y780000D01*
X1872229Y780000D02*
X1876514Y780000D01*
X1876514Y780000D02*
X1879372Y778571D01*
X1879372Y778571D02*
X1880800Y777143D01*
X1880800Y777143D02*
X1882229Y774286D01*
X1882229Y774286D02*
X1882229Y762857D01*
X1869372Y791429D02*
X1867943Y792857D01*
X1867943Y792857D02*
X1866514Y795714D01*
X1866514Y795714D02*
X1866514Y802857D01*
X1866514Y802857D02*
X1867943Y805714D01*
X1867943Y805714D02*
X1869372Y807143D01*
X1869372Y807143D02*
X1872229Y808571D01*
X1872229Y808571D02*
X1875086Y808571D01*
X1875086Y808571D02*
X1879372Y807143D01*
X1879372Y807143D02*
X1896514Y790000D01*
X1896514Y790000D02*
X1896514Y808571D01*
X3759143Y1764485D02*
X3759143Y1744485D01*
X3752000Y1775914D02*
X3744857Y1754485D01*
X3744857Y1754485D02*
X3763429Y1754485D01*
X3772000Y1774485D02*
X3792000Y1774485D01*
X3792000Y1774485D02*
X3779143Y1744485D01*
X3809143Y1774485D02*
X3812000Y1774485D01*
X3812000Y1774485D02*
X3814857Y1773057D01*
X3814857Y1773057D02*
X3816286Y1771628D01*
X3816286Y1771628D02*
X3817714Y1768771D01*
X3817714Y1768771D02*
X3819143Y1763057D01*
X3819143Y1763057D02*
X3819143Y1755914D01*
X3819143Y1755914D02*
X3817714Y1750200D01*
X3817714Y1750200D02*
X3816286Y1747343D01*
X3816286Y1747343D02*
X3814857Y1745914D01*
X3814857Y1745914D02*
X3812000Y1744485D01*
X3812000Y1744485D02*
X3809143Y1744485D01*
X3809143Y1744485D02*
X3806286Y1745914D01*
X3806286Y1745914D02*
X3804857Y1747343D01*
X3804857Y1747343D02*
X3803428Y1750200D01*
X3803428Y1750200D02*
X3802000Y1755914D01*
X3802000Y1755914D02*
X3802000Y1763057D01*
X3802000Y1763057D02*
X3803428Y1768771D01*
X3803428Y1768771D02*
X3804857Y1771628D01*
X3804857Y1771628D02*
X3806286Y1773057D01*
X3806286Y1773057D02*
X3809143Y1774485D01*
X3849143Y1744485D02*
X3839143Y1758771D01*
X3832000Y1744485D02*
X3832000Y1774485D01*
X3832000Y1774485D02*
X3843428Y1774485D01*
X3843428Y1774485D02*
X3846286Y1773057D01*
X3846286Y1773057D02*
X3847714Y1771628D01*
X3847714Y1771628D02*
X3849143Y1768771D01*
X3849143Y1768771D02*
X3849143Y1764485D01*
X3849143Y1764485D02*
X3847714Y1761628D01*
X3847714Y1761628D02*
X3846286Y1760200D01*
X3846286Y1760200D02*
X3843428Y1758771D01*
X3843428Y1758771D02*
X3832000Y1758771D01*
X3793384Y1680767D02*
X3783384Y1695053D01*
X3776241Y1680767D02*
X3776241Y1710767D01*
X3776241Y1710767D02*
X3787669Y1710767D01*
X3787669Y1710767D02*
X3790526Y1709339D01*
X3790526Y1709339D02*
X3791955Y1707910D01*
X3791955Y1707910D02*
X3793384Y1705053D01*
X3793384Y1705053D02*
X3793384Y1700767D01*
X3793384Y1700767D02*
X3791955Y1697910D01*
X3791955Y1697910D02*
X3790526Y1696481D01*
X3790526Y1696481D02*
X3787669Y1695053D01*
X3787669Y1695053D02*
X3776241Y1695053D01*
X3803384Y1710767D02*
X3823384Y1710767D01*
X3823384Y1710767D02*
X3810526Y1680767D01*
X4820428Y1662485D02*
X4820428Y1692485D01*
X4820428Y1692485D02*
X4830428Y1671057D01*
X4830428Y1671057D02*
X4840428Y1692485D01*
X4840428Y1692485D02*
X4840428Y1662485D01*
X4859000Y1662485D02*
X4856143Y1663914D01*
X4856143Y1663914D02*
X4854714Y1665343D01*
X4854714Y1665343D02*
X4853286Y1668200D01*
X4853286Y1668200D02*
X4853286Y1676771D01*
X4853286Y1676771D02*
X4854714Y1679628D01*
X4854714Y1679628D02*
X4856143Y1681057D01*
X4856143Y1681057D02*
X4859000Y1682485D01*
X4859000Y1682485D02*
X4863286Y1682485D01*
X4863286Y1682485D02*
X4866143Y1681057D01*
X4866143Y1681057D02*
X4867571Y1679628D01*
X4867571Y1679628D02*
X4869000Y1676771D01*
X4869000Y1676771D02*
X4869000Y1668200D01*
X4869000Y1668200D02*
X4867571Y1665343D01*
X4867571Y1665343D02*
X4866143Y1663914D01*
X4866143Y1663914D02*
X4863286Y1662485D01*
X4863286Y1662485D02*
X4859000Y1662485D01*
X4894714Y1682485D02*
X4894714Y1662485D01*
X4881857Y1682485D02*
X4881857Y1666771D01*
X4881857Y1666771D02*
X4883286Y1663914D01*
X4883286Y1663914D02*
X4886143Y1662485D01*
X4886143Y1662485D02*
X4890428Y1662485D01*
X4890428Y1662485D02*
X4893286Y1663914D01*
X4893286Y1663914D02*
X4894714Y1665343D01*
X4909000Y1682485D02*
X4909000Y1662485D01*
X4909000Y1679628D02*
X4910429Y1681057D01*
X4910429Y1681057D02*
X4913286Y1682485D01*
X4913286Y1682485D02*
X4917571Y1682485D01*
X4917571Y1682485D02*
X4920429Y1681057D01*
X4920429Y1681057D02*
X4921857Y1678200D01*
X4921857Y1678200D02*
X4921857Y1662485D01*
X4931857Y1682485D02*
X4943286Y1682485D01*
X4936143Y1692485D02*
X4936143Y1666771D01*
X4936143Y1666771D02*
X4937571Y1663914D01*
X4937571Y1663914D02*
X4940429Y1662485D01*
X4940429Y1662485D02*
X4943286Y1662485D01*
X4953286Y1662485D02*
X4953286Y1682485D01*
X4953286Y1692485D02*
X4951857Y1691057D01*
X4951857Y1691057D02*
X4953286Y1689628D01*
X4953286Y1689628D02*
X4954714Y1691057D01*
X4954714Y1691057D02*
X4953286Y1692485D01*
X4953286Y1692485D02*
X4953286Y1689628D01*
X4967571Y1682485D02*
X4967571Y1662485D01*
X4967571Y1679628D02*
X4969000Y1681057D01*
X4969000Y1681057D02*
X4971857Y1682485D01*
X4971857Y1682485D02*
X4976143Y1682485D01*
X4976143Y1682485D02*
X4979000Y1681057D01*
X4979000Y1681057D02*
X4980429Y1678200D01*
X4980429Y1678200D02*
X4980429Y1662485D01*
X5007572Y1682485D02*
X5007572Y1658200D01*
X5007572Y1658200D02*
X5006143Y1655343D01*
X5006143Y1655343D02*
X5004714Y1653914D01*
X5004714Y1653914D02*
X5001857Y1652485D01*
X5001857Y1652485D02*
X4997572Y1652485D01*
X4997572Y1652485D02*
X4994714Y1653914D01*
X5007572Y1663914D02*
X5004714Y1662485D01*
X5004714Y1662485D02*
X4999000Y1662485D01*
X4999000Y1662485D02*
X4996143Y1663914D01*
X4996143Y1663914D02*
X4994714Y1665343D01*
X4994714Y1665343D02*
X4993286Y1668200D01*
X4993286Y1668200D02*
X4993286Y1676771D01*
X4993286Y1676771D02*
X4994714Y1679628D01*
X4994714Y1679628D02*
X4996143Y1681057D01*
X4996143Y1681057D02*
X4999000Y1682485D01*
X4999000Y1682485D02*
X5004714Y1682485D01*
X5004714Y1682485D02*
X5007572Y1681057D01*
X5021857Y1662485D02*
X5021857Y1692485D01*
X5021857Y1678200D02*
X5039000Y1678200D01*
X5039000Y1662485D02*
X5039000Y1692485D01*
X5057572Y1662485D02*
X5054714Y1663914D01*
X5054714Y1663914D02*
X5053286Y1665343D01*
X5053286Y1665343D02*
X5051857Y1668200D01*
X5051857Y1668200D02*
X5051857Y1676771D01*
X5051857Y1676771D02*
X5053286Y1679628D01*
X5053286Y1679628D02*
X5054714Y1681057D01*
X5054714Y1681057D02*
X5057572Y1682485D01*
X5057572Y1682485D02*
X5061857Y1682485D01*
X5061857Y1682485D02*
X5064714Y1681057D01*
X5064714Y1681057D02*
X5066143Y1679628D01*
X5066143Y1679628D02*
X5067572Y1676771D01*
X5067572Y1676771D02*
X5067572Y1668200D01*
X5067572Y1668200D02*
X5066143Y1665343D01*
X5066143Y1665343D02*
X5064714Y1663914D01*
X5064714Y1663914D02*
X5061857Y1662485D01*
X5061857Y1662485D02*
X5057572Y1662485D01*
X5084714Y1662485D02*
X5081857Y1663914D01*
X5081857Y1663914D02*
X5080429Y1666771D01*
X5080429Y1666771D02*
X5080429Y1692485D01*
X5107572Y1663914D02*
X5104714Y1662485D01*
X5104714Y1662485D02*
X5099000Y1662485D01*
X5099000Y1662485D02*
X5096143Y1663914D01*
X5096143Y1663914D02*
X5094714Y1666771D01*
X5094714Y1666771D02*
X5094714Y1678200D01*
X5094714Y1678200D02*
X5096143Y1681057D01*
X5096143Y1681057D02*
X5099000Y1682485D01*
X5099000Y1682485D02*
X5104714Y1682485D01*
X5104714Y1682485D02*
X5107572Y1681057D01*
X5107572Y1681057D02*
X5109000Y1678200D01*
X5109000Y1678200D02*
X5109000Y1675343D01*
X5109000Y1675343D02*
X5094714Y1672485D01*
X4931143Y1714485D02*
X4931143Y1744485D01*
X4931143Y1730200D02*
X4948286Y1730200D01*
X4948286Y1714485D02*
X4948286Y1744485D01*
X4959714Y1744485D02*
X4978286Y1744485D01*
X4978286Y1744485D02*
X4968286Y1733057D01*
X4968286Y1733057D02*
X4972571Y1733057D01*
X4972571Y1733057D02*
X4975429Y1731628D01*
X4975429Y1731628D02*
X4976857Y1730200D01*
X4976857Y1730200D02*
X4978286Y1727343D01*
X4978286Y1727343D02*
X4978286Y1720200D01*
X4978286Y1720200D02*
X4976857Y1717343D01*
X4976857Y1717343D02*
X4975429Y1715914D01*
X4975429Y1715914D02*
X4972571Y1714485D01*
X4972571Y1714485D02*
X4964000Y1714485D01*
X4964000Y1714485D02*
X4961143Y1715914D01*
X4961143Y1715914D02*
X4959714Y1717343D01*
X3371571Y946485D02*
X3354428Y946485D01*
X3363000Y946485D02*
X3363000Y976485D01*
X3363000Y976485D02*
X3360143Y972200D01*
X3360143Y972200D02*
X3357286Y969343D01*
X3357286Y969343D02*
X3354428Y967914D01*
X3384428Y946485D02*
X3384428Y976485D01*
X3401571Y946485D02*
X3388714Y963628D01*
X3401571Y976485D02*
X3384428Y959343D01*
X3358714Y1008485D02*
X3348714Y1022771D01*
X3341571Y1008485D02*
X3341571Y1038485D01*
X3341571Y1038485D02*
X3353000Y1038485D01*
X3353000Y1038485D02*
X3355857Y1037057D01*
X3355857Y1037057D02*
X3357286Y1035628D01*
X3357286Y1035628D02*
X3358714Y1032771D01*
X3358714Y1032771D02*
X3358714Y1028485D01*
X3358714Y1028485D02*
X3357286Y1025628D01*
X3357286Y1025628D02*
X3355857Y1024200D01*
X3355857Y1024200D02*
X3353000Y1022771D01*
X3353000Y1022771D02*
X3341571Y1022771D01*
X3387286Y1008485D02*
X3370143Y1008485D01*
X3378714Y1008485D02*
X3378714Y1038485D01*
X3378714Y1038485D02*
X3375857Y1034200D01*
X3375857Y1034200D02*
X3373000Y1031343D01*
X3373000Y1031343D02*
X3370143Y1029914D01*
X3405857Y1038485D02*
X3408714Y1038485D01*
X3408714Y1038485D02*
X3411571Y1037057D01*
X3411571Y1037057D02*
X3413000Y1035628D01*
X3413000Y1035628D02*
X3414428Y1032771D01*
X3414428Y1032771D02*
X3415857Y1027057D01*
X3415857Y1027057D02*
X3415857Y1019914D01*
X3415857Y1019914D02*
X3414428Y1014200D01*
X3414428Y1014200D02*
X3413000Y1011343D01*
X3413000Y1011343D02*
X3411571Y1009914D01*
X3411571Y1009914D02*
X3408714Y1008485D01*
X3408714Y1008485D02*
X3405857Y1008485D01*
X3405857Y1008485D02*
X3403000Y1009914D01*
X3403000Y1009914D02*
X3401571Y1011343D01*
X3401571Y1011343D02*
X3400143Y1014200D01*
X3400143Y1014200D02*
X3398714Y1019914D01*
X3398714Y1019914D02*
X3398714Y1027057D01*
X3398714Y1027057D02*
X3400143Y1032771D01*
X3400143Y1032771D02*
X3401571Y1035628D01*
X3401571Y1035628D02*
X3403000Y1037057D01*
X3403000Y1037057D02*
X3405857Y1038485D01*
X2381515Y1578714D02*
X2381515Y1581571D01*
X2381515Y1581571D02*
X2382943Y1584429D01*
X2382943Y1584429D02*
X2384372Y1585857D01*
X2384372Y1585857D02*
X2387229Y1587286D01*
X2387229Y1587286D02*
X2392943Y1588714D01*
X2392943Y1588714D02*
X2400086Y1588714D01*
X2400086Y1588714D02*
X2405800Y1587286D01*
X2405800Y1587286D02*
X2408657Y1585857D01*
X2408657Y1585857D02*
X2410086Y1584429D01*
X2410086Y1584429D02*
X2411515Y1581571D01*
X2411515Y1581571D02*
X2411515Y1578714D01*
X2411515Y1578714D02*
X2410086Y1575857D01*
X2410086Y1575857D02*
X2408657Y1574429D01*
X2408657Y1574429D02*
X2405800Y1573000D01*
X2405800Y1573000D02*
X2400086Y1571571D01*
X2400086Y1571571D02*
X2392943Y1571571D01*
X2392943Y1571571D02*
X2387229Y1573000D01*
X2387229Y1573000D02*
X2384372Y1574429D01*
X2384372Y1574429D02*
X2382943Y1575857D01*
X2382943Y1575857D02*
X2381515Y1578714D01*
X2408657Y1601571D02*
X2410086Y1603000D01*
X2410086Y1603000D02*
X2411515Y1601571D01*
X2411515Y1601571D02*
X2410086Y1600143D01*
X2410086Y1600143D02*
X2408657Y1601571D01*
X2408657Y1601571D02*
X2411515Y1601571D01*
X2411515Y1631571D02*
X2411515Y1614429D01*
X2411515Y1623000D02*
X2381515Y1623000D01*
X2381515Y1623000D02*
X2385800Y1620143D01*
X2385800Y1620143D02*
X2388657Y1617286D01*
X2388657Y1617286D02*
X2390086Y1614429D01*
X2391515Y1657286D02*
X2411515Y1657286D01*
X2391515Y1644429D02*
X2407229Y1644429D01*
X2407229Y1644429D02*
X2410086Y1645857D01*
X2410086Y1645857D02*
X2411515Y1648714D01*
X2411515Y1648714D02*
X2411515Y1653000D01*
X2411515Y1653000D02*
X2410086Y1655857D01*
X2410086Y1655857D02*
X2408657Y1657286D01*
X2395800Y1681571D02*
X2395800Y1671571D01*
X2411515Y1671571D02*
X2381515Y1671571D01*
X2381515Y1671571D02*
X2381515Y1685857D01*
X2347657Y1603714D02*
X2349086Y1602286D01*
X2349086Y1602286D02*
X2350515Y1598000D01*
X2350515Y1598000D02*
X2350515Y1595143D01*
X2350515Y1595143D02*
X2349086Y1590857D01*
X2349086Y1590857D02*
X2346229Y1588000D01*
X2346229Y1588000D02*
X2343372Y1586571D01*
X2343372Y1586571D02*
X2337657Y1585143D01*
X2337657Y1585143D02*
X2333372Y1585143D01*
X2333372Y1585143D02*
X2327657Y1586571D01*
X2327657Y1586571D02*
X2324800Y1588000D01*
X2324800Y1588000D02*
X2321943Y1590857D01*
X2321943Y1590857D02*
X2320515Y1595143D01*
X2320515Y1595143D02*
X2320515Y1598000D01*
X2320515Y1598000D02*
X2321943Y1602286D01*
X2321943Y1602286D02*
X2323372Y1603714D01*
X2350515Y1632286D02*
X2350515Y1615143D01*
X2350515Y1623714D02*
X2320515Y1623714D01*
X2320515Y1623714D02*
X2324800Y1620857D01*
X2324800Y1620857D02*
X2327657Y1618000D01*
X2327657Y1618000D02*
X2329086Y1615143D01*
X2320515Y1650857D02*
X2320515Y1653714D01*
X2320515Y1653714D02*
X2321943Y1656571D01*
X2321943Y1656571D02*
X2323372Y1658000D01*
X2323372Y1658000D02*
X2326229Y1659429D01*
X2326229Y1659429D02*
X2331943Y1660857D01*
X2331943Y1660857D02*
X2339086Y1660857D01*
X2339086Y1660857D02*
X2344800Y1659429D01*
X2344800Y1659429D02*
X2347657Y1658000D01*
X2347657Y1658000D02*
X2349086Y1656571D01*
X2349086Y1656571D02*
X2350515Y1653714D01*
X2350515Y1653714D02*
X2350515Y1650857D01*
X2350515Y1650857D02*
X2349086Y1648000D01*
X2349086Y1648000D02*
X2347657Y1646571D01*
X2347657Y1646571D02*
X2344800Y1645143D01*
X2344800Y1645143D02*
X2339086Y1643714D01*
X2339086Y1643714D02*
X2331943Y1643714D01*
X2331943Y1643714D02*
X2326229Y1645143D01*
X2326229Y1645143D02*
X2323372Y1646571D01*
X2323372Y1646571D02*
X2321943Y1648000D01*
X2321943Y1648000D02*
X2320515Y1650857D01*
X2705143Y1080486D02*
X2695143Y1094771D01*
X2688000Y1080486D02*
X2688000Y1110486D01*
X2688000Y1110486D02*
X2699429Y1110486D01*
X2699429Y1110486D02*
X2702286Y1109057D01*
X2702286Y1109057D02*
X2703714Y1107628D01*
X2703714Y1107628D02*
X2705143Y1104771D01*
X2705143Y1104771D02*
X2705143Y1100486D01*
X2705143Y1100486D02*
X2703714Y1097628D01*
X2703714Y1097628D02*
X2702286Y1096200D01*
X2702286Y1096200D02*
X2699429Y1094771D01*
X2699429Y1094771D02*
X2688000Y1094771D01*
X2718000Y1080486D02*
X2718000Y1110486D01*
X2718000Y1110486D02*
X2729429Y1110486D01*
X2729429Y1110486D02*
X2732286Y1109057D01*
X2732286Y1109057D02*
X2733714Y1107628D01*
X2733714Y1107628D02*
X2735143Y1104771D01*
X2735143Y1104771D02*
X2735143Y1100486D01*
X2735143Y1100486D02*
X2733714Y1097628D01*
X2733714Y1097628D02*
X2732286Y1096200D01*
X2732286Y1096200D02*
X2729429Y1094771D01*
X2729429Y1094771D02*
X2718000Y1094771D01*
X2746571Y1107628D02*
X2748000Y1109057D01*
X2748000Y1109057D02*
X2750857Y1110486D01*
X2750857Y1110486D02*
X2758000Y1110486D01*
X2758000Y1110486D02*
X2760857Y1109057D01*
X2760857Y1109057D02*
X2762286Y1107628D01*
X2762286Y1107628D02*
X2763714Y1104771D01*
X2763714Y1104771D02*
X2763714Y1101914D01*
X2763714Y1101914D02*
X2762286Y1097628D01*
X2762286Y1097628D02*
X2745143Y1080486D01*
X2745143Y1080486D02*
X2763714Y1080486D01*
X2782286Y1110486D02*
X2785143Y1110486D01*
X2785143Y1110486D02*
X2788000Y1109057D01*
X2788000Y1109057D02*
X2789429Y1107628D01*
X2789429Y1107628D02*
X2790857Y1104771D01*
X2790857Y1104771D02*
X2792286Y1099057D01*
X2792286Y1099057D02*
X2792286Y1091914D01*
X2792286Y1091914D02*
X2790857Y1086200D01*
X2790857Y1086200D02*
X2789429Y1083343D01*
X2789429Y1083343D02*
X2788000Y1081914D01*
X2788000Y1081914D02*
X2785143Y1080486D01*
X2785143Y1080486D02*
X2782286Y1080486D01*
X2782286Y1080486D02*
X2779429Y1081914D01*
X2779429Y1081914D02*
X2778000Y1083343D01*
X2778000Y1083343D02*
X2776571Y1086200D01*
X2776571Y1086200D02*
X2775143Y1091914D01*
X2775143Y1091914D02*
X2775143Y1099057D01*
X2775143Y1099057D02*
X2776571Y1104771D01*
X2776571Y1104771D02*
X2778000Y1107628D01*
X2778000Y1107628D02*
X2779429Y1109057D01*
X2779429Y1109057D02*
X2782286Y1110486D01*
X2818000Y1100486D02*
X2818000Y1080486D01*
X2810857Y1111914D02*
X2803714Y1090486D01*
X2803714Y1090486D02*
X2822286Y1090486D01*
X2839428Y1110486D02*
X2842286Y1110486D01*
X2842286Y1110486D02*
X2845143Y1109057D01*
X2845143Y1109057D02*
X2846571Y1107628D01*
X2846571Y1107628D02*
X2848000Y1104771D01*
X2848000Y1104771D02*
X2849428Y1099057D01*
X2849428Y1099057D02*
X2849428Y1091914D01*
X2849428Y1091914D02*
X2848000Y1086200D01*
X2848000Y1086200D02*
X2846571Y1083343D01*
X2846571Y1083343D02*
X2845143Y1081914D01*
X2845143Y1081914D02*
X2842286Y1080486D01*
X2842286Y1080486D02*
X2839428Y1080486D01*
X2839428Y1080486D02*
X2836571Y1081914D01*
X2836571Y1081914D02*
X2835143Y1083343D01*
X2835143Y1083343D02*
X2833714Y1086200D01*
X2833714Y1086200D02*
X2832286Y1091914D01*
X2832286Y1091914D02*
X2832286Y1099057D01*
X2832286Y1099057D02*
X2833714Y1104771D01*
X2833714Y1104771D02*
X2835143Y1107628D01*
X2835143Y1107628D02*
X2836571Y1109057D01*
X2836571Y1109057D02*
X2839428Y1110486D01*
X2740143Y1173486D02*
X2740143Y1149200D01*
X2740143Y1149200D02*
X2741571Y1146343D01*
X2741571Y1146343D02*
X2743000Y1144914D01*
X2743000Y1144914D02*
X2745857Y1143486D01*
X2745857Y1143486D02*
X2751571Y1143486D01*
X2751571Y1143486D02*
X2754429Y1144914D01*
X2754429Y1144914D02*
X2755857Y1146343D01*
X2755857Y1146343D02*
X2757286Y1149200D01*
X2757286Y1149200D02*
X2757286Y1173486D01*
X2768714Y1173486D02*
X2787286Y1173486D01*
X2787286Y1173486D02*
X2777286Y1162057D01*
X2777286Y1162057D02*
X2781571Y1162057D01*
X2781571Y1162057D02*
X2784429Y1160628D01*
X2784429Y1160628D02*
X2785857Y1159200D01*
X2785857Y1159200D02*
X2787286Y1156343D01*
X2787286Y1156343D02*
X2787286Y1149200D01*
X2787286Y1149200D02*
X2785857Y1146343D01*
X2785857Y1146343D02*
X2784429Y1144914D01*
X2784429Y1144914D02*
X2781571Y1143486D01*
X2781571Y1143486D02*
X2773000Y1143486D01*
X2773000Y1143486D02*
X2770143Y1144914D01*
X2770143Y1144914D02*
X2768714Y1146343D01*
X2177143Y1194128D02*
X2178571Y1195557D01*
X2178571Y1195557D02*
X2181429Y1196986D01*
X2181429Y1196986D02*
X2188571Y1196986D01*
X2188571Y1196986D02*
X2191429Y1195557D01*
X2191429Y1195557D02*
X2192857Y1194128D01*
X2192857Y1194128D02*
X2194286Y1191271D01*
X2194286Y1191271D02*
X2194286Y1188414D01*
X2194286Y1188414D02*
X2192857Y1184128D01*
X2192857Y1184128D02*
X2175714Y1166986D01*
X2175714Y1166986D02*
X2194286Y1166986D01*
X2204286Y1196986D02*
X2224286Y1196986D01*
X2224286Y1196986D02*
X2211429Y1166986D01*
X2252857Y1166986D02*
X2242857Y1181271D01*
X2235714Y1166986D02*
X2235714Y1196986D01*
X2235714Y1196986D02*
X2247143Y1196986D01*
X2247143Y1196986D02*
X2250000Y1195557D01*
X2250000Y1195557D02*
X2251429Y1194128D01*
X2251429Y1194128D02*
X2252857Y1191271D01*
X2252857Y1191271D02*
X2252857Y1186986D01*
X2252857Y1186986D02*
X2251429Y1184128D01*
X2251429Y1184128D02*
X2250000Y1182700D01*
X2250000Y1182700D02*
X2247143Y1181271D01*
X2247143Y1181271D02*
X2235714Y1181271D01*
X2100038Y1167095D02*
X2090038Y1181381D01*
X2082895Y1167095D02*
X2082895Y1197095D01*
X2082895Y1197095D02*
X2094323Y1197095D01*
X2094323Y1197095D02*
X2097180Y1195667D01*
X2097180Y1195667D02*
X2098609Y1194238D01*
X2098609Y1194238D02*
X2100038Y1191381D01*
X2100038Y1191381D02*
X2100038Y1187095D01*
X2100038Y1187095D02*
X2098609Y1184238D01*
X2098609Y1184238D02*
X2097180Y1182810D01*
X2097180Y1182810D02*
X2094323Y1181381D01*
X2094323Y1181381D02*
X2082895Y1181381D01*
X2127180Y1197095D02*
X2112895Y1197095D01*
X2112895Y1197095D02*
X2111466Y1182810D01*
X2111466Y1182810D02*
X2112895Y1184238D01*
X2112895Y1184238D02*
X2115752Y1185667D01*
X2115752Y1185667D02*
X2122895Y1185667D01*
X2122895Y1185667D02*
X2125752Y1184238D01*
X2125752Y1184238D02*
X2127180Y1182810D01*
X2127180Y1182810D02*
X2128609Y1179952D01*
X2128609Y1179952D02*
X2128609Y1172810D01*
X2128609Y1172810D02*
X2127180Y1169952D01*
X2127180Y1169952D02*
X2125752Y1168524D01*
X2125752Y1168524D02*
X2122895Y1167095D01*
X2122895Y1167095D02*
X2115752Y1167095D01*
X2115752Y1167095D02*
X2112895Y1168524D01*
X2112895Y1168524D02*
X2111466Y1169952D01*
X3202714Y1285486D02*
X3205571Y1285486D01*
X3205571Y1285486D02*
X3208429Y1284057D01*
X3208429Y1284057D02*
X3209857Y1282628D01*
X3209857Y1282628D02*
X3211286Y1279771D01*
X3211286Y1279771D02*
X3212714Y1274057D01*
X3212714Y1274057D02*
X3212714Y1266914D01*
X3212714Y1266914D02*
X3211286Y1261200D01*
X3211286Y1261200D02*
X3209857Y1258343D01*
X3209857Y1258343D02*
X3208429Y1256914D01*
X3208429Y1256914D02*
X3205571Y1255486D01*
X3205571Y1255486D02*
X3202714Y1255486D01*
X3202714Y1255486D02*
X3199857Y1256914D01*
X3199857Y1256914D02*
X3198429Y1258343D01*
X3198429Y1258343D02*
X3197000Y1261200D01*
X3197000Y1261200D02*
X3195571Y1266914D01*
X3195571Y1266914D02*
X3195571Y1274057D01*
X3195571Y1274057D02*
X3197000Y1279771D01*
X3197000Y1279771D02*
X3198429Y1282628D01*
X3198429Y1282628D02*
X3199857Y1284057D01*
X3199857Y1284057D02*
X3202714Y1285486D01*
X3225571Y1258343D02*
X3227000Y1256914D01*
X3227000Y1256914D02*
X3225571Y1255486D01*
X3225571Y1255486D02*
X3224143Y1256914D01*
X3224143Y1256914D02*
X3225571Y1258343D01*
X3225571Y1258343D02*
X3225571Y1255486D01*
X3255571Y1255486D02*
X3238428Y1255486D01*
X3247000Y1255486D02*
X3247000Y1285486D01*
X3247000Y1285486D02*
X3244143Y1281200D01*
X3244143Y1281200D02*
X3241286Y1278343D01*
X3241286Y1278343D02*
X3238428Y1276914D01*
X3281286Y1275486D02*
X3281286Y1255486D01*
X3268428Y1275486D02*
X3268428Y1259771D01*
X3268428Y1259771D02*
X3269857Y1256914D01*
X3269857Y1256914D02*
X3272714Y1255486D01*
X3272714Y1255486D02*
X3277000Y1255486D01*
X3277000Y1255486D02*
X3279857Y1256914D01*
X3279857Y1256914D02*
X3281286Y1258343D01*
X3305571Y1271200D02*
X3295571Y1271200D01*
X3295571Y1255486D02*
X3295571Y1285486D01*
X3295571Y1285486D02*
X3309857Y1285486D01*
X3371887Y1263395D02*
X3370458Y1261966D01*
X3370458Y1261966D02*
X3366173Y1260538D01*
X3366173Y1260538D02*
X3363315Y1260538D01*
X3363315Y1260538D02*
X3359030Y1261966D01*
X3359030Y1261966D02*
X3356173Y1264823D01*
X3356173Y1264823D02*
X3354744Y1267680D01*
X3354744Y1267680D02*
X3353315Y1273395D01*
X3353315Y1273395D02*
X3353315Y1277680D01*
X3353315Y1277680D02*
X3354744Y1283395D01*
X3354744Y1283395D02*
X3356173Y1286252D01*
X3356173Y1286252D02*
X3359030Y1289109D01*
X3359030Y1289109D02*
X3363315Y1290538D01*
X3363315Y1290538D02*
X3366173Y1290538D01*
X3366173Y1290538D02*
X3370458Y1289109D01*
X3370458Y1289109D02*
X3371887Y1287680D01*
X3383315Y1287680D02*
X3384744Y1289109D01*
X3384744Y1289109D02*
X3387601Y1290538D01*
X3387601Y1290538D02*
X3394744Y1290538D01*
X3394744Y1290538D02*
X3397601Y1289109D01*
X3397601Y1289109D02*
X3399030Y1287680D01*
X3399030Y1287680D02*
X3400458Y1284823D01*
X3400458Y1284823D02*
X3400458Y1281966D01*
X3400458Y1281966D02*
X3399030Y1277680D01*
X3399030Y1277680D02*
X3381887Y1260538D01*
X3381887Y1260538D02*
X3400458Y1260538D01*
X1202572Y943485D02*
X1209714Y913485D01*
X1209714Y913485D02*
X1215429Y934914D01*
X1215429Y934914D02*
X1221143Y913485D01*
X1221143Y913485D02*
X1228286Y943485D01*
X1238286Y940628D02*
X1239714Y942057D01*
X1239714Y942057D02*
X1242572Y943485D01*
X1242572Y943485D02*
X1249714Y943485D01*
X1249714Y943485D02*
X1252572Y942057D01*
X1252572Y942057D02*
X1254000Y940628D01*
X1254000Y940628D02*
X1255429Y937771D01*
X1255429Y937771D02*
X1255429Y934914D01*
X1255429Y934914D02*
X1254000Y930628D01*
X1254000Y930628D02*
X1236857Y913485D01*
X1236857Y913485D02*
X1255429Y913485D01*
X1282571Y943485D02*
X1268286Y943485D01*
X1268286Y943485D02*
X1266857Y929200D01*
X1266857Y929200D02*
X1268286Y930628D01*
X1268286Y930628D02*
X1271143Y932057D01*
X1271143Y932057D02*
X1278286Y932057D01*
X1278286Y932057D02*
X1281143Y930628D01*
X1281143Y930628D02*
X1282571Y929200D01*
X1282571Y929200D02*
X1284000Y926343D01*
X1284000Y926343D02*
X1284000Y919200D01*
X1284000Y919200D02*
X1282571Y916343D01*
X1282571Y916343D02*
X1281143Y914914D01*
X1281143Y914914D02*
X1278286Y913485D01*
X1278286Y913485D02*
X1271143Y913485D01*
X1271143Y913485D02*
X1268286Y914914D01*
X1268286Y914914D02*
X1266857Y916343D01*
X1316857Y910628D02*
X1314000Y912057D01*
X1314000Y912057D02*
X1311143Y914914D01*
X1311143Y914914D02*
X1306857Y919200D01*
X1306857Y919200D02*
X1304000Y920628D01*
X1304000Y920628D02*
X1301143Y920628D01*
X1302571Y913485D02*
X1299714Y914914D01*
X1299714Y914914D02*
X1296857Y917771D01*
X1296857Y917771D02*
X1295429Y923485D01*
X1295429Y923485D02*
X1295429Y933485D01*
X1295429Y933485D02*
X1296857Y939200D01*
X1296857Y939200D02*
X1299714Y942057D01*
X1299714Y942057D02*
X1302571Y943485D01*
X1302571Y943485D02*
X1308286Y943485D01*
X1308286Y943485D02*
X1311143Y942057D01*
X1311143Y942057D02*
X1314000Y939200D01*
X1314000Y939200D02*
X1315429Y933485D01*
X1315429Y933485D02*
X1315429Y923485D01*
X1315429Y923485D02*
X1314000Y917771D01*
X1314000Y917771D02*
X1311143Y914914D01*
X1311143Y914914D02*
X1308286Y913485D01*
X1308286Y913485D02*
X1302571Y913485D01*
X1325429Y943485D02*
X1344000Y943485D01*
X1344000Y943485D02*
X1334000Y932057D01*
X1334000Y932057D02*
X1338286Y932057D01*
X1338286Y932057D02*
X1341143Y930628D01*
X1341143Y930628D02*
X1342571Y929200D01*
X1342571Y929200D02*
X1344000Y926343D01*
X1344000Y926343D02*
X1344000Y919200D01*
X1344000Y919200D02*
X1342571Y916343D01*
X1342571Y916343D02*
X1341143Y914914D01*
X1341143Y914914D02*
X1338286Y913485D01*
X1338286Y913485D02*
X1329714Y913485D01*
X1329714Y913485D02*
X1326857Y914914D01*
X1326857Y914914D02*
X1325429Y916343D01*
X1355429Y940628D02*
X1356857Y942057D01*
X1356857Y942057D02*
X1359714Y943485D01*
X1359714Y943485D02*
X1366857Y943485D01*
X1366857Y943485D02*
X1369714Y942057D01*
X1369714Y942057D02*
X1371143Y940628D01*
X1371143Y940628D02*
X1372571Y937771D01*
X1372571Y937771D02*
X1372571Y934914D01*
X1372571Y934914D02*
X1371143Y930628D01*
X1371143Y930628D02*
X1354000Y913485D01*
X1354000Y913485D02*
X1372571Y913485D01*
X1394000Y943485D02*
X1394000Y922057D01*
X1394000Y922057D02*
X1392571Y917771D01*
X1392571Y917771D02*
X1389714Y914914D01*
X1389714Y914914D02*
X1385429Y913485D01*
X1385429Y913485D02*
X1382571Y913485D01*
X1404000Y943485D02*
X1414000Y913485D01*
X1414000Y913485D02*
X1424000Y943485D01*
X1432571Y914914D02*
X1436857Y913485D01*
X1436857Y913485D02*
X1444000Y913485D01*
X1444000Y913485D02*
X1446857Y914914D01*
X1446857Y914914D02*
X1448286Y916343D01*
X1448286Y916343D02*
X1449714Y919200D01*
X1449714Y919200D02*
X1449714Y922057D01*
X1449714Y922057D02*
X1448286Y924914D01*
X1448286Y924914D02*
X1446857Y926343D01*
X1446857Y926343D02*
X1444000Y927771D01*
X1444000Y927771D02*
X1438286Y929200D01*
X1438286Y929200D02*
X1435428Y930628D01*
X1435428Y930628D02*
X1434000Y932057D01*
X1434000Y932057D02*
X1432571Y934914D01*
X1432571Y934914D02*
X1432571Y937771D01*
X1432571Y937771D02*
X1434000Y940628D01*
X1434000Y940628D02*
X1435428Y942057D01*
X1435428Y942057D02*
X1438286Y943485D01*
X1438286Y943485D02*
X1445428Y943485D01*
X1445428Y943485D02*
X1449714Y942057D01*
X1461143Y914914D02*
X1465428Y913485D01*
X1465428Y913485D02*
X1472571Y913485D01*
X1472571Y913485D02*
X1475428Y914914D01*
X1475428Y914914D02*
X1476857Y916343D01*
X1476857Y916343D02*
X1478286Y919200D01*
X1478286Y919200D02*
X1478286Y922057D01*
X1478286Y922057D02*
X1476857Y924914D01*
X1476857Y924914D02*
X1475428Y926343D01*
X1475428Y926343D02*
X1472571Y927771D01*
X1472571Y927771D02*
X1466857Y929200D01*
X1466857Y929200D02*
X1464000Y930628D01*
X1464000Y930628D02*
X1462571Y932057D01*
X1462571Y932057D02*
X1461143Y934914D01*
X1461143Y934914D02*
X1461143Y937771D01*
X1461143Y937771D02*
X1462571Y940628D01*
X1462571Y940628D02*
X1464000Y942057D01*
X1464000Y942057D02*
X1466857Y943485D01*
X1466857Y943485D02*
X1474000Y943485D01*
X1474000Y943485D02*
X1478286Y942057D01*
X1491143Y913485D02*
X1491143Y943485D01*
X1525428Y910628D02*
X1522571Y912057D01*
X1522571Y912057D02*
X1519714Y914914D01*
X1519714Y914914D02*
X1515428Y919200D01*
X1515428Y919200D02*
X1512571Y920628D01*
X1512571Y920628D02*
X1509714Y920628D01*
X1511143Y913485D02*
X1508286Y914914D01*
X1508286Y914914D02*
X1505428Y917771D01*
X1505428Y917771D02*
X1504000Y923485D01*
X1504000Y923485D02*
X1504000Y933485D01*
X1504000Y933485D02*
X1505428Y939200D01*
X1505428Y939200D02*
X1508286Y942057D01*
X1508286Y942057D02*
X1511143Y943485D01*
X1511143Y943485D02*
X1516857Y943485D01*
X1516857Y943485D02*
X1519714Y942057D01*
X1519714Y942057D02*
X1522571Y939200D01*
X1522571Y939200D02*
X1524000Y933485D01*
X1524000Y933485D02*
X1524000Y923485D01*
X1524000Y923485D02*
X1522571Y917771D01*
X1522571Y917771D02*
X1519714Y914914D01*
X1519714Y914914D02*
X1516857Y913485D01*
X1516857Y913485D02*
X1511143Y913485D01*
X1341143Y1000485D02*
X1341143Y976200D01*
X1341143Y976200D02*
X1342571Y973343D01*
X1342571Y973343D02*
X1344000Y971914D01*
X1344000Y971914D02*
X1346857Y970485D01*
X1346857Y970485D02*
X1352571Y970485D01*
X1352571Y970485D02*
X1355429Y971914D01*
X1355429Y971914D02*
X1356857Y973343D01*
X1356857Y973343D02*
X1358286Y976200D01*
X1358286Y976200D02*
X1358286Y1000485D01*
X1388286Y970485D02*
X1371143Y970485D01*
X1379714Y970485D02*
X1379714Y1000485D01*
X1379714Y1000485D02*
X1376857Y996200D01*
X1376857Y996200D02*
X1374000Y993343D01*
X1374000Y993343D02*
X1371143Y991914D01*
X2184643Y1059486D02*
X2167500Y1059486D01*
X2176071Y1059486D02*
X2176071Y1089486D01*
X2176071Y1089486D02*
X2173214Y1085200D01*
X2173214Y1085200D02*
X2170357Y1082343D01*
X2170357Y1082343D02*
X2167500Y1080914D01*
X2210357Y1079486D02*
X2210357Y1059486D01*
X2197500Y1079486D02*
X2197500Y1063771D01*
X2197500Y1063771D02*
X2198929Y1060914D01*
X2198929Y1060914D02*
X2201786Y1059486D01*
X2201786Y1059486D02*
X2206071Y1059486D01*
X2206071Y1059486D02*
X2208929Y1060914D01*
X2208929Y1060914D02*
X2210357Y1062343D01*
X2234643Y1075200D02*
X2224643Y1075200D01*
X2224643Y1059486D02*
X2224643Y1089486D01*
X2224643Y1089486D02*
X2238929Y1089486D01*
X2091061Y1059871D02*
X2089632Y1058443D01*
X2089632Y1058443D02*
X2085347Y1057014D01*
X2085347Y1057014D02*
X2082489Y1057014D01*
X2082489Y1057014D02*
X2078204Y1058443D01*
X2078204Y1058443D02*
X2075347Y1061300D01*
X2075347Y1061300D02*
X2073918Y1064157D01*
X2073918Y1064157D02*
X2072489Y1069871D01*
X2072489Y1069871D02*
X2072489Y1074157D01*
X2072489Y1074157D02*
X2073918Y1079871D01*
X2073918Y1079871D02*
X2075347Y1082728D01*
X2075347Y1082728D02*
X2078204Y1085586D01*
X2078204Y1085586D02*
X2082489Y1087014D01*
X2082489Y1087014D02*
X2085347Y1087014D01*
X2085347Y1087014D02*
X2089632Y1085586D01*
X2089632Y1085586D02*
X2091061Y1084157D01*
X2118204Y1087014D02*
X2103918Y1087014D01*
X2103918Y1087014D02*
X2102489Y1072728D01*
X2102489Y1072728D02*
X2103918Y1074157D01*
X2103918Y1074157D02*
X2106775Y1075586D01*
X2106775Y1075586D02*
X2113918Y1075586D01*
X2113918Y1075586D02*
X2116775Y1074157D01*
X2116775Y1074157D02*
X2118204Y1072728D01*
X2118204Y1072728D02*
X2119632Y1069871D01*
X2119632Y1069871D02*
X2119632Y1062728D01*
X2119632Y1062728D02*
X2118204Y1059871D01*
X2118204Y1059871D02*
X2116775Y1058443D01*
X2116775Y1058443D02*
X2113918Y1057014D01*
X2113918Y1057014D02*
X2106775Y1057014D01*
X2106775Y1057014D02*
X2103918Y1058443D01*
X2103918Y1058443D02*
X2102489Y1059871D01*
X1834514Y979429D02*
X1804514Y979429D01*
X1804514Y979429D02*
X1804514Y986571D01*
X1804514Y986571D02*
X1805943Y990857D01*
X1805943Y990857D02*
X1808800Y993714D01*
X1808800Y993714D02*
X1811657Y995143D01*
X1811657Y995143D02*
X1817372Y996571D01*
X1817372Y996571D02*
X1821657Y996571D01*
X1821657Y996571D02*
X1827372Y995143D01*
X1827372Y995143D02*
X1830229Y993714D01*
X1830229Y993714D02*
X1833086Y990857D01*
X1833086Y990857D02*
X1834514Y986571D01*
X1834514Y986571D02*
X1834514Y979429D01*
X1834514Y1009429D02*
X1804514Y1009429D01*
X1804514Y1009429D02*
X1834514Y1026571D01*
X1834514Y1026571D02*
X1804514Y1026571D01*
X1834514Y1040857D02*
X1804514Y1040857D01*
X1804514Y1040857D02*
X1804514Y1052286D01*
X1804514Y1052286D02*
X1805943Y1055143D01*
X1805943Y1055143D02*
X1807372Y1056572D01*
X1807372Y1056572D02*
X1810229Y1058000D01*
X1810229Y1058000D02*
X1814514Y1058000D01*
X1814514Y1058000D02*
X1817372Y1056572D01*
X1817372Y1056572D02*
X1818800Y1055143D01*
X1818800Y1055143D02*
X1820229Y1052286D01*
X1820229Y1052286D02*
X1820229Y1040857D01*
X1896514Y1013000D02*
X1882229Y1003000D01*
X1896514Y995857D02*
X1866514Y995857D01*
X1866514Y995857D02*
X1866514Y1007286D01*
X1866514Y1007286D02*
X1867943Y1010143D01*
X1867943Y1010143D02*
X1869372Y1011571D01*
X1869372Y1011571D02*
X1872229Y1013000D01*
X1872229Y1013000D02*
X1876514Y1013000D01*
X1876514Y1013000D02*
X1879372Y1011571D01*
X1879372Y1011571D02*
X1880800Y1010143D01*
X1880800Y1010143D02*
X1882229Y1007286D01*
X1882229Y1007286D02*
X1882229Y995857D01*
X1896514Y1041571D02*
X1896514Y1024429D01*
X1896514Y1033000D02*
X1866514Y1033000D01*
X1866514Y1033000D02*
X1870800Y1030143D01*
X1870800Y1030143D02*
X1873657Y1027286D01*
X1873657Y1027286D02*
X1875086Y1024429D01*
X1881514Y985357D02*
X1881514Y1051805D01*
X2193143Y1380486D02*
X2176000Y1380486D01*
X2184571Y1380486D02*
X2184571Y1410485D01*
X2184571Y1410485D02*
X2181714Y1406200D01*
X2181714Y1406200D02*
X2178857Y1403343D01*
X2178857Y1403343D02*
X2176000Y1401914D01*
X2218857Y1400485D02*
X2218857Y1380486D01*
X2206000Y1400485D02*
X2206000Y1384771D01*
X2206000Y1384771D02*
X2207429Y1381914D01*
X2207429Y1381914D02*
X2210286Y1380486D01*
X2210286Y1380486D02*
X2214571Y1380486D01*
X2214571Y1380486D02*
X2217429Y1381914D01*
X2217429Y1381914D02*
X2218857Y1383343D01*
X2243143Y1396200D02*
X2233143Y1396200D01*
X2233143Y1380486D02*
X2233143Y1410485D01*
X2233143Y1410485D02*
X2247429Y1410485D01*
X2100969Y1380704D02*
X2099541Y1379276D01*
X2099541Y1379276D02*
X2095255Y1377847D01*
X2095255Y1377847D02*
X2092398Y1377847D01*
X2092398Y1377847D02*
X2088112Y1379276D01*
X2088112Y1379276D02*
X2085255Y1382133D01*
X2085255Y1382133D02*
X2083826Y1384990D01*
X2083826Y1384990D02*
X2082398Y1390704D01*
X2082398Y1390704D02*
X2082398Y1394990D01*
X2082398Y1394990D02*
X2083826Y1400704D01*
X2083826Y1400704D02*
X2085255Y1403561D01*
X2085255Y1403561D02*
X2088112Y1406418D01*
X2088112Y1406418D02*
X2092398Y1407847D01*
X2092398Y1407847D02*
X2095255Y1407847D01*
X2095255Y1407847D02*
X2099541Y1406418D01*
X2099541Y1406418D02*
X2100969Y1404990D01*
X2126684Y1397847D02*
X2126684Y1377847D01*
X2119541Y1409276D02*
X2112398Y1387847D01*
X2112398Y1387847D02*
X2130969Y1387847D01*
X759514Y651714D02*
X759514Y654572D01*
X759514Y654572D02*
X760943Y657429D01*
X760943Y657429D02*
X762372Y658857D01*
X762372Y658857D02*
X765229Y660286D01*
X765229Y660286D02*
X770943Y661714D01*
X770943Y661714D02*
X778086Y661714D01*
X778086Y661714D02*
X783800Y660286D01*
X783800Y660286D02*
X786657Y658857D01*
X786657Y658857D02*
X788086Y657429D01*
X788086Y657429D02*
X789514Y654572D01*
X789514Y654572D02*
X789514Y651714D01*
X789514Y651714D02*
X788086Y648857D01*
X788086Y648857D02*
X786657Y647429D01*
X786657Y647429D02*
X783800Y646000D01*
X783800Y646000D02*
X778086Y644572D01*
X778086Y644572D02*
X770943Y644572D01*
X770943Y644572D02*
X765229Y646000D01*
X765229Y646000D02*
X762372Y647429D01*
X762372Y647429D02*
X760943Y648857D01*
X760943Y648857D02*
X759514Y651714D01*
X786657Y674572D02*
X788086Y676000D01*
X788086Y676000D02*
X789514Y674572D01*
X789514Y674572D02*
X788086Y673143D01*
X788086Y673143D02*
X786657Y674572D01*
X786657Y674572D02*
X789514Y674572D01*
X789514Y704571D02*
X789514Y687429D01*
X789514Y696000D02*
X759514Y696000D01*
X759514Y696000D02*
X763800Y693143D01*
X763800Y693143D02*
X766657Y690286D01*
X766657Y690286D02*
X768086Y687429D01*
X769514Y730286D02*
X789514Y730286D01*
X769514Y717429D02*
X785229Y717429D01*
X785229Y717429D02*
X788086Y718857D01*
X788086Y718857D02*
X789514Y721714D01*
X789514Y721714D02*
X789514Y726000D01*
X789514Y726000D02*
X788086Y728857D01*
X788086Y728857D02*
X786657Y730286D01*
X773800Y754571D02*
X773800Y744571D01*
X789514Y744571D02*
X759514Y744571D01*
X759514Y744571D02*
X759514Y758857D01*
X841854Y684065D02*
X843283Y682636D01*
X843283Y682636D02*
X844711Y678351D01*
X844711Y678351D02*
X844711Y675494D01*
X844711Y675494D02*
X843283Y671208D01*
X843283Y671208D02*
X840426Y668351D01*
X840426Y668351D02*
X837569Y666922D01*
X837569Y666922D02*
X831854Y665494D01*
X831854Y665494D02*
X827569Y665494D01*
X827569Y665494D02*
X821854Y666922D01*
X821854Y666922D02*
X818997Y668351D01*
X818997Y668351D02*
X816140Y671208D01*
X816140Y671208D02*
X814711Y675494D01*
X814711Y675494D02*
X814711Y678351D01*
X814711Y678351D02*
X816140Y682636D01*
X816140Y682636D02*
X817569Y684065D01*
X844711Y712636D02*
X844711Y695494D01*
X844711Y704065D02*
X814711Y704065D01*
X814711Y704065D02*
X818997Y701208D01*
X818997Y701208D02*
X821854Y698351D01*
X821854Y698351D02*
X823283Y695494D01*
X4898286Y971914D02*
X4902572Y970485D01*
X4902572Y970485D02*
X4909714Y970485D01*
X4909714Y970485D02*
X4912572Y971914D01*
X4912572Y971914D02*
X4914000Y973343D01*
X4914000Y973343D02*
X4915429Y976200D01*
X4915429Y976200D02*
X4915429Y979057D01*
X4915429Y979057D02*
X4914000Y981914D01*
X4914000Y981914D02*
X4912572Y983343D01*
X4912572Y983343D02*
X4909714Y984771D01*
X4909714Y984771D02*
X4904000Y986200D01*
X4904000Y986200D02*
X4901143Y987628D01*
X4901143Y987628D02*
X4899714Y989057D01*
X4899714Y989057D02*
X4898286Y991914D01*
X4898286Y991914D02*
X4898286Y994771D01*
X4898286Y994771D02*
X4899714Y997628D01*
X4899714Y997628D02*
X4901143Y999057D01*
X4901143Y999057D02*
X4904000Y1000485D01*
X4904000Y1000485D02*
X4911143Y1000485D01*
X4911143Y1000485D02*
X4915429Y999057D01*
X4925429Y1000485D02*
X4932571Y970485D01*
X4932571Y970485D02*
X4938286Y991914D01*
X4938286Y991914D02*
X4944000Y970485D01*
X4944000Y970485D02*
X4951143Y1000485D01*
X4962571Y970485D02*
X4962571Y1000485D01*
X4962571Y1000485D02*
X4969714Y1000485D01*
X4969714Y1000485D02*
X4974000Y999057D01*
X4974000Y999057D02*
X4976857Y996200D01*
X4976857Y996200D02*
X4978286Y993343D01*
X4978286Y993343D02*
X4979714Y987628D01*
X4979714Y987628D02*
X4979714Y983343D01*
X4979714Y983343D02*
X4978286Y977628D01*
X4978286Y977628D02*
X4976857Y974771D01*
X4976857Y974771D02*
X4974000Y971914D01*
X4974000Y971914D02*
X4969714Y970485D01*
X4969714Y970485D02*
X4962571Y970485D01*
X4929000Y1054486D02*
X4929000Y1033057D01*
X4929000Y1033057D02*
X4927572Y1028771D01*
X4927572Y1028771D02*
X4924714Y1025914D01*
X4924714Y1025914D02*
X4920429Y1024485D01*
X4920429Y1024485D02*
X4917572Y1024485D01*
X4957571Y1054486D02*
X4943286Y1054486D01*
X4943286Y1054486D02*
X4941857Y1040200D01*
X4941857Y1040200D02*
X4943286Y1041628D01*
X4943286Y1041628D02*
X4946143Y1043057D01*
X4946143Y1043057D02*
X4953286Y1043057D01*
X4953286Y1043057D02*
X4956143Y1041628D01*
X4956143Y1041628D02*
X4957571Y1040200D01*
X4957571Y1040200D02*
X4959000Y1037343D01*
X4959000Y1037343D02*
X4959000Y1030200D01*
X4959000Y1030200D02*
X4957571Y1027343D01*
X4957571Y1027343D02*
X4956143Y1025914D01*
X4956143Y1025914D02*
X4953286Y1024485D01*
X4953286Y1024485D02*
X4946143Y1024485D01*
X4946143Y1024485D02*
X4943286Y1025914D01*
X4943286Y1025914D02*
X4941857Y1027343D01*
X1158571Y1823485D02*
X1161429Y1823485D01*
X1161429Y1823485D02*
X1164286Y1822057D01*
X1164286Y1822057D02*
X1165714Y1820628D01*
X1165714Y1820628D02*
X1167143Y1817771D01*
X1167143Y1817771D02*
X1168571Y1812057D01*
X1168571Y1812057D02*
X1168571Y1804914D01*
X1168571Y1804914D02*
X1167143Y1799200D01*
X1167143Y1799200D02*
X1165714Y1796343D01*
X1165714Y1796343D02*
X1164286Y1794914D01*
X1164286Y1794914D02*
X1161429Y1793485D01*
X1161429Y1793485D02*
X1158571Y1793485D01*
X1158571Y1793485D02*
X1155714Y1794914D01*
X1155714Y1794914D02*
X1154286Y1796343D01*
X1154286Y1796343D02*
X1152857Y1799200D01*
X1152857Y1799200D02*
X1151429Y1804914D01*
X1151429Y1804914D02*
X1151429Y1812057D01*
X1151429Y1812057D02*
X1152857Y1817771D01*
X1152857Y1817771D02*
X1154286Y1820628D01*
X1154286Y1820628D02*
X1155714Y1822057D01*
X1155714Y1822057D02*
X1158571Y1823485D01*
X1198571Y1793485D02*
X1188571Y1807771D01*
X1181429Y1793485D02*
X1181429Y1823485D01*
X1181429Y1823485D02*
X1192857Y1823485D01*
X1192857Y1823485D02*
X1195714Y1822057D01*
X1195714Y1822057D02*
X1197143Y1820628D01*
X1197143Y1820628D02*
X1198571Y1817771D01*
X1198571Y1817771D02*
X1198571Y1813485D01*
X1198571Y1813485D02*
X1197143Y1810628D01*
X1197143Y1810628D02*
X1195714Y1809200D01*
X1195714Y1809200D02*
X1192857Y1807771D01*
X1192857Y1807771D02*
X1181429Y1807771D01*
X1150086Y1764823D02*
X1150086Y1743395D01*
X1150086Y1743395D02*
X1148658Y1739109D01*
X1148658Y1739109D02*
X1145800Y1736252D01*
X1145800Y1736252D02*
X1141515Y1734823D01*
X1141515Y1734823D02*
X1138658Y1734823D01*
X1164372Y1734823D02*
X1164372Y1764823D01*
X1164372Y1764823D02*
X1175800Y1764823D01*
X1175800Y1764823D02*
X1178658Y1763395D01*
X1178658Y1763395D02*
X1180086Y1761966D01*
X1180086Y1761966D02*
X1181515Y1759109D01*
X1181515Y1759109D02*
X1181515Y1754823D01*
X1181515Y1754823D02*
X1180086Y1751966D01*
X1180086Y1751966D02*
X1178658Y1750538D01*
X1178658Y1750538D02*
X1175800Y1749109D01*
X1175800Y1749109D02*
X1164372Y1749109D01*
X1210086Y1734823D02*
X1192943Y1734823D01*
X1201515Y1734823D02*
X1201515Y1764823D01*
X1201515Y1764823D02*
X1198658Y1760538D01*
X1198658Y1760538D02*
X1195800Y1757681D01*
X1195800Y1757681D02*
X1192943Y1756252D01*
X1760286Y1774485D02*
X1743143Y1774485D01*
X1751714Y1774485D02*
X1751714Y1804485D01*
X1751714Y1804485D02*
X1748857Y1800200D01*
X1748857Y1800200D02*
X1746000Y1797343D01*
X1746000Y1797343D02*
X1743143Y1795914D01*
X1778857Y1804485D02*
X1781714Y1804485D01*
X1781714Y1804485D02*
X1784571Y1803057D01*
X1784571Y1803057D02*
X1786000Y1801628D01*
X1786000Y1801628D02*
X1787428Y1798771D01*
X1787428Y1798771D02*
X1788857Y1793057D01*
X1788857Y1793057D02*
X1788857Y1785914D01*
X1788857Y1785914D02*
X1787428Y1780200D01*
X1787428Y1780200D02*
X1786000Y1777343D01*
X1786000Y1777343D02*
X1784571Y1775914D01*
X1784571Y1775914D02*
X1781714Y1774485D01*
X1781714Y1774485D02*
X1778857Y1774485D01*
X1778857Y1774485D02*
X1776000Y1775914D01*
X1776000Y1775914D02*
X1774571Y1777343D01*
X1774571Y1777343D02*
X1773143Y1780200D01*
X1773143Y1780200D02*
X1771714Y1785914D01*
X1771714Y1785914D02*
X1771714Y1793057D01*
X1771714Y1793057D02*
X1773143Y1798771D01*
X1773143Y1798771D02*
X1774571Y1801628D01*
X1774571Y1801628D02*
X1776000Y1803057D01*
X1776000Y1803057D02*
X1778857Y1804485D01*
X1801714Y1774485D02*
X1801714Y1804485D01*
X1818857Y1774485D02*
X1806000Y1791628D01*
X1818857Y1804485D02*
X1801714Y1787343D01*
X1776340Y1714621D02*
X1766340Y1728906D01*
X1759197Y1714621D02*
X1759197Y1744621D01*
X1759197Y1744621D02*
X1770626Y1744621D01*
X1770626Y1744621D02*
X1773483Y1743192D01*
X1773483Y1743192D02*
X1774912Y1741763D01*
X1774912Y1741763D02*
X1776340Y1738906D01*
X1776340Y1738906D02*
X1776340Y1734621D01*
X1776340Y1734621D02*
X1774912Y1731763D01*
X1774912Y1731763D02*
X1773483Y1730335D01*
X1773483Y1730335D02*
X1770626Y1728906D01*
X1770626Y1728906D02*
X1759197Y1728906D01*
X1790626Y1714621D02*
X1796340Y1714621D01*
X1796340Y1714621D02*
X1799197Y1716049D01*
X1799197Y1716049D02*
X1800626Y1717478D01*
X1800626Y1717478D02*
X1803483Y1721763D01*
X1803483Y1721763D02*
X1804912Y1727478D01*
X1804912Y1727478D02*
X1804912Y1738906D01*
X1804912Y1738906D02*
X1803483Y1741763D01*
X1803483Y1741763D02*
X1802055Y1743192D01*
X1802055Y1743192D02*
X1799197Y1744621D01*
X1799197Y1744621D02*
X1793483Y1744621D01*
X1793483Y1744621D02*
X1790626Y1743192D01*
X1790626Y1743192D02*
X1789197Y1741763D01*
X1789197Y1741763D02*
X1787769Y1738906D01*
X1787769Y1738906D02*
X1787769Y1731763D01*
X1787769Y1731763D02*
X1789197Y1728906D01*
X1789197Y1728906D02*
X1790626Y1727478D01*
X1790626Y1727478D02*
X1793483Y1726049D01*
X1793483Y1726049D02*
X1799197Y1726049D01*
X1799197Y1726049D02*
X1802055Y1727478D01*
X1802055Y1727478D02*
X1803483Y1728906D01*
X1803483Y1728906D02*
X1804912Y1731763D01*
X3203714Y1175486D02*
X3206571Y1175486D01*
X3206571Y1175486D02*
X3209429Y1174057D01*
X3209429Y1174057D02*
X3210857Y1172628D01*
X3210857Y1172628D02*
X3212286Y1169771D01*
X3212286Y1169771D02*
X3213714Y1164057D01*
X3213714Y1164057D02*
X3213714Y1156914D01*
X3213714Y1156914D02*
X3212286Y1151200D01*
X3212286Y1151200D02*
X3210857Y1148343D01*
X3210857Y1148343D02*
X3209429Y1146914D01*
X3209429Y1146914D02*
X3206571Y1145486D01*
X3206571Y1145486D02*
X3203714Y1145486D01*
X3203714Y1145486D02*
X3200857Y1146914D01*
X3200857Y1146914D02*
X3199429Y1148343D01*
X3199429Y1148343D02*
X3198000Y1151200D01*
X3198000Y1151200D02*
X3196571Y1156914D01*
X3196571Y1156914D02*
X3196571Y1164057D01*
X3196571Y1164057D02*
X3198000Y1169771D01*
X3198000Y1169771D02*
X3199429Y1172628D01*
X3199429Y1172628D02*
X3200857Y1174057D01*
X3200857Y1174057D02*
X3203714Y1175486D01*
X3226571Y1148343D02*
X3228000Y1146914D01*
X3228000Y1146914D02*
X3226571Y1145486D01*
X3226571Y1145486D02*
X3225143Y1146914D01*
X3225143Y1146914D02*
X3226571Y1148343D01*
X3226571Y1148343D02*
X3226571Y1145486D01*
X3256571Y1145486D02*
X3239428Y1145486D01*
X3248000Y1145486D02*
X3248000Y1175486D01*
X3248000Y1175486D02*
X3245143Y1171200D01*
X3245143Y1171200D02*
X3242286Y1168343D01*
X3242286Y1168343D02*
X3239428Y1166914D01*
X3282286Y1165486D02*
X3282286Y1145486D01*
X3269428Y1165486D02*
X3269428Y1149771D01*
X3269428Y1149771D02*
X3270857Y1146914D01*
X3270857Y1146914D02*
X3273714Y1145486D01*
X3273714Y1145486D02*
X3278000Y1145486D01*
X3278000Y1145486D02*
X3280857Y1146914D01*
X3280857Y1146914D02*
X3282286Y1148343D01*
X3306571Y1161200D02*
X3296571Y1161200D01*
X3296571Y1145486D02*
X3296571Y1175486D01*
X3296571Y1175486D02*
X3310857Y1175486D01*
X3373732Y1151017D02*
X3372304Y1149589D01*
X3372304Y1149589D02*
X3368018Y1148160D01*
X3368018Y1148160D02*
X3365161Y1148160D01*
X3365161Y1148160D02*
X3360875Y1149589D01*
X3360875Y1149589D02*
X3358018Y1152446D01*
X3358018Y1152446D02*
X3356589Y1155303D01*
X3356589Y1155303D02*
X3355161Y1161017D01*
X3355161Y1161017D02*
X3355161Y1165303D01*
X3355161Y1165303D02*
X3356589Y1171017D01*
X3356589Y1171017D02*
X3358018Y1173874D01*
X3358018Y1173874D02*
X3360875Y1176732D01*
X3360875Y1176732D02*
X3365161Y1178160D01*
X3365161Y1178160D02*
X3368018Y1178160D01*
X3368018Y1178160D02*
X3372304Y1176732D01*
X3372304Y1176732D02*
X3373732Y1175303D01*
X3388018Y1148160D02*
X3393732Y1148160D01*
X3393732Y1148160D02*
X3396589Y1149589D01*
X3396589Y1149589D02*
X3398018Y1151017D01*
X3398018Y1151017D02*
X3400875Y1155303D01*
X3400875Y1155303D02*
X3402304Y1161017D01*
X3402304Y1161017D02*
X3402304Y1172446D01*
X3402304Y1172446D02*
X3400875Y1175303D01*
X3400875Y1175303D02*
X3399447Y1176732D01*
X3399447Y1176732D02*
X3396589Y1178160D01*
X3396589Y1178160D02*
X3390875Y1178160D01*
X3390875Y1178160D02*
X3388018Y1176732D01*
X3388018Y1176732D02*
X3386589Y1175303D01*
X3386589Y1175303D02*
X3385161Y1172446D01*
X3385161Y1172446D02*
X3385161Y1165303D01*
X3385161Y1165303D02*
X3386589Y1162446D01*
X3386589Y1162446D02*
X3388018Y1161017D01*
X3388018Y1161017D02*
X3390875Y1159589D01*
X3390875Y1159589D02*
X3396589Y1159589D01*
X3396589Y1159589D02*
X3399447Y1161017D01*
X3399447Y1161017D02*
X3400875Y1162446D01*
X3400875Y1162446D02*
X3402304Y1165303D01*
X3124714Y1565485D02*
X3127571Y1565485D01*
X3127571Y1565485D02*
X3130429Y1564057D01*
X3130429Y1564057D02*
X3131857Y1562628D01*
X3131857Y1562628D02*
X3133286Y1559771D01*
X3133286Y1559771D02*
X3134714Y1554057D01*
X3134714Y1554057D02*
X3134714Y1546914D01*
X3134714Y1546914D02*
X3133286Y1541200D01*
X3133286Y1541200D02*
X3131857Y1538343D01*
X3131857Y1538343D02*
X3130429Y1536914D01*
X3130429Y1536914D02*
X3127571Y1535485D01*
X3127571Y1535485D02*
X3124714Y1535485D01*
X3124714Y1535485D02*
X3121857Y1536914D01*
X3121857Y1536914D02*
X3120429Y1538343D01*
X3120429Y1538343D02*
X3119000Y1541200D01*
X3119000Y1541200D02*
X3117571Y1546914D01*
X3117571Y1546914D02*
X3117571Y1554057D01*
X3117571Y1554057D02*
X3119000Y1559771D01*
X3119000Y1559771D02*
X3120429Y1562628D01*
X3120429Y1562628D02*
X3121857Y1564057D01*
X3121857Y1564057D02*
X3124714Y1565485D01*
X3147571Y1538343D02*
X3149000Y1536914D01*
X3149000Y1536914D02*
X3147571Y1535485D01*
X3147571Y1535485D02*
X3146143Y1536914D01*
X3146143Y1536914D02*
X3147571Y1538343D01*
X3147571Y1538343D02*
X3147571Y1535485D01*
X3177571Y1535485D02*
X3160428Y1535485D01*
X3169000Y1535485D02*
X3169000Y1565485D01*
X3169000Y1565485D02*
X3166143Y1561200D01*
X3166143Y1561200D02*
X3163286Y1558343D01*
X3163286Y1558343D02*
X3160428Y1556914D01*
X3203286Y1555485D02*
X3203286Y1535485D01*
X3190428Y1555485D02*
X3190428Y1539771D01*
X3190428Y1539771D02*
X3191857Y1536914D01*
X3191857Y1536914D02*
X3194714Y1535485D01*
X3194714Y1535485D02*
X3199000Y1535485D01*
X3199000Y1535485D02*
X3201857Y1536914D01*
X3201857Y1536914D02*
X3203286Y1538343D01*
X3227571Y1551200D02*
X3217571Y1551200D01*
X3217571Y1535485D02*
X3217571Y1565485D01*
X3217571Y1565485D02*
X3231857Y1565485D01*
X3164000Y1599343D02*
X3162571Y1597914D01*
X3162571Y1597914D02*
X3158286Y1596485D01*
X3158286Y1596485D02*
X3155428Y1596485D01*
X3155428Y1596485D02*
X3151143Y1597914D01*
X3151143Y1597914D02*
X3148286Y1600771D01*
X3148286Y1600771D02*
X3146857Y1603628D01*
X3146857Y1603628D02*
X3145428Y1609343D01*
X3145428Y1609343D02*
X3145428Y1613628D01*
X3145428Y1613628D02*
X3146857Y1619343D01*
X3146857Y1619343D02*
X3148286Y1622200D01*
X3148286Y1622200D02*
X3151143Y1625057D01*
X3151143Y1625057D02*
X3155428Y1626485D01*
X3155428Y1626485D02*
X3158286Y1626485D01*
X3158286Y1626485D02*
X3162571Y1625057D01*
X3162571Y1625057D02*
X3164000Y1623628D01*
X3181143Y1613628D02*
X3178286Y1615057D01*
X3178286Y1615057D02*
X3176857Y1616485D01*
X3176857Y1616485D02*
X3175428Y1619343D01*
X3175428Y1619343D02*
X3175428Y1620771D01*
X3175428Y1620771D02*
X3176857Y1623628D01*
X3176857Y1623628D02*
X3178286Y1625057D01*
X3178286Y1625057D02*
X3181143Y1626485D01*
X3181143Y1626485D02*
X3186857Y1626485D01*
X3186857Y1626485D02*
X3189714Y1625057D01*
X3189714Y1625057D02*
X3191143Y1623628D01*
X3191143Y1623628D02*
X3192571Y1620771D01*
X3192571Y1620771D02*
X3192571Y1619343D01*
X3192571Y1619343D02*
X3191143Y1616485D01*
X3191143Y1616485D02*
X3189714Y1615057D01*
X3189714Y1615057D02*
X3186857Y1613628D01*
X3186857Y1613628D02*
X3181143Y1613628D01*
X3181143Y1613628D02*
X3178286Y1612200D01*
X3178286Y1612200D02*
X3176857Y1610771D01*
X3176857Y1610771D02*
X3175428Y1607914D01*
X3175428Y1607914D02*
X3175428Y1602200D01*
X3175428Y1602200D02*
X3176857Y1599343D01*
X3176857Y1599343D02*
X3178286Y1597914D01*
X3178286Y1597914D02*
X3181143Y1596485D01*
X3181143Y1596485D02*
X3186857Y1596485D01*
X3186857Y1596485D02*
X3189714Y1597914D01*
X3189714Y1597914D02*
X3191143Y1599343D01*
X3191143Y1599343D02*
X3192571Y1602200D01*
X3192571Y1602200D02*
X3192571Y1607914D01*
X3192571Y1607914D02*
X3191143Y1610771D01*
X3191143Y1610771D02*
X3189714Y1612200D01*
X3189714Y1612200D02*
X3186857Y1613628D01*
X1993514Y1456857D02*
X1993514Y1439714D01*
X1993514Y1448286D02*
X1963514Y1448286D01*
X1963514Y1448286D02*
X1967800Y1445429D01*
X1967800Y1445429D02*
X1970657Y1442571D01*
X1970657Y1442571D02*
X1972086Y1439714D01*
X1963514Y1475429D02*
X1963514Y1478286D01*
X1963514Y1478286D02*
X1964943Y1481143D01*
X1964943Y1481143D02*
X1966372Y1482571D01*
X1966372Y1482571D02*
X1969229Y1484000D01*
X1969229Y1484000D02*
X1974943Y1485429D01*
X1974943Y1485429D02*
X1982086Y1485429D01*
X1982086Y1485429D02*
X1987800Y1484000D01*
X1987800Y1484000D02*
X1990657Y1482571D01*
X1990657Y1482571D02*
X1992086Y1481143D01*
X1992086Y1481143D02*
X1993514Y1478286D01*
X1993514Y1478286D02*
X1993514Y1475429D01*
X1993514Y1475429D02*
X1992086Y1472571D01*
X1992086Y1472571D02*
X1990657Y1471143D01*
X1990657Y1471143D02*
X1987800Y1469714D01*
X1987800Y1469714D02*
X1982086Y1468286D01*
X1982086Y1468286D02*
X1974943Y1468286D01*
X1974943Y1468286D02*
X1969229Y1469714D01*
X1969229Y1469714D02*
X1966372Y1471143D01*
X1966372Y1471143D02*
X1964943Y1472571D01*
X1964943Y1472571D02*
X1963514Y1475429D01*
X1973514Y1511143D02*
X1993514Y1511143D01*
X1973514Y1498286D02*
X1989229Y1498286D01*
X1989229Y1498286D02*
X1992086Y1499714D01*
X1992086Y1499714D02*
X1993514Y1502571D01*
X1993514Y1502571D02*
X1993514Y1506857D01*
X1993514Y1506857D02*
X1992086Y1509714D01*
X1992086Y1509714D02*
X1990657Y1511143D01*
X1977800Y1535429D02*
X1977800Y1525429D01*
X1993514Y1525429D02*
X1963514Y1525429D01*
X1963514Y1525429D02*
X1963514Y1539714D01*
X1918657Y1459714D02*
X1920086Y1458286D01*
X1920086Y1458286D02*
X1921514Y1454000D01*
X1921514Y1454000D02*
X1921514Y1451143D01*
X1921514Y1451143D02*
X1920086Y1446857D01*
X1920086Y1446857D02*
X1917229Y1444000D01*
X1917229Y1444000D02*
X1914372Y1442571D01*
X1914372Y1442571D02*
X1908657Y1441143D01*
X1908657Y1441143D02*
X1904372Y1441143D01*
X1904372Y1441143D02*
X1898657Y1442571D01*
X1898657Y1442571D02*
X1895800Y1444000D01*
X1895800Y1444000D02*
X1892943Y1446857D01*
X1892943Y1446857D02*
X1891514Y1451143D01*
X1891514Y1451143D02*
X1891514Y1454000D01*
X1891514Y1454000D02*
X1892943Y1458286D01*
X1892943Y1458286D02*
X1894372Y1459714D01*
X1921514Y1488286D02*
X1921514Y1471143D01*
X1921514Y1479714D02*
X1891514Y1479714D01*
X1891514Y1479714D02*
X1895800Y1476857D01*
X1895800Y1476857D02*
X1898657Y1474000D01*
X1898657Y1474000D02*
X1900086Y1471143D01*
X1891514Y1515429D02*
X1891514Y1501143D01*
X1891514Y1501143D02*
X1905800Y1499714D01*
X1905800Y1499714D02*
X1904372Y1501143D01*
X1904372Y1501143D02*
X1902943Y1504000D01*
X1902943Y1504000D02*
X1902943Y1511143D01*
X1902943Y1511143D02*
X1904372Y1514000D01*
X1904372Y1514000D02*
X1905800Y1515429D01*
X1905800Y1515429D02*
X1908657Y1516857D01*
X1908657Y1516857D02*
X1915800Y1516857D01*
X1915800Y1516857D02*
X1918657Y1515429D01*
X1918657Y1515429D02*
X1920086Y1514000D01*
X1920086Y1514000D02*
X1921514Y1511143D01*
X1921514Y1511143D02*
X1921514Y1504000D01*
X1921514Y1504000D02*
X1920086Y1501143D01*
X1920086Y1501143D02*
X1918657Y1499714D01*
X4815428Y357485D02*
X4815428Y387485D01*
X4815428Y387485D02*
X4825428Y366057D01*
X4825428Y366057D02*
X4835428Y387485D01*
X4835428Y387485D02*
X4835428Y357485D01*
X4854000Y357485D02*
X4851143Y358914D01*
X4851143Y358914D02*
X4849714Y360343D01*
X4849714Y360343D02*
X4848286Y363200D01*
X4848286Y363200D02*
X4848286Y371771D01*
X4848286Y371771D02*
X4849714Y374628D01*
X4849714Y374628D02*
X4851143Y376057D01*
X4851143Y376057D02*
X4854000Y377485D01*
X4854000Y377485D02*
X4858286Y377485D01*
X4858286Y377485D02*
X4861143Y376057D01*
X4861143Y376057D02*
X4862571Y374628D01*
X4862571Y374628D02*
X4864000Y371771D01*
X4864000Y371771D02*
X4864000Y363200D01*
X4864000Y363200D02*
X4862571Y360343D01*
X4862571Y360343D02*
X4861143Y358914D01*
X4861143Y358914D02*
X4858286Y357485D01*
X4858286Y357485D02*
X4854000Y357485D01*
X4889714Y377485D02*
X4889714Y357485D01*
X4876857Y377485D02*
X4876857Y361771D01*
X4876857Y361771D02*
X4878286Y358914D01*
X4878286Y358914D02*
X4881143Y357485D01*
X4881143Y357485D02*
X4885428Y357485D01*
X4885428Y357485D02*
X4888286Y358914D01*
X4888286Y358914D02*
X4889714Y360343D01*
X4904000Y377485D02*
X4904000Y357485D01*
X4904000Y374628D02*
X4905429Y376057D01*
X4905429Y376057D02*
X4908286Y377485D01*
X4908286Y377485D02*
X4912571Y377485D01*
X4912571Y377485D02*
X4915429Y376057D01*
X4915429Y376057D02*
X4916857Y373200D01*
X4916857Y373200D02*
X4916857Y357485D01*
X4926857Y377485D02*
X4938286Y377485D01*
X4931143Y387485D02*
X4931143Y361771D01*
X4931143Y361771D02*
X4932571Y358914D01*
X4932571Y358914D02*
X4935429Y357485D01*
X4935429Y357485D02*
X4938286Y357485D01*
X4948286Y357485D02*
X4948286Y377485D01*
X4948286Y387485D02*
X4946857Y386057D01*
X4946857Y386057D02*
X4948286Y384628D01*
X4948286Y384628D02*
X4949714Y386057D01*
X4949714Y386057D02*
X4948286Y387485D01*
X4948286Y387485D02*
X4948286Y384628D01*
X4962571Y377485D02*
X4962571Y357485D01*
X4962571Y374628D02*
X4964000Y376057D01*
X4964000Y376057D02*
X4966857Y377485D01*
X4966857Y377485D02*
X4971143Y377485D01*
X4971143Y377485D02*
X4974000Y376057D01*
X4974000Y376057D02*
X4975429Y373200D01*
X4975429Y373200D02*
X4975429Y357485D01*
X5002572Y377485D02*
X5002572Y353200D01*
X5002572Y353200D02*
X5001143Y350343D01*
X5001143Y350343D02*
X4999714Y348914D01*
X4999714Y348914D02*
X4996857Y347486D01*
X4996857Y347486D02*
X4992572Y347486D01*
X4992572Y347486D02*
X4989714Y348914D01*
X5002572Y358914D02*
X4999714Y357485D01*
X4999714Y357485D02*
X4994000Y357485D01*
X4994000Y357485D02*
X4991143Y358914D01*
X4991143Y358914D02*
X4989714Y360343D01*
X4989714Y360343D02*
X4988286Y363200D01*
X4988286Y363200D02*
X4988286Y371771D01*
X4988286Y371771D02*
X4989714Y374628D01*
X4989714Y374628D02*
X4991143Y376057D01*
X4991143Y376057D02*
X4994000Y377485D01*
X4994000Y377485D02*
X4999714Y377485D01*
X4999714Y377485D02*
X5002572Y376057D01*
X5016857Y357485D02*
X5016857Y387485D01*
X5016857Y373200D02*
X5034000Y373200D01*
X5034000Y357485D02*
X5034000Y387485D01*
X5052572Y357485D02*
X5049714Y358914D01*
X5049714Y358914D02*
X5048286Y360343D01*
X5048286Y360343D02*
X5046857Y363200D01*
X5046857Y363200D02*
X5046857Y371771D01*
X5046857Y371771D02*
X5048286Y374628D01*
X5048286Y374628D02*
X5049714Y376057D01*
X5049714Y376057D02*
X5052572Y377485D01*
X5052572Y377485D02*
X5056857Y377485D01*
X5056857Y377485D02*
X5059714Y376057D01*
X5059714Y376057D02*
X5061143Y374628D01*
X5061143Y374628D02*
X5062572Y371771D01*
X5062572Y371771D02*
X5062572Y363200D01*
X5062572Y363200D02*
X5061143Y360343D01*
X5061143Y360343D02*
X5059714Y358914D01*
X5059714Y358914D02*
X5056857Y357485D01*
X5056857Y357485D02*
X5052572Y357485D01*
X5079714Y357485D02*
X5076857Y358914D01*
X5076857Y358914D02*
X5075429Y361771D01*
X5075429Y361771D02*
X5075429Y387485D01*
X5102572Y358914D02*
X5099714Y357485D01*
X5099714Y357485D02*
X5094000Y357485D01*
X5094000Y357485D02*
X5091143Y358914D01*
X5091143Y358914D02*
X5089714Y361771D01*
X5089714Y361771D02*
X5089714Y373200D01*
X5089714Y373200D02*
X5091143Y376057D01*
X5091143Y376057D02*
X5094000Y377485D01*
X5094000Y377485D02*
X5099714Y377485D01*
X5099714Y377485D02*
X5102572Y376057D01*
X5102572Y376057D02*
X5104000Y373200D01*
X5104000Y373200D02*
X5104000Y370343D01*
X5104000Y370343D02*
X5089714Y367485D01*
X4931143Y404485D02*
X4931143Y434485D01*
X4931143Y420200D02*
X4948286Y420200D01*
X4948286Y404485D02*
X4948286Y434485D01*
X4961143Y431628D02*
X4962571Y433057D01*
X4962571Y433057D02*
X4965429Y434485D01*
X4965429Y434485D02*
X4972571Y434485D01*
X4972571Y434485D02*
X4975429Y433057D01*
X4975429Y433057D02*
X4976857Y431628D01*
X4976857Y431628D02*
X4978286Y428771D01*
X4978286Y428771D02*
X4978286Y425914D01*
X4978286Y425914D02*
X4976857Y421628D01*
X4976857Y421628D02*
X4959714Y404485D01*
X4959714Y404485D02*
X4978286Y404485D01*
D11*
X184511Y1166714D02*
X160226Y1166714D01*
X160226Y1166714D02*
X157369Y1165286D01*
X157369Y1165286D02*
X155940Y1163857D01*
X155940Y1163857D02*
X154511Y1161000D01*
X154511Y1161000D02*
X154511Y1155286D01*
X154511Y1155286D02*
X155940Y1152429D01*
X155940Y1152429D02*
X157369Y1151000D01*
X157369Y1151000D02*
X160226Y1149571D01*
X160226Y1149571D02*
X184511Y1149571D01*
X155940Y1136714D02*
X154511Y1132429D01*
X154511Y1132429D02*
X154511Y1125286D01*
X154511Y1125286D02*
X155940Y1122429D01*
X155940Y1122429D02*
X157369Y1121000D01*
X157369Y1121000D02*
X160226Y1119571D01*
X160226Y1119571D02*
X163083Y1119571D01*
X163083Y1119571D02*
X165940Y1121000D01*
X165940Y1121000D02*
X167369Y1122429D01*
X167369Y1122429D02*
X168797Y1125286D01*
X168797Y1125286D02*
X170226Y1131000D01*
X170226Y1131000D02*
X171654Y1133857D01*
X171654Y1133857D02*
X173083Y1135286D01*
X173083Y1135286D02*
X175940Y1136714D01*
X175940Y1136714D02*
X178797Y1136714D01*
X178797Y1136714D02*
X181654Y1135286D01*
X181654Y1135286D02*
X183083Y1133857D01*
X183083Y1133857D02*
X184511Y1131000D01*
X184511Y1131000D02*
X184511Y1123857D01*
X184511Y1123857D02*
X183083Y1119571D01*
X170226Y1096714D02*
X168797Y1092429D01*
X168797Y1092429D02*
X167369Y1091000D01*
X167369Y1091000D02*
X164511Y1089571D01*
X164511Y1089571D02*
X160226Y1089571D01*
X160226Y1089571D02*
X157369Y1091000D01*
X157369Y1091000D02*
X155940Y1092429D01*
X155940Y1092429D02*
X154511Y1095286D01*
X154511Y1095286D02*
X154511Y1106714D01*
X154511Y1106714D02*
X184511Y1106714D01*
X184511Y1106714D02*
X184511Y1096714D01*
X184511Y1096714D02*
X183083Y1093857D01*
X183083Y1093857D02*
X181654Y1092429D01*
X181654Y1092429D02*
X178797Y1091000D01*
X178797Y1091000D02*
X175940Y1091000D01*
X175940Y1091000D02*
X173083Y1092429D01*
X173083Y1092429D02*
X171654Y1093857D01*
X171654Y1093857D02*
X170226Y1096714D01*
X170226Y1096714D02*
X170226Y1106714D01*
X165940Y1076714D02*
X165940Y1053857D01*
X157369Y1022428D02*
X155940Y1023857D01*
X155940Y1023857D02*
X154511Y1028143D01*
X154511Y1028143D02*
X154511Y1031000D01*
X154511Y1031000D02*
X155940Y1035286D01*
X155940Y1035286D02*
X158797Y1038143D01*
X158797Y1038143D02*
X161654Y1039571D01*
X161654Y1039571D02*
X167369Y1041000D01*
X167369Y1041000D02*
X171654Y1041000D01*
X171654Y1041000D02*
X177368Y1039571D01*
X177368Y1039571D02*
X180226Y1038143D01*
X180226Y1038143D02*
X183083Y1035286D01*
X183083Y1035286D02*
X184511Y1031000D01*
X184511Y1031000D02*
X184511Y1028143D01*
X184511Y1028143D02*
X183083Y1023857D01*
X183083Y1023857D02*
X181654Y1022428D01*
X165940Y1009571D02*
X165940Y986714D01*
X181654Y973857D02*
X183083Y972428D01*
X183083Y972428D02*
X184511Y969571D01*
X184511Y969571D02*
X184511Y962428D01*
X184511Y962428D02*
X183083Y959571D01*
X183083Y959571D02*
X181654Y958143D01*
X181654Y958143D02*
X178797Y956714D01*
X178797Y956714D02*
X175940Y956714D01*
X175940Y956714D02*
X171654Y958143D01*
X171654Y958143D02*
X154511Y975286D01*
X154511Y975286D02*
X154511Y956714D01*
X157369Y943857D02*
X155940Y942428D01*
X155940Y942428D02*
X154511Y943857D01*
X154511Y943857D02*
X155940Y945286D01*
X155940Y945286D02*
X157369Y943857D01*
X157369Y943857D02*
X154511Y943857D01*
X184511Y923857D02*
X184511Y921000D01*
X184511Y921000D02*
X183083Y918143D01*
X183083Y918143D02*
X181654Y916714D01*
X181654Y916714D02*
X178797Y915286D01*
X178797Y915286D02*
X173083Y913857D01*
X173083Y913857D02*
X165940Y913857D01*
X165940Y913857D02*
X160226Y915286D01*
X160226Y915286D02*
X157369Y916714D01*
X157369Y916714D02*
X155940Y918143D01*
X155940Y918143D02*
X154511Y921000D01*
X154511Y921000D02*
X154511Y923857D01*
X154511Y923857D02*
X155940Y926714D01*
X155940Y926714D02*
X157369Y928143D01*
X157369Y928143D02*
X160226Y929571D01*
X160226Y929571D02*
X165940Y931000D01*
X165940Y931000D02*
X173083Y931000D01*
X173083Y931000D02*
X178797Y929571D01*
X178797Y929571D02*
X181654Y928143D01*
X181654Y928143D02*
X183083Y926714D01*
X183083Y926714D02*
X184511Y923857D01*
X259511Y1061000D02*
X238083Y1061000D01*
X238083Y1061000D02*
X233797Y1062429D01*
X233797Y1062429D02*
X230940Y1065286D01*
X230940Y1065286D02*
X229511Y1069571D01*
X229511Y1069571D02*
X229511Y1072429D01*
X256654Y1048143D02*
X258083Y1046714D01*
X258083Y1046714D02*
X259511Y1043857D01*
X259511Y1043857D02*
X259511Y1036714D01*
X259511Y1036714D02*
X258083Y1033857D01*
X258083Y1033857D02*
X256654Y1032429D01*
X256654Y1032429D02*
X253797Y1031000D01*
X253797Y1031000D02*
X250940Y1031000D01*
X250940Y1031000D02*
X246654Y1032429D01*
X246654Y1032429D02*
X229511Y1049571D01*
X229511Y1049571D02*
X229511Y1031000D01*
D10*
X2201300Y462571D02*
X2202729Y466857D01*
X2202729Y466857D02*
X2204157Y468286D01*
X2204157Y468286D02*
X2207015Y469714D01*
X2207015Y469714D02*
X2211300Y469714D01*
X2211300Y469714D02*
X2214157Y468286D01*
X2214157Y468286D02*
X2215586Y466857D01*
X2215586Y466857D02*
X2217015Y464000D01*
X2217015Y464000D02*
X2217015Y452571D01*
X2217015Y452571D02*
X2187015Y452571D01*
X2187015Y452571D02*
X2187015Y462571D01*
X2187015Y462571D02*
X2188443Y465429D01*
X2188443Y465429D02*
X2189872Y466857D01*
X2189872Y466857D02*
X2192729Y468286D01*
X2192729Y468286D02*
X2195586Y468286D01*
X2195586Y468286D02*
X2198443Y466857D01*
X2198443Y466857D02*
X2199872Y465429D01*
X2199872Y465429D02*
X2201300Y462571D01*
X2201300Y462571D02*
X2201300Y452571D01*
X2187015Y478286D02*
X2187015Y495429D01*
X2217015Y486857D02*
X2187015Y486857D01*
X2217015Y505429D02*
X2187015Y505429D01*
X2187015Y505429D02*
X2217015Y522571D01*
X2217015Y522571D02*
X2187015Y522571D01*
X2219872Y529714D02*
X2219872Y552572D01*
X2215586Y558286D02*
X2217015Y562571D01*
X2217015Y562571D02*
X2217015Y569714D01*
X2217015Y569714D02*
X2215586Y572571D01*
X2215586Y572571D02*
X2214157Y574000D01*
X2214157Y574000D02*
X2211300Y575429D01*
X2211300Y575429D02*
X2208443Y575429D01*
X2208443Y575429D02*
X2205586Y574000D01*
X2205586Y574000D02*
X2204157Y572571D01*
X2204157Y572571D02*
X2202729Y569714D01*
X2202729Y569714D02*
X2201300Y564000D01*
X2201300Y564000D02*
X2199872Y561143D01*
X2199872Y561143D02*
X2198443Y559714D01*
X2198443Y559714D02*
X2195586Y558286D01*
X2195586Y558286D02*
X2192729Y558286D01*
X2192729Y558286D02*
X2189872Y559714D01*
X2189872Y559714D02*
X2188443Y561143D01*
X2188443Y561143D02*
X2187015Y564000D01*
X2187015Y564000D02*
X2187015Y571143D01*
X2187015Y571143D02*
X2188443Y575429D01*
X2201300Y588286D02*
X2201300Y598286D01*
X2217015Y602571D02*
X2217015Y588286D01*
X2217015Y588286D02*
X2187015Y588286D01*
X2187015Y588286D02*
X2187015Y602571D01*
X2217015Y629714D02*
X2217015Y615429D01*
X2217015Y615429D02*
X2187015Y615429D01*
X1123714Y1318486D02*
X1123714Y1298486D01*
X1116571Y1329914D02*
X1109429Y1308486D01*
X1109429Y1308486D02*
X1128000Y1308486D01*
X1136571Y1328486D02*
X1156571Y1328486D01*
X1156571Y1328486D02*
X1143714Y1298486D01*
X1173714Y1328486D02*
X1176571Y1328486D01*
X1176571Y1328486D02*
X1179429Y1327057D01*
X1179429Y1327057D02*
X1180857Y1325628D01*
X1180857Y1325628D02*
X1182286Y1322771D01*
X1182286Y1322771D02*
X1183714Y1317057D01*
X1183714Y1317057D02*
X1183714Y1309914D01*
X1183714Y1309914D02*
X1182286Y1304200D01*
X1182286Y1304200D02*
X1180857Y1301343D01*
X1180857Y1301343D02*
X1179429Y1299914D01*
X1179429Y1299914D02*
X1176571Y1298486D01*
X1176571Y1298486D02*
X1173714Y1298486D01*
X1173714Y1298486D02*
X1170857Y1299914D01*
X1170857Y1299914D02*
X1169429Y1301343D01*
X1169429Y1301343D02*
X1168000Y1304200D01*
X1168000Y1304200D02*
X1166571Y1309914D01*
X1166571Y1309914D02*
X1166571Y1317057D01*
X1166571Y1317057D02*
X1168000Y1322771D01*
X1168000Y1322771D02*
X1169429Y1325628D01*
X1169429Y1325628D02*
X1170857Y1327057D01*
X1170857Y1327057D02*
X1173714Y1328486D01*
X1196571Y1318486D02*
X1196571Y1288486D01*
X1196571Y1317057D02*
X1199429Y1318486D01*
X1199429Y1318486D02*
X1205143Y1318486D01*
X1205143Y1318486D02*
X1208000Y1317057D01*
X1208000Y1317057D02*
X1209429Y1315628D01*
X1209429Y1315628D02*
X1210857Y1312771D01*
X1210857Y1312771D02*
X1210857Y1304200D01*
X1210857Y1304200D02*
X1209429Y1301343D01*
X1209429Y1301343D02*
X1208000Y1299914D01*
X1208000Y1299914D02*
X1205143Y1298486D01*
X1205143Y1298486D02*
X1199429Y1298486D01*
X1199429Y1298486D02*
X1196571Y1299914D01*
X1233714Y1314200D02*
X1223714Y1314200D01*
X1223714Y1298486D02*
X1223714Y1328486D01*
X1223714Y1328486D02*
X1238000Y1328486D01*
X1148714Y1365343D02*
X1147286Y1363914D01*
X1147286Y1363914D02*
X1143000Y1362486D01*
X1143000Y1362486D02*
X1140143Y1362486D01*
X1140143Y1362486D02*
X1135857Y1363914D01*
X1135857Y1363914D02*
X1133000Y1366771D01*
X1133000Y1366771D02*
X1131571Y1369628D01*
X1131571Y1369628D02*
X1130143Y1375343D01*
X1130143Y1375343D02*
X1130143Y1379628D01*
X1130143Y1379628D02*
X1131571Y1385343D01*
X1131571Y1385343D02*
X1133000Y1388200D01*
X1133000Y1388200D02*
X1135857Y1391057D01*
X1135857Y1391057D02*
X1140143Y1392486D01*
X1140143Y1392486D02*
X1143000Y1392486D01*
X1143000Y1392486D02*
X1147286Y1391057D01*
X1147286Y1391057D02*
X1148714Y1389628D01*
X1177286Y1362486D02*
X1160143Y1362486D01*
X1168714Y1362486D02*
X1168714Y1392486D01*
X1168714Y1392486D02*
X1165857Y1388200D01*
X1165857Y1388200D02*
X1163000Y1385343D01*
X1163000Y1385343D02*
X1160143Y1383914D01*
X1203000Y1392486D02*
X1197286Y1392486D01*
X1197286Y1392486D02*
X1194429Y1391057D01*
X1194429Y1391057D02*
X1193000Y1389628D01*
X1193000Y1389628D02*
X1190143Y1385343D01*
X1190143Y1385343D02*
X1188714Y1379628D01*
X1188714Y1379628D02*
X1188714Y1368200D01*
X1188714Y1368200D02*
X1190143Y1365343D01*
X1190143Y1365343D02*
X1191571Y1363914D01*
X1191571Y1363914D02*
X1194429Y1362486D01*
X1194429Y1362486D02*
X1200143Y1362486D01*
X1200143Y1362486D02*
X1203000Y1363914D01*
X1203000Y1363914D02*
X1204429Y1365343D01*
X1204429Y1365343D02*
X1205857Y1368200D01*
X1205857Y1368200D02*
X1205857Y1375343D01*
X1205857Y1375343D02*
X1204429Y1378200D01*
X1204429Y1378200D02*
X1203000Y1379628D01*
X1203000Y1379628D02*
X1200143Y1381057D01*
X1200143Y1381057D02*
X1194429Y1381057D01*
X1194429Y1381057D02*
X1191571Y1379628D01*
X1191571Y1379628D02*
X1190143Y1378200D01*
X1190143Y1378200D02*
X1188714Y1375343D01*
X1158571Y1524485D02*
X1161429Y1524485D01*
X1161429Y1524485D02*
X1164286Y1523057D01*
X1164286Y1523057D02*
X1165714Y1521628D01*
X1165714Y1521628D02*
X1167143Y1518771D01*
X1167143Y1518771D02*
X1168571Y1513057D01*
X1168571Y1513057D02*
X1168571Y1505914D01*
X1168571Y1505914D02*
X1167143Y1500200D01*
X1167143Y1500200D02*
X1165714Y1497343D01*
X1165714Y1497343D02*
X1164286Y1495914D01*
X1164286Y1495914D02*
X1161429Y1494485D01*
X1161429Y1494485D02*
X1158571Y1494485D01*
X1158571Y1494485D02*
X1155714Y1495914D01*
X1155714Y1495914D02*
X1154286Y1497343D01*
X1154286Y1497343D02*
X1152857Y1500200D01*
X1152857Y1500200D02*
X1151429Y1505914D01*
X1151429Y1505914D02*
X1151429Y1513057D01*
X1151429Y1513057D02*
X1152857Y1518771D01*
X1152857Y1518771D02*
X1154286Y1521628D01*
X1154286Y1521628D02*
X1155714Y1523057D01*
X1155714Y1523057D02*
X1158571Y1524485D01*
X1198571Y1494485D02*
X1188571Y1508771D01*
X1181429Y1494485D02*
X1181429Y1524485D01*
X1181429Y1524485D02*
X1192857Y1524485D01*
X1192857Y1524485D02*
X1195714Y1523057D01*
X1195714Y1523057D02*
X1197143Y1521628D01*
X1197143Y1521628D02*
X1198571Y1518771D01*
X1198571Y1518771D02*
X1198571Y1514485D01*
X1198571Y1514485D02*
X1197143Y1511628D01*
X1197143Y1511628D02*
X1195714Y1510200D01*
X1195714Y1510200D02*
X1192857Y1508771D01*
X1192857Y1508771D02*
X1181429Y1508771D01*
X1149899Y1589884D02*
X1149899Y1568455D01*
X1149899Y1568455D02*
X1148470Y1564169D01*
X1148470Y1564169D02*
X1145613Y1561312D01*
X1145613Y1561312D02*
X1141328Y1559884D01*
X1141328Y1559884D02*
X1138470Y1559884D01*
X1164185Y1559884D02*
X1164185Y1589884D01*
X1164185Y1589884D02*
X1175613Y1589884D01*
X1175613Y1589884D02*
X1178470Y1588455D01*
X1178470Y1588455D02*
X1179899Y1587026D01*
X1179899Y1587026D02*
X1181328Y1584169D01*
X1181328Y1584169D02*
X1181328Y1579884D01*
X1181328Y1579884D02*
X1179899Y1577026D01*
X1179899Y1577026D02*
X1178470Y1575598D01*
X1178470Y1575598D02*
X1175613Y1574169D01*
X1175613Y1574169D02*
X1164185Y1574169D01*
X1207042Y1579884D02*
X1207042Y1559884D01*
X1199899Y1591312D02*
X1192756Y1569884D01*
X1192756Y1569884D02*
X1211328Y1569884D01*
X751514Y905714D02*
X751514Y891429D01*
X751514Y891429D02*
X765800Y890000D01*
X765800Y890000D02*
X764372Y891429D01*
X764372Y891429D02*
X762943Y894286D01*
X762943Y894286D02*
X762943Y901429D01*
X762943Y901429D02*
X764372Y904286D01*
X764372Y904286D02*
X765800Y905714D01*
X765800Y905714D02*
X768657Y907143D01*
X768657Y907143D02*
X775800Y907143D01*
X775800Y907143D02*
X778657Y905714D01*
X778657Y905714D02*
X780086Y904286D01*
X780086Y904286D02*
X781514Y901429D01*
X781514Y901429D02*
X781514Y894286D01*
X781514Y894286D02*
X780086Y891429D01*
X780086Y891429D02*
X778657Y890000D01*
X778657Y920000D02*
X780086Y921429D01*
X780086Y921429D02*
X781514Y920000D01*
X781514Y920000D02*
X780086Y918571D01*
X780086Y918571D02*
X778657Y920000D01*
X778657Y920000D02*
X781514Y920000D01*
X781514Y950000D02*
X781514Y932857D01*
X781514Y941429D02*
X751514Y941429D01*
X751514Y941429D02*
X755800Y938571D01*
X755800Y938571D02*
X758657Y935714D01*
X758657Y935714D02*
X760086Y932857D01*
X781514Y962857D02*
X751514Y962857D01*
X781514Y980000D02*
X764372Y967143D01*
X751514Y980000D02*
X768657Y962857D01*
X843514Y930000D02*
X829229Y920000D01*
X843514Y912857D02*
X813514Y912857D01*
X813514Y912857D02*
X813514Y924286D01*
X813514Y924286D02*
X814943Y927143D01*
X814943Y927143D02*
X816372Y928571D01*
X816372Y928571D02*
X819229Y930000D01*
X819229Y930000D02*
X823514Y930000D01*
X823514Y930000D02*
X826372Y928571D01*
X826372Y928571D02*
X827800Y927143D01*
X827800Y927143D02*
X829229Y924286D01*
X829229Y924286D02*
X829229Y912857D01*
X823514Y955714D02*
X843514Y955714D01*
X812086Y948571D02*
X833514Y941429D01*
X833514Y941429D02*
X833514Y960000D01*
X3873229Y843000D02*
X3887514Y843000D01*
X3857514Y833000D02*
X3873229Y843000D01*
X3873229Y843000D02*
X3857514Y853000D01*
X3887514Y863000D02*
X3857514Y863000D01*
X3884657Y894429D02*
X3886086Y893000D01*
X3886086Y893000D02*
X3887514Y888714D01*
X3887514Y888714D02*
X3887514Y885857D01*
X3887514Y885857D02*
X3886086Y881572D01*
X3886086Y881572D02*
X3883229Y878714D01*
X3883229Y878714D02*
X3880372Y877286D01*
X3880372Y877286D02*
X3874657Y875857D01*
X3874657Y875857D02*
X3870372Y875857D01*
X3870372Y875857D02*
X3864657Y877286D01*
X3864657Y877286D02*
X3861800Y878714D01*
X3861800Y878714D02*
X3858943Y881572D01*
X3858943Y881572D02*
X3857514Y885857D01*
X3857514Y885857D02*
X3857514Y888714D01*
X3857514Y888714D02*
X3858943Y893000D01*
X3858943Y893000D02*
X3860372Y894429D01*
X3876086Y907286D02*
X3876086Y930143D01*
X3887514Y960143D02*
X3887514Y943000D01*
X3887514Y951572D02*
X3857514Y951572D01*
X3857514Y951572D02*
X3861800Y948714D01*
X3861800Y948714D02*
X3864657Y945857D01*
X3864657Y945857D02*
X3866086Y943000D01*
X3860372Y971572D02*
X3858943Y973000D01*
X3858943Y973000D02*
X3857514Y975857D01*
X3857514Y975857D02*
X3857514Y983000D01*
X3857514Y983000D02*
X3858943Y985857D01*
X3858943Y985857D02*
X3860372Y987286D01*
X3860372Y987286D02*
X3863229Y988714D01*
X3863229Y988714D02*
X3866086Y988714D01*
X3866086Y988714D02*
X3870372Y987286D01*
X3870372Y987286D02*
X3887514Y970143D01*
X3887514Y970143D02*
X3887514Y988714D01*
X3887514Y1001572D02*
X3857514Y1001572D01*
X3857514Y1001572D02*
X3878943Y1011572D01*
X3878943Y1011572D02*
X3857514Y1021572D01*
X3857514Y1021572D02*
X3887514Y1021572D01*
X3860372Y1034429D02*
X3858943Y1035857D01*
X3858943Y1035857D02*
X3857514Y1038714D01*
X3857514Y1038714D02*
X3857514Y1045857D01*
X3857514Y1045857D02*
X3858943Y1048714D01*
X3858943Y1048714D02*
X3860372Y1050143D01*
X3860372Y1050143D02*
X3863229Y1051572D01*
X3863229Y1051572D02*
X3866086Y1051572D01*
X3866086Y1051572D02*
X3870372Y1050143D01*
X3870372Y1050143D02*
X3887514Y1033000D01*
X3887514Y1033000D02*
X3887514Y1051572D01*
X3857514Y1070143D02*
X3857514Y1073000D01*
X3857514Y1073000D02*
X3858943Y1075857D01*
X3858943Y1075857D02*
X3860372Y1077286D01*
X3860372Y1077286D02*
X3863229Y1078714D01*
X3863229Y1078714D02*
X3868943Y1080143D01*
X3868943Y1080143D02*
X3876086Y1080143D01*
X3876086Y1080143D02*
X3881800Y1078714D01*
X3881800Y1078714D02*
X3884657Y1077286D01*
X3884657Y1077286D02*
X3886086Y1075857D01*
X3886086Y1075857D02*
X3887514Y1073000D01*
X3887514Y1073000D02*
X3887514Y1070143D01*
X3887514Y1070143D02*
X3886086Y1067286D01*
X3886086Y1067286D02*
X3884657Y1065857D01*
X3884657Y1065857D02*
X3881800Y1064429D01*
X3881800Y1064429D02*
X3876086Y1063000D01*
X3876086Y1063000D02*
X3868943Y1063000D01*
X3868943Y1063000D02*
X3863229Y1064429D01*
X3863229Y1064429D02*
X3860372Y1065857D01*
X3860372Y1065857D02*
X3858943Y1067286D01*
X3858943Y1067286D02*
X3857514Y1070143D01*
X3887514Y1093000D02*
X3857514Y1093000D01*
X3857514Y1093000D02*
X3857514Y1104429D01*
X3857514Y1104429D02*
X3858943Y1107286D01*
X3858943Y1107286D02*
X3860372Y1108714D01*
X3860372Y1108714D02*
X3863229Y1110143D01*
X3863229Y1110143D02*
X3867514Y1110143D01*
X3867514Y1110143D02*
X3870372Y1108714D01*
X3870372Y1108714D02*
X3871800Y1107286D01*
X3871800Y1107286D02*
X3873229Y1104429D01*
X3873229Y1104429D02*
X3873229Y1093000D01*
X3860372Y1121572D02*
X3858943Y1123000D01*
X3858943Y1123000D02*
X3857514Y1125857D01*
X3857514Y1125857D02*
X3857514Y1133000D01*
X3857514Y1133000D02*
X3858943Y1135857D01*
X3858943Y1135857D02*
X3860372Y1137286D01*
X3860372Y1137286D02*
X3863229Y1138714D01*
X3863229Y1138714D02*
X3866086Y1138714D01*
X3866086Y1138714D02*
X3870372Y1137286D01*
X3870372Y1137286D02*
X3887514Y1120143D01*
X3887514Y1120143D02*
X3887514Y1138714D01*
X3856086Y1173000D02*
X3894657Y1147286D01*
X3857514Y1180143D02*
X3887514Y1200143D01*
X3857514Y1200143D02*
X3887514Y1180143D01*
X3857514Y1207286D02*
X3857514Y1224429D01*
X3887514Y1215857D02*
X3857514Y1215857D01*
X3857514Y1231572D02*
X3857514Y1250143D01*
X3857514Y1250143D02*
X3868943Y1240143D01*
X3868943Y1240143D02*
X3868943Y1244429D01*
X3868943Y1244429D02*
X3870372Y1247286D01*
X3870372Y1247286D02*
X3871800Y1248714D01*
X3871800Y1248714D02*
X3874657Y1250143D01*
X3874657Y1250143D02*
X3881800Y1250143D01*
X3881800Y1250143D02*
X3884657Y1248714D01*
X3884657Y1248714D02*
X3886086Y1247286D01*
X3886086Y1247286D02*
X3887514Y1244429D01*
X3887514Y1244429D02*
X3887514Y1235857D01*
X3887514Y1235857D02*
X3886086Y1233000D01*
X3886086Y1233000D02*
X3884657Y1231572D01*
X3860372Y1261571D02*
X3858943Y1263000D01*
X3858943Y1263000D02*
X3857514Y1265857D01*
X3857514Y1265857D02*
X3857514Y1273000D01*
X3857514Y1273000D02*
X3858943Y1275857D01*
X3858943Y1275857D02*
X3860372Y1277286D01*
X3860372Y1277286D02*
X3863229Y1278714D01*
X3863229Y1278714D02*
X3866086Y1278714D01*
X3866086Y1278714D02*
X3870372Y1277286D01*
X3870372Y1277286D02*
X3887514Y1260143D01*
X3887514Y1260143D02*
X3887514Y1278714D01*
X3867514Y1304429D02*
X3887514Y1304429D01*
X3856086Y1297286D02*
X3877514Y1290143D01*
X3877514Y1290143D02*
X3877514Y1308714D01*
X3876086Y1320143D02*
X3876086Y1343000D01*
X3887514Y1373000D02*
X3887514Y1355857D01*
X3887514Y1364429D02*
X3857514Y1364429D01*
X3857514Y1364429D02*
X3861800Y1361571D01*
X3861800Y1361571D02*
X3864657Y1358714D01*
X3864657Y1358714D02*
X3866086Y1355857D01*
X3857514Y1391571D02*
X3857514Y1394429D01*
X3857514Y1394429D02*
X3858943Y1397286D01*
X3858943Y1397286D02*
X3860372Y1398714D01*
X3860372Y1398714D02*
X3863229Y1400143D01*
X3863229Y1400143D02*
X3868943Y1401571D01*
X3868943Y1401571D02*
X3876086Y1401571D01*
X3876086Y1401571D02*
X3881800Y1400143D01*
X3881800Y1400143D02*
X3884657Y1398714D01*
X3884657Y1398714D02*
X3886086Y1397286D01*
X3886086Y1397286D02*
X3887514Y1394429D01*
X3887514Y1394429D02*
X3887514Y1391571D01*
X3887514Y1391571D02*
X3886086Y1388714D01*
X3886086Y1388714D02*
X3884657Y1387286D01*
X3884657Y1387286D02*
X3881800Y1385857D01*
X3881800Y1385857D02*
X3876086Y1384429D01*
X3876086Y1384429D02*
X3868943Y1384429D01*
X3868943Y1384429D02*
X3863229Y1385857D01*
X3863229Y1385857D02*
X3860372Y1387286D01*
X3860372Y1387286D02*
X3858943Y1388714D01*
X3858943Y1388714D02*
X3857514Y1391571D01*
X3856086Y1435857D02*
X3894657Y1410143D01*
X3887514Y1461571D02*
X3887514Y1444428D01*
X3887514Y1453000D02*
X3857514Y1453000D01*
X3857514Y1453000D02*
X3861800Y1450143D01*
X3861800Y1450143D02*
X3864657Y1447286D01*
X3864657Y1447286D02*
X3866086Y1444428D01*
X3857514Y1480143D02*
X3857514Y1483000D01*
X3857514Y1483000D02*
X3858943Y1485857D01*
X3858943Y1485857D02*
X3860372Y1487286D01*
X3860372Y1487286D02*
X3863229Y1488714D01*
X3863229Y1488714D02*
X3868943Y1490143D01*
X3868943Y1490143D02*
X3876086Y1490143D01*
X3876086Y1490143D02*
X3881800Y1488714D01*
X3881800Y1488714D02*
X3884657Y1487286D01*
X3884657Y1487286D02*
X3886086Y1485857D01*
X3886086Y1485857D02*
X3887514Y1483000D01*
X3887514Y1483000D02*
X3887514Y1480143D01*
X3887514Y1480143D02*
X3886086Y1477286D01*
X3886086Y1477286D02*
X3884657Y1475857D01*
X3884657Y1475857D02*
X3881800Y1474428D01*
X3881800Y1474428D02*
X3876086Y1473000D01*
X3876086Y1473000D02*
X3868943Y1473000D01*
X3868943Y1473000D02*
X3863229Y1474428D01*
X3863229Y1474428D02*
X3860372Y1475857D01*
X3860372Y1475857D02*
X3858943Y1477286D01*
X3858943Y1477286D02*
X3857514Y1480143D01*
X3690714Y1140771D02*
X3690714Y1126486D01*
X3680714Y1156486D02*
X3690714Y1140771D01*
X3690714Y1140771D02*
X3700714Y1156486D01*
X3726429Y1126486D02*
X3709286Y1126486D01*
X3717857Y1126486D02*
X3717857Y1156486D01*
X3717857Y1156486D02*
X3715000Y1152200D01*
X3715000Y1152200D02*
X3712143Y1149343D01*
X3712143Y1149343D02*
X3709286Y1147914D01*
X760143Y360485D02*
X760143Y340486D01*
X753000Y371914D02*
X745857Y350485D01*
X745857Y350485D02*
X764429Y350485D01*
X773000Y370485D02*
X793000Y370485D01*
X793000Y370485D02*
X780143Y340486D01*
X810143Y370485D02*
X813000Y370485D01*
X813000Y370485D02*
X815857Y369057D01*
X815857Y369057D02*
X817286Y367628D01*
X817286Y367628D02*
X818714Y364771D01*
X818714Y364771D02*
X820143Y359057D01*
X820143Y359057D02*
X820143Y351914D01*
X820143Y351914D02*
X818714Y346200D01*
X818714Y346200D02*
X817286Y343343D01*
X817286Y343343D02*
X815857Y341914D01*
X815857Y341914D02*
X813000Y340486D01*
X813000Y340486D02*
X810143Y340486D01*
X810143Y340486D02*
X807286Y341914D01*
X807286Y341914D02*
X805857Y343343D01*
X805857Y343343D02*
X804428Y346200D01*
X804428Y346200D02*
X803000Y351914D01*
X803000Y351914D02*
X803000Y359057D01*
X803000Y359057D02*
X804428Y364771D01*
X804428Y364771D02*
X805857Y367628D01*
X805857Y367628D02*
X807286Y369057D01*
X807286Y369057D02*
X810143Y370485D01*
X850143Y340486D02*
X840143Y354771D01*
X833000Y340486D02*
X833000Y370485D01*
X833000Y370485D02*
X844428Y370485D01*
X844428Y370485D02*
X847286Y369057D01*
X847286Y369057D02*
X848714Y367628D01*
X848714Y367628D02*
X850143Y364771D01*
X850143Y364771D02*
X850143Y360485D01*
X850143Y360485D02*
X848714Y357628D01*
X848714Y357628D02*
X847286Y356200D01*
X847286Y356200D02*
X844428Y354771D01*
X844428Y354771D02*
X833000Y354771D01*
X793000Y403485D02*
X783000Y417771D01*
X775857Y403485D02*
X775857Y433485D01*
X775857Y433485D02*
X787286Y433485D01*
X787286Y433485D02*
X790143Y432057D01*
X790143Y432057D02*
X791571Y430628D01*
X791571Y430628D02*
X793000Y427771D01*
X793000Y427771D02*
X793000Y423485D01*
X793000Y423485D02*
X791571Y420628D01*
X791571Y420628D02*
X790143Y419200D01*
X790143Y419200D02*
X787286Y417771D01*
X787286Y417771D02*
X775857Y417771D01*
X810143Y420628D02*
X807286Y422057D01*
X807286Y422057D02*
X805857Y423485D01*
X805857Y423485D02*
X804428Y426343D01*
X804428Y426343D02*
X804428Y427771D01*
X804428Y427771D02*
X805857Y430628D01*
X805857Y430628D02*
X807286Y432057D01*
X807286Y432057D02*
X810143Y433485D01*
X810143Y433485D02*
X815857Y433485D01*
X815857Y433485D02*
X818714Y432057D01*
X818714Y432057D02*
X820143Y430628D01*
X820143Y430628D02*
X821571Y427771D01*
X821571Y427771D02*
X821571Y426343D01*
X821571Y426343D02*
X820143Y423485D01*
X820143Y423485D02*
X818714Y422057D01*
X818714Y422057D02*
X815857Y420628D01*
X815857Y420628D02*
X810143Y420628D01*
X810143Y420628D02*
X807286Y419200D01*
X807286Y419200D02*
X805857Y417771D01*
X805857Y417771D02*
X804428Y414914D01*
X804428Y414914D02*
X804428Y409200D01*
X804428Y409200D02*
X805857Y406343D01*
X805857Y406343D02*
X807286Y404914D01*
X807286Y404914D02*
X810143Y403485D01*
X810143Y403485D02*
X815857Y403485D01*
X815857Y403485D02*
X818714Y404914D01*
X818714Y404914D02*
X820143Y406343D01*
X820143Y406343D02*
X821571Y409200D01*
X821571Y409200D02*
X821571Y414914D01*
X821571Y414914D02*
X820143Y417771D01*
X820143Y417771D02*
X818714Y419200D01*
X818714Y419200D02*
X815857Y420628D01*
X526286Y1798200D02*
X530572Y1796771D01*
X530572Y1796771D02*
X532000Y1795343D01*
X532000Y1795343D02*
X533429Y1792485D01*
X533429Y1792485D02*
X533429Y1788200D01*
X533429Y1788200D02*
X532000Y1785343D01*
X532000Y1785343D02*
X530572Y1783914D01*
X530572Y1783914D02*
X527714Y1782485D01*
X527714Y1782485D02*
X516286Y1782485D01*
X516286Y1782485D02*
X516286Y1812485D01*
X516286Y1812485D02*
X526286Y1812485D01*
X526286Y1812485D02*
X529143Y1811057D01*
X529143Y1811057D02*
X530572Y1809628D01*
X530572Y1809628D02*
X532000Y1806771D01*
X532000Y1806771D02*
X532000Y1803914D01*
X532000Y1803914D02*
X530572Y1801057D01*
X530572Y1801057D02*
X529143Y1799628D01*
X529143Y1799628D02*
X526286Y1798200D01*
X526286Y1798200D02*
X516286Y1798200D01*
X544857Y1783914D02*
X549143Y1782485D01*
X549143Y1782485D02*
X556286Y1782485D01*
X556286Y1782485D02*
X559143Y1783914D01*
X559143Y1783914D02*
X560572Y1785343D01*
X560572Y1785343D02*
X562000Y1788200D01*
X562000Y1788200D02*
X562000Y1791057D01*
X562000Y1791057D02*
X560572Y1793914D01*
X560572Y1793914D02*
X559143Y1795343D01*
X559143Y1795343D02*
X556286Y1796771D01*
X556286Y1796771D02*
X550572Y1798200D01*
X550572Y1798200D02*
X547714Y1799628D01*
X547714Y1799628D02*
X546286Y1801057D01*
X546286Y1801057D02*
X544857Y1803914D01*
X544857Y1803914D02*
X544857Y1806771D01*
X544857Y1806771D02*
X546286Y1809628D01*
X546286Y1809628D02*
X547714Y1811057D01*
X547714Y1811057D02*
X550572Y1812485D01*
X550572Y1812485D02*
X557714Y1812485D01*
X557714Y1812485D02*
X562000Y1811057D01*
X589143Y1812485D02*
X574857Y1812485D01*
X574857Y1812485D02*
X573429Y1798200D01*
X573429Y1798200D02*
X574857Y1799628D01*
X574857Y1799628D02*
X577714Y1801057D01*
X577714Y1801057D02*
X584857Y1801057D01*
X584857Y1801057D02*
X587714Y1799628D01*
X587714Y1799628D02*
X589143Y1798200D01*
X589143Y1798200D02*
X590572Y1795343D01*
X590572Y1795343D02*
X590572Y1788200D01*
X590572Y1788200D02*
X589143Y1785343D01*
X589143Y1785343D02*
X587714Y1783914D01*
X587714Y1783914D02*
X584857Y1782485D01*
X584857Y1782485D02*
X577714Y1782485D01*
X577714Y1782485D02*
X574857Y1783914D01*
X574857Y1783914D02*
X573429Y1785343D01*
X607714Y1799628D02*
X604857Y1801057D01*
X604857Y1801057D02*
X603429Y1802485D01*
X603429Y1802485D02*
X602000Y1805343D01*
X602000Y1805343D02*
X602000Y1806771D01*
X602000Y1806771D02*
X603429Y1809628D01*
X603429Y1809628D02*
X604857Y1811057D01*
X604857Y1811057D02*
X607714Y1812485D01*
X607714Y1812485D02*
X613429Y1812485D01*
X613429Y1812485D02*
X616286Y1811057D01*
X616286Y1811057D02*
X617714Y1809628D01*
X617714Y1809628D02*
X619143Y1806771D01*
X619143Y1806771D02*
X619143Y1805343D01*
X619143Y1805343D02*
X617714Y1802485D01*
X617714Y1802485D02*
X616286Y1801057D01*
X616286Y1801057D02*
X613429Y1799628D01*
X613429Y1799628D02*
X607714Y1799628D01*
X607714Y1799628D02*
X604857Y1798200D01*
X604857Y1798200D02*
X603429Y1796771D01*
X603429Y1796771D02*
X602000Y1793914D01*
X602000Y1793914D02*
X602000Y1788200D01*
X602000Y1788200D02*
X603429Y1785343D01*
X603429Y1785343D02*
X604857Y1783914D01*
X604857Y1783914D02*
X607714Y1782485D01*
X607714Y1782485D02*
X613429Y1782485D01*
X613429Y1782485D02*
X616286Y1783914D01*
X616286Y1783914D02*
X617714Y1785343D01*
X617714Y1785343D02*
X619143Y1788200D01*
X619143Y1788200D02*
X619143Y1793914D01*
X619143Y1793914D02*
X617714Y1796771D01*
X617714Y1796771D02*
X616286Y1798200D01*
X616286Y1798200D02*
X613429Y1799628D01*
X647714Y1782485D02*
X630571Y1782485D01*
X639143Y1782485D02*
X639143Y1812485D01*
X639143Y1812485D02*
X636286Y1808200D01*
X636286Y1808200D02*
X633429Y1805343D01*
X633429Y1805343D02*
X630571Y1803914D01*
X657714Y1812485D02*
X677714Y1812485D01*
X677714Y1812485D02*
X664857Y1782485D01*
X686286Y1812485D02*
X693429Y1782485D01*
X693429Y1782485D02*
X699143Y1803914D01*
X699143Y1803914D02*
X704857Y1782485D01*
X704857Y1782485D02*
X712000Y1812485D01*
X722000Y1783914D02*
X726286Y1782485D01*
X726286Y1782485D02*
X733428Y1782485D01*
X733428Y1782485D02*
X736286Y1783914D01*
X736286Y1783914D02*
X737714Y1785343D01*
X737714Y1785343D02*
X739143Y1788200D01*
X739143Y1788200D02*
X739143Y1791057D01*
X739143Y1791057D02*
X737714Y1793914D01*
X737714Y1793914D02*
X736286Y1795343D01*
X736286Y1795343D02*
X733428Y1796771D01*
X733428Y1796771D02*
X727714Y1798200D01*
X727714Y1798200D02*
X724857Y1799628D01*
X724857Y1799628D02*
X723428Y1801057D01*
X723428Y1801057D02*
X722000Y1803914D01*
X722000Y1803914D02*
X722000Y1806771D01*
X722000Y1806771D02*
X723428Y1809628D01*
X723428Y1809628D02*
X724857Y1811057D01*
X724857Y1811057D02*
X727714Y1812485D01*
X727714Y1812485D02*
X734857Y1812485D01*
X734857Y1812485D02*
X739143Y1811057D01*
X486857Y1679485D02*
X486857Y1709485D01*
X486857Y1709485D02*
X494000Y1709485D01*
X494000Y1709485D02*
X498286Y1708057D01*
X498286Y1708057D02*
X501143Y1705200D01*
X501143Y1705200D02*
X502571Y1702343D01*
X502571Y1702343D02*
X504000Y1696628D01*
X504000Y1696628D02*
X504000Y1692343D01*
X504000Y1692343D02*
X502571Y1686628D01*
X502571Y1686628D02*
X501143Y1683771D01*
X501143Y1683771D02*
X498286Y1680914D01*
X498286Y1680914D02*
X494000Y1679485D01*
X494000Y1679485D02*
X486857Y1679485D01*
X532571Y1679485D02*
X515428Y1679485D01*
X524000Y1679485D02*
X524000Y1709485D01*
X524000Y1709485D02*
X521143Y1705200D01*
X521143Y1705200D02*
X518286Y1702343D01*
X518286Y1702343D02*
X515428Y1700914D01*
X458714Y478485D02*
X448714Y492771D01*
X441571Y478485D02*
X441571Y508485D01*
X441571Y508485D02*
X453000Y508485D01*
X453000Y508485D02*
X455857Y507057D01*
X455857Y507057D02*
X457286Y505628D01*
X457286Y505628D02*
X458714Y502771D01*
X458714Y502771D02*
X458714Y498485D01*
X458714Y498485D02*
X457286Y495628D01*
X457286Y495628D02*
X455857Y494200D01*
X455857Y494200D02*
X453000Y492771D01*
X453000Y492771D02*
X441571Y492771D01*
X471571Y494200D02*
X481571Y494200D01*
X485857Y478485D02*
X471571Y478485D01*
X471571Y478485D02*
X471571Y508485D01*
X471571Y508485D02*
X485857Y508485D01*
X498714Y478485D02*
X498714Y508485D01*
X498714Y508485D02*
X505857Y508485D01*
X505857Y508485D02*
X510143Y507057D01*
X510143Y507057D02*
X513000Y504200D01*
X513000Y504200D02*
X514429Y501343D01*
X514429Y501343D02*
X515857Y495628D01*
X515857Y495628D02*
X515857Y491343D01*
X515857Y491343D02*
X514429Y485628D01*
X514429Y485628D02*
X513000Y482771D01*
X513000Y482771D02*
X510143Y479914D01*
X510143Y479914D02*
X505857Y478485D01*
X505857Y478485D02*
X498714Y478485D01*
X457857Y406485D02*
X457857Y436485D01*
X457857Y436485D02*
X465000Y436485D01*
X465000Y436485D02*
X469286Y435057D01*
X469286Y435057D02*
X472143Y432200D01*
X472143Y432200D02*
X473571Y429343D01*
X473571Y429343D02*
X475000Y423628D01*
X475000Y423628D02*
X475000Y419343D01*
X475000Y419343D02*
X473571Y413628D01*
X473571Y413628D02*
X472143Y410771D01*
X472143Y410771D02*
X469286Y407914D01*
X469286Y407914D02*
X465000Y406485D01*
X465000Y406485D02*
X457857Y406485D01*
X485000Y436485D02*
X503571Y436485D01*
X503571Y436485D02*
X493571Y425057D01*
X493571Y425057D02*
X497857Y425057D01*
X497857Y425057D02*
X500714Y423628D01*
X500714Y423628D02*
X502143Y422200D01*
X502143Y422200D02*
X503571Y419343D01*
X503571Y419343D02*
X503571Y412200D01*
X503571Y412200D02*
X502143Y409343D01*
X502143Y409343D02*
X500714Y407914D01*
X500714Y407914D02*
X497857Y406485D01*
X497857Y406485D02*
X489286Y406485D01*
X489286Y406485D02*
X486428Y407914D01*
X486428Y407914D02*
X485000Y409343D01*
X12428Y1653485D02*
X12428Y1683485D01*
X12428Y1683485D02*
X22428Y1662057D01*
X22428Y1662057D02*
X32428Y1683485D01*
X32428Y1683485D02*
X32428Y1653485D01*
X51000Y1653485D02*
X48143Y1654914D01*
X48143Y1654914D02*
X46714Y1656343D01*
X46714Y1656343D02*
X45285Y1659200D01*
X45285Y1659200D02*
X45285Y1667771D01*
X45285Y1667771D02*
X46714Y1670628D01*
X46714Y1670628D02*
X48143Y1672057D01*
X48143Y1672057D02*
X51000Y1673485D01*
X51000Y1673485D02*
X55285Y1673485D01*
X55285Y1673485D02*
X58143Y1672057D01*
X58143Y1672057D02*
X59571Y1670628D01*
X59571Y1670628D02*
X61000Y1667771D01*
X61000Y1667771D02*
X61000Y1659200D01*
X61000Y1659200D02*
X59571Y1656343D01*
X59571Y1656343D02*
X58143Y1654914D01*
X58143Y1654914D02*
X55285Y1653485D01*
X55285Y1653485D02*
X51000Y1653485D01*
X86714Y1673485D02*
X86714Y1653485D01*
X73857Y1673485D02*
X73857Y1657771D01*
X73857Y1657771D02*
X75286Y1654914D01*
X75286Y1654914D02*
X78143Y1653485D01*
X78143Y1653485D02*
X82428Y1653485D01*
X82428Y1653485D02*
X85286Y1654914D01*
X85286Y1654914D02*
X86714Y1656343D01*
X101000Y1673485D02*
X101000Y1653485D01*
X101000Y1670628D02*
X102428Y1672057D01*
X102428Y1672057D02*
X105286Y1673485D01*
X105286Y1673485D02*
X109571Y1673485D01*
X109571Y1673485D02*
X112428Y1672057D01*
X112428Y1672057D02*
X113857Y1669200D01*
X113857Y1669200D02*
X113857Y1653485D01*
X123857Y1673485D02*
X135286Y1673485D01*
X128143Y1683485D02*
X128143Y1657771D01*
X128143Y1657771D02*
X129571Y1654914D01*
X129571Y1654914D02*
X132429Y1653485D01*
X132429Y1653485D02*
X135286Y1653485D01*
X145286Y1653485D02*
X145286Y1673485D01*
X145286Y1683485D02*
X143857Y1682057D01*
X143857Y1682057D02*
X145286Y1680628D01*
X145286Y1680628D02*
X146714Y1682057D01*
X146714Y1682057D02*
X145286Y1683485D01*
X145286Y1683485D02*
X145286Y1680628D01*
X159571Y1673485D02*
X159571Y1653485D01*
X159571Y1670628D02*
X161000Y1672057D01*
X161000Y1672057D02*
X163857Y1673485D01*
X163857Y1673485D02*
X168143Y1673485D01*
X168143Y1673485D02*
X171000Y1672057D01*
X171000Y1672057D02*
X172429Y1669200D01*
X172429Y1669200D02*
X172429Y1653485D01*
X199571Y1673485D02*
X199571Y1649200D01*
X199571Y1649200D02*
X198143Y1646343D01*
X198143Y1646343D02*
X196714Y1644914D01*
X196714Y1644914D02*
X193857Y1643485D01*
X193857Y1643485D02*
X189571Y1643485D01*
X189571Y1643485D02*
X186714Y1644914D01*
X199571Y1654914D02*
X196714Y1653485D01*
X196714Y1653485D02*
X191000Y1653485D01*
X191000Y1653485D02*
X188143Y1654914D01*
X188143Y1654914D02*
X186714Y1656343D01*
X186714Y1656343D02*
X185286Y1659200D01*
X185286Y1659200D02*
X185286Y1667771D01*
X185286Y1667771D02*
X186714Y1670628D01*
X186714Y1670628D02*
X188143Y1672057D01*
X188143Y1672057D02*
X191000Y1673485D01*
X191000Y1673485D02*
X196714Y1673485D01*
X196714Y1673485D02*
X199571Y1672057D01*
X213857Y1653485D02*
X213857Y1683485D01*
X213857Y1669200D02*
X231000Y1669200D01*
X231000Y1653485D02*
X231000Y1683485D01*
X249571Y1653485D02*
X246714Y1654914D01*
X246714Y1654914D02*
X245286Y1656343D01*
X245286Y1656343D02*
X243857Y1659200D01*
X243857Y1659200D02*
X243857Y1667771D01*
X243857Y1667771D02*
X245286Y1670628D01*
X245286Y1670628D02*
X246714Y1672057D01*
X246714Y1672057D02*
X249571Y1673485D01*
X249571Y1673485D02*
X253857Y1673485D01*
X253857Y1673485D02*
X256714Y1672057D01*
X256714Y1672057D02*
X258143Y1670628D01*
X258143Y1670628D02*
X259571Y1667771D01*
X259571Y1667771D02*
X259571Y1659200D01*
X259571Y1659200D02*
X258143Y1656343D01*
X258143Y1656343D02*
X256714Y1654914D01*
X256714Y1654914D02*
X253857Y1653485D01*
X253857Y1653485D02*
X249571Y1653485D01*
X276714Y1653485D02*
X273857Y1654914D01*
X273857Y1654914D02*
X272429Y1657771D01*
X272429Y1657771D02*
X272429Y1683485D01*
X299572Y1654914D02*
X296714Y1653485D01*
X296714Y1653485D02*
X291000Y1653485D01*
X291000Y1653485D02*
X288143Y1654914D01*
X288143Y1654914D02*
X286714Y1657771D01*
X286714Y1657771D02*
X286714Y1669200D01*
X286714Y1669200D02*
X288143Y1672057D01*
X288143Y1672057D02*
X291000Y1673485D01*
X291000Y1673485D02*
X296714Y1673485D01*
X296714Y1673485D02*
X299572Y1672057D01*
X299572Y1672057D02*
X301000Y1669200D01*
X301000Y1669200D02*
X301000Y1666343D01*
X301000Y1666343D02*
X286714Y1663485D01*
X129143Y1711485D02*
X129143Y1741485D01*
X129143Y1727200D02*
X146286Y1727200D01*
X146286Y1711485D02*
X146286Y1741485D01*
X173429Y1731485D02*
X173429Y1711485D01*
X166286Y1742914D02*
X159143Y1721485D01*
X159143Y1721485D02*
X177714Y1721485D01*
X17428Y359485D02*
X17428Y389485D01*
X17428Y389485D02*
X27428Y368057D01*
X27428Y368057D02*
X37428Y389485D01*
X37428Y389485D02*
X37428Y359485D01*
X56000Y359485D02*
X53143Y360914D01*
X53143Y360914D02*
X51714Y362343D01*
X51714Y362343D02*
X50285Y365200D01*
X50285Y365200D02*
X50285Y373771D01*
X50285Y373771D02*
X51714Y376628D01*
X51714Y376628D02*
X53143Y378057D01*
X53143Y378057D02*
X56000Y379485D01*
X56000Y379485D02*
X60285Y379485D01*
X60285Y379485D02*
X63143Y378057D01*
X63143Y378057D02*
X64571Y376628D01*
X64571Y376628D02*
X66000Y373771D01*
X66000Y373771D02*
X66000Y365200D01*
X66000Y365200D02*
X64571Y362343D01*
X64571Y362343D02*
X63143Y360914D01*
X63143Y360914D02*
X60285Y359485D01*
X60285Y359485D02*
X56000Y359485D01*
X91714Y379485D02*
X91714Y359485D01*
X78857Y379485D02*
X78857Y363771D01*
X78857Y363771D02*
X80286Y360914D01*
X80286Y360914D02*
X83143Y359485D01*
X83143Y359485D02*
X87428Y359485D01*
X87428Y359485D02*
X90286Y360914D01*
X90286Y360914D02*
X91714Y362343D01*
X106000Y379485D02*
X106000Y359485D01*
X106000Y376628D02*
X107428Y378057D01*
X107428Y378057D02*
X110286Y379485D01*
X110286Y379485D02*
X114571Y379485D01*
X114571Y379485D02*
X117428Y378057D01*
X117428Y378057D02*
X118857Y375200D01*
X118857Y375200D02*
X118857Y359485D01*
X128857Y379485D02*
X140286Y379485D01*
X133143Y389485D02*
X133143Y363771D01*
X133143Y363771D02*
X134571Y360914D01*
X134571Y360914D02*
X137429Y359485D01*
X137429Y359485D02*
X140286Y359485D01*
X150286Y359485D02*
X150286Y379485D01*
X150286Y389485D02*
X148857Y388057D01*
X148857Y388057D02*
X150286Y386628D01*
X150286Y386628D02*
X151714Y388057D01*
X151714Y388057D02*
X150286Y389485D01*
X150286Y389485D02*
X150286Y386628D01*
X164571Y379485D02*
X164571Y359485D01*
X164571Y376628D02*
X166000Y378057D01*
X166000Y378057D02*
X168857Y379485D01*
X168857Y379485D02*
X173143Y379485D01*
X173143Y379485D02*
X176000Y378057D01*
X176000Y378057D02*
X177429Y375200D01*
X177429Y375200D02*
X177429Y359485D01*
X204571Y379485D02*
X204571Y355200D01*
X204571Y355200D02*
X203143Y352343D01*
X203143Y352343D02*
X201714Y350914D01*
X201714Y350914D02*
X198857Y349486D01*
X198857Y349486D02*
X194571Y349486D01*
X194571Y349486D02*
X191714Y350914D01*
X204571Y360914D02*
X201714Y359485D01*
X201714Y359485D02*
X196000Y359485D01*
X196000Y359485D02*
X193143Y360914D01*
X193143Y360914D02*
X191714Y362343D01*
X191714Y362343D02*
X190286Y365200D01*
X190286Y365200D02*
X190286Y373771D01*
X190286Y373771D02*
X191714Y376628D01*
X191714Y376628D02*
X193143Y378057D01*
X193143Y378057D02*
X196000Y379485D01*
X196000Y379485D02*
X201714Y379485D01*
X201714Y379485D02*
X204571Y378057D01*
X218857Y359485D02*
X218857Y389485D01*
X218857Y375200D02*
X236000Y375200D01*
X236000Y359485D02*
X236000Y389485D01*
X254571Y359485D02*
X251714Y360914D01*
X251714Y360914D02*
X250286Y362343D01*
X250286Y362343D02*
X248857Y365200D01*
X248857Y365200D02*
X248857Y373771D01*
X248857Y373771D02*
X250286Y376628D01*
X250286Y376628D02*
X251714Y378057D01*
X251714Y378057D02*
X254571Y379485D01*
X254571Y379485D02*
X258857Y379485D01*
X258857Y379485D02*
X261714Y378057D01*
X261714Y378057D02*
X263143Y376628D01*
X263143Y376628D02*
X264572Y373771D01*
X264572Y373771D02*
X264572Y365200D01*
X264572Y365200D02*
X263143Y362343D01*
X263143Y362343D02*
X261714Y360914D01*
X261714Y360914D02*
X258857Y359485D01*
X258857Y359485D02*
X254571Y359485D01*
X281714Y359485D02*
X278857Y360914D01*
X278857Y360914D02*
X277429Y363771D01*
X277429Y363771D02*
X277429Y389485D01*
X304572Y360914D02*
X301714Y359485D01*
X301714Y359485D02*
X296000Y359485D01*
X296000Y359485D02*
X293143Y360914D01*
X293143Y360914D02*
X291714Y363771D01*
X291714Y363771D02*
X291714Y375200D01*
X291714Y375200D02*
X293143Y378057D01*
X293143Y378057D02*
X296000Y379485D01*
X296000Y379485D02*
X301714Y379485D01*
X301714Y379485D02*
X304572Y378057D01*
X304572Y378057D02*
X306000Y375200D01*
X306000Y375200D02*
X306000Y372343D01*
X306000Y372343D02*
X291714Y369485D01*
X127143Y407485D02*
X127143Y437485D01*
X127143Y423200D02*
X144286Y423200D01*
X144286Y407485D02*
X144286Y437485D01*
X174286Y407485D02*
X157143Y407485D01*
X165714Y407485D02*
X165714Y437485D01*
X165714Y437485D02*
X162857Y433200D01*
X162857Y433200D02*
X160000Y430343D01*
X160000Y430343D02*
X157143Y428914D01*
X1028429Y361485D02*
X1028429Y337200D01*
X1028429Y337200D02*
X1029857Y334343D01*
X1029857Y334343D02*
X1031286Y332914D01*
X1031286Y332914D02*
X1034143Y331486D01*
X1034143Y331486D02*
X1039857Y331486D01*
X1039857Y331486D02*
X1042714Y332914D01*
X1042714Y332914D02*
X1044143Y334343D01*
X1044143Y334343D02*
X1045571Y337200D01*
X1045571Y337200D02*
X1045571Y361485D01*
X1059857Y331486D02*
X1059857Y361485D01*
X1077000Y331486D02*
X1064143Y348628D01*
X1077000Y361485D02*
X1059857Y344343D01*
X1089857Y342914D02*
X1112714Y342914D01*
X1137000Y347200D02*
X1141286Y345771D01*
X1141286Y345771D02*
X1142714Y344343D01*
X1142714Y344343D02*
X1144143Y341486D01*
X1144143Y341486D02*
X1144143Y337200D01*
X1144143Y337200D02*
X1142714Y334343D01*
X1142714Y334343D02*
X1141286Y332914D01*
X1141286Y332914D02*
X1138429Y331486D01*
X1138429Y331486D02*
X1127000Y331486D01*
X1127000Y331486D02*
X1127000Y361485D01*
X1127000Y361485D02*
X1137000Y361485D01*
X1137000Y361485D02*
X1139857Y360057D01*
X1139857Y360057D02*
X1141286Y358628D01*
X1141286Y358628D02*
X1142714Y355771D01*
X1142714Y355771D02*
X1142714Y352914D01*
X1142714Y352914D02*
X1141286Y350057D01*
X1141286Y350057D02*
X1139857Y348628D01*
X1139857Y348628D02*
X1137000Y347200D01*
X1137000Y347200D02*
X1127000Y347200D01*
X1162714Y361485D02*
X1165572Y361485D01*
X1165572Y361485D02*
X1168429Y360057D01*
X1168429Y360057D02*
X1169857Y358628D01*
X1169857Y358628D02*
X1171286Y355771D01*
X1171286Y355771D02*
X1172714Y350057D01*
X1172714Y350057D02*
X1172714Y342914D01*
X1172714Y342914D02*
X1171286Y337200D01*
X1171286Y337200D02*
X1169857Y334343D01*
X1169857Y334343D02*
X1168429Y332914D01*
X1168429Y332914D02*
X1165572Y331486D01*
X1165572Y331486D02*
X1162714Y331486D01*
X1162714Y331486D02*
X1159857Y332914D01*
X1159857Y332914D02*
X1158429Y334343D01*
X1158429Y334343D02*
X1157000Y337200D01*
X1157000Y337200D02*
X1155572Y342914D01*
X1155572Y342914D02*
X1155572Y350057D01*
X1155572Y350057D02*
X1157000Y355771D01*
X1157000Y355771D02*
X1158429Y358628D01*
X1158429Y358628D02*
X1159857Y360057D01*
X1159857Y360057D02*
X1162714Y361485D01*
X1184143Y358628D02*
X1185572Y360057D01*
X1185572Y360057D02*
X1188429Y361485D01*
X1188429Y361485D02*
X1195572Y361485D01*
X1195572Y361485D02*
X1198429Y360057D01*
X1198429Y360057D02*
X1199857Y358628D01*
X1199857Y358628D02*
X1201286Y355771D01*
X1201286Y355771D02*
X1201286Y352914D01*
X1201286Y352914D02*
X1199857Y348628D01*
X1199857Y348628D02*
X1182714Y331486D01*
X1182714Y331486D02*
X1201286Y331486D01*
X1211286Y361485D02*
X1231286Y361485D01*
X1231286Y361485D02*
X1218429Y331486D01*
X1239857Y361485D02*
X1258429Y361485D01*
X1258429Y361485D02*
X1248429Y350057D01*
X1248429Y350057D02*
X1252714Y350057D01*
X1252714Y350057D02*
X1255572Y348628D01*
X1255572Y348628D02*
X1257000Y347200D01*
X1257000Y347200D02*
X1258429Y344343D01*
X1258429Y344343D02*
X1258429Y337200D01*
X1258429Y337200D02*
X1257000Y334343D01*
X1257000Y334343D02*
X1255572Y332914D01*
X1255572Y332914D02*
X1252714Y331486D01*
X1252714Y331486D02*
X1244143Y331486D01*
X1244143Y331486D02*
X1241286Y332914D01*
X1241286Y332914D02*
X1239857Y334343D01*
X1271286Y342914D02*
X1294143Y342914D01*
X1307000Y332914D02*
X1311286Y331486D01*
X1311286Y331486D02*
X1318429Y331486D01*
X1318429Y331486D02*
X1321286Y332914D01*
X1321286Y332914D02*
X1322714Y334343D01*
X1322714Y334343D02*
X1324143Y337200D01*
X1324143Y337200D02*
X1324143Y340057D01*
X1324143Y340057D02*
X1322714Y342914D01*
X1322714Y342914D02*
X1321286Y344343D01*
X1321286Y344343D02*
X1318429Y345771D01*
X1318429Y345771D02*
X1312714Y347200D01*
X1312714Y347200D02*
X1309857Y348628D01*
X1309857Y348628D02*
X1308429Y350057D01*
X1308429Y350057D02*
X1307000Y352914D01*
X1307000Y352914D02*
X1307000Y355771D01*
X1307000Y355771D02*
X1308429Y358628D01*
X1308429Y358628D02*
X1309857Y360057D01*
X1309857Y360057D02*
X1312714Y361485D01*
X1312714Y361485D02*
X1319857Y361485D01*
X1319857Y361485D02*
X1324143Y360057D01*
X1337000Y331486D02*
X1337000Y361485D01*
X1337000Y361485D02*
X1348429Y361485D01*
X1348429Y361485D02*
X1351286Y360057D01*
X1351286Y360057D02*
X1352714Y358628D01*
X1352714Y358628D02*
X1354143Y355771D01*
X1354143Y355771D02*
X1354143Y351485D01*
X1354143Y351485D02*
X1352714Y348628D01*
X1352714Y348628D02*
X1351286Y347200D01*
X1351286Y347200D02*
X1348429Y345771D01*
X1348429Y345771D02*
X1337000Y345771D01*
X1365571Y358628D02*
X1367000Y360057D01*
X1367000Y360057D02*
X1369857Y361485D01*
X1369857Y361485D02*
X1377000Y361485D01*
X1377000Y361485D02*
X1379857Y360057D01*
X1379857Y360057D02*
X1381286Y358628D01*
X1381286Y358628D02*
X1382714Y355771D01*
X1382714Y355771D02*
X1382714Y352914D01*
X1382714Y352914D02*
X1381286Y348628D01*
X1381286Y348628D02*
X1364143Y331486D01*
X1364143Y331486D02*
X1382714Y331486D01*
X1409857Y361485D02*
X1395571Y361485D01*
X1395571Y361485D02*
X1394143Y347200D01*
X1394143Y347200D02*
X1395571Y348628D01*
X1395571Y348628D02*
X1398429Y350057D01*
X1398429Y350057D02*
X1405571Y350057D01*
X1405571Y350057D02*
X1408429Y348628D01*
X1408429Y348628D02*
X1409857Y347200D01*
X1409857Y347200D02*
X1411286Y344343D01*
X1411286Y344343D02*
X1411286Y337200D01*
X1411286Y337200D02*
X1409857Y334343D01*
X1409857Y334343D02*
X1408429Y332914D01*
X1408429Y332914D02*
X1405571Y331486D01*
X1405571Y331486D02*
X1398429Y331486D01*
X1398429Y331486D02*
X1395571Y332914D01*
X1395571Y332914D02*
X1394143Y334343D01*
X1429857Y345771D02*
X1429857Y331486D01*
X1419857Y361485D02*
X1429857Y345771D01*
X1429857Y345771D02*
X1439857Y361485D01*
X3673286Y1513485D02*
X3691857Y1513485D01*
X3691857Y1513485D02*
X3681857Y1502057D01*
X3681857Y1502057D02*
X3686143Y1502057D01*
X3686143Y1502057D02*
X3689000Y1500628D01*
X3689000Y1500628D02*
X3690428Y1499200D01*
X3690428Y1499200D02*
X3691857Y1496343D01*
X3691857Y1496343D02*
X3691857Y1489200D01*
X3691857Y1489200D02*
X3690428Y1486343D01*
X3690428Y1486343D02*
X3689000Y1484914D01*
X3689000Y1484914D02*
X3686143Y1483485D01*
X3686143Y1483485D02*
X3677571Y1483485D01*
X3677571Y1483485D02*
X3674714Y1484914D01*
X3674714Y1484914D02*
X3673286Y1486343D01*
X3710428Y1513485D02*
X3713286Y1513485D01*
X3713286Y1513485D02*
X3716143Y1512057D01*
X3716143Y1512057D02*
X3717571Y1510628D01*
X3717571Y1510628D02*
X3719000Y1507771D01*
X3719000Y1507771D02*
X3720428Y1502057D01*
X3720428Y1502057D02*
X3720428Y1494914D01*
X3720428Y1494914D02*
X3719000Y1489200D01*
X3719000Y1489200D02*
X3717571Y1486343D01*
X3717571Y1486343D02*
X3716143Y1484914D01*
X3716143Y1484914D02*
X3713286Y1483485D01*
X3713286Y1483485D02*
X3710428Y1483485D01*
X3710428Y1483485D02*
X3707571Y1484914D01*
X3707571Y1484914D02*
X3706143Y1486343D01*
X3706143Y1486343D02*
X3704714Y1489200D01*
X3704714Y1489200D02*
X3703286Y1494914D01*
X3703286Y1494914D02*
X3703286Y1502057D01*
X3703286Y1502057D02*
X3704714Y1507771D01*
X3704714Y1507771D02*
X3706143Y1510628D01*
X3706143Y1510628D02*
X3707571Y1512057D01*
X3707571Y1512057D02*
X3710428Y1513485D01*
X3733286Y1503485D02*
X3733286Y1473485D01*
X3733286Y1502057D02*
X3736143Y1503485D01*
X3736143Y1503485D02*
X3741857Y1503485D01*
X3741857Y1503485D02*
X3744714Y1502057D01*
X3744714Y1502057D02*
X3746143Y1500628D01*
X3746143Y1500628D02*
X3747571Y1497771D01*
X3747571Y1497771D02*
X3747571Y1489200D01*
X3747571Y1489200D02*
X3746143Y1486343D01*
X3746143Y1486343D02*
X3744714Y1484914D01*
X3744714Y1484914D02*
X3741857Y1483485D01*
X3741857Y1483485D02*
X3736143Y1483485D01*
X3736143Y1483485D02*
X3733286Y1484914D01*
X3770428Y1499200D02*
X3760428Y1499200D01*
X3760428Y1483485D02*
X3760428Y1513485D01*
X3760428Y1513485D02*
X3774714Y1513485D01*
X3699660Y1421001D02*
X3698231Y1419572D01*
X3698231Y1419572D02*
X3693946Y1418144D01*
X3693946Y1418144D02*
X3691089Y1418144D01*
X3691089Y1418144D02*
X3686803Y1419572D01*
X3686803Y1419572D02*
X3683946Y1422429D01*
X3683946Y1422429D02*
X3682517Y1425286D01*
X3682517Y1425286D02*
X3681089Y1431001D01*
X3681089Y1431001D02*
X3681089Y1435286D01*
X3681089Y1435286D02*
X3682517Y1441001D01*
X3682517Y1441001D02*
X3683946Y1443858D01*
X3683946Y1443858D02*
X3686803Y1446715D01*
X3686803Y1446715D02*
X3691089Y1448144D01*
X3691089Y1448144D02*
X3693946Y1448144D01*
X3693946Y1448144D02*
X3698231Y1446715D01*
X3698231Y1446715D02*
X3699660Y1445286D01*
X3728231Y1418144D02*
X3711089Y1418144D01*
X3719660Y1418144D02*
X3719660Y1448144D01*
X3719660Y1448144D02*
X3716803Y1443858D01*
X3716803Y1443858D02*
X3713946Y1441001D01*
X3713946Y1441001D02*
X3711089Y1439572D01*
X3745374Y1435286D02*
X3742517Y1436715D01*
X3742517Y1436715D02*
X3741089Y1438144D01*
X3741089Y1438144D02*
X3739660Y1441001D01*
X3739660Y1441001D02*
X3739660Y1442429D01*
X3739660Y1442429D02*
X3741089Y1445286D01*
X3741089Y1445286D02*
X3742517Y1446715D01*
X3742517Y1446715D02*
X3745374Y1448144D01*
X3745374Y1448144D02*
X3751089Y1448144D01*
X3751089Y1448144D02*
X3753946Y1446715D01*
X3753946Y1446715D02*
X3755374Y1445286D01*
X3755374Y1445286D02*
X3756803Y1442429D01*
X3756803Y1442429D02*
X3756803Y1441001D01*
X3756803Y1441001D02*
X3755374Y1438144D01*
X3755374Y1438144D02*
X3753946Y1436715D01*
X3753946Y1436715D02*
X3751089Y1435286D01*
X3751089Y1435286D02*
X3745374Y1435286D01*
X3745374Y1435286D02*
X3742517Y1433858D01*
X3742517Y1433858D02*
X3741089Y1432429D01*
X3741089Y1432429D02*
X3739660Y1429572D01*
X3739660Y1429572D02*
X3739660Y1423858D01*
X3739660Y1423858D02*
X3741089Y1421001D01*
X3741089Y1421001D02*
X3742517Y1419572D01*
X3742517Y1419572D02*
X3745374Y1418144D01*
X3745374Y1418144D02*
X3751089Y1418144D01*
X3751089Y1418144D02*
X3753946Y1419572D01*
X3753946Y1419572D02*
X3755374Y1421001D01*
X3755374Y1421001D02*
X3756803Y1423858D01*
X3756803Y1423858D02*
X3756803Y1429572D01*
X3756803Y1429572D02*
X3755374Y1432429D01*
X3755374Y1432429D02*
X3753946Y1433858D01*
X3753946Y1433858D02*
X3751089Y1435286D01*
X2172714Y989485D02*
X2175571Y989485D01*
X2175571Y989485D02*
X2178429Y988057D01*
X2178429Y988057D02*
X2179857Y986628D01*
X2179857Y986628D02*
X2181286Y983771D01*
X2181286Y983771D02*
X2182714Y978057D01*
X2182714Y978057D02*
X2182714Y970914D01*
X2182714Y970914D02*
X2181286Y965200D01*
X2181286Y965200D02*
X2179857Y962343D01*
X2179857Y962343D02*
X2178429Y960914D01*
X2178429Y960914D02*
X2175571Y959485D01*
X2175571Y959485D02*
X2172714Y959485D01*
X2172714Y959485D02*
X2169857Y960914D01*
X2169857Y960914D02*
X2168429Y962343D01*
X2168429Y962343D02*
X2167000Y965200D01*
X2167000Y965200D02*
X2165571Y970914D01*
X2165571Y970914D02*
X2165571Y978057D01*
X2165571Y978057D02*
X2167000Y983771D01*
X2167000Y983771D02*
X2168429Y986628D01*
X2168429Y986628D02*
X2169857Y988057D01*
X2169857Y988057D02*
X2172714Y989485D01*
X2195571Y962343D02*
X2197000Y960914D01*
X2197000Y960914D02*
X2195571Y959485D01*
X2195571Y959485D02*
X2194143Y960914D01*
X2194143Y960914D02*
X2195571Y962343D01*
X2195571Y962343D02*
X2195571Y959485D01*
X2225571Y959485D02*
X2208429Y959485D01*
X2217000Y959485D02*
X2217000Y989485D01*
X2217000Y989485D02*
X2214143Y985200D01*
X2214143Y985200D02*
X2211286Y982343D01*
X2211286Y982343D02*
X2208429Y980914D01*
X2251286Y979485D02*
X2251286Y959485D01*
X2238429Y979485D02*
X2238429Y963771D01*
X2238429Y963771D02*
X2239857Y960914D01*
X2239857Y960914D02*
X2242714Y959485D01*
X2242714Y959485D02*
X2247000Y959485D01*
X2247000Y959485D02*
X2249857Y960914D01*
X2249857Y960914D02*
X2251286Y962343D01*
X2275571Y975200D02*
X2265571Y975200D01*
X2265571Y959485D02*
X2265571Y989485D01*
X2265571Y989485D02*
X2279857Y989485D01*
X2091691Y959640D02*
X2090263Y958211D01*
X2090263Y958211D02*
X2085977Y956782D01*
X2085977Y956782D02*
X2083120Y956782D01*
X2083120Y956782D02*
X2078834Y958211D01*
X2078834Y958211D02*
X2075977Y961068D01*
X2075977Y961068D02*
X2074548Y963925D01*
X2074548Y963925D02*
X2073120Y969640D01*
X2073120Y969640D02*
X2073120Y973925D01*
X2073120Y973925D02*
X2074548Y979640D01*
X2074548Y979640D02*
X2075977Y982497D01*
X2075977Y982497D02*
X2078834Y985354D01*
X2078834Y985354D02*
X2083120Y986782D01*
X2083120Y986782D02*
X2085977Y986782D01*
X2085977Y986782D02*
X2090263Y985354D01*
X2090263Y985354D02*
X2091691Y983925D01*
X2101691Y986782D02*
X2121691Y986782D01*
X2121691Y986782D02*
X2108834Y956782D01*
X2177143Y1294128D02*
X2178571Y1295557D01*
X2178571Y1295557D02*
X2181429Y1296986D01*
X2181429Y1296986D02*
X2188571Y1296986D01*
X2188571Y1296986D02*
X2191429Y1295557D01*
X2191429Y1295557D02*
X2192857Y1294128D01*
X2192857Y1294128D02*
X2194286Y1291271D01*
X2194286Y1291271D02*
X2194286Y1288414D01*
X2194286Y1288414D02*
X2192857Y1284128D01*
X2192857Y1284128D02*
X2175714Y1266986D01*
X2175714Y1266986D02*
X2194286Y1266986D01*
X2204286Y1296986D02*
X2224286Y1296986D01*
X2224286Y1296986D02*
X2211429Y1266986D01*
X2252857Y1266986D02*
X2242857Y1281271D01*
X2235714Y1266986D02*
X2235714Y1296986D01*
X2235714Y1296986D02*
X2247143Y1296986D01*
X2247143Y1296986D02*
X2250000Y1295557D01*
X2250000Y1295557D02*
X2251429Y1294128D01*
X2251429Y1294128D02*
X2252857Y1291271D01*
X2252857Y1291271D02*
X2252857Y1286986D01*
X2252857Y1286986D02*
X2251429Y1284128D01*
X2251429Y1284128D02*
X2250000Y1282700D01*
X2250000Y1282700D02*
X2247143Y1281271D01*
X2247143Y1281271D02*
X2235714Y1281271D01*
X2100000Y1268986D02*
X2090000Y1283271D01*
X2082857Y1268986D02*
X2082857Y1298986D01*
X2082857Y1298986D02*
X2094286Y1298986D01*
X2094286Y1298986D02*
X2097143Y1297557D01*
X2097143Y1297557D02*
X2098571Y1296128D01*
X2098571Y1296128D02*
X2100000Y1293271D01*
X2100000Y1293271D02*
X2100000Y1288986D01*
X2100000Y1288986D02*
X2098571Y1286128D01*
X2098571Y1286128D02*
X2097143Y1284700D01*
X2097143Y1284700D02*
X2094286Y1283271D01*
X2094286Y1283271D02*
X2082857Y1283271D01*
X2125714Y1298986D02*
X2120000Y1298986D01*
X2120000Y1298986D02*
X2117143Y1297557D01*
X2117143Y1297557D02*
X2115714Y1296128D01*
X2115714Y1296128D02*
X2112857Y1291843D01*
X2112857Y1291843D02*
X2111429Y1286128D01*
X2111429Y1286128D02*
X2111429Y1274700D01*
X2111429Y1274700D02*
X2112857Y1271843D01*
X2112857Y1271843D02*
X2114286Y1270414D01*
X2114286Y1270414D02*
X2117143Y1268986D01*
X2117143Y1268986D02*
X2122857Y1268986D01*
X2122857Y1268986D02*
X2125714Y1270414D01*
X2125714Y1270414D02*
X2127143Y1271843D01*
X2127143Y1271843D02*
X2128571Y1274700D01*
X2128571Y1274700D02*
X2128571Y1281843D01*
X2128571Y1281843D02*
X2127143Y1284700D01*
X2127143Y1284700D02*
X2125714Y1286128D01*
X2125714Y1286128D02*
X2122857Y1287557D01*
X2122857Y1287557D02*
X2117143Y1287557D01*
X2117143Y1287557D02*
X2114286Y1286128D01*
X2114286Y1286128D02*
X2112857Y1284700D01*
X2112857Y1284700D02*
X2111429Y1281843D01*
X2456429Y96485D02*
X2456429Y126485D01*
X2456429Y112200D02*
X2473571Y112200D01*
X2473571Y96485D02*
X2473571Y126485D01*
X2499286Y97914D02*
X2496429Y96485D01*
X2496429Y96485D02*
X2490714Y96485D01*
X2490714Y96485D02*
X2487857Y97914D01*
X2487857Y97914D02*
X2486429Y100771D01*
X2486429Y100771D02*
X2486429Y112200D01*
X2486429Y112200D02*
X2487857Y115057D01*
X2487857Y115057D02*
X2490714Y116485D01*
X2490714Y116485D02*
X2496429Y116485D01*
X2496429Y116485D02*
X2499286Y115057D01*
X2499286Y115057D02*
X2500714Y112200D01*
X2500714Y112200D02*
X2500714Y109343D01*
X2500714Y109343D02*
X2486429Y106485D01*
X2526429Y96485D02*
X2526429Y112200D01*
X2526429Y112200D02*
X2525000Y115057D01*
X2525000Y115057D02*
X2522143Y116485D01*
X2522143Y116485D02*
X2516429Y116485D01*
X2516429Y116485D02*
X2513571Y115057D01*
X2526429Y97914D02*
X2523571Y96485D01*
X2523571Y96485D02*
X2516429Y96485D01*
X2516429Y96485D02*
X2513571Y97914D01*
X2513571Y97914D02*
X2512143Y100771D01*
X2512143Y100771D02*
X2512143Y103628D01*
X2512143Y103628D02*
X2513571Y106485D01*
X2513571Y106485D02*
X2516429Y107914D01*
X2516429Y107914D02*
X2523571Y107914D01*
X2523571Y107914D02*
X2526429Y109343D01*
X2553572Y96485D02*
X2553572Y126485D01*
X2553572Y97914D02*
X2550714Y96485D01*
X2550714Y96485D02*
X2545000Y96485D01*
X2545000Y96485D02*
X2542143Y97914D01*
X2542143Y97914D02*
X2540714Y99343D01*
X2540714Y99343D02*
X2539286Y102200D01*
X2539286Y102200D02*
X2539286Y110771D01*
X2539286Y110771D02*
X2540714Y113628D01*
X2540714Y113628D02*
X2542143Y115057D01*
X2542143Y115057D02*
X2545000Y116485D01*
X2545000Y116485D02*
X2550714Y116485D01*
X2550714Y116485D02*
X2553572Y115057D01*
X2579286Y97914D02*
X2576429Y96485D01*
X2576429Y96485D02*
X2570714Y96485D01*
X2570714Y96485D02*
X2567857Y97914D01*
X2567857Y97914D02*
X2566429Y100771D01*
X2566429Y100771D02*
X2566429Y112200D01*
X2566429Y112200D02*
X2567857Y115057D01*
X2567857Y115057D02*
X2570714Y116485D01*
X2570714Y116485D02*
X2576429Y116485D01*
X2576429Y116485D02*
X2579286Y115057D01*
X2579286Y115057D02*
X2580714Y112200D01*
X2580714Y112200D02*
X2580714Y109343D01*
X2580714Y109343D02*
X2566429Y106485D01*
X2593572Y96485D02*
X2593572Y116485D01*
X2593572Y110771D02*
X2595000Y113628D01*
X2595000Y113628D02*
X2596429Y115057D01*
X2596429Y115057D02*
X2599286Y116485D01*
X2599286Y116485D02*
X2602143Y116485D01*
X2612143Y107914D02*
X2635000Y107914D01*
X2665000Y96485D02*
X2647857Y96485D01*
X2656429Y96485D02*
X2656429Y126485D01*
X2656429Y126485D02*
X2653572Y122200D01*
X2653572Y122200D02*
X2650714Y119343D01*
X2650714Y119343D02*
X2647857Y117914D01*
X2533000Y176485D02*
X2533000Y155057D01*
X2533000Y155057D02*
X2531572Y150771D01*
X2531572Y150771D02*
X2528714Y147914D01*
X2528714Y147914D02*
X2524429Y146486D01*
X2524429Y146486D02*
X2521572Y146486D01*
X2544429Y176485D02*
X2563000Y176485D01*
X2563000Y176485D02*
X2553000Y165057D01*
X2553000Y165057D02*
X2557286Y165057D01*
X2557286Y165057D02*
X2560143Y163628D01*
X2560143Y163628D02*
X2561571Y162200D01*
X2561571Y162200D02*
X2563000Y159343D01*
X2563000Y159343D02*
X2563000Y152200D01*
X2563000Y152200D02*
X2561571Y149343D01*
X2561571Y149343D02*
X2560143Y147914D01*
X2560143Y147914D02*
X2557286Y146486D01*
X2557286Y146486D02*
X2548714Y146486D01*
X2548714Y146486D02*
X2545857Y147914D01*
X2545857Y147914D02*
X2544429Y149343D01*
X1753372Y1457071D02*
X1751943Y1458500D01*
X1751943Y1458500D02*
X1750514Y1461357D01*
X1750514Y1461357D02*
X1750514Y1468500D01*
X1750514Y1468500D02*
X1751943Y1471357D01*
X1751943Y1471357D02*
X1753372Y1472786D01*
X1753372Y1472786D02*
X1756229Y1474214D01*
X1756229Y1474214D02*
X1759086Y1474214D01*
X1759086Y1474214D02*
X1763372Y1472786D01*
X1763372Y1472786D02*
X1780514Y1455643D01*
X1780514Y1455643D02*
X1780514Y1474214D01*
X1777657Y1487071D02*
X1779086Y1488500D01*
X1779086Y1488500D02*
X1780514Y1487071D01*
X1780514Y1487071D02*
X1779086Y1485643D01*
X1779086Y1485643D02*
X1777657Y1487071D01*
X1777657Y1487071D02*
X1780514Y1487071D01*
X1753372Y1499929D02*
X1751943Y1501357D01*
X1751943Y1501357D02*
X1750514Y1504214D01*
X1750514Y1504214D02*
X1750514Y1511357D01*
X1750514Y1511357D02*
X1751943Y1514214D01*
X1751943Y1514214D02*
X1753372Y1515643D01*
X1753372Y1515643D02*
X1756229Y1517071D01*
X1756229Y1517071D02*
X1759086Y1517071D01*
X1759086Y1517071D02*
X1763372Y1515643D01*
X1763372Y1515643D02*
X1780514Y1498500D01*
X1780514Y1498500D02*
X1780514Y1517071D01*
X1760514Y1542786D02*
X1780514Y1542786D01*
X1760514Y1529929D02*
X1776229Y1529929D01*
X1776229Y1529929D02*
X1779086Y1531357D01*
X1779086Y1531357D02*
X1780514Y1534214D01*
X1780514Y1534214D02*
X1780514Y1538500D01*
X1780514Y1538500D02*
X1779086Y1541357D01*
X1779086Y1541357D02*
X1777657Y1542786D01*
X1764800Y1567071D02*
X1764800Y1557071D01*
X1780514Y1557071D02*
X1750514Y1557071D01*
X1750514Y1557071D02*
X1750514Y1571357D01*
X1728657Y1488214D02*
X1730086Y1486786D01*
X1730086Y1486786D02*
X1731514Y1482500D01*
X1731514Y1482500D02*
X1731514Y1479643D01*
X1731514Y1479643D02*
X1730086Y1475357D01*
X1730086Y1475357D02*
X1727229Y1472500D01*
X1727229Y1472500D02*
X1724372Y1471071D01*
X1724372Y1471071D02*
X1718657Y1469643D01*
X1718657Y1469643D02*
X1714372Y1469643D01*
X1714372Y1469643D02*
X1708657Y1471071D01*
X1708657Y1471071D02*
X1705800Y1472500D01*
X1705800Y1472500D02*
X1702943Y1475357D01*
X1702943Y1475357D02*
X1701514Y1479643D01*
X1701514Y1479643D02*
X1701514Y1482500D01*
X1701514Y1482500D02*
X1702943Y1486786D01*
X1702943Y1486786D02*
X1704372Y1488214D01*
X1731514Y1516786D02*
X1731514Y1499643D01*
X1731514Y1508214D02*
X1701514Y1508214D01*
X1701514Y1508214D02*
X1705800Y1505357D01*
X1705800Y1505357D02*
X1708657Y1502500D01*
X1708657Y1502500D02*
X1710086Y1499643D01*
X1711514Y1542500D02*
X1731514Y1542500D01*
X1700086Y1535357D02*
X1721514Y1528214D01*
X1721514Y1528214D02*
X1721514Y1546786D01*
X755514Y1410714D02*
X755514Y1396429D01*
X755514Y1396429D02*
X769800Y1395000D01*
X769800Y1395000D02*
X768372Y1396429D01*
X768372Y1396429D02*
X766943Y1399286D01*
X766943Y1399286D02*
X766943Y1406429D01*
X766943Y1406429D02*
X768372Y1409286D01*
X768372Y1409286D02*
X769800Y1410714D01*
X769800Y1410714D02*
X772657Y1412143D01*
X772657Y1412143D02*
X779800Y1412143D01*
X779800Y1412143D02*
X782657Y1410714D01*
X782657Y1410714D02*
X784086Y1409286D01*
X784086Y1409286D02*
X785514Y1406429D01*
X785514Y1406429D02*
X785514Y1399286D01*
X785514Y1399286D02*
X784086Y1396429D01*
X784086Y1396429D02*
X782657Y1395000D01*
X782657Y1425000D02*
X784086Y1426429D01*
X784086Y1426429D02*
X785514Y1425000D01*
X785514Y1425000D02*
X784086Y1423571D01*
X784086Y1423571D02*
X782657Y1425000D01*
X782657Y1425000D02*
X785514Y1425000D01*
X785514Y1455000D02*
X785514Y1437857D01*
X785514Y1446429D02*
X755514Y1446429D01*
X755514Y1446429D02*
X759800Y1443571D01*
X759800Y1443571D02*
X762657Y1440714D01*
X762657Y1440714D02*
X764086Y1437857D01*
X785514Y1467857D02*
X755514Y1467857D01*
X785514Y1485000D02*
X768372Y1472143D01*
X755514Y1485000D02*
X772657Y1467857D01*
X844806Y1433895D02*
X830520Y1423895D01*
X844806Y1416753D02*
X814806Y1416753D01*
X814806Y1416753D02*
X814806Y1428181D01*
X814806Y1428181D02*
X816234Y1431038D01*
X816234Y1431038D02*
X817663Y1432467D01*
X817663Y1432467D02*
X820520Y1433895D01*
X820520Y1433895D02*
X824806Y1433895D01*
X824806Y1433895D02*
X827663Y1432467D01*
X827663Y1432467D02*
X829091Y1431038D01*
X829091Y1431038D02*
X830520Y1428181D01*
X830520Y1428181D02*
X830520Y1416753D01*
X814806Y1443895D02*
X814806Y1462467D01*
X814806Y1462467D02*
X826234Y1452467D01*
X826234Y1452467D02*
X826234Y1456753D01*
X826234Y1456753D02*
X827663Y1459610D01*
X827663Y1459610D02*
X829091Y1461038D01*
X829091Y1461038D02*
X831949Y1462467D01*
X831949Y1462467D02*
X839091Y1462467D01*
X839091Y1462467D02*
X841949Y1461038D01*
X841949Y1461038D02*
X843377Y1459610D01*
X843377Y1459610D02*
X844806Y1456753D01*
X844806Y1456753D02*
X844806Y1448181D01*
X844806Y1448181D02*
X843377Y1445324D01*
X843377Y1445324D02*
X841949Y1443895D01*
X1272143Y1639485D02*
X1272143Y1669485D01*
X1272143Y1669485D02*
X1282143Y1648057D01*
X1282143Y1648057D02*
X1292143Y1669485D01*
X1292143Y1669485D02*
X1292143Y1639485D01*
X1306429Y1639485D02*
X1306429Y1669485D01*
X1337857Y1642343D02*
X1336429Y1640914D01*
X1336429Y1640914D02*
X1332143Y1639485D01*
X1332143Y1639485D02*
X1329286Y1639485D01*
X1329286Y1639485D02*
X1325000Y1640914D01*
X1325000Y1640914D02*
X1322143Y1643771D01*
X1322143Y1643771D02*
X1320714Y1646628D01*
X1320714Y1646628D02*
X1319286Y1652343D01*
X1319286Y1652343D02*
X1319286Y1656628D01*
X1319286Y1656628D02*
X1320714Y1662343D01*
X1320714Y1662343D02*
X1322143Y1665200D01*
X1322143Y1665200D02*
X1325000Y1668057D01*
X1325000Y1668057D02*
X1329286Y1669485D01*
X1329286Y1669485D02*
X1332143Y1669485D01*
X1332143Y1669485D02*
X1336429Y1668057D01*
X1336429Y1668057D02*
X1337857Y1666628D01*
X1365000Y1669485D02*
X1350714Y1669485D01*
X1350714Y1669485D02*
X1349286Y1655200D01*
X1349286Y1655200D02*
X1350714Y1656628D01*
X1350714Y1656628D02*
X1353572Y1658057D01*
X1353572Y1658057D02*
X1360714Y1658057D01*
X1360714Y1658057D02*
X1363572Y1656628D01*
X1363572Y1656628D02*
X1365000Y1655200D01*
X1365000Y1655200D02*
X1366429Y1652343D01*
X1366429Y1652343D02*
X1366429Y1645200D01*
X1366429Y1645200D02*
X1365000Y1642343D01*
X1365000Y1642343D02*
X1363572Y1640914D01*
X1363572Y1640914D02*
X1360714Y1639485D01*
X1360714Y1639485D02*
X1353572Y1639485D01*
X1353572Y1639485D02*
X1350714Y1640914D01*
X1350714Y1640914D02*
X1349286Y1642343D01*
X1377857Y1666628D02*
X1379286Y1668057D01*
X1379286Y1668057D02*
X1382143Y1669485D01*
X1382143Y1669485D02*
X1389286Y1669485D01*
X1389286Y1669485D02*
X1392143Y1668057D01*
X1392143Y1668057D02*
X1393571Y1666628D01*
X1393571Y1666628D02*
X1395000Y1663771D01*
X1395000Y1663771D02*
X1395000Y1660914D01*
X1395000Y1660914D02*
X1393571Y1656628D01*
X1393571Y1656628D02*
X1376429Y1639485D01*
X1376429Y1639485D02*
X1395000Y1639485D01*
X1423571Y1639485D02*
X1406428Y1639485D01*
X1415000Y1639485D02*
X1415000Y1669485D01*
X1415000Y1669485D02*
X1412143Y1665200D01*
X1412143Y1665200D02*
X1409286Y1662343D01*
X1409286Y1662343D02*
X1406428Y1660914D01*
X1437857Y1639485D02*
X1443571Y1639485D01*
X1443571Y1639485D02*
X1446428Y1640914D01*
X1446428Y1640914D02*
X1447857Y1642343D01*
X1447857Y1642343D02*
X1450714Y1646628D01*
X1450714Y1646628D02*
X1452143Y1652343D01*
X1452143Y1652343D02*
X1452143Y1663771D01*
X1452143Y1663771D02*
X1450714Y1666628D01*
X1450714Y1666628D02*
X1449286Y1668057D01*
X1449286Y1668057D02*
X1446428Y1669485D01*
X1446428Y1669485D02*
X1440714Y1669485D01*
X1440714Y1669485D02*
X1437857Y1668057D01*
X1437857Y1668057D02*
X1436428Y1666628D01*
X1436428Y1666628D02*
X1435000Y1663771D01*
X1435000Y1663771D02*
X1435000Y1656628D01*
X1435000Y1656628D02*
X1436428Y1653771D01*
X1436428Y1653771D02*
X1437857Y1652343D01*
X1437857Y1652343D02*
X1440714Y1650914D01*
X1440714Y1650914D02*
X1446428Y1650914D01*
X1446428Y1650914D02*
X1449286Y1652343D01*
X1449286Y1652343D02*
X1450714Y1653771D01*
X1450714Y1653771D02*
X1452143Y1656628D01*
X1465000Y1650914D02*
X1487857Y1650914D01*
X1499286Y1669485D02*
X1517857Y1669485D01*
X1517857Y1669485D02*
X1507857Y1658057D01*
X1507857Y1658057D02*
X1512143Y1658057D01*
X1512143Y1658057D02*
X1515000Y1656628D01*
X1515000Y1656628D02*
X1516428Y1655200D01*
X1516428Y1655200D02*
X1517857Y1652343D01*
X1517857Y1652343D02*
X1517857Y1645200D01*
X1517857Y1645200D02*
X1516428Y1642343D01*
X1516428Y1642343D02*
X1515000Y1640914D01*
X1515000Y1640914D02*
X1512143Y1639485D01*
X1512143Y1639485D02*
X1503571Y1639485D01*
X1503571Y1639485D02*
X1500714Y1640914D01*
X1500714Y1640914D02*
X1499286Y1642343D01*
X1530714Y1642343D02*
X1532143Y1640914D01*
X1532143Y1640914D02*
X1530714Y1639485D01*
X1530714Y1639485D02*
X1529286Y1640914D01*
X1529286Y1640914D02*
X1530714Y1642343D01*
X1530714Y1642343D02*
X1530714Y1639485D01*
X1542143Y1669485D02*
X1560714Y1669485D01*
X1560714Y1669485D02*
X1550714Y1658057D01*
X1550714Y1658057D02*
X1555000Y1658057D01*
X1555000Y1658057D02*
X1557857Y1656628D01*
X1557857Y1656628D02*
X1559286Y1655200D01*
X1559286Y1655200D02*
X1560714Y1652343D01*
X1560714Y1652343D02*
X1560714Y1645200D01*
X1560714Y1645200D02*
X1559286Y1642343D01*
X1559286Y1642343D02*
X1557857Y1640914D01*
X1557857Y1640914D02*
X1555000Y1639485D01*
X1555000Y1639485D02*
X1546428Y1639485D01*
X1546428Y1639485D02*
X1543571Y1640914D01*
X1543571Y1640914D02*
X1542143Y1642343D01*
X1579286Y1653771D02*
X1579286Y1639485D01*
X1569286Y1669485D02*
X1579286Y1653771D01*
X1579286Y1653771D02*
X1589286Y1669485D01*
X1599286Y1639485D02*
X1599286Y1669485D01*
X1599286Y1669485D02*
X1609286Y1648057D01*
X1609286Y1648057D02*
X1619286Y1669485D01*
X1619286Y1669485D02*
X1619286Y1639485D01*
X1647857Y1669485D02*
X1633571Y1669485D01*
X1633571Y1669485D02*
X1632143Y1655200D01*
X1632143Y1655200D02*
X1633571Y1656628D01*
X1633571Y1656628D02*
X1636428Y1658057D01*
X1636428Y1658057D02*
X1643571Y1658057D01*
X1643571Y1658057D02*
X1646428Y1656628D01*
X1646428Y1656628D02*
X1647857Y1655200D01*
X1647857Y1655200D02*
X1649286Y1652343D01*
X1649286Y1652343D02*
X1649286Y1645200D01*
X1649286Y1645200D02*
X1647857Y1642343D01*
X1647857Y1642343D02*
X1646428Y1640914D01*
X1646428Y1640914D02*
X1643571Y1639485D01*
X1643571Y1639485D02*
X1636428Y1639485D01*
X1636428Y1639485D02*
X1633571Y1640914D01*
X1633571Y1640914D02*
X1632143Y1642343D01*
X1450514Y1512143D02*
X1474800Y1512143D01*
X1474800Y1512143D02*
X1477657Y1513571D01*
X1477657Y1513571D02*
X1479086Y1515000D01*
X1479086Y1515000D02*
X1480514Y1517857D01*
X1480514Y1517857D02*
X1480514Y1523571D01*
X1480514Y1523571D02*
X1479086Y1526429D01*
X1479086Y1526429D02*
X1477657Y1527857D01*
X1477657Y1527857D02*
X1474800Y1529286D01*
X1474800Y1529286D02*
X1450514Y1529286D01*
X1453372Y1542143D02*
X1451943Y1543571D01*
X1451943Y1543571D02*
X1450514Y1546429D01*
X1450514Y1546429D02*
X1450514Y1553571D01*
X1450514Y1553571D02*
X1451943Y1556429D01*
X1451943Y1556429D02*
X1453372Y1557857D01*
X1453372Y1557857D02*
X1456229Y1559286D01*
X1456229Y1559286D02*
X1459086Y1559286D01*
X1459086Y1559286D02*
X1463372Y1557857D01*
X1463372Y1557857D02*
X1480514Y1540714D01*
X1480514Y1540714D02*
X1480514Y1559286D01*
X2067714Y782485D02*
X2053429Y782485D01*
X2053429Y782485D02*
X2052000Y768200D01*
X2052000Y768200D02*
X2053429Y769628D01*
X2053429Y769628D02*
X2056286Y771057D01*
X2056286Y771057D02*
X2063429Y771057D01*
X2063429Y771057D02*
X2066286Y769628D01*
X2066286Y769628D02*
X2067714Y768200D01*
X2067714Y768200D02*
X2069143Y765343D01*
X2069143Y765343D02*
X2069143Y758200D01*
X2069143Y758200D02*
X2067714Y755343D01*
X2067714Y755343D02*
X2066286Y753914D01*
X2066286Y753914D02*
X2063429Y752485D01*
X2063429Y752485D02*
X2056286Y752485D01*
X2056286Y752485D02*
X2053429Y753914D01*
X2053429Y753914D02*
X2052000Y755343D01*
X2082000Y755343D02*
X2083429Y753914D01*
X2083429Y753914D02*
X2082000Y752485D01*
X2082000Y752485D02*
X2080571Y753914D01*
X2080571Y753914D02*
X2082000Y755343D01*
X2082000Y755343D02*
X2082000Y752485D01*
X2112000Y752485D02*
X2094857Y752485D01*
X2103429Y752485D02*
X2103429Y782485D01*
X2103429Y782485D02*
X2100571Y778200D01*
X2100571Y778200D02*
X2097714Y775343D01*
X2097714Y775343D02*
X2094857Y773914D01*
X2124857Y752485D02*
X2124857Y782485D01*
X2142000Y752485D02*
X2129143Y769628D01*
X2142000Y782485D02*
X2124857Y765343D01*
X2077714Y819485D02*
X2067714Y833771D01*
X2060571Y819485D02*
X2060571Y849485D01*
X2060571Y849485D02*
X2072000Y849485D01*
X2072000Y849485D02*
X2074857Y848057D01*
X2074857Y848057D02*
X2076286Y846628D01*
X2076286Y846628D02*
X2077714Y843771D01*
X2077714Y843771D02*
X2077714Y839485D01*
X2077714Y839485D02*
X2076286Y836628D01*
X2076286Y836628D02*
X2074857Y835200D01*
X2074857Y835200D02*
X2072000Y833771D01*
X2072000Y833771D02*
X2060571Y833771D01*
X2106286Y819485D02*
X2089143Y819485D01*
X2097714Y819485D02*
X2097714Y849485D01*
X2097714Y849485D02*
X2094857Y845200D01*
X2094857Y845200D02*
X2092000Y842343D01*
X2092000Y842343D02*
X2089143Y840914D01*
X2134857Y819485D02*
X2117714Y819485D01*
X2126286Y819485D02*
X2126286Y849485D01*
X2126286Y849485D02*
X2123429Y845200D01*
X2123429Y845200D02*
X2120571Y842343D01*
X2120571Y842343D02*
X2117714Y840914D01*
X1667929Y361985D02*
X1667929Y337700D01*
X1667929Y337700D02*
X1669357Y334843D01*
X1669357Y334843D02*
X1670786Y333414D01*
X1670786Y333414D02*
X1673643Y331986D01*
X1673643Y331986D02*
X1679357Y331986D01*
X1679357Y331986D02*
X1682214Y333414D01*
X1682214Y333414D02*
X1683643Y334843D01*
X1683643Y334843D02*
X1685071Y337700D01*
X1685071Y337700D02*
X1685071Y361985D01*
X1699357Y331986D02*
X1699357Y361985D01*
X1716500Y331986D02*
X1703643Y349128D01*
X1716500Y361985D02*
X1699357Y344843D01*
X1729357Y343414D02*
X1752214Y343414D01*
X1776500Y347700D02*
X1780786Y346271D01*
X1780786Y346271D02*
X1782214Y344843D01*
X1782214Y344843D02*
X1783643Y341986D01*
X1783643Y341986D02*
X1783643Y337700D01*
X1783643Y337700D02*
X1782214Y334843D01*
X1782214Y334843D02*
X1780786Y333414D01*
X1780786Y333414D02*
X1777929Y331986D01*
X1777929Y331986D02*
X1766500Y331986D01*
X1766500Y331986D02*
X1766500Y361985D01*
X1766500Y361985D02*
X1776500Y361985D01*
X1776500Y361985D02*
X1779357Y360557D01*
X1779357Y360557D02*
X1780786Y359128D01*
X1780786Y359128D02*
X1782214Y356271D01*
X1782214Y356271D02*
X1782214Y353414D01*
X1782214Y353414D02*
X1780786Y350557D01*
X1780786Y350557D02*
X1779357Y349128D01*
X1779357Y349128D02*
X1776500Y347700D01*
X1776500Y347700D02*
X1766500Y347700D01*
X1802214Y361985D02*
X1805071Y361985D01*
X1805071Y361985D02*
X1807929Y360557D01*
X1807929Y360557D02*
X1809357Y359128D01*
X1809357Y359128D02*
X1810786Y356271D01*
X1810786Y356271D02*
X1812214Y350557D01*
X1812214Y350557D02*
X1812214Y343414D01*
X1812214Y343414D02*
X1810786Y337700D01*
X1810786Y337700D02*
X1809357Y334843D01*
X1809357Y334843D02*
X1807929Y333414D01*
X1807929Y333414D02*
X1805071Y331986D01*
X1805071Y331986D02*
X1802214Y331986D01*
X1802214Y331986D02*
X1799357Y333414D01*
X1799357Y333414D02*
X1797929Y334843D01*
X1797929Y334843D02*
X1796500Y337700D01*
X1796500Y337700D02*
X1795071Y343414D01*
X1795071Y343414D02*
X1795071Y350557D01*
X1795071Y350557D02*
X1796500Y356271D01*
X1796500Y356271D02*
X1797929Y359128D01*
X1797929Y359128D02*
X1799357Y360557D01*
X1799357Y360557D02*
X1802214Y361985D01*
X1823643Y359128D02*
X1825071Y360557D01*
X1825071Y360557D02*
X1827929Y361985D01*
X1827929Y361985D02*
X1835071Y361985D01*
X1835071Y361985D02*
X1837929Y360557D01*
X1837929Y360557D02*
X1839357Y359128D01*
X1839357Y359128D02*
X1840786Y356271D01*
X1840786Y356271D02*
X1840786Y353414D01*
X1840786Y353414D02*
X1839357Y349128D01*
X1839357Y349128D02*
X1822214Y331986D01*
X1822214Y331986D02*
X1840786Y331986D01*
X1850786Y361985D02*
X1870786Y361985D01*
X1870786Y361985D02*
X1857929Y331986D01*
X1879357Y361985D02*
X1897929Y361985D01*
X1897929Y361985D02*
X1887929Y350557D01*
X1887929Y350557D02*
X1892214Y350557D01*
X1892214Y350557D02*
X1895071Y349128D01*
X1895071Y349128D02*
X1896500Y347700D01*
X1896500Y347700D02*
X1897929Y344843D01*
X1897929Y344843D02*
X1897929Y337700D01*
X1897929Y337700D02*
X1896500Y334843D01*
X1896500Y334843D02*
X1895071Y333414D01*
X1895071Y333414D02*
X1892214Y331986D01*
X1892214Y331986D02*
X1883643Y331986D01*
X1883643Y331986D02*
X1880786Y333414D01*
X1880786Y333414D02*
X1879357Y334843D01*
X1910786Y343414D02*
X1933643Y343414D01*
X1946500Y333414D02*
X1950786Y331986D01*
X1950786Y331986D02*
X1957929Y331986D01*
X1957929Y331986D02*
X1960786Y333414D01*
X1960786Y333414D02*
X1962214Y334843D01*
X1962214Y334843D02*
X1963643Y337700D01*
X1963643Y337700D02*
X1963643Y340557D01*
X1963643Y340557D02*
X1962214Y343414D01*
X1962214Y343414D02*
X1960786Y344843D01*
X1960786Y344843D02*
X1957929Y346271D01*
X1957929Y346271D02*
X1952214Y347700D01*
X1952214Y347700D02*
X1949357Y349128D01*
X1949357Y349128D02*
X1947929Y350557D01*
X1947929Y350557D02*
X1946500Y353414D01*
X1946500Y353414D02*
X1946500Y356271D01*
X1946500Y356271D02*
X1947929Y359128D01*
X1947929Y359128D02*
X1949357Y360557D01*
X1949357Y360557D02*
X1952214Y361985D01*
X1952214Y361985D02*
X1959357Y361985D01*
X1959357Y361985D02*
X1963643Y360557D01*
X1976500Y331986D02*
X1976500Y361985D01*
X1976500Y361985D02*
X1987929Y361985D01*
X1987929Y361985D02*
X1990786Y360557D01*
X1990786Y360557D02*
X1992214Y359128D01*
X1992214Y359128D02*
X1993643Y356271D01*
X1993643Y356271D02*
X1993643Y351985D01*
X1993643Y351985D02*
X1992214Y349128D01*
X1992214Y349128D02*
X1990786Y347700D01*
X1990786Y347700D02*
X1987929Y346271D01*
X1987929Y346271D02*
X1976500Y346271D01*
X2005071Y359128D02*
X2006500Y360557D01*
X2006500Y360557D02*
X2009357Y361985D01*
X2009357Y361985D02*
X2016500Y361985D01*
X2016500Y361985D02*
X2019357Y360557D01*
X2019357Y360557D02*
X2020786Y359128D01*
X2020786Y359128D02*
X2022214Y356271D01*
X2022214Y356271D02*
X2022214Y353414D01*
X2022214Y353414D02*
X2020786Y349128D01*
X2020786Y349128D02*
X2003643Y331986D01*
X2003643Y331986D02*
X2022214Y331986D01*
X2049357Y361985D02*
X2035071Y361985D01*
X2035071Y361985D02*
X2033643Y347700D01*
X2033643Y347700D02*
X2035071Y349128D01*
X2035071Y349128D02*
X2037929Y350557D01*
X2037929Y350557D02*
X2045071Y350557D01*
X2045071Y350557D02*
X2047929Y349128D01*
X2047929Y349128D02*
X2049357Y347700D01*
X2049357Y347700D02*
X2050786Y344843D01*
X2050786Y344843D02*
X2050786Y337700D01*
X2050786Y337700D02*
X2049357Y334843D01*
X2049357Y334843D02*
X2047929Y333414D01*
X2047929Y333414D02*
X2045071Y331986D01*
X2045071Y331986D02*
X2037929Y331986D01*
X2037929Y331986D02*
X2035071Y333414D01*
X2035071Y333414D02*
X2033643Y334843D01*
X2069357Y346271D02*
X2069357Y331986D01*
X2059357Y361985D02*
X2069357Y346271D01*
X2069357Y346271D02*
X2079357Y361985D01*
D12*
%TO.C,JP5*%
X3118500Y1767000D02*
X3223500Y1767000D01*
X3118500Y1713000D02*
X3118500Y1767000D01*
X3223500Y1767000D02*
X3223500Y1713000D01*
X3223500Y1713000D02*
X3118500Y1713000D01*
%TO.C,D2*%
X3415000Y1743000D02*
X3415000Y1663000D01*
X3415000Y1663000D02*
X3545000Y1663000D01*
X3545000Y1663000D02*
X3575000Y1693000D01*
X3575000Y1743000D02*
X3415000Y1743000D01*
X3575000Y1693000D02*
X3575000Y1743000D01*
%TO.C,C17*%
X3672000Y876000D02*
X3772000Y876000D01*
X3672000Y826000D02*
X3672000Y876000D01*
X3772000Y876000D02*
X3772000Y826000D01*
X3772000Y826000D02*
X3672000Y826000D01*
%TO.C,C12*%
X2442000Y569000D02*
X2492000Y569000D01*
X2442000Y469000D02*
X2442000Y569000D01*
X2492000Y569000D02*
X2492000Y469000D01*
X2492000Y469000D02*
X2442000Y469000D01*
%TO.C,C13*%
X931000Y1561000D02*
X1011000Y1561000D01*
X931000Y1401000D02*
X931000Y1561000D01*
X1011000Y1561000D02*
X1011000Y1401000D01*
X1011000Y1401000D02*
X931000Y1401000D01*
%TO.C,C6*%
X3035000Y558000D02*
X3085000Y558000D01*
X3035000Y458000D02*
X3035000Y558000D01*
X3085000Y558000D02*
X3085000Y458000D01*
X3085000Y458000D02*
X3035000Y458000D01*
%TO.C,C11*%
X2057000Y1615500D02*
X2157000Y1615500D01*
X2057000Y1565500D02*
X2057000Y1615500D01*
X2157000Y1615500D02*
X2157000Y1565500D01*
X2157000Y1565500D02*
X2057000Y1565500D01*
%TO.C,C19*%
X751000Y549000D02*
X851000Y549000D01*
X751000Y499000D02*
X751000Y549000D01*
X851000Y549000D02*
X851000Y499000D01*
X851000Y499000D02*
X751000Y499000D01*
%TO.C,R2*%
X1856000Y837500D02*
X1910000Y837500D01*
X1856000Y732500D02*
X1856000Y837500D01*
X1910000Y837500D02*
X1910000Y732500D01*
X1910000Y732500D02*
X1856000Y732500D01*
%TO.C,R7*%
X3744500Y1723000D02*
X3849500Y1723000D01*
X3744500Y1669000D02*
X3744500Y1723000D01*
X3849500Y1723000D02*
X3849500Y1669000D01*
X3849500Y1669000D02*
X3744500Y1669000D01*
%TO.C,R10*%
X3325500Y1049000D02*
X3430500Y1049000D01*
X3325500Y995000D02*
X3325500Y1049000D01*
X3430500Y1049000D02*
X3430500Y995000D01*
X3430500Y995000D02*
X3325500Y995000D01*
%TO.C,C10*%
X2312000Y1673000D02*
X2362000Y1673000D01*
X2312000Y1573000D02*
X2312000Y1673000D01*
X2362000Y1673000D02*
X2362000Y1573000D01*
X2362000Y1573000D02*
X2312000Y1573000D01*
%TO.C,U3*%
X2387000Y1432000D02*
X3087000Y1432000D01*
X2387000Y832000D02*
X2387000Y1432000D01*
X2487000Y732000D02*
X2387000Y832000D01*
X3087000Y1432000D02*
X3087000Y732000D01*
X3087000Y732000D02*
X2487000Y732000D01*
%TO.C,R5*%
X2052500Y1209500D02*
X2157500Y1209500D01*
X2052500Y1155500D02*
X2052500Y1209500D01*
X2157500Y1209500D02*
X2157500Y1155500D01*
X2157500Y1155500D02*
X2052500Y1155500D01*
%TO.C,C2*%
X3327000Y1300000D02*
X3427000Y1300000D01*
X3327000Y1250000D02*
X3327000Y1300000D01*
X3427000Y1300000D02*
X3427000Y1250000D01*
X3427000Y1250000D02*
X3327000Y1250000D01*
%TO.C,U1*%
X1093500Y1247500D02*
X1616500Y1247500D01*
X1093500Y724500D02*
X1093500Y1247500D01*
X1516500Y724500D02*
X1093500Y724500D01*
X1616500Y1247500D02*
X1616500Y824500D01*
X1616500Y824500D02*
X1516500Y724500D01*
%TO.C,C5*%
X2047500Y1097000D02*
X2147500Y1097000D01*
X2047500Y1047000D02*
X2047500Y1097000D01*
X2147500Y1097000D02*
X2147500Y1047000D01*
X2147500Y1047000D02*
X2047500Y1047000D01*
X1856000Y1065500D02*
X1910000Y1065500D01*
X1910000Y1075500D02*
G75*
G02*
X1910000Y1065500I0J-5000D01*
G01*
X1910000Y1075500D02*
X1856000Y1075500D01*
X1856000Y1075500D02*
G75*
G03*
X1856000Y1065500I0J-5000D01*
G01*
X1861000Y965500D02*
X1861000Y1070500D01*
X1851000Y1070500D02*
G75*
G02*
X1861000Y1070500I5000J0D01*
G01*
X1851000Y1070500D02*
X1851000Y965500D01*
X1851000Y965500D02*
G75*
G03*
X1861000Y965500I5000J0D01*
G01*
X1905000Y1070500D02*
X1905000Y965500D01*
X1915000Y965500D02*
G75*
G02*
X1905000Y965500I-5000J0D01*
G01*
X1915000Y965500D02*
X1915000Y1070500D01*
X1915000Y1070500D02*
G75*
G03*
X1905000Y1070500I-5000J0D01*
G01*
X1910000Y970500D02*
X1856000Y970500D01*
X1856000Y960500D02*
G75*
G02*
X1856000Y970500I0J5000D01*
G01*
X1856000Y960500D02*
X1910000Y960500D01*
X1910000Y960500D02*
G75*
G03*
X1910000Y970500I0J5000D01*
G01*
%TO.C,C4*%
X2056000Y1418000D02*
X2156000Y1418000D01*
X2056000Y1368000D02*
X2056000Y1418000D01*
X2156000Y1418000D02*
X2156000Y1368000D01*
X2156000Y1368000D02*
X2056000Y1368000D01*
%TO.C,C1*%
X805000Y741000D02*
X855000Y741000D01*
X805000Y641000D02*
X805000Y741000D01*
X855000Y741000D02*
X855000Y641000D01*
X855000Y641000D02*
X805000Y641000D01*
%TO.C,J5*%
X4813000Y1430000D02*
X5067000Y1430000D01*
X4813000Y668000D02*
X4813000Y1430000D01*
X5003500Y668000D02*
X4813000Y668000D01*
X5067000Y1430000D02*
X5067000Y731500D01*
X5067000Y731500D02*
X5003500Y668000D01*
%TO.C,JP1*%
X1122500Y1777000D02*
X1227500Y1777000D01*
X1122500Y1723000D02*
X1122500Y1777000D01*
X1227500Y1777000D02*
X1227500Y1723000D01*
X1227500Y1723000D02*
X1122500Y1723000D01*
%TO.C,R9*%
X1728500Y1757000D02*
X1833500Y1757000D01*
X1728500Y1703000D02*
X1728500Y1757000D01*
X1833500Y1757000D02*
X1833500Y1703000D01*
X1833500Y1703000D02*
X1728500Y1703000D01*
%TO.C,C9*%
X3328000Y1188000D02*
X3428000Y1188000D01*
X3328000Y1138000D02*
X3328000Y1188000D01*
X3428000Y1188000D02*
X3428000Y1138000D01*
X3428000Y1138000D02*
X3328000Y1138000D01*
%TO.C,C8*%
X3119000Y1635000D02*
X3219000Y1635000D01*
X3119000Y1585000D02*
X3119000Y1635000D01*
X3219000Y1635000D02*
X3219000Y1585000D01*
X3219000Y1585000D02*
X3119000Y1585000D01*
%TO.C,C15*%
X1868000Y1559000D02*
X1948000Y1559000D01*
X1868000Y1399000D02*
X1868000Y1559000D01*
X1948000Y1559000D02*
X1948000Y1399000D01*
X1948000Y1399000D02*
X1868000Y1399000D01*
%TO.C,J2*%
X-122000Y1498000D02*
X-122000Y604000D01*
X608000Y1498000D02*
X-122000Y1498000D01*
X608000Y1498000D02*
X608000Y604000D01*
X608000Y604000D02*
X-122000Y604000D01*
%TO.C,JP6*%
X2238500Y449000D02*
X2238500Y639000D01*
X2253500Y584000D02*
X2253500Y639000D01*
X2253500Y584000D02*
X2353500Y584000D01*
X2253500Y503500D02*
X2253500Y448500D01*
X2279315Y668211D02*
X2327685Y668211D01*
X2283500Y684000D02*
X2323500Y684000D01*
X2323500Y404000D02*
X2283500Y404000D01*
X2327685Y419289D02*
X2279315Y419289D01*
X2353500Y584000D02*
X2353500Y639000D01*
X2353500Y503500D02*
X2253500Y503500D01*
X2353500Y503500D02*
X2353500Y448500D01*
X2368500Y639000D02*
X2368500Y449000D01*
X2353500Y563500D02*
X2253500Y563500D01*
X2253500Y523500D01*
X2353500Y523500D01*
X2353500Y563500D01*
X2238500Y639000D02*
G75*
G02*
X2283500Y684000I45000J0D01*
G01*
X2253500Y639000D02*
G75*
G02*
X2279315Y668211I30000J-500D01*
G01*
X2279315Y419289D02*
G75*
G02*
X2253500Y448500I4185J29711D01*
G01*
X2283500Y404000D02*
G75*
G02*
X2238500Y449000I0J45000D01*
G01*
X2323500Y684000D02*
G75*
G02*
X2368500Y639000I0J-45000D01*
G01*
X2327685Y668211D02*
G75*
G02*
X2353500Y639000I-4184J-29711D01*
G01*
X2353500Y448500D02*
G75*
G02*
X2327685Y419289I-30000J500D01*
G01*
X2368500Y449000D02*
G75*
G02*
X2323500Y404000I-45000J0D01*
G01*
X2303500Y703500D02*
X2283500Y733500D01*
X2323500Y733500D01*
X2303500Y703500D01*
G36*
X2303500Y703500D02*
G01*
X2283500Y733500D01*
X2323500Y733500D01*
X2303500Y703500D01*
G37*
%TO.C,C16*%
X1118000Y1401000D02*
X1218000Y1401000D01*
X1118000Y1351000D02*
X1118000Y1401000D01*
X1218000Y1401000D02*
X1218000Y1351000D01*
X1218000Y1351000D02*
X1118000Y1351000D01*
%TO.C,JP4*%
X1122500Y1602000D02*
X1227500Y1602000D01*
X1122500Y1548000D02*
X1122500Y1602000D01*
X1227500Y1602000D02*
X1227500Y1548000D01*
X1227500Y1548000D02*
X1122500Y1548000D01*
%TO.C,R4*%
X803000Y987500D02*
X857000Y987500D01*
X803000Y882500D02*
X803000Y987500D01*
X857000Y987500D02*
X857000Y882500D01*
X857000Y882500D02*
X803000Y882500D01*
%TO.C,Y1*%
X3580000Y1303000D02*
X3580000Y983000D01*
X3580000Y983000D02*
X3830000Y983000D01*
X3730000Y983000D02*
X3830000Y1083000D01*
X3830000Y1303000D02*
X3580000Y1303000D01*
X3830000Y983000D02*
X3830000Y1303000D01*
%TO.C,R8*%
X745500Y444000D02*
X850500Y444000D01*
X745500Y390000D02*
X745500Y444000D01*
X850500Y444000D02*
X850500Y390000D01*
X850500Y390000D02*
X745500Y390000D01*
%TO.C,D1*%
X550000Y1760000D02*
X730000Y1760000D01*
X550000Y1620000D02*
X550000Y1760000D01*
X620000Y1725000D02*
X670000Y1690000D01*
X620000Y1690000D02*
X595000Y1690000D01*
X620000Y1655000D02*
X620000Y1725000D01*
X670000Y1690000D02*
X620000Y1655000D01*
X670000Y1690000D02*
X690000Y1690000D01*
X670000Y1655000D02*
X670000Y1725000D01*
X730000Y1760000D02*
X730000Y1620000D01*
X730000Y1620000D02*
X550000Y1620000D01*
%TO.C,D3*%
X400000Y460000D02*
X400000Y380000D01*
X400000Y380000D02*
X530000Y380000D01*
X530000Y380000D02*
X560000Y410000D01*
X560000Y460000D02*
X400000Y460000D01*
X560000Y410000D02*
X560000Y460000D01*
%TO.C,SW1*%
X995000Y595000D02*
X995000Y465000D01*
X995000Y595000D02*
X1045000Y595000D01*
X995000Y465000D02*
X1045000Y465000D01*
X1045000Y675000D02*
X1045000Y385000D01*
X1045000Y385000D02*
X1435000Y385000D01*
X1240000Y675000D02*
X1045000Y675000D01*
X1435000Y675000D02*
X1240000Y675000D01*
X1435000Y385000D02*
X1435000Y675000D01*
X1485000Y595000D02*
X1435000Y595000D01*
X1485000Y595000D02*
X1485000Y465000D01*
X1485000Y465000D02*
X1435000Y465000D01*
X1330000Y530000D02*
G75*
G02*
X1150000Y530000I-90000J0D01*
G01*
X1150000Y530000D02*
G75*
G02*
X1330000Y530000I90000J0D01*
G01*
%TO.C,C18*%
X3669000Y1458000D02*
X3769000Y1458000D01*
X3669000Y1408000D02*
X3669000Y1458000D01*
X3769000Y1458000D02*
X3769000Y1408000D01*
X3769000Y1408000D02*
X3669000Y1408000D01*
%TO.C,C7*%
X2047000Y997000D02*
X2147000Y997000D01*
X2047000Y947000D02*
X2047000Y997000D01*
X2147000Y997000D02*
X2147000Y947000D01*
X2147000Y947000D02*
X2047000Y947000D01*
%TO.C,R6*%
X2052500Y1309500D02*
X2157500Y1309500D01*
X2052500Y1255500D02*
X2052500Y1309500D01*
X2157500Y1309500D02*
X2157500Y1255500D01*
X2157500Y1255500D02*
X2052500Y1255500D01*
%TO.C,J3*%
X3000Y287000D02*
X5083000Y287000D01*
X3000Y96500D02*
X3000Y287000D01*
X66500Y33000D02*
X3000Y96500D01*
X5083000Y287000D02*
X5083000Y33000D01*
X5083000Y33000D02*
X66500Y33000D01*
%TO.C,C14*%
X1677500Y1603500D02*
X1677500Y1434750D01*
X1677500Y1434750D02*
X1708750Y1403500D01*
X1708750Y1403500D02*
X1802500Y1403500D01*
X1802500Y1603500D02*
X1677500Y1603500D01*
X1802500Y1403500D02*
X1802500Y1603500D01*
%TO.C,R3*%
X803000Y1492500D02*
X857000Y1492500D01*
X803000Y1387500D02*
X803000Y1492500D01*
X857000Y1492500D02*
X857000Y1387500D01*
X857000Y1387500D02*
X803000Y1387500D01*
%TO.C,U2*%
X1322000Y1615000D02*
X1572000Y1615000D01*
X1322000Y1455000D02*
X1322000Y1615000D01*
X1572000Y1615000D02*
X1612000Y1575000D01*
X1612000Y1575000D02*
X1612000Y1455000D01*
X1612000Y1455000D02*
X1322000Y1455000D01*
%TO.C,R11*%
X2044500Y860000D02*
X2149500Y860000D01*
X2044500Y806000D02*
X2044500Y860000D01*
X2149500Y860000D02*
X2149500Y806000D01*
X2149500Y806000D02*
X2044500Y806000D01*
%TO.C,SW2*%
X1631500Y593500D02*
X1681500Y593500D01*
X1631500Y463500D02*
X1631500Y593500D01*
X1631500Y463500D02*
X1681500Y463500D01*
X1681500Y673500D02*
X1681500Y383500D01*
X1681500Y383500D02*
X1876500Y383500D01*
X1876500Y383500D02*
X2071500Y383500D01*
X2071500Y673500D02*
X1681500Y673500D01*
X2071500Y383500D02*
X2071500Y673500D01*
X2121500Y593500D02*
X2071500Y593500D01*
X2121500Y463500D02*
X2071500Y463500D01*
X2121500Y463500D02*
X2121500Y593500D01*
X1966500Y528500D02*
G75*
G02*
X1786500Y528500I-90000J0D01*
G01*
X1786500Y528500D02*
G75*
G02*
X1966500Y528500I90000J0D01*
G01*
%TD*%
X1833500Y1113500D02*
X1932500Y922500D01*
X1833500Y922500D02*
X1932500Y1113500D01*
M02*
