%TF.GenerationSoftware,KiCad,Pcbnew,9.99.0-1005-g8ef54c3651*%
%TF.CreationDate,2025-04-23T14:57:33+05:30*%
%TF.ProjectId,Mitayi-Pico-RP2040,4d697461-7969-42d5-9069-636f2d525032,0.6*%
%TF.SameCoordinates,PX73df160PY5f2d3c0*%
%TF.FileFunction,Legend,Bot*%
%TF.FilePolarity,Positive*%
%FSLAX45Y45*%
G04 Gerber Fmt 4.5, Leading zero omitted, Abs format (unit mm)*
G04 Created by KiCad (PCBNEW 9.99.0-1005-g8ef54c3651) date 2025-04-23 14:57:33*
%MOMM*%
%LPD*%
G01*
G04 APERTURE LIST*
%ADD10C,0.150000*%
%ADD11C,0.200000*%
%ADD12C,0.000000*%
G04 APERTURE END LIST*
D10*
X4669937Y514868D02*
X4666603Y521535D01*
X4666603Y521535D02*
X4666603Y531535D01*
X4666603Y531535D02*
X4669937Y541535D01*
X4669937Y541535D02*
X4676603Y548202D01*
X4676603Y548202D02*
X4683270Y551535D01*
X4683270Y551535D02*
X4696603Y554869D01*
X4696603Y554869D02*
X4706603Y554869D01*
X4706603Y554869D02*
X4719937Y551535D01*
X4719937Y551535D02*
X4726603Y548202D01*
X4726603Y548202D02*
X4733270Y541535D01*
X4733270Y541535D02*
X4736603Y531535D01*
X4736603Y531535D02*
X4736603Y524869D01*
X4736603Y524869D02*
X4733270Y514868D01*
X4733270Y514868D02*
X4729937Y511535D01*
X4729937Y511535D02*
X4706603Y511535D01*
X4706603Y511535D02*
X4706603Y524869D01*
X4736603Y481535D02*
X4666603Y481535D01*
X4666603Y481535D02*
X4666603Y454868D01*
X4666603Y454868D02*
X4669937Y448202D01*
X4669937Y448202D02*
X4673270Y444868D01*
X4673270Y444868D02*
X4679937Y441535D01*
X4679937Y441535D02*
X4689937Y441535D01*
X4689937Y441535D02*
X4696603Y444868D01*
X4696603Y444868D02*
X4699937Y448202D01*
X4699937Y448202D02*
X4703270Y454868D01*
X4703270Y454868D02*
X4703270Y481535D01*
X4736603Y374868D02*
X4736603Y414868D01*
X4736603Y394868D02*
X4666603Y394868D01*
X4666603Y394868D02*
X4676603Y401535D01*
X4676603Y401535D02*
X4683270Y408202D01*
X4683270Y408202D02*
X4686603Y414868D01*
X4696603Y334869D02*
X4693270Y341535D01*
X4693270Y341535D02*
X4689937Y344869D01*
X4689937Y344869D02*
X4683270Y348202D01*
X4683270Y348202D02*
X4679937Y348202D01*
X4679937Y348202D02*
X4673270Y344869D01*
X4673270Y344869D02*
X4669937Y341535D01*
X4669937Y341535D02*
X4666603Y334869D01*
X4666603Y334869D02*
X4666603Y321535D01*
X4666603Y321535D02*
X4669937Y314869D01*
X4669937Y314869D02*
X4673270Y311535D01*
X4673270Y311535D02*
X4679937Y308202D01*
X4679937Y308202D02*
X4683270Y308202D01*
X4683270Y308202D02*
X4689937Y311535D01*
X4689937Y311535D02*
X4693270Y314869D01*
X4693270Y314869D02*
X4696603Y321535D01*
X4696603Y321535D02*
X4696603Y334869D01*
X4696603Y334869D02*
X4699937Y341535D01*
X4699937Y341535D02*
X4703270Y344869D01*
X4703270Y344869D02*
X4709937Y348202D01*
X4709937Y348202D02*
X4723270Y348202D01*
X4723270Y348202D02*
X4729937Y344869D01*
X4729937Y344869D02*
X4733270Y341535D01*
X4733270Y341535D02*
X4736603Y334869D01*
X4736603Y334869D02*
X4736603Y321535D01*
X4736603Y321535D02*
X4733270Y314869D01*
X4733270Y314869D02*
X4729937Y311535D01*
X4729937Y311535D02*
X4723270Y308202D01*
X4723270Y308202D02*
X4709937Y308202D01*
X4709937Y308202D02*
X4703270Y311535D01*
X4703270Y311535D02*
X4699937Y314869D01*
X4699937Y314869D02*
X4696603Y321535D01*
X1374937Y483202D02*
X1371603Y489868D01*
X1371603Y489868D02*
X1371603Y499868D01*
X1371603Y499868D02*
X1374937Y509868D01*
X1374937Y509868D02*
X1381603Y516535D01*
X1381603Y516535D02*
X1388270Y519868D01*
X1388270Y519868D02*
X1401603Y523202D01*
X1401603Y523202D02*
X1411603Y523202D01*
X1411603Y523202D02*
X1424937Y519868D01*
X1424937Y519868D02*
X1431603Y516535D01*
X1431603Y516535D02*
X1438270Y509868D01*
X1438270Y509868D02*
X1441603Y499868D01*
X1441603Y499868D02*
X1441603Y493202D01*
X1441603Y493202D02*
X1438270Y483202D01*
X1438270Y483202D02*
X1434937Y479868D01*
X1434937Y479868D02*
X1411603Y479868D01*
X1411603Y479868D02*
X1411603Y493202D01*
X1441603Y449868D02*
X1371603Y449868D01*
X1371603Y449868D02*
X1371603Y423202D01*
X1371603Y423202D02*
X1374937Y416535D01*
X1374937Y416535D02*
X1378270Y413202D01*
X1378270Y413202D02*
X1384937Y409868D01*
X1384937Y409868D02*
X1394937Y409868D01*
X1394937Y409868D02*
X1401603Y413202D01*
X1401603Y413202D02*
X1404937Y416535D01*
X1404937Y416535D02*
X1408270Y423202D01*
X1408270Y423202D02*
X1408270Y449868D01*
X1371603Y346535D02*
X1371603Y379868D01*
X1371603Y379868D02*
X1404937Y383202D01*
X1404937Y383202D02*
X1401603Y379868D01*
X1401603Y379868D02*
X1398270Y373202D01*
X1398270Y373202D02*
X1398270Y356535D01*
X1398270Y356535D02*
X1401603Y349868D01*
X1401603Y349868D02*
X1404937Y346535D01*
X1404937Y346535D02*
X1411603Y343202D01*
X1411603Y343202D02*
X1428270Y343202D01*
X1428270Y343202D02*
X1434937Y346535D01*
X1434937Y346535D02*
X1438270Y349868D01*
X1438270Y349868D02*
X1441603Y356535D01*
X1441603Y356535D02*
X1441603Y373202D01*
X1441603Y373202D02*
X1438270Y379868D01*
X1438270Y379868D02*
X1434937Y383202D01*
X3404937Y1723333D02*
X3401603Y1730000D01*
X3401603Y1730000D02*
X3401603Y1740000D01*
X3401603Y1740000D02*
X3404937Y1750000D01*
X3404937Y1750000D02*
X3411603Y1756667D01*
X3411603Y1756667D02*
X3418270Y1760000D01*
X3418270Y1760000D02*
X3431603Y1763333D01*
X3431603Y1763333D02*
X3441603Y1763333D01*
X3441603Y1763333D02*
X3454937Y1760000D01*
X3454937Y1760000D02*
X3461603Y1756667D01*
X3461603Y1756667D02*
X3468270Y1750000D01*
X3468270Y1750000D02*
X3471603Y1740000D01*
X3471603Y1740000D02*
X3471603Y1733333D01*
X3471603Y1733333D02*
X3468270Y1723333D01*
X3468270Y1723333D02*
X3464937Y1720000D01*
X3464937Y1720000D02*
X3441603Y1720000D01*
X3441603Y1720000D02*
X3441603Y1733333D01*
X3471603Y1690000D02*
X3401603Y1690000D01*
X3401603Y1690000D02*
X3401603Y1663333D01*
X3401603Y1663333D02*
X3404937Y1656667D01*
X3404937Y1656667D02*
X3408270Y1653333D01*
X3408270Y1653333D02*
X3414937Y1650000D01*
X3414937Y1650000D02*
X3424937Y1650000D01*
X3424937Y1650000D02*
X3431603Y1653333D01*
X3431603Y1653333D02*
X3434937Y1656667D01*
X3434937Y1656667D02*
X3438270Y1663333D01*
X3438270Y1663333D02*
X3438270Y1690000D01*
X3408270Y1623333D02*
X3404937Y1620000D01*
X3404937Y1620000D02*
X3401603Y1613333D01*
X3401603Y1613333D02*
X3401603Y1596667D01*
X3401603Y1596667D02*
X3404937Y1590000D01*
X3404937Y1590000D02*
X3408270Y1586667D01*
X3408270Y1586667D02*
X3414937Y1583333D01*
X3414937Y1583333D02*
X3421603Y1583333D01*
X3421603Y1583333D02*
X3431603Y1586667D01*
X3431603Y1586667D02*
X3471603Y1626667D01*
X3471603Y1626667D02*
X3471603Y1583333D01*
X3424937Y1523333D02*
X3471603Y1523333D01*
X3398270Y1540000D02*
X3448270Y1556667D01*
X3448270Y1556667D02*
X3448270Y1513333D01*
X1874937Y1733333D02*
X1871603Y1740000D01*
X1871603Y1740000D02*
X1871603Y1750000D01*
X1871603Y1750000D02*
X1874937Y1760000D01*
X1874937Y1760000D02*
X1881603Y1766667D01*
X1881603Y1766667D02*
X1888270Y1770000D01*
X1888270Y1770000D02*
X1901603Y1773333D01*
X1901603Y1773333D02*
X1911603Y1773333D01*
X1911603Y1773333D02*
X1924937Y1770000D01*
X1924937Y1770000D02*
X1931603Y1766667D01*
X1931603Y1766667D02*
X1938270Y1760000D01*
X1938270Y1760000D02*
X1941603Y1750000D01*
X1941603Y1750000D02*
X1941603Y1743333D01*
X1941603Y1743333D02*
X1938270Y1733333D01*
X1938270Y1733333D02*
X1934937Y1730000D01*
X1934937Y1730000D02*
X1911603Y1730000D01*
X1911603Y1730000D02*
X1911603Y1743333D01*
X1941603Y1700000D02*
X1871603Y1700000D01*
X1871603Y1700000D02*
X1871603Y1673333D01*
X1871603Y1673333D02*
X1874937Y1666667D01*
X1874937Y1666667D02*
X1878270Y1663333D01*
X1878270Y1663333D02*
X1884937Y1660000D01*
X1884937Y1660000D02*
X1894937Y1660000D01*
X1894937Y1660000D02*
X1901603Y1663333D01*
X1901603Y1663333D02*
X1904937Y1666667D01*
X1904937Y1666667D02*
X1908270Y1673333D01*
X1908270Y1673333D02*
X1908270Y1700000D01*
X1878270Y1633333D02*
X1874937Y1630000D01*
X1874937Y1630000D02*
X1871603Y1623333D01*
X1871603Y1623333D02*
X1871603Y1606667D01*
X1871603Y1606667D02*
X1874937Y1600000D01*
X1874937Y1600000D02*
X1878270Y1596667D01*
X1878270Y1596667D02*
X1884937Y1593333D01*
X1884937Y1593333D02*
X1891603Y1593333D01*
X1891603Y1593333D02*
X1901603Y1596667D01*
X1901603Y1596667D02*
X1941603Y1636667D01*
X1941603Y1636667D02*
X1941603Y1593333D01*
X1941603Y1560000D02*
X1941603Y1546667D01*
X1941603Y1546667D02*
X1938270Y1540000D01*
X1938270Y1540000D02*
X1934937Y1536667D01*
X1934937Y1536667D02*
X1924937Y1530000D01*
X1924937Y1530000D02*
X1911603Y1526667D01*
X1911603Y1526667D02*
X1884937Y1526667D01*
X1884937Y1526667D02*
X1878270Y1530000D01*
X1878270Y1530000D02*
X1874937Y1533333D01*
X1874937Y1533333D02*
X1871603Y1540000D01*
X1871603Y1540000D02*
X1871603Y1553333D01*
X1871603Y1553333D02*
X1874937Y1560000D01*
X1874937Y1560000D02*
X1878270Y1563333D01*
X1878270Y1563333D02*
X1884937Y1566667D01*
X1884937Y1566667D02*
X1901603Y1566667D01*
X1901603Y1566667D02*
X1908270Y1563333D01*
X1908270Y1563333D02*
X1911603Y1560000D01*
X1911603Y1560000D02*
X1914937Y1553333D01*
X1914937Y1553333D02*
X1914937Y1540000D01*
X1914937Y1540000D02*
X1911603Y1533333D01*
X1911603Y1533333D02*
X1908270Y1530000D01*
X1908270Y1530000D02*
X1901603Y1526667D01*
X609937Y1733333D02*
X606603Y1740000D01*
X606603Y1740000D02*
X606603Y1750000D01*
X606603Y1750000D02*
X609937Y1760000D01*
X609937Y1760000D02*
X616603Y1766667D01*
X616603Y1766667D02*
X623270Y1770000D01*
X623270Y1770000D02*
X636603Y1773333D01*
X636603Y1773333D02*
X646603Y1773333D01*
X646603Y1773333D02*
X659937Y1770000D01*
X659937Y1770000D02*
X666603Y1766667D01*
X666603Y1766667D02*
X673270Y1760000D01*
X673270Y1760000D02*
X676603Y1750000D01*
X676603Y1750000D02*
X676603Y1743333D01*
X676603Y1743333D02*
X673270Y1733333D01*
X673270Y1733333D02*
X669937Y1730000D01*
X669937Y1730000D02*
X646603Y1730000D01*
X646603Y1730000D02*
X646603Y1743333D01*
X676603Y1700000D02*
X606603Y1700000D01*
X606603Y1700000D02*
X676603Y1660000D01*
X676603Y1660000D02*
X606603Y1660000D01*
X676603Y1626667D02*
X606603Y1626667D01*
X606603Y1626667D02*
X606603Y1610000D01*
X606603Y1610000D02*
X609937Y1600000D01*
X609937Y1600000D02*
X616603Y1593333D01*
X616603Y1593333D02*
X623270Y1590000D01*
X623270Y1590000D02*
X636603Y1586667D01*
X636603Y1586667D02*
X646603Y1586667D01*
X646603Y1586667D02*
X659937Y1590000D01*
X659937Y1590000D02*
X666603Y1593333D01*
X666603Y1593333D02*
X673270Y1600000D01*
X673270Y1600000D02*
X676603Y1610000D01*
X676603Y1610000D02*
X676603Y1626667D01*
X2894937Y1723333D02*
X2891603Y1730000D01*
X2891603Y1730000D02*
X2891603Y1740000D01*
X2891603Y1740000D02*
X2894937Y1750000D01*
X2894937Y1750000D02*
X2901603Y1756667D01*
X2901603Y1756667D02*
X2908270Y1760000D01*
X2908270Y1760000D02*
X2921603Y1763333D01*
X2921603Y1763333D02*
X2931603Y1763333D01*
X2931603Y1763333D02*
X2944937Y1760000D01*
X2944937Y1760000D02*
X2951603Y1756667D01*
X2951603Y1756667D02*
X2958270Y1750000D01*
X2958270Y1750000D02*
X2961603Y1740000D01*
X2961603Y1740000D02*
X2961603Y1733333D01*
X2961603Y1733333D02*
X2958270Y1723333D01*
X2958270Y1723333D02*
X2954937Y1720000D01*
X2954937Y1720000D02*
X2931603Y1720000D01*
X2931603Y1720000D02*
X2931603Y1733333D01*
X2961603Y1690000D02*
X2891603Y1690000D01*
X2891603Y1690000D02*
X2961603Y1650000D01*
X2961603Y1650000D02*
X2891603Y1650000D01*
X2961603Y1616667D02*
X2891603Y1616667D01*
X2891603Y1616667D02*
X2891603Y1600000D01*
X2891603Y1600000D02*
X2894937Y1590000D01*
X2894937Y1590000D02*
X2901603Y1583333D01*
X2901603Y1583333D02*
X2908270Y1580000D01*
X2908270Y1580000D02*
X2921603Y1576667D01*
X2921603Y1576667D02*
X2931603Y1576667D01*
X2931603Y1576667D02*
X2944937Y1580000D01*
X2944937Y1580000D02*
X2951603Y1583333D01*
X2951603Y1583333D02*
X2958270Y1590000D01*
X2958270Y1590000D02*
X2961603Y1600000D01*
X2961603Y1600000D02*
X2961603Y1616667D01*
X461603Y1800000D02*
X531603Y1776667D01*
X531603Y1776667D02*
X461603Y1753333D01*
X528270Y1733333D02*
X531603Y1723333D01*
X531603Y1723333D02*
X531603Y1706667D01*
X531603Y1706667D02*
X528270Y1700000D01*
X528270Y1700000D02*
X524937Y1696667D01*
X524937Y1696667D02*
X518270Y1693333D01*
X518270Y1693333D02*
X511603Y1693333D01*
X511603Y1693333D02*
X504937Y1696667D01*
X504937Y1696667D02*
X501603Y1700000D01*
X501603Y1700000D02*
X498270Y1706667D01*
X498270Y1706667D02*
X494937Y1720000D01*
X494937Y1720000D02*
X491603Y1726667D01*
X491603Y1726667D02*
X488270Y1730000D01*
X488270Y1730000D02*
X481603Y1733333D01*
X481603Y1733333D02*
X474937Y1733333D01*
X474937Y1733333D02*
X468270Y1730000D01*
X468270Y1730000D02*
X464937Y1726667D01*
X464937Y1726667D02*
X461603Y1720000D01*
X461603Y1720000D02*
X461603Y1703333D01*
X461603Y1703333D02*
X464937Y1693333D01*
X498270Y1650000D02*
X531603Y1650000D01*
X461603Y1673333D02*
X498270Y1650000D01*
X498270Y1650000D02*
X461603Y1626667D01*
X528270Y1606667D02*
X531603Y1596667D01*
X531603Y1596667D02*
X531603Y1580000D01*
X531603Y1580000D02*
X528270Y1573333D01*
X528270Y1573333D02*
X524937Y1570000D01*
X524937Y1570000D02*
X518270Y1566667D01*
X518270Y1566667D02*
X511603Y1566667D01*
X511603Y1566667D02*
X504937Y1570000D01*
X504937Y1570000D02*
X501603Y1573333D01*
X501603Y1573333D02*
X498270Y1580000D01*
X498270Y1580000D02*
X494937Y1593333D01*
X494937Y1593333D02*
X491603Y1600000D01*
X491603Y1600000D02*
X488270Y1603333D01*
X488270Y1603333D02*
X481603Y1606667D01*
X481603Y1606667D02*
X474937Y1606667D01*
X474937Y1606667D02*
X468270Y1603333D01*
X468270Y1603333D02*
X464937Y1600000D01*
X464937Y1600000D02*
X461603Y1593333D01*
X461603Y1593333D02*
X461603Y1576667D01*
X461603Y1576667D02*
X464937Y1566667D01*
X464937Y473202D02*
X461603Y479868D01*
X461603Y479868D02*
X461603Y489868D01*
X461603Y489868D02*
X464937Y499868D01*
X464937Y499868D02*
X471603Y506535D01*
X471603Y506535D02*
X478270Y509868D01*
X478270Y509868D02*
X491603Y513202D01*
X491603Y513202D02*
X501603Y513202D01*
X501603Y513202D02*
X514937Y509868D01*
X514937Y509868D02*
X521603Y506535D01*
X521603Y506535D02*
X528270Y499868D01*
X528270Y499868D02*
X531603Y489868D01*
X531603Y489868D02*
X531603Y483202D01*
X531603Y483202D02*
X528270Y473202D01*
X528270Y473202D02*
X524937Y469868D01*
X524937Y469868D02*
X501603Y469868D01*
X501603Y469868D02*
X501603Y483202D01*
X531603Y439868D02*
X461603Y439868D01*
X461603Y439868D02*
X461603Y413202D01*
X461603Y413202D02*
X464937Y406535D01*
X464937Y406535D02*
X468270Y403202D01*
X468270Y403202D02*
X474937Y399868D01*
X474937Y399868D02*
X484937Y399868D01*
X484937Y399868D02*
X491603Y403202D01*
X491603Y403202D02*
X494937Y406535D01*
X494937Y406535D02*
X498270Y413202D01*
X498270Y413202D02*
X498270Y439868D01*
X531603Y333202D02*
X531603Y373202D01*
X531603Y353202D02*
X461603Y353202D01*
X461603Y353202D02*
X471603Y359868D01*
X471603Y359868D02*
X478270Y366535D01*
X478270Y366535D02*
X481603Y373202D01*
X1671603Y1773333D02*
X1671603Y1740000D01*
X1691603Y1780000D02*
X1621603Y1756667D01*
X1621603Y1756667D02*
X1691603Y1733333D01*
X1691603Y1670000D02*
X1658270Y1693333D01*
X1691603Y1710000D02*
X1621603Y1710000D01*
X1621603Y1710000D02*
X1621603Y1683333D01*
X1621603Y1683333D02*
X1624937Y1676667D01*
X1624937Y1676667D02*
X1628270Y1673333D01*
X1628270Y1673333D02*
X1634937Y1670000D01*
X1634937Y1670000D02*
X1644937Y1670000D01*
X1644937Y1670000D02*
X1651603Y1673333D01*
X1651603Y1673333D02*
X1654937Y1676667D01*
X1654937Y1676667D02*
X1658270Y1683333D01*
X1658270Y1683333D02*
X1658270Y1710000D01*
X1654937Y1640000D02*
X1654937Y1616667D01*
X1691603Y1606667D02*
X1691603Y1640000D01*
X1691603Y1640000D02*
X1621603Y1640000D01*
X1621603Y1640000D02*
X1621603Y1606667D01*
X1654937Y1553333D02*
X1654937Y1576667D01*
X1691603Y1576667D02*
X1621603Y1576667D01*
X1621603Y1576667D02*
X1621603Y1543333D01*
X3404937Y549869D02*
X3401603Y556535D01*
X3401603Y556535D02*
X3401603Y566535D01*
X3401603Y566535D02*
X3404937Y576535D01*
X3404937Y576535D02*
X3411603Y583202D01*
X3411603Y583202D02*
X3418270Y586535D01*
X3418270Y586535D02*
X3431603Y589869D01*
X3431603Y589869D02*
X3441603Y589869D01*
X3441603Y589869D02*
X3454937Y586535D01*
X3454937Y586535D02*
X3461603Y583202D01*
X3461603Y583202D02*
X3468270Y576535D01*
X3468270Y576535D02*
X3471603Y566535D01*
X3471603Y566535D02*
X3471603Y559869D01*
X3471603Y559869D02*
X3468270Y549869D01*
X3468270Y549869D02*
X3464937Y546535D01*
X3464937Y546535D02*
X3441603Y546535D01*
X3441603Y546535D02*
X3441603Y559869D01*
X3471603Y516535D02*
X3401603Y516535D01*
X3401603Y516535D02*
X3401603Y489868D01*
X3401603Y489868D02*
X3404937Y483202D01*
X3404937Y483202D02*
X3408270Y479868D01*
X3408270Y479868D02*
X3414937Y476535D01*
X3414937Y476535D02*
X3424937Y476535D01*
X3424937Y476535D02*
X3431603Y479868D01*
X3431603Y479868D02*
X3434937Y483202D01*
X3434937Y483202D02*
X3438270Y489868D01*
X3438270Y489868D02*
X3438270Y516535D01*
X3471603Y409868D02*
X3471603Y449868D01*
X3471603Y429868D02*
X3401603Y429868D01*
X3401603Y429868D02*
X3411603Y436535D01*
X3411603Y436535D02*
X3418270Y443202D01*
X3418270Y443202D02*
X3421603Y449868D01*
X3401603Y386535D02*
X3401603Y343202D01*
X3401603Y343202D02*
X3428270Y366535D01*
X3428270Y366535D02*
X3428270Y356535D01*
X3428270Y356535D02*
X3431603Y349868D01*
X3431603Y349868D02*
X3434937Y346535D01*
X3434937Y346535D02*
X3441603Y343202D01*
X3441603Y343202D02*
X3458270Y343202D01*
X3458270Y343202D02*
X3464937Y346535D01*
X3464937Y346535D02*
X3468270Y349868D01*
X3468270Y349868D02*
X3471603Y356535D01*
X3471603Y356535D02*
X3471603Y376535D01*
X3471603Y376535D02*
X3468270Y383202D01*
X3468270Y383202D02*
X3464937Y386535D01*
X324937Y473202D02*
X321603Y479868D01*
X321603Y479868D02*
X321603Y489868D01*
X321603Y489868D02*
X324937Y499868D01*
X324937Y499868D02*
X331603Y506535D01*
X331603Y506535D02*
X338270Y509868D01*
X338270Y509868D02*
X351603Y513202D01*
X351603Y513202D02*
X361603Y513202D01*
X361603Y513202D02*
X374937Y509868D01*
X374937Y509868D02*
X381603Y506535D01*
X381603Y506535D02*
X388270Y499868D01*
X388270Y499868D02*
X391603Y489868D01*
X391603Y489868D02*
X391603Y483202D01*
X391603Y483202D02*
X388270Y473202D01*
X388270Y473202D02*
X384937Y469868D01*
X384937Y469868D02*
X361603Y469868D01*
X361603Y469868D02*
X361603Y483202D01*
X391603Y439868D02*
X321603Y439868D01*
X321603Y439868D02*
X321603Y413202D01*
X321603Y413202D02*
X324937Y406535D01*
X324937Y406535D02*
X328270Y403202D01*
X328270Y403202D02*
X334937Y399868D01*
X334937Y399868D02*
X344937Y399868D01*
X344937Y399868D02*
X351603Y403202D01*
X351603Y403202D02*
X354937Y406535D01*
X354937Y406535D02*
X358270Y413202D01*
X358270Y413202D02*
X358270Y439868D01*
X321603Y356535D02*
X321603Y349868D01*
X321603Y349868D02*
X324937Y343202D01*
X324937Y343202D02*
X328270Y339869D01*
X328270Y339869D02*
X334937Y336535D01*
X334937Y336535D02*
X348270Y333202D01*
X348270Y333202D02*
X364937Y333202D01*
X364937Y333202D02*
X378270Y336535D01*
X378270Y336535D02*
X384937Y339869D01*
X384937Y339869D02*
X388270Y343202D01*
X388270Y343202D02*
X391603Y349868D01*
X391603Y349868D02*
X391603Y356535D01*
X391603Y356535D02*
X388270Y363202D01*
X388270Y363202D02*
X384937Y366535D01*
X384937Y366535D02*
X378270Y369868D01*
X378270Y369868D02*
X364937Y373202D01*
X364937Y373202D02*
X348270Y373202D01*
X348270Y373202D02*
X334937Y369868D01*
X334937Y369868D02*
X328270Y366535D01*
X328270Y366535D02*
X324937Y363202D01*
X324937Y363202D02*
X321603Y356535D01*
X301603Y1808333D02*
X371603Y1785000D01*
X371603Y1785000D02*
X301603Y1761667D01*
X334937Y1715000D02*
X338270Y1705000D01*
X338270Y1705000D02*
X341603Y1701667D01*
X341603Y1701667D02*
X348270Y1698333D01*
X348270Y1698333D02*
X358270Y1698333D01*
X358270Y1698333D02*
X364937Y1701667D01*
X364937Y1701667D02*
X368270Y1705000D01*
X368270Y1705000D02*
X371603Y1711667D01*
X371603Y1711667D02*
X371603Y1738333D01*
X371603Y1738333D02*
X301603Y1738333D01*
X301603Y1738333D02*
X301603Y1715000D01*
X301603Y1715000D02*
X304937Y1708333D01*
X304937Y1708333D02*
X308270Y1705000D01*
X308270Y1705000D02*
X314937Y1701667D01*
X314937Y1701667D02*
X321603Y1701667D01*
X321603Y1701667D02*
X328270Y1705000D01*
X328270Y1705000D02*
X331603Y1708333D01*
X331603Y1708333D02*
X334937Y1715000D01*
X334937Y1715000D02*
X334937Y1738333D01*
X301603Y1668333D02*
X358270Y1668333D01*
X358270Y1668333D02*
X364937Y1665000D01*
X364937Y1665000D02*
X368270Y1661667D01*
X368270Y1661667D02*
X371603Y1655000D01*
X371603Y1655000D02*
X371603Y1641667D01*
X371603Y1641667D02*
X368270Y1635000D01*
X368270Y1635000D02*
X364937Y1631667D01*
X364937Y1631667D02*
X358270Y1628333D01*
X358270Y1628333D02*
X301603Y1628333D01*
X368270Y1598333D02*
X371603Y1588333D01*
X371603Y1588333D02*
X371603Y1571667D01*
X371603Y1571667D02*
X368270Y1565000D01*
X368270Y1565000D02*
X364937Y1561667D01*
X364937Y1561667D02*
X358270Y1558333D01*
X358270Y1558333D02*
X351603Y1558333D01*
X351603Y1558333D02*
X344937Y1561667D01*
X344937Y1561667D02*
X341603Y1565000D01*
X341603Y1565000D02*
X338270Y1571667D01*
X338270Y1571667D02*
X334937Y1585000D01*
X334937Y1585000D02*
X331603Y1591667D01*
X331603Y1591667D02*
X328270Y1595000D01*
X328270Y1595000D02*
X321603Y1598333D01*
X321603Y1598333D02*
X314937Y1598333D01*
X314937Y1598333D02*
X308270Y1595000D01*
X308270Y1595000D02*
X304937Y1591667D01*
X304937Y1591667D02*
X301603Y1585000D01*
X301603Y1585000D02*
X301603Y1568333D01*
X301603Y1568333D02*
X304937Y1558333D01*
D11*
X3456015Y990526D02*
X3433158Y910526D01*
X3433158Y910526D02*
X3410300Y967669D01*
X3410300Y967669D02*
X3387443Y910526D01*
X3387443Y910526D02*
X3364586Y990526D01*
X3330300Y990526D02*
X3307443Y910526D01*
X3307443Y910526D02*
X3284586Y967669D01*
X3284586Y967669D02*
X3261729Y910526D01*
X3261729Y910526D02*
X3238872Y990526D01*
X3204586Y990526D02*
X3181729Y910526D01*
X3181729Y910526D02*
X3158872Y967669D01*
X3158872Y967669D02*
X3136015Y910526D01*
X3136015Y910526D02*
X3113158Y990526D01*
X3067443Y921954D02*
X3061729Y916240D01*
X3061729Y916240D02*
X3067443Y910526D01*
X3067443Y910526D02*
X3073158Y916240D01*
X3073158Y916240D02*
X3067443Y921954D01*
X3067443Y921954D02*
X3067443Y910526D01*
X2958872Y916240D02*
X2970300Y910526D01*
X2970300Y910526D02*
X2993158Y910526D01*
X2993158Y910526D02*
X3004586Y916240D01*
X3004586Y916240D02*
X3010300Y921954D01*
X3010300Y921954D02*
X3016015Y933383D01*
X3016015Y933383D02*
X3016015Y967669D01*
X3016015Y967669D02*
X3010300Y979097D01*
X3010300Y979097D02*
X3004586Y984811D01*
X3004586Y984811D02*
X2993158Y990526D01*
X2993158Y990526D02*
X2970300Y990526D01*
X2970300Y990526D02*
X2958872Y984811D01*
X2907443Y910526D02*
X2907443Y990526D01*
X2907443Y1030526D02*
X2913158Y1024811D01*
X2913158Y1024811D02*
X2907443Y1019097D01*
X2907443Y1019097D02*
X2901729Y1024811D01*
X2901729Y1024811D02*
X2907443Y1030526D01*
X2907443Y1030526D02*
X2907443Y1019097D01*
X2850300Y910526D02*
X2850300Y990526D01*
X2850300Y967669D02*
X2844586Y979097D01*
X2844586Y979097D02*
X2838872Y984811D01*
X2838872Y984811D02*
X2827443Y990526D01*
X2827443Y990526D02*
X2816015Y990526D01*
X2724586Y916240D02*
X2736015Y910526D01*
X2736015Y910526D02*
X2758872Y910526D01*
X2758872Y910526D02*
X2770300Y916240D01*
X2770300Y916240D02*
X2776015Y921954D01*
X2776015Y921954D02*
X2781729Y933383D01*
X2781729Y933383D02*
X2781729Y967669D01*
X2781729Y967669D02*
X2776015Y979097D01*
X2776015Y979097D02*
X2770300Y984811D01*
X2770300Y984811D02*
X2758872Y990526D01*
X2758872Y990526D02*
X2736015Y990526D01*
X2736015Y990526D02*
X2724586Y984811D01*
X2621729Y990526D02*
X2621729Y910526D01*
X2673158Y990526D02*
X2673158Y927669D01*
X2673158Y927669D02*
X2667443Y916240D01*
X2667443Y916240D02*
X2656015Y910526D01*
X2656015Y910526D02*
X2638872Y910526D01*
X2638872Y910526D02*
X2627443Y916240D01*
X2627443Y916240D02*
X2621729Y921954D01*
X2564586Y910526D02*
X2564586Y990526D01*
X2564586Y1030526D02*
X2570301Y1024811D01*
X2570301Y1024811D02*
X2564586Y1019097D01*
X2564586Y1019097D02*
X2558872Y1024811D01*
X2558872Y1024811D02*
X2564586Y1030526D01*
X2564586Y1030526D02*
X2564586Y1019097D01*
X2524586Y990526D02*
X2478872Y990526D01*
X2507443Y1030526D02*
X2507443Y927669D01*
X2507443Y927669D02*
X2501729Y916240D01*
X2501729Y916240D02*
X2490301Y910526D01*
X2490301Y910526D02*
X2478872Y910526D01*
X2444586Y916240D02*
X2433158Y910526D01*
X2433158Y910526D02*
X2410301Y910526D01*
X2410301Y910526D02*
X2398872Y916240D01*
X2398872Y916240D02*
X2393158Y927669D01*
X2393158Y927669D02*
X2393158Y933383D01*
X2393158Y933383D02*
X2398872Y944811D01*
X2398872Y944811D02*
X2410301Y950526D01*
X2410301Y950526D02*
X2427443Y950526D01*
X2427443Y950526D02*
X2438872Y956240D01*
X2438872Y956240D02*
X2444586Y967669D01*
X2444586Y967669D02*
X2444586Y973383D01*
X2444586Y973383D02*
X2438872Y984811D01*
X2438872Y984811D02*
X2427443Y990526D01*
X2427443Y990526D02*
X2410301Y990526D01*
X2410301Y990526D02*
X2398872Y984811D01*
X2358872Y990526D02*
X2313158Y990526D01*
X2341729Y1030526D02*
X2341729Y927669D01*
X2341729Y927669D02*
X2336015Y916240D01*
X2336015Y916240D02*
X2324586Y910526D01*
X2324586Y910526D02*
X2313158Y910526D01*
X2221729Y910526D02*
X2221729Y973383D01*
X2221729Y973383D02*
X2227443Y984811D01*
X2227443Y984811D02*
X2238872Y990526D01*
X2238872Y990526D02*
X2261729Y990526D01*
X2261729Y990526D02*
X2273158Y984811D01*
X2221729Y916240D02*
X2233158Y910526D01*
X2233158Y910526D02*
X2261729Y910526D01*
X2261729Y910526D02*
X2273158Y916240D01*
X2273158Y916240D02*
X2278872Y927669D01*
X2278872Y927669D02*
X2278872Y939097D01*
X2278872Y939097D02*
X2273158Y950526D01*
X2273158Y950526D02*
X2261729Y956240D01*
X2261729Y956240D02*
X2233158Y956240D01*
X2233158Y956240D02*
X2221729Y961954D01*
X2181729Y990526D02*
X2136015Y990526D01*
X2164586Y1030526D02*
X2164586Y927669D01*
X2164586Y927669D02*
X2158872Y916240D01*
X2158872Y916240D02*
X2147443Y910526D01*
X2147443Y910526D02*
X2136015Y910526D01*
X2050300Y916240D02*
X2061729Y910526D01*
X2061729Y910526D02*
X2084586Y910526D01*
X2084586Y910526D02*
X2096015Y916240D01*
X2096015Y916240D02*
X2101729Y927669D01*
X2101729Y927669D02*
X2101729Y973383D01*
X2101729Y973383D02*
X2096015Y984811D01*
X2096015Y984811D02*
X2084586Y990526D01*
X2084586Y990526D02*
X2061729Y990526D01*
X2061729Y990526D02*
X2050300Y984811D01*
X2050300Y984811D02*
X2044586Y973383D01*
X2044586Y973383D02*
X2044586Y961954D01*
X2044586Y961954D02*
X2101729Y950526D01*
X1993158Y921954D02*
X1987443Y916240D01*
X1987443Y916240D02*
X1993158Y910526D01*
X1993158Y910526D02*
X1998872Y916240D01*
X1998872Y916240D02*
X1993158Y921954D01*
X1993158Y921954D02*
X1993158Y910526D01*
X1884586Y916240D02*
X1896015Y910526D01*
X1896015Y910526D02*
X1918872Y910526D01*
X1918872Y910526D02*
X1930300Y916240D01*
X1930300Y916240D02*
X1936015Y921954D01*
X1936015Y921954D02*
X1941729Y933383D01*
X1941729Y933383D02*
X1941729Y967669D01*
X1941729Y967669D02*
X1936015Y979097D01*
X1936015Y979097D02*
X1930300Y984811D01*
X1930300Y984811D02*
X1918872Y990526D01*
X1918872Y990526D02*
X1896015Y990526D01*
X1896015Y990526D02*
X1884586Y984811D01*
X1816015Y910526D02*
X1827443Y916240D01*
X1827443Y916240D02*
X1833158Y921954D01*
X1833158Y921954D02*
X1838872Y933383D01*
X1838872Y933383D02*
X1838872Y967669D01*
X1838872Y967669D02*
X1833158Y979097D01*
X1833158Y979097D02*
X1827443Y984811D01*
X1827443Y984811D02*
X1816015Y990526D01*
X1816015Y990526D02*
X1798872Y990526D01*
X1798872Y990526D02*
X1787443Y984811D01*
X1787443Y984811D02*
X1781729Y979097D01*
X1781729Y979097D02*
X1776015Y967669D01*
X1776015Y967669D02*
X1776015Y933383D01*
X1776015Y933383D02*
X1781729Y921954D01*
X1781729Y921954D02*
X1787443Y916240D01*
X1787443Y916240D02*
X1798872Y910526D01*
X1798872Y910526D02*
X1816015Y910526D01*
X1724586Y910526D02*
X1724586Y990526D01*
X1724586Y979097D02*
X1718872Y984811D01*
X1718872Y984811D02*
X1707443Y990526D01*
X1707443Y990526D02*
X1690301Y990526D01*
X1690301Y990526D02*
X1678872Y984811D01*
X1678872Y984811D02*
X1673158Y973383D01*
X1673158Y973383D02*
X1673158Y910526D01*
X1673158Y973383D02*
X1667443Y984811D01*
X1667443Y984811D02*
X1656015Y990526D01*
X1656015Y990526D02*
X1638872Y990526D01*
X1638872Y990526D02*
X1627443Y984811D01*
X1627443Y984811D02*
X1621729Y973383D01*
X1621729Y973383D02*
X1621729Y910526D01*
D10*
X3452726Y748770D02*
X3452726Y828770D01*
X3452726Y828770D02*
X3433678Y828770D01*
X3433678Y828770D02*
X3422249Y824961D01*
X3422249Y824961D02*
X3414630Y817342D01*
X3414630Y817342D02*
X3410821Y809723D01*
X3410821Y809723D02*
X3407011Y794485D01*
X3407011Y794485D02*
X3407011Y783056D01*
X3407011Y783056D02*
X3410821Y767818D01*
X3410821Y767818D02*
X3414630Y760199D01*
X3414630Y760199D02*
X3422249Y752580D01*
X3422249Y752580D02*
X3433678Y748770D01*
X3433678Y748770D02*
X3452726Y748770D01*
X3342249Y752580D02*
X3349868Y748770D01*
X3349868Y748770D02*
X3365107Y748770D01*
X3365107Y748770D02*
X3372726Y752580D01*
X3372726Y752580D02*
X3376535Y760199D01*
X3376535Y760199D02*
X3376535Y790675D01*
X3376535Y790675D02*
X3372726Y798294D01*
X3372726Y798294D02*
X3365107Y802104D01*
X3365107Y802104D02*
X3349868Y802104D01*
X3349868Y802104D02*
X3342249Y798294D01*
X3342249Y798294D02*
X3338440Y790675D01*
X3338440Y790675D02*
X3338440Y783056D01*
X3338440Y783056D02*
X3376535Y775437D01*
X3307964Y752580D02*
X3300345Y748770D01*
X3300345Y748770D02*
X3285107Y748770D01*
X3285107Y748770D02*
X3277488Y752580D01*
X3277488Y752580D02*
X3273678Y760199D01*
X3273678Y760199D02*
X3273678Y764009D01*
X3273678Y764009D02*
X3277488Y771628D01*
X3277488Y771628D02*
X3285107Y775437D01*
X3285107Y775437D02*
X3296535Y775437D01*
X3296535Y775437D02*
X3304154Y779247D01*
X3304154Y779247D02*
X3307964Y786866D01*
X3307964Y786866D02*
X3307964Y790675D01*
X3307964Y790675D02*
X3304154Y798294D01*
X3304154Y798294D02*
X3296535Y802104D01*
X3296535Y802104D02*
X3285107Y802104D01*
X3285107Y802104D02*
X3277488Y798294D01*
X3239392Y748770D02*
X3239392Y802104D01*
X3239392Y828770D02*
X3243202Y824961D01*
X3243202Y824961D02*
X3239392Y821151D01*
X3239392Y821151D02*
X3235583Y824961D01*
X3235583Y824961D02*
X3239392Y828770D01*
X3239392Y828770D02*
X3239392Y821151D01*
X3167011Y802104D02*
X3167011Y737342D01*
X3167011Y737342D02*
X3170821Y729723D01*
X3170821Y729723D02*
X3174630Y725913D01*
X3174630Y725913D02*
X3182249Y722104D01*
X3182249Y722104D02*
X3193678Y722104D01*
X3193678Y722104D02*
X3201297Y725913D01*
X3167011Y752580D02*
X3174630Y748770D01*
X3174630Y748770D02*
X3189869Y748770D01*
X3189869Y748770D02*
X3197488Y752580D01*
X3197488Y752580D02*
X3201297Y756390D01*
X3201297Y756390D02*
X3205107Y764009D01*
X3205107Y764009D02*
X3205107Y786866D01*
X3205107Y786866D02*
X3201297Y794485D01*
X3201297Y794485D02*
X3197488Y798294D01*
X3197488Y798294D02*
X3189869Y802104D01*
X3189869Y802104D02*
X3174630Y802104D01*
X3174630Y802104D02*
X3167011Y798294D01*
X3128916Y802104D02*
X3128916Y748770D01*
X3128916Y794485D02*
X3125107Y798294D01*
X3125107Y798294D02*
X3117488Y802104D01*
X3117488Y802104D02*
X3106059Y802104D01*
X3106059Y802104D02*
X3098440Y798294D01*
X3098440Y798294D02*
X3094630Y790675D01*
X3094630Y790675D02*
X3094630Y748770D01*
X3026059Y752580D02*
X3033678Y748770D01*
X3033678Y748770D02*
X3048916Y748770D01*
X3048916Y748770D02*
X3056535Y752580D01*
X3056535Y752580D02*
X3060345Y760199D01*
X3060345Y760199D02*
X3060345Y790675D01*
X3060345Y790675D02*
X3056535Y798294D01*
X3056535Y798294D02*
X3048916Y802104D01*
X3048916Y802104D02*
X3033678Y802104D01*
X3033678Y802104D02*
X3026059Y798294D01*
X3026059Y798294D02*
X3022249Y790675D01*
X3022249Y790675D02*
X3022249Y783056D01*
X3022249Y783056D02*
X3060345Y775437D01*
X2953678Y748770D02*
X2953678Y828770D01*
X2953678Y752580D02*
X2961297Y748770D01*
X2961297Y748770D02*
X2976535Y748770D01*
X2976535Y748770D02*
X2984154Y752580D01*
X2984154Y752580D02*
X2987964Y756390D01*
X2987964Y756390D02*
X2991773Y764009D01*
X2991773Y764009D02*
X2991773Y786866D01*
X2991773Y786866D02*
X2987964Y794485D01*
X2987964Y794485D02*
X2984154Y798294D01*
X2984154Y798294D02*
X2976535Y802104D01*
X2976535Y802104D02*
X2961297Y802104D01*
X2961297Y802104D02*
X2953678Y798294D01*
X2862249Y802104D02*
X2847011Y748770D01*
X2847011Y748770D02*
X2831773Y786866D01*
X2831773Y786866D02*
X2816535Y748770D01*
X2816535Y748770D02*
X2801297Y802104D01*
X2770821Y748770D02*
X2770821Y802104D01*
X2770821Y828770D02*
X2774630Y824961D01*
X2774630Y824961D02*
X2770821Y821151D01*
X2770821Y821151D02*
X2767011Y824961D01*
X2767011Y824961D02*
X2770821Y828770D01*
X2770821Y828770D02*
X2770821Y821151D01*
X2744154Y802104D02*
X2713678Y802104D01*
X2732726Y828770D02*
X2732726Y760199D01*
X2732726Y760199D02*
X2728916Y752580D01*
X2728916Y752580D02*
X2721297Y748770D01*
X2721297Y748770D02*
X2713678Y748770D01*
X2687011Y748770D02*
X2687011Y828770D01*
X2652726Y748770D02*
X2652726Y790675D01*
X2652726Y790675D02*
X2656535Y798294D01*
X2656535Y798294D02*
X2664154Y802104D01*
X2664154Y802104D02*
X2675583Y802104D01*
X2675583Y802104D02*
X2683202Y798294D01*
X2683202Y798294D02*
X2687011Y794485D01*
X2553678Y748770D02*
X2553678Y828770D01*
X2507964Y748770D02*
X2542249Y794485D01*
X2507964Y828770D02*
X2553678Y783056D01*
X2473678Y748770D02*
X2473678Y802104D01*
X2473678Y828770D02*
X2477488Y824961D01*
X2477488Y824961D02*
X2473678Y821151D01*
X2473678Y821151D02*
X2469868Y824961D01*
X2469868Y824961D02*
X2473678Y828770D01*
X2473678Y828770D02*
X2473678Y821151D01*
X2389868Y756390D02*
X2393678Y752580D01*
X2393678Y752580D02*
X2405107Y748770D01*
X2405107Y748770D02*
X2412726Y748770D01*
X2412726Y748770D02*
X2424154Y752580D01*
X2424154Y752580D02*
X2431773Y760199D01*
X2431773Y760199D02*
X2435583Y767818D01*
X2435583Y767818D02*
X2439392Y783056D01*
X2439392Y783056D02*
X2439392Y794485D01*
X2439392Y794485D02*
X2435583Y809723D01*
X2435583Y809723D02*
X2431773Y817342D01*
X2431773Y817342D02*
X2424154Y824961D01*
X2424154Y824961D02*
X2412726Y828770D01*
X2412726Y828770D02*
X2405107Y828770D01*
X2405107Y828770D02*
X2393678Y824961D01*
X2393678Y824961D02*
X2389868Y821151D01*
X2321297Y748770D02*
X2321297Y790675D01*
X2321297Y790675D02*
X2325107Y798294D01*
X2325107Y798294D02*
X2332726Y802104D01*
X2332726Y802104D02*
X2347964Y802104D01*
X2347964Y802104D02*
X2355583Y798294D01*
X2321297Y752580D02*
X2328916Y748770D01*
X2328916Y748770D02*
X2347964Y748770D01*
X2347964Y748770D02*
X2355583Y752580D01*
X2355583Y752580D02*
X2359392Y760199D01*
X2359392Y760199D02*
X2359392Y767818D01*
X2359392Y767818D02*
X2355583Y775437D01*
X2355583Y775437D02*
X2347964Y779247D01*
X2347964Y779247D02*
X2328916Y779247D01*
X2328916Y779247D02*
X2321297Y783056D01*
X2248916Y748770D02*
X2248916Y828770D01*
X2248916Y752580D02*
X2256535Y748770D01*
X2256535Y748770D02*
X2271773Y748770D01*
X2271773Y748770D02*
X2279392Y752580D01*
X2279392Y752580D02*
X2283202Y756390D01*
X2283202Y756390D02*
X2287011Y764009D01*
X2287011Y764009D02*
X2287011Y786866D01*
X2287011Y786866D02*
X2283202Y794485D01*
X2283202Y794485D02*
X2279392Y798294D01*
X2279392Y798294D02*
X2271773Y802104D01*
X2271773Y802104D02*
X2256535Y802104D01*
X2256535Y802104D02*
X2248916Y798294D01*
X1114937Y483202D02*
X1111603Y489868D01*
X1111603Y489868D02*
X1111603Y499868D01*
X1111603Y499868D02*
X1114937Y509868D01*
X1114937Y509868D02*
X1121603Y516535D01*
X1121603Y516535D02*
X1128270Y519868D01*
X1128270Y519868D02*
X1141603Y523202D01*
X1141603Y523202D02*
X1151603Y523202D01*
X1151603Y523202D02*
X1164937Y519868D01*
X1164937Y519868D02*
X1171603Y516535D01*
X1171603Y516535D02*
X1178270Y509868D01*
X1178270Y509868D02*
X1181603Y499868D01*
X1181603Y499868D02*
X1181603Y493202D01*
X1181603Y493202D02*
X1178270Y483202D01*
X1178270Y483202D02*
X1174937Y479868D01*
X1174937Y479868D02*
X1151603Y479868D01*
X1151603Y479868D02*
X1151603Y493202D01*
X1181603Y449868D02*
X1111603Y449868D01*
X1111603Y449868D02*
X1111603Y423202D01*
X1111603Y423202D02*
X1114937Y416535D01*
X1114937Y416535D02*
X1118270Y413202D01*
X1118270Y413202D02*
X1124937Y409868D01*
X1124937Y409868D02*
X1134937Y409868D01*
X1134937Y409868D02*
X1141603Y413202D01*
X1141603Y413202D02*
X1144937Y416535D01*
X1144937Y416535D02*
X1148270Y423202D01*
X1148270Y423202D02*
X1148270Y449868D01*
X1134937Y349868D02*
X1181603Y349868D01*
X1108270Y366535D02*
X1158270Y383202D01*
X1158270Y383202D02*
X1158270Y339869D01*
X2384937Y1733333D02*
X2381603Y1740000D01*
X2381603Y1740000D02*
X2381603Y1750000D01*
X2381603Y1750000D02*
X2384937Y1760000D01*
X2384937Y1760000D02*
X2391603Y1766667D01*
X2391603Y1766667D02*
X2398270Y1770000D01*
X2398270Y1770000D02*
X2411603Y1773333D01*
X2411603Y1773333D02*
X2421603Y1773333D01*
X2421603Y1773333D02*
X2434937Y1770000D01*
X2434937Y1770000D02*
X2441603Y1766667D01*
X2441603Y1766667D02*
X2448270Y1760000D01*
X2448270Y1760000D02*
X2451603Y1750000D01*
X2451603Y1750000D02*
X2451603Y1743333D01*
X2451603Y1743333D02*
X2448270Y1733333D01*
X2448270Y1733333D02*
X2444937Y1730000D01*
X2444937Y1730000D02*
X2421603Y1730000D01*
X2421603Y1730000D02*
X2421603Y1743333D01*
X2451603Y1700000D02*
X2381603Y1700000D01*
X2381603Y1700000D02*
X2381603Y1673333D01*
X2381603Y1673333D02*
X2384937Y1666667D01*
X2384937Y1666667D02*
X2388270Y1663333D01*
X2388270Y1663333D02*
X2394937Y1660000D01*
X2394937Y1660000D02*
X2404937Y1660000D01*
X2404937Y1660000D02*
X2411603Y1663333D01*
X2411603Y1663333D02*
X2414937Y1666667D01*
X2414937Y1666667D02*
X2418270Y1673333D01*
X2418270Y1673333D02*
X2418270Y1700000D01*
X2388270Y1633333D02*
X2384937Y1630000D01*
X2384937Y1630000D02*
X2381603Y1623333D01*
X2381603Y1623333D02*
X2381603Y1606667D01*
X2381603Y1606667D02*
X2384937Y1600000D01*
X2384937Y1600000D02*
X2388270Y1596667D01*
X2388270Y1596667D02*
X2394937Y1593333D01*
X2394937Y1593333D02*
X2401603Y1593333D01*
X2401603Y1593333D02*
X2411603Y1596667D01*
X2411603Y1596667D02*
X2451603Y1636667D01*
X2451603Y1636667D02*
X2451603Y1593333D01*
X2381603Y1570000D02*
X2381603Y1523333D01*
X2381603Y1523333D02*
X2451603Y1553333D01*
X1441603Y1731667D02*
X1408270Y1755000D01*
X1441603Y1771667D02*
X1371603Y1771667D01*
X1371603Y1771667D02*
X1371603Y1745000D01*
X1371603Y1745000D02*
X1374937Y1738333D01*
X1374937Y1738333D02*
X1378270Y1735000D01*
X1378270Y1735000D02*
X1384937Y1731667D01*
X1384937Y1731667D02*
X1394937Y1731667D01*
X1394937Y1731667D02*
X1401603Y1735000D01*
X1401603Y1735000D02*
X1404937Y1738333D01*
X1404937Y1738333D02*
X1408270Y1745000D01*
X1408270Y1745000D02*
X1408270Y1771667D01*
X1371603Y1701667D02*
X1428270Y1701667D01*
X1428270Y1701667D02*
X1434937Y1698333D01*
X1434937Y1698333D02*
X1438270Y1695000D01*
X1438270Y1695000D02*
X1441603Y1688333D01*
X1441603Y1688333D02*
X1441603Y1675000D01*
X1441603Y1675000D02*
X1438270Y1668333D01*
X1438270Y1668333D02*
X1434937Y1665000D01*
X1434937Y1665000D02*
X1428270Y1661667D01*
X1428270Y1661667D02*
X1371603Y1661667D01*
X1441603Y1628333D02*
X1371603Y1628333D01*
X1371603Y1628333D02*
X1441603Y1588333D01*
X1441603Y1588333D02*
X1371603Y1588333D01*
X2894937Y549869D02*
X2891603Y556535D01*
X2891603Y556535D02*
X2891603Y566535D01*
X2891603Y566535D02*
X2894937Y576535D01*
X2894937Y576535D02*
X2901603Y583202D01*
X2901603Y583202D02*
X2908270Y586535D01*
X2908270Y586535D02*
X2921603Y589869D01*
X2921603Y589869D02*
X2931603Y589869D01*
X2931603Y589869D02*
X2944937Y586535D01*
X2944937Y586535D02*
X2951603Y583202D01*
X2951603Y583202D02*
X2958270Y576535D01*
X2958270Y576535D02*
X2961603Y566535D01*
X2961603Y566535D02*
X2961603Y559869D01*
X2961603Y559869D02*
X2958270Y549869D01*
X2958270Y549869D02*
X2954937Y546535D01*
X2954937Y546535D02*
X2931603Y546535D01*
X2931603Y546535D02*
X2931603Y559869D01*
X2961603Y516535D02*
X2891603Y516535D01*
X2891603Y516535D02*
X2891603Y489868D01*
X2891603Y489868D02*
X2894937Y483202D01*
X2894937Y483202D02*
X2898270Y479868D01*
X2898270Y479868D02*
X2904937Y476535D01*
X2904937Y476535D02*
X2914937Y476535D01*
X2914937Y476535D02*
X2921603Y479868D01*
X2921603Y479868D02*
X2924937Y483202D01*
X2924937Y483202D02*
X2928270Y489868D01*
X2928270Y489868D02*
X2928270Y516535D01*
X2961603Y409868D02*
X2961603Y449868D01*
X2961603Y429868D02*
X2891603Y429868D01*
X2891603Y429868D02*
X2901603Y436535D01*
X2901603Y436535D02*
X2908270Y443202D01*
X2908270Y443202D02*
X2911603Y449868D01*
X2961603Y343202D02*
X2961603Y383202D01*
X2961603Y363202D02*
X2891603Y363202D01*
X2891603Y363202D02*
X2901603Y369868D01*
X2901603Y369868D02*
X2908270Y376535D01*
X2908270Y376535D02*
X2911603Y383202D01*
X1874937Y483202D02*
X1871603Y489868D01*
X1871603Y489868D02*
X1871603Y499868D01*
X1871603Y499868D02*
X1874937Y509868D01*
X1874937Y509868D02*
X1881603Y516535D01*
X1881603Y516535D02*
X1888270Y519868D01*
X1888270Y519868D02*
X1901603Y523202D01*
X1901603Y523202D02*
X1911603Y523202D01*
X1911603Y523202D02*
X1924937Y519868D01*
X1924937Y519868D02*
X1931603Y516535D01*
X1931603Y516535D02*
X1938270Y509868D01*
X1938270Y509868D02*
X1941603Y499868D01*
X1941603Y499868D02*
X1941603Y493202D01*
X1941603Y493202D02*
X1938270Y483202D01*
X1938270Y483202D02*
X1934937Y479868D01*
X1934937Y479868D02*
X1911603Y479868D01*
X1911603Y479868D02*
X1911603Y493202D01*
X1941603Y449868D02*
X1871603Y449868D01*
X1871603Y449868D02*
X1871603Y423202D01*
X1871603Y423202D02*
X1874937Y416535D01*
X1874937Y416535D02*
X1878270Y413202D01*
X1878270Y413202D02*
X1884937Y409868D01*
X1884937Y409868D02*
X1894937Y409868D01*
X1894937Y409868D02*
X1901603Y413202D01*
X1901603Y413202D02*
X1904937Y416535D01*
X1904937Y416535D02*
X1908270Y423202D01*
X1908270Y423202D02*
X1908270Y449868D01*
X1871603Y386535D02*
X1871603Y339869D01*
X1871603Y339869D02*
X1941603Y369868D01*
X3144937Y1723333D02*
X3141603Y1730000D01*
X3141603Y1730000D02*
X3141603Y1740000D01*
X3141603Y1740000D02*
X3144937Y1750000D01*
X3144937Y1750000D02*
X3151603Y1756667D01*
X3151603Y1756667D02*
X3158270Y1760000D01*
X3158270Y1760000D02*
X3171603Y1763333D01*
X3171603Y1763333D02*
X3181603Y1763333D01*
X3181603Y1763333D02*
X3194937Y1760000D01*
X3194937Y1760000D02*
X3201603Y1756667D01*
X3201603Y1756667D02*
X3208270Y1750000D01*
X3208270Y1750000D02*
X3211603Y1740000D01*
X3211603Y1740000D02*
X3211603Y1733333D01*
X3211603Y1733333D02*
X3208270Y1723333D01*
X3208270Y1723333D02*
X3204937Y1720000D01*
X3204937Y1720000D02*
X3181603Y1720000D01*
X3181603Y1720000D02*
X3181603Y1733333D01*
X3211603Y1690000D02*
X3141603Y1690000D01*
X3141603Y1690000D02*
X3141603Y1663333D01*
X3141603Y1663333D02*
X3144937Y1656667D01*
X3144937Y1656667D02*
X3148270Y1653333D01*
X3148270Y1653333D02*
X3154937Y1650000D01*
X3154937Y1650000D02*
X3164937Y1650000D01*
X3164937Y1650000D02*
X3171603Y1653333D01*
X3171603Y1653333D02*
X3174937Y1656667D01*
X3174937Y1656667D02*
X3178270Y1663333D01*
X3178270Y1663333D02*
X3178270Y1690000D01*
X3148270Y1623333D02*
X3144937Y1620000D01*
X3144937Y1620000D02*
X3141603Y1613333D01*
X3141603Y1613333D02*
X3141603Y1596667D01*
X3141603Y1596667D02*
X3144937Y1590000D01*
X3144937Y1590000D02*
X3148270Y1586667D01*
X3148270Y1586667D02*
X3154937Y1583333D01*
X3154937Y1583333D02*
X3161603Y1583333D01*
X3161603Y1583333D02*
X3171603Y1586667D01*
X3171603Y1586667D02*
X3211603Y1626667D01*
X3211603Y1626667D02*
X3211603Y1583333D01*
X3141603Y1520000D02*
X3141603Y1553333D01*
X3141603Y1553333D02*
X3174937Y1556667D01*
X3174937Y1556667D02*
X3171603Y1553333D01*
X3171603Y1553333D02*
X3168270Y1546667D01*
X3168270Y1546667D02*
X3168270Y1530000D01*
X3168270Y1530000D02*
X3171603Y1523333D01*
X3171603Y1523333D02*
X3174937Y1520000D01*
X3174937Y1520000D02*
X3181603Y1516667D01*
X3181603Y1516667D02*
X3198270Y1516667D01*
X3198270Y1516667D02*
X3204937Y1520000D01*
X3204937Y1520000D02*
X3208270Y1523333D01*
X3208270Y1523333D02*
X3211603Y1530000D01*
X3211603Y1530000D02*
X3211603Y1546667D01*
X3211603Y1546667D02*
X3208270Y1553333D01*
X3208270Y1553333D02*
X3204937Y1556667D01*
X4164937Y534869D02*
X4161603Y541535D01*
X4161603Y541535D02*
X4161603Y551535D01*
X4161603Y551535D02*
X4164937Y561535D01*
X4164937Y561535D02*
X4171603Y568202D01*
X4171603Y568202D02*
X4178270Y571535D01*
X4178270Y571535D02*
X4191603Y574869D01*
X4191603Y574869D02*
X4201603Y574869D01*
X4201603Y574869D02*
X4214937Y571535D01*
X4214937Y571535D02*
X4221603Y568202D01*
X4221603Y568202D02*
X4228270Y561535D01*
X4228270Y561535D02*
X4231603Y551535D01*
X4231603Y551535D02*
X4231603Y544869D01*
X4231603Y544869D02*
X4228270Y534869D01*
X4228270Y534869D02*
X4224937Y531535D01*
X4224937Y531535D02*
X4201603Y531535D01*
X4201603Y531535D02*
X4201603Y544869D01*
X4231603Y501535D02*
X4161603Y501535D01*
X4161603Y501535D02*
X4161603Y474868D01*
X4161603Y474868D02*
X4164937Y468202D01*
X4164937Y468202D02*
X4168270Y464868D01*
X4168270Y464868D02*
X4174937Y461535D01*
X4174937Y461535D02*
X4184937Y461535D01*
X4184937Y461535D02*
X4191603Y464868D01*
X4191603Y464868D02*
X4194937Y468202D01*
X4194937Y468202D02*
X4198270Y474868D01*
X4198270Y474868D02*
X4198270Y501535D01*
X4231603Y394868D02*
X4231603Y434868D01*
X4231603Y414868D02*
X4161603Y414868D01*
X4161603Y414868D02*
X4171603Y421535D01*
X4171603Y421535D02*
X4178270Y428202D01*
X4178270Y428202D02*
X4181603Y434868D01*
X4161603Y334869D02*
X4161603Y348202D01*
X4161603Y348202D02*
X4164937Y354868D01*
X4164937Y354868D02*
X4168270Y358202D01*
X4168270Y358202D02*
X4178270Y364868D01*
X4178270Y364868D02*
X4191603Y368202D01*
X4191603Y368202D02*
X4218270Y368202D01*
X4218270Y368202D02*
X4224937Y364868D01*
X4224937Y364868D02*
X4228270Y361535D01*
X4228270Y361535D02*
X4231603Y354868D01*
X4231603Y354868D02*
X4231603Y341535D01*
X4231603Y341535D02*
X4228270Y334869D01*
X4228270Y334869D02*
X4224937Y331535D01*
X4224937Y331535D02*
X4218270Y328202D01*
X4218270Y328202D02*
X4201603Y328202D01*
X4201603Y328202D02*
X4194937Y331535D01*
X4194937Y331535D02*
X4191603Y334869D01*
X4191603Y334869D02*
X4188270Y341535D01*
X4188270Y341535D02*
X4188270Y354868D01*
X4188270Y354868D02*
X4191603Y361535D01*
X4191603Y361535D02*
X4194937Y364868D01*
X4194937Y364868D02*
X4201603Y368202D01*
X3904937Y1723333D02*
X3901603Y1730000D01*
X3901603Y1730000D02*
X3901603Y1740000D01*
X3901603Y1740000D02*
X3904937Y1750000D01*
X3904937Y1750000D02*
X3911603Y1756667D01*
X3911603Y1756667D02*
X3918270Y1760000D01*
X3918270Y1760000D02*
X3931603Y1763333D01*
X3931603Y1763333D02*
X3941603Y1763333D01*
X3941603Y1763333D02*
X3954937Y1760000D01*
X3954937Y1760000D02*
X3961603Y1756667D01*
X3961603Y1756667D02*
X3968270Y1750000D01*
X3968270Y1750000D02*
X3971603Y1740000D01*
X3971603Y1740000D02*
X3971603Y1733333D01*
X3971603Y1733333D02*
X3968270Y1723333D01*
X3968270Y1723333D02*
X3964937Y1720000D01*
X3964937Y1720000D02*
X3941603Y1720000D01*
X3941603Y1720000D02*
X3941603Y1733333D01*
X3971603Y1690000D02*
X3901603Y1690000D01*
X3901603Y1690000D02*
X3901603Y1663333D01*
X3901603Y1663333D02*
X3904937Y1656667D01*
X3904937Y1656667D02*
X3908270Y1653333D01*
X3908270Y1653333D02*
X3914937Y1650000D01*
X3914937Y1650000D02*
X3924937Y1650000D01*
X3924937Y1650000D02*
X3931603Y1653333D01*
X3931603Y1653333D02*
X3934937Y1656667D01*
X3934937Y1656667D02*
X3938270Y1663333D01*
X3938270Y1663333D02*
X3938270Y1690000D01*
X3908270Y1623333D02*
X3904937Y1620000D01*
X3904937Y1620000D02*
X3901603Y1613333D01*
X3901603Y1613333D02*
X3901603Y1596667D01*
X3901603Y1596667D02*
X3904937Y1590000D01*
X3904937Y1590000D02*
X3908270Y1586667D01*
X3908270Y1586667D02*
X3914937Y1583333D01*
X3914937Y1583333D02*
X3921603Y1583333D01*
X3921603Y1583333D02*
X3931603Y1586667D01*
X3931603Y1586667D02*
X3971603Y1626667D01*
X3971603Y1626667D02*
X3971603Y1583333D01*
X3908270Y1556667D02*
X3904937Y1553333D01*
X3904937Y1553333D02*
X3901603Y1546667D01*
X3901603Y1546667D02*
X3901603Y1530000D01*
X3901603Y1530000D02*
X3904937Y1523333D01*
X3904937Y1523333D02*
X3908270Y1520000D01*
X3908270Y1520000D02*
X3914937Y1516667D01*
X3914937Y1516667D02*
X3921603Y1516667D01*
X3921603Y1516667D02*
X3931603Y1520000D01*
X3931603Y1520000D02*
X3971603Y1560000D01*
X3971603Y1560000D02*
X3971603Y1516667D01*
X4149087Y639524D02*
X4145277Y639524D01*
X4156706Y643333D02*
X4145277Y643333D01*
X4164325Y647143D02*
X4145277Y647143D01*
X4171944Y650952D02*
X4145277Y650952D01*
X4175753Y654762D02*
X4145277Y654762D01*
X4183372Y658572D02*
X4145277Y658572D01*
X4190991Y662381D02*
X4145277Y662381D01*
X4198610Y666191D02*
X4145277Y666191D01*
X4206230Y670000D02*
X4145277Y670000D01*
X4198610Y673810D02*
X4145277Y673810D01*
X4190991Y677619D02*
X4145277Y677619D01*
X4183372Y681429D02*
X4145277Y681429D01*
X4175753Y685238D02*
X4145277Y685238D01*
X4171944Y689048D02*
X4145277Y689048D01*
X4164325Y692857D02*
X4145277Y692857D01*
X4156706Y696667D02*
X4145277Y696667D01*
X4145277Y700476D02*
X4202420Y670000D01*
X4202420Y670000D02*
X4145277Y639524D01*
X4149087Y700476D02*
X4145277Y700476D01*
X4206230Y670000D02*
X4145277Y704286D01*
X4145277Y704286D02*
X4145277Y635714D01*
X4145277Y635714D02*
X4206230Y670000D01*
X1121603Y1776667D02*
X1121603Y1733333D01*
X1121603Y1733333D02*
X1148270Y1756667D01*
X1148270Y1756667D02*
X1148270Y1746667D01*
X1148270Y1746667D02*
X1151603Y1740000D01*
X1151603Y1740000D02*
X1154937Y1736667D01*
X1154937Y1736667D02*
X1161603Y1733333D01*
X1161603Y1733333D02*
X1178270Y1733333D01*
X1178270Y1733333D02*
X1184937Y1736667D01*
X1184937Y1736667D02*
X1188270Y1740000D01*
X1188270Y1740000D02*
X1191603Y1746667D01*
X1191603Y1746667D02*
X1191603Y1766667D01*
X1191603Y1766667D02*
X1188270Y1773333D01*
X1188270Y1773333D02*
X1184937Y1776667D01*
X1121603Y1713333D02*
X1191603Y1690000D01*
X1191603Y1690000D02*
X1121603Y1666667D01*
X1121603Y1650000D02*
X1121603Y1606667D01*
X1121603Y1606667D02*
X1148270Y1630000D01*
X1148270Y1630000D02*
X1148270Y1620000D01*
X1148270Y1620000D02*
X1151603Y1613333D01*
X1151603Y1613333D02*
X1154937Y1610000D01*
X1154937Y1610000D02*
X1161603Y1606667D01*
X1161603Y1606667D02*
X1178270Y1606667D01*
X1178270Y1606667D02*
X1184937Y1610000D01*
X1184937Y1610000D02*
X1188270Y1613333D01*
X1188270Y1613333D02*
X1191603Y1620000D01*
X1191603Y1620000D02*
X1191603Y1640000D01*
X1191603Y1640000D02*
X1188270Y1646667D01*
X1188270Y1646667D02*
X1184937Y1650000D01*
X614937Y473202D02*
X611603Y479868D01*
X611603Y479868D02*
X611603Y489868D01*
X611603Y489868D02*
X614937Y499868D01*
X614937Y499868D02*
X621603Y506535D01*
X621603Y506535D02*
X628270Y509868D01*
X628270Y509868D02*
X641603Y513202D01*
X641603Y513202D02*
X651603Y513202D01*
X651603Y513202D02*
X664937Y509868D01*
X664937Y509868D02*
X671603Y506535D01*
X671603Y506535D02*
X678270Y499868D01*
X678270Y499868D02*
X681603Y489868D01*
X681603Y489868D02*
X681603Y483202D01*
X681603Y483202D02*
X678270Y473202D01*
X678270Y473202D02*
X674937Y469868D01*
X674937Y469868D02*
X651603Y469868D01*
X651603Y469868D02*
X651603Y483202D01*
X681603Y439868D02*
X611603Y439868D01*
X611603Y439868D02*
X611603Y413202D01*
X611603Y413202D02*
X614937Y406535D01*
X614937Y406535D02*
X618270Y403202D01*
X618270Y403202D02*
X624937Y399868D01*
X624937Y399868D02*
X634937Y399868D01*
X634937Y399868D02*
X641603Y403202D01*
X641603Y403202D02*
X644937Y406535D01*
X644937Y406535D02*
X648270Y413202D01*
X648270Y413202D02*
X648270Y439868D01*
X618270Y373202D02*
X614937Y369868D01*
X614937Y369868D02*
X611603Y363202D01*
X611603Y363202D02*
X611603Y346535D01*
X611603Y346535D02*
X614937Y339869D01*
X614937Y339869D02*
X618270Y336535D01*
X618270Y336535D02*
X624937Y333202D01*
X624937Y333202D02*
X631603Y333202D01*
X631603Y333202D02*
X641603Y336535D01*
X641603Y336535D02*
X681603Y376535D01*
X681603Y376535D02*
X681603Y333202D01*
X2634937Y1733333D02*
X2631603Y1740000D01*
X2631603Y1740000D02*
X2631603Y1750000D01*
X2631603Y1750000D02*
X2634937Y1760000D01*
X2634937Y1760000D02*
X2641603Y1766667D01*
X2641603Y1766667D02*
X2648270Y1770000D01*
X2648270Y1770000D02*
X2661603Y1773333D01*
X2661603Y1773333D02*
X2671603Y1773333D01*
X2671603Y1773333D02*
X2684937Y1770000D01*
X2684937Y1770000D02*
X2691603Y1766667D01*
X2691603Y1766667D02*
X2698270Y1760000D01*
X2698270Y1760000D02*
X2701603Y1750000D01*
X2701603Y1750000D02*
X2701603Y1743333D01*
X2701603Y1743333D02*
X2698270Y1733333D01*
X2698270Y1733333D02*
X2694937Y1730000D01*
X2694937Y1730000D02*
X2671603Y1730000D01*
X2671603Y1730000D02*
X2671603Y1743333D01*
X2701603Y1700000D02*
X2631603Y1700000D01*
X2631603Y1700000D02*
X2631603Y1673333D01*
X2631603Y1673333D02*
X2634937Y1666667D01*
X2634937Y1666667D02*
X2638270Y1663333D01*
X2638270Y1663333D02*
X2644937Y1660000D01*
X2644937Y1660000D02*
X2654937Y1660000D01*
X2654937Y1660000D02*
X2661603Y1663333D01*
X2661603Y1663333D02*
X2664937Y1666667D01*
X2664937Y1666667D02*
X2668270Y1673333D01*
X2668270Y1673333D02*
X2668270Y1700000D01*
X2638270Y1633333D02*
X2634937Y1630000D01*
X2634937Y1630000D02*
X2631603Y1623333D01*
X2631603Y1623333D02*
X2631603Y1606667D01*
X2631603Y1606667D02*
X2634937Y1600000D01*
X2634937Y1600000D02*
X2638270Y1596667D01*
X2638270Y1596667D02*
X2644937Y1593333D01*
X2644937Y1593333D02*
X2651603Y1593333D01*
X2651603Y1593333D02*
X2661603Y1596667D01*
X2661603Y1596667D02*
X2701603Y1636667D01*
X2701603Y1636667D02*
X2701603Y1593333D01*
X2631603Y1533333D02*
X2631603Y1546667D01*
X2631603Y1546667D02*
X2634937Y1553333D01*
X2634937Y1553333D02*
X2638270Y1556667D01*
X2638270Y1556667D02*
X2648270Y1563333D01*
X2648270Y1563333D02*
X2661603Y1566667D01*
X2661603Y1566667D02*
X2688270Y1566667D01*
X2688270Y1566667D02*
X2694937Y1563333D01*
X2694937Y1563333D02*
X2698270Y1560000D01*
X2698270Y1560000D02*
X2701603Y1553333D01*
X2701603Y1553333D02*
X2701603Y1540000D01*
X2701603Y1540000D02*
X2698270Y1533333D01*
X2698270Y1533333D02*
X2694937Y1530000D01*
X2694937Y1530000D02*
X2688270Y1526667D01*
X2688270Y1526667D02*
X2671603Y1526667D01*
X2671603Y1526667D02*
X2664937Y1530000D01*
X2664937Y1530000D02*
X2661603Y1533333D01*
X2661603Y1533333D02*
X2658270Y1540000D01*
X2658270Y1540000D02*
X2658270Y1553333D01*
X2658270Y1553333D02*
X2661603Y1560000D01*
X2661603Y1560000D02*
X2664937Y1563333D01*
X2664937Y1563333D02*
X2671603Y1566667D01*
X1624937Y483202D02*
X1621603Y489868D01*
X1621603Y489868D02*
X1621603Y499868D01*
X1621603Y499868D02*
X1624937Y509868D01*
X1624937Y509868D02*
X1631603Y516535D01*
X1631603Y516535D02*
X1638270Y519868D01*
X1638270Y519868D02*
X1651603Y523202D01*
X1651603Y523202D02*
X1661603Y523202D01*
X1661603Y523202D02*
X1674937Y519868D01*
X1674937Y519868D02*
X1681603Y516535D01*
X1681603Y516535D02*
X1688270Y509868D01*
X1688270Y509868D02*
X1691603Y499868D01*
X1691603Y499868D02*
X1691603Y493202D01*
X1691603Y493202D02*
X1688270Y483202D01*
X1688270Y483202D02*
X1684937Y479868D01*
X1684937Y479868D02*
X1661603Y479868D01*
X1661603Y479868D02*
X1661603Y493202D01*
X1691603Y449868D02*
X1621603Y449868D01*
X1621603Y449868D02*
X1621603Y423202D01*
X1621603Y423202D02*
X1624937Y416535D01*
X1624937Y416535D02*
X1628270Y413202D01*
X1628270Y413202D02*
X1634937Y409868D01*
X1634937Y409868D02*
X1644937Y409868D01*
X1644937Y409868D02*
X1651603Y413202D01*
X1651603Y413202D02*
X1654937Y416535D01*
X1654937Y416535D02*
X1658270Y423202D01*
X1658270Y423202D02*
X1658270Y449868D01*
X1621603Y349868D02*
X1621603Y363202D01*
X1621603Y363202D02*
X1624937Y369868D01*
X1624937Y369868D02*
X1628270Y373202D01*
X1628270Y373202D02*
X1638270Y379868D01*
X1638270Y379868D02*
X1651603Y383202D01*
X1651603Y383202D02*
X1678270Y383202D01*
X1678270Y383202D02*
X1684937Y379868D01*
X1684937Y379868D02*
X1688270Y376535D01*
X1688270Y376535D02*
X1691603Y369868D01*
X1691603Y369868D02*
X1691603Y356535D01*
X1691603Y356535D02*
X1688270Y349868D01*
X1688270Y349868D02*
X1684937Y346535D01*
X1684937Y346535D02*
X1678270Y343202D01*
X1678270Y343202D02*
X1661603Y343202D01*
X1661603Y343202D02*
X1654937Y346535D01*
X1654937Y346535D02*
X1651603Y349868D01*
X1651603Y349868D02*
X1648270Y356535D01*
X1648270Y356535D02*
X1648270Y369868D01*
X1648270Y369868D02*
X1651603Y376535D01*
X1651603Y376535D02*
X1654937Y379868D01*
X1654937Y379868D02*
X1661603Y383202D01*
X4419937Y1728333D02*
X4416603Y1735000D01*
X4416603Y1735000D02*
X4416603Y1745000D01*
X4416603Y1745000D02*
X4419937Y1755000D01*
X4419937Y1755000D02*
X4426603Y1761667D01*
X4426603Y1761667D02*
X4433270Y1765000D01*
X4433270Y1765000D02*
X4446603Y1768333D01*
X4446603Y1768333D02*
X4456603Y1768333D01*
X4456603Y1768333D02*
X4469937Y1765000D01*
X4469937Y1765000D02*
X4476603Y1761667D01*
X4476603Y1761667D02*
X4483270Y1755000D01*
X4483270Y1755000D02*
X4486603Y1745000D01*
X4486603Y1745000D02*
X4486603Y1738333D01*
X4486603Y1738333D02*
X4483270Y1728333D01*
X4483270Y1728333D02*
X4479937Y1725000D01*
X4479937Y1725000D02*
X4456603Y1725000D01*
X4456603Y1725000D02*
X4456603Y1738333D01*
X4486603Y1695000D02*
X4416603Y1695000D01*
X4416603Y1695000D02*
X4416603Y1668333D01*
X4416603Y1668333D02*
X4419937Y1661667D01*
X4419937Y1661667D02*
X4423270Y1658333D01*
X4423270Y1658333D02*
X4429937Y1655000D01*
X4429937Y1655000D02*
X4439937Y1655000D01*
X4439937Y1655000D02*
X4446603Y1658333D01*
X4446603Y1658333D02*
X4449937Y1661667D01*
X4449937Y1661667D02*
X4453270Y1668333D01*
X4453270Y1668333D02*
X4453270Y1695000D01*
X4423270Y1628333D02*
X4419937Y1625000D01*
X4419937Y1625000D02*
X4416603Y1618333D01*
X4416603Y1618333D02*
X4416603Y1601667D01*
X4416603Y1601667D02*
X4419937Y1595000D01*
X4419937Y1595000D02*
X4423270Y1591667D01*
X4423270Y1591667D02*
X4429937Y1588333D01*
X4429937Y1588333D02*
X4436603Y1588333D01*
X4436603Y1588333D02*
X4446603Y1591667D01*
X4446603Y1591667D02*
X4486603Y1631667D01*
X4486603Y1631667D02*
X4486603Y1588333D01*
X4416603Y1545000D02*
X4416603Y1538333D01*
X4416603Y1538333D02*
X4419937Y1531667D01*
X4419937Y1531667D02*
X4423270Y1528333D01*
X4423270Y1528333D02*
X4429937Y1525000D01*
X4429937Y1525000D02*
X4443270Y1521667D01*
X4443270Y1521667D02*
X4459937Y1521667D01*
X4459937Y1521667D02*
X4473270Y1525000D01*
X4473270Y1525000D02*
X4479937Y1528333D01*
X4479937Y1528333D02*
X4483270Y1531667D01*
X4483270Y1531667D02*
X4486603Y1538333D01*
X4486603Y1538333D02*
X4486603Y1545000D01*
X4486603Y1545000D02*
X4483270Y1551667D01*
X4483270Y1551667D02*
X4479937Y1555000D01*
X4479937Y1555000D02*
X4473270Y1558333D01*
X4473270Y1558333D02*
X4459937Y1561667D01*
X4459937Y1561667D02*
X4443270Y1561667D01*
X4443270Y1561667D02*
X4429937Y1558333D01*
X4429937Y1558333D02*
X4423270Y1555000D01*
X4423270Y1555000D02*
X4419937Y1551667D01*
X4419937Y1551667D02*
X4416603Y1545000D01*
X3154937Y549869D02*
X3151603Y556535D01*
X3151603Y556535D02*
X3151603Y566535D01*
X3151603Y566535D02*
X3154937Y576535D01*
X3154937Y576535D02*
X3161603Y583202D01*
X3161603Y583202D02*
X3168270Y586535D01*
X3168270Y586535D02*
X3181603Y589869D01*
X3181603Y589869D02*
X3191603Y589869D01*
X3191603Y589869D02*
X3204937Y586535D01*
X3204937Y586535D02*
X3211603Y583202D01*
X3211603Y583202D02*
X3218270Y576535D01*
X3218270Y576535D02*
X3221603Y566535D01*
X3221603Y566535D02*
X3221603Y559869D01*
X3221603Y559869D02*
X3218270Y549869D01*
X3218270Y549869D02*
X3214937Y546535D01*
X3214937Y546535D02*
X3191603Y546535D01*
X3191603Y546535D02*
X3191603Y559869D01*
X3221603Y516535D02*
X3151603Y516535D01*
X3151603Y516535D02*
X3151603Y489868D01*
X3151603Y489868D02*
X3154937Y483202D01*
X3154937Y483202D02*
X3158270Y479868D01*
X3158270Y479868D02*
X3164937Y476535D01*
X3164937Y476535D02*
X3174937Y476535D01*
X3174937Y476535D02*
X3181603Y479868D01*
X3181603Y479868D02*
X3184937Y483202D01*
X3184937Y483202D02*
X3188270Y489868D01*
X3188270Y489868D02*
X3188270Y516535D01*
X3221603Y409868D02*
X3221603Y449868D01*
X3221603Y429868D02*
X3151603Y429868D01*
X3151603Y429868D02*
X3161603Y436535D01*
X3161603Y436535D02*
X3168270Y443202D01*
X3168270Y443202D02*
X3171603Y449868D01*
X3158270Y383202D02*
X3154937Y379868D01*
X3154937Y379868D02*
X3151603Y373202D01*
X3151603Y373202D02*
X3151603Y356535D01*
X3151603Y356535D02*
X3154937Y349868D01*
X3154937Y349868D02*
X3158270Y346535D01*
X3158270Y346535D02*
X3164937Y343202D01*
X3164937Y343202D02*
X3171603Y343202D01*
X3171603Y343202D02*
X3181603Y346535D01*
X3181603Y346535D02*
X3221603Y386535D01*
X3221603Y386535D02*
X3221603Y343202D01*
X4419937Y514868D02*
X4416603Y521535D01*
X4416603Y521535D02*
X4416603Y531535D01*
X4416603Y531535D02*
X4419937Y541535D01*
X4419937Y541535D02*
X4426603Y548202D01*
X4426603Y548202D02*
X4433270Y551535D01*
X4433270Y551535D02*
X4446603Y554869D01*
X4446603Y554869D02*
X4456603Y554869D01*
X4456603Y554869D02*
X4469937Y551535D01*
X4469937Y551535D02*
X4476603Y548202D01*
X4476603Y548202D02*
X4483270Y541535D01*
X4483270Y541535D02*
X4486603Y531535D01*
X4486603Y531535D02*
X4486603Y524869D01*
X4486603Y524869D02*
X4483270Y514868D01*
X4483270Y514868D02*
X4479937Y511535D01*
X4479937Y511535D02*
X4456603Y511535D01*
X4456603Y511535D02*
X4456603Y524869D01*
X4486603Y481535D02*
X4416603Y481535D01*
X4416603Y481535D02*
X4416603Y454868D01*
X4416603Y454868D02*
X4419937Y448202D01*
X4419937Y448202D02*
X4423270Y444868D01*
X4423270Y444868D02*
X4429937Y441535D01*
X4429937Y441535D02*
X4439937Y441535D01*
X4439937Y441535D02*
X4446603Y444868D01*
X4446603Y444868D02*
X4449937Y448202D01*
X4449937Y448202D02*
X4453270Y454868D01*
X4453270Y454868D02*
X4453270Y481535D01*
X4486603Y374868D02*
X4486603Y414868D01*
X4486603Y394868D02*
X4416603Y394868D01*
X4416603Y394868D02*
X4426603Y401535D01*
X4426603Y401535D02*
X4433270Y408202D01*
X4433270Y408202D02*
X4436603Y414868D01*
X4416603Y351535D02*
X4416603Y304869D01*
X4416603Y304869D02*
X4486603Y334869D01*
X4674937Y1733333D02*
X4671603Y1740000D01*
X4671603Y1740000D02*
X4671603Y1750000D01*
X4671603Y1750000D02*
X4674937Y1760000D01*
X4674937Y1760000D02*
X4681603Y1766667D01*
X4681603Y1766667D02*
X4688270Y1770000D01*
X4688270Y1770000D02*
X4701603Y1773333D01*
X4701603Y1773333D02*
X4711603Y1773333D01*
X4711603Y1773333D02*
X4724937Y1770000D01*
X4724937Y1770000D02*
X4731603Y1766667D01*
X4731603Y1766667D02*
X4738270Y1760000D01*
X4738270Y1760000D02*
X4741603Y1750000D01*
X4741603Y1750000D02*
X4741603Y1743333D01*
X4741603Y1743333D02*
X4738270Y1733333D01*
X4738270Y1733333D02*
X4734937Y1730000D01*
X4734937Y1730000D02*
X4711603Y1730000D01*
X4711603Y1730000D02*
X4711603Y1743333D01*
X4741603Y1700000D02*
X4671603Y1700000D01*
X4671603Y1700000D02*
X4671603Y1673333D01*
X4671603Y1673333D02*
X4674937Y1666667D01*
X4674937Y1666667D02*
X4678270Y1663333D01*
X4678270Y1663333D02*
X4684937Y1660000D01*
X4684937Y1660000D02*
X4694937Y1660000D01*
X4694937Y1660000D02*
X4701603Y1663333D01*
X4701603Y1663333D02*
X4704937Y1666667D01*
X4704937Y1666667D02*
X4708270Y1673333D01*
X4708270Y1673333D02*
X4708270Y1700000D01*
X4741603Y1593333D02*
X4741603Y1633333D01*
X4741603Y1613333D02*
X4671603Y1613333D01*
X4671603Y1613333D02*
X4681603Y1620000D01*
X4681603Y1620000D02*
X4688270Y1626667D01*
X4688270Y1626667D02*
X4691603Y1633333D01*
X4741603Y1560000D02*
X4741603Y1546667D01*
X4741603Y1546667D02*
X4738270Y1540000D01*
X4738270Y1540000D02*
X4734937Y1536667D01*
X4734937Y1536667D02*
X4724937Y1530000D01*
X4724937Y1530000D02*
X4711603Y1526667D01*
X4711603Y1526667D02*
X4684937Y1526667D01*
X4684937Y1526667D02*
X4678270Y1530000D01*
X4678270Y1530000D02*
X4674937Y1533333D01*
X4674937Y1533333D02*
X4671603Y1540000D01*
X4671603Y1540000D02*
X4671603Y1553333D01*
X4671603Y1553333D02*
X4674937Y1560000D01*
X4674937Y1560000D02*
X4678270Y1563333D01*
X4678270Y1563333D02*
X4684937Y1566667D01*
X4684937Y1566667D02*
X4701603Y1566667D01*
X4701603Y1566667D02*
X4708270Y1563333D01*
X4708270Y1563333D02*
X4711603Y1560000D01*
X4711603Y1560000D02*
X4714937Y1553333D01*
X4714937Y1553333D02*
X4714937Y1540000D01*
X4714937Y1540000D02*
X4711603Y1533333D01*
X4711603Y1533333D02*
X4708270Y1530000D01*
X4708270Y1530000D02*
X4701603Y1526667D01*
X2134937Y1733333D02*
X2131603Y1740000D01*
X2131603Y1740000D02*
X2131603Y1750000D01*
X2131603Y1750000D02*
X2134937Y1760000D01*
X2134937Y1760000D02*
X2141603Y1766667D01*
X2141603Y1766667D02*
X2148270Y1770000D01*
X2148270Y1770000D02*
X2161603Y1773333D01*
X2161603Y1773333D02*
X2171603Y1773333D01*
X2171603Y1773333D02*
X2184937Y1770000D01*
X2184937Y1770000D02*
X2191603Y1766667D01*
X2191603Y1766667D02*
X2198270Y1760000D01*
X2198270Y1760000D02*
X2201603Y1750000D01*
X2201603Y1750000D02*
X2201603Y1743333D01*
X2201603Y1743333D02*
X2198270Y1733333D01*
X2198270Y1733333D02*
X2194937Y1730000D01*
X2194937Y1730000D02*
X2171603Y1730000D01*
X2171603Y1730000D02*
X2171603Y1743333D01*
X2201603Y1700000D02*
X2131603Y1700000D01*
X2131603Y1700000D02*
X2131603Y1673333D01*
X2131603Y1673333D02*
X2134937Y1666667D01*
X2134937Y1666667D02*
X2138270Y1663333D01*
X2138270Y1663333D02*
X2144937Y1660000D01*
X2144937Y1660000D02*
X2154937Y1660000D01*
X2154937Y1660000D02*
X2161603Y1663333D01*
X2161603Y1663333D02*
X2164937Y1666667D01*
X2164937Y1666667D02*
X2168270Y1673333D01*
X2168270Y1673333D02*
X2168270Y1700000D01*
X2138270Y1633333D02*
X2134937Y1630000D01*
X2134937Y1630000D02*
X2131603Y1623333D01*
X2131603Y1623333D02*
X2131603Y1606667D01*
X2131603Y1606667D02*
X2134937Y1600000D01*
X2134937Y1600000D02*
X2138270Y1596667D01*
X2138270Y1596667D02*
X2144937Y1593333D01*
X2144937Y1593333D02*
X2151603Y1593333D01*
X2151603Y1593333D02*
X2161603Y1596667D01*
X2161603Y1596667D02*
X2201603Y1636667D01*
X2201603Y1636667D02*
X2201603Y1593333D01*
X2161603Y1553333D02*
X2158270Y1560000D01*
X2158270Y1560000D02*
X2154937Y1563333D01*
X2154937Y1563333D02*
X2148270Y1566667D01*
X2148270Y1566667D02*
X2144937Y1566667D01*
X2144937Y1566667D02*
X2138270Y1563333D01*
X2138270Y1563333D02*
X2134937Y1560000D01*
X2134937Y1560000D02*
X2131603Y1553333D01*
X2131603Y1553333D02*
X2131603Y1540000D01*
X2131603Y1540000D02*
X2134937Y1533333D01*
X2134937Y1533333D02*
X2138270Y1530000D01*
X2138270Y1530000D02*
X2144937Y1526667D01*
X2144937Y1526667D02*
X2148270Y1526667D01*
X2148270Y1526667D02*
X2154937Y1530000D01*
X2154937Y1530000D02*
X2158270Y1533333D01*
X2158270Y1533333D02*
X2161603Y1540000D01*
X2161603Y1540000D02*
X2161603Y1553333D01*
X2161603Y1553333D02*
X2164937Y1560000D01*
X2164937Y1560000D02*
X2168270Y1563333D01*
X2168270Y1563333D02*
X2174937Y1566667D01*
X2174937Y1566667D02*
X2188270Y1566667D01*
X2188270Y1566667D02*
X2194937Y1563333D01*
X2194937Y1563333D02*
X2198270Y1560000D01*
X2198270Y1560000D02*
X2201603Y1553333D01*
X2201603Y1553333D02*
X2201603Y1540000D01*
X2201603Y1540000D02*
X2198270Y1533333D01*
X2198270Y1533333D02*
X2194937Y1530000D01*
X2194937Y1530000D02*
X2188270Y1526667D01*
X2188270Y1526667D02*
X2174937Y1526667D01*
X2174937Y1526667D02*
X2168270Y1530000D01*
X2168270Y1530000D02*
X2164937Y1533333D01*
X2164937Y1533333D02*
X2161603Y1540000D01*
X4154937Y1723333D02*
X4151603Y1730000D01*
X4151603Y1730000D02*
X4151603Y1740000D01*
X4151603Y1740000D02*
X4154937Y1750000D01*
X4154937Y1750000D02*
X4161603Y1756667D01*
X4161603Y1756667D02*
X4168270Y1760000D01*
X4168270Y1760000D02*
X4181603Y1763333D01*
X4181603Y1763333D02*
X4191603Y1763333D01*
X4191603Y1763333D02*
X4204937Y1760000D01*
X4204937Y1760000D02*
X4211603Y1756667D01*
X4211603Y1756667D02*
X4218270Y1750000D01*
X4218270Y1750000D02*
X4221603Y1740000D01*
X4221603Y1740000D02*
X4221603Y1733333D01*
X4221603Y1733333D02*
X4218270Y1723333D01*
X4218270Y1723333D02*
X4214937Y1720000D01*
X4214937Y1720000D02*
X4191603Y1720000D01*
X4191603Y1720000D02*
X4191603Y1733333D01*
X4221603Y1690000D02*
X4151603Y1690000D01*
X4151603Y1690000D02*
X4151603Y1663333D01*
X4151603Y1663333D02*
X4154937Y1656667D01*
X4154937Y1656667D02*
X4158270Y1653333D01*
X4158270Y1653333D02*
X4164937Y1650000D01*
X4164937Y1650000D02*
X4174937Y1650000D01*
X4174937Y1650000D02*
X4181603Y1653333D01*
X4181603Y1653333D02*
X4184937Y1656667D01*
X4184937Y1656667D02*
X4188270Y1663333D01*
X4188270Y1663333D02*
X4188270Y1690000D01*
X4158270Y1623333D02*
X4154937Y1620000D01*
X4154937Y1620000D02*
X4151603Y1613333D01*
X4151603Y1613333D02*
X4151603Y1596667D01*
X4151603Y1596667D02*
X4154937Y1590000D01*
X4154937Y1590000D02*
X4158270Y1586667D01*
X4158270Y1586667D02*
X4164937Y1583333D01*
X4164937Y1583333D02*
X4171603Y1583333D01*
X4171603Y1583333D02*
X4181603Y1586667D01*
X4181603Y1586667D02*
X4221603Y1626667D01*
X4221603Y1626667D02*
X4221603Y1583333D01*
X4221603Y1516667D02*
X4221603Y1556667D01*
X4221603Y1536667D02*
X4151603Y1536667D01*
X4151603Y1536667D02*
X4161603Y1543333D01*
X4161603Y1543333D02*
X4168270Y1550000D01*
X4168270Y1550000D02*
X4171603Y1556667D01*
X4749087Y769524D02*
X4745277Y769524D01*
X4756706Y773333D02*
X4745277Y773333D01*
X4764325Y777143D02*
X4745277Y777143D01*
X4771944Y780952D02*
X4745277Y780952D01*
X4775753Y784762D02*
X4745277Y784762D01*
X4783372Y788571D02*
X4745277Y788571D01*
X4790991Y792381D02*
X4745277Y792381D01*
X4798610Y796190D02*
X4745277Y796190D01*
X4806230Y800000D02*
X4745277Y800000D01*
X4798610Y803810D02*
X4745277Y803810D01*
X4790991Y807619D02*
X4745277Y807619D01*
X4783372Y811429D02*
X4745277Y811429D01*
X4775753Y815238D02*
X4745277Y815238D01*
X4771944Y819048D02*
X4745277Y819048D01*
X4764325Y822857D02*
X4745277Y822857D01*
X4756706Y826667D02*
X4745277Y826667D01*
X4745277Y830476D02*
X4802420Y800000D01*
X4802420Y800000D02*
X4745277Y769524D01*
X4749087Y830476D02*
X4745277Y830476D01*
X4806230Y800000D02*
X4745277Y834286D01*
X4745277Y834286D02*
X4745277Y765714D01*
X4745277Y765714D02*
X4806230Y800000D01*
X2134937Y483202D02*
X2131603Y489868D01*
X2131603Y489868D02*
X2131603Y499868D01*
X2131603Y499868D02*
X2134937Y509868D01*
X2134937Y509868D02*
X2141603Y516535D01*
X2141603Y516535D02*
X2148270Y519868D01*
X2148270Y519868D02*
X2161603Y523202D01*
X2161603Y523202D02*
X2171603Y523202D01*
X2171603Y523202D02*
X2184937Y519868D01*
X2184937Y519868D02*
X2191603Y516535D01*
X2191603Y516535D02*
X2198270Y509868D01*
X2198270Y509868D02*
X2201603Y499868D01*
X2201603Y499868D02*
X2201603Y493202D01*
X2201603Y493202D02*
X2198270Y483202D01*
X2198270Y483202D02*
X2194937Y479868D01*
X2194937Y479868D02*
X2171603Y479868D01*
X2171603Y479868D02*
X2171603Y493202D01*
X2201603Y449868D02*
X2131603Y449868D01*
X2131603Y449868D02*
X2131603Y423202D01*
X2131603Y423202D02*
X2134937Y416535D01*
X2134937Y416535D02*
X2138270Y413202D01*
X2138270Y413202D02*
X2144937Y409868D01*
X2144937Y409868D02*
X2154937Y409868D01*
X2154937Y409868D02*
X2161603Y413202D01*
X2161603Y413202D02*
X2164937Y416535D01*
X2164937Y416535D02*
X2168270Y423202D01*
X2168270Y423202D02*
X2168270Y449868D01*
X2161603Y369868D02*
X2158270Y376535D01*
X2158270Y376535D02*
X2154937Y379868D01*
X2154937Y379868D02*
X2148270Y383202D01*
X2148270Y383202D02*
X2144937Y383202D01*
X2144937Y383202D02*
X2138270Y379868D01*
X2138270Y379868D02*
X2134937Y376535D01*
X2134937Y376535D02*
X2131603Y369868D01*
X2131603Y369868D02*
X2131603Y356535D01*
X2131603Y356535D02*
X2134937Y349868D01*
X2134937Y349868D02*
X2138270Y346535D01*
X2138270Y346535D02*
X2144937Y343202D01*
X2144937Y343202D02*
X2148270Y343202D01*
X2148270Y343202D02*
X2154937Y346535D01*
X2154937Y346535D02*
X2158270Y349868D01*
X2158270Y349868D02*
X2161603Y356535D01*
X2161603Y356535D02*
X2161603Y369868D01*
X2161603Y369868D02*
X2164937Y376535D01*
X2164937Y376535D02*
X2168270Y379868D01*
X2168270Y379868D02*
X2174937Y383202D01*
X2174937Y383202D02*
X2188270Y383202D01*
X2188270Y383202D02*
X2194937Y379868D01*
X2194937Y379868D02*
X2198270Y376535D01*
X2198270Y376535D02*
X2201603Y369868D01*
X2201603Y369868D02*
X2201603Y356535D01*
X2201603Y356535D02*
X2198270Y349868D01*
X2198270Y349868D02*
X2194937Y346535D01*
X2194937Y346535D02*
X2188270Y343202D01*
X2188270Y343202D02*
X2174937Y343202D01*
X2174937Y343202D02*
X2168270Y346535D01*
X2168270Y346535D02*
X2164937Y349868D01*
X2164937Y349868D02*
X2161603Y356535D01*
X2644937Y549869D02*
X2641603Y556535D01*
X2641603Y556535D02*
X2641603Y566535D01*
X2641603Y566535D02*
X2644937Y576535D01*
X2644937Y576535D02*
X2651603Y583202D01*
X2651603Y583202D02*
X2658270Y586535D01*
X2658270Y586535D02*
X2671603Y589869D01*
X2671603Y589869D02*
X2681603Y589869D01*
X2681603Y589869D02*
X2694937Y586535D01*
X2694937Y586535D02*
X2701603Y583202D01*
X2701603Y583202D02*
X2708270Y576535D01*
X2708270Y576535D02*
X2711603Y566535D01*
X2711603Y566535D02*
X2711603Y559869D01*
X2711603Y559869D02*
X2708270Y549869D01*
X2708270Y549869D02*
X2704937Y546535D01*
X2704937Y546535D02*
X2681603Y546535D01*
X2681603Y546535D02*
X2681603Y559869D01*
X2711603Y516535D02*
X2641603Y516535D01*
X2641603Y516535D02*
X2641603Y489868D01*
X2641603Y489868D02*
X2644937Y483202D01*
X2644937Y483202D02*
X2648270Y479868D01*
X2648270Y479868D02*
X2654937Y476535D01*
X2654937Y476535D02*
X2664937Y476535D01*
X2664937Y476535D02*
X2671603Y479868D01*
X2671603Y479868D02*
X2674937Y483202D01*
X2674937Y483202D02*
X2678270Y489868D01*
X2678270Y489868D02*
X2678270Y516535D01*
X2711603Y409868D02*
X2711603Y449868D01*
X2711603Y429868D02*
X2641603Y429868D01*
X2641603Y429868D02*
X2651603Y436535D01*
X2651603Y436535D02*
X2658270Y443202D01*
X2658270Y443202D02*
X2661603Y449868D01*
X2641603Y366535D02*
X2641603Y359868D01*
X2641603Y359868D02*
X2644937Y353202D01*
X2644937Y353202D02*
X2648270Y349868D01*
X2648270Y349868D02*
X2654937Y346535D01*
X2654937Y346535D02*
X2668270Y343202D01*
X2668270Y343202D02*
X2684937Y343202D01*
X2684937Y343202D02*
X2698270Y346535D01*
X2698270Y346535D02*
X2704937Y349868D01*
X2704937Y349868D02*
X2708270Y353202D01*
X2708270Y353202D02*
X2711603Y359868D01*
X2711603Y359868D02*
X2711603Y366535D01*
X2711603Y366535D02*
X2708270Y373202D01*
X2708270Y373202D02*
X2704937Y376535D01*
X2704937Y376535D02*
X2698270Y379868D01*
X2698270Y379868D02*
X2684937Y383202D01*
X2684937Y383202D02*
X2668270Y383202D01*
X2668270Y383202D02*
X2654937Y379868D01*
X2654937Y379868D02*
X2648270Y376535D01*
X2648270Y376535D02*
X2644937Y373202D01*
X2644937Y373202D02*
X2641603Y366535D01*
X2379937Y483202D02*
X2376603Y489868D01*
X2376603Y489868D02*
X2376603Y499868D01*
X2376603Y499868D02*
X2379937Y509868D01*
X2379937Y509868D02*
X2386603Y516535D01*
X2386603Y516535D02*
X2393270Y519868D01*
X2393270Y519868D02*
X2406603Y523202D01*
X2406603Y523202D02*
X2416603Y523202D01*
X2416603Y523202D02*
X2429937Y519868D01*
X2429937Y519868D02*
X2436603Y516535D01*
X2436603Y516535D02*
X2443270Y509868D01*
X2443270Y509868D02*
X2446603Y499868D01*
X2446603Y499868D02*
X2446603Y493202D01*
X2446603Y493202D02*
X2443270Y483202D01*
X2443270Y483202D02*
X2439937Y479868D01*
X2439937Y479868D02*
X2416603Y479868D01*
X2416603Y479868D02*
X2416603Y493202D01*
X2446603Y449868D02*
X2376603Y449868D01*
X2376603Y449868D02*
X2376603Y423202D01*
X2376603Y423202D02*
X2379937Y416535D01*
X2379937Y416535D02*
X2383270Y413202D01*
X2383270Y413202D02*
X2389937Y409868D01*
X2389937Y409868D02*
X2399937Y409868D01*
X2399937Y409868D02*
X2406603Y413202D01*
X2406603Y413202D02*
X2409937Y416535D01*
X2409937Y416535D02*
X2413270Y423202D01*
X2413270Y423202D02*
X2413270Y449868D01*
X2446603Y376535D02*
X2446603Y363202D01*
X2446603Y363202D02*
X2443270Y356535D01*
X2443270Y356535D02*
X2439937Y353202D01*
X2439937Y353202D02*
X2429937Y346535D01*
X2429937Y346535D02*
X2416603Y343202D01*
X2416603Y343202D02*
X2389937Y343202D01*
X2389937Y343202D02*
X2383270Y346535D01*
X2383270Y346535D02*
X2379937Y349868D01*
X2379937Y349868D02*
X2376603Y356535D01*
X2376603Y356535D02*
X2376603Y369868D01*
X2376603Y369868D02*
X2379937Y376535D01*
X2379937Y376535D02*
X2383270Y379868D01*
X2383270Y379868D02*
X2389937Y383202D01*
X2389937Y383202D02*
X2406603Y383202D01*
X2406603Y383202D02*
X2413270Y379868D01*
X2413270Y379868D02*
X2416603Y376535D01*
X2416603Y376535D02*
X2419937Y369868D01*
X2419937Y369868D02*
X2419937Y356535D01*
X2419937Y356535D02*
X2416603Y349868D01*
X2416603Y349868D02*
X2413270Y346535D01*
X2413270Y346535D02*
X2406603Y343202D01*
X861603Y1778333D02*
X931603Y1755000D01*
X931603Y1755000D02*
X861603Y1731667D01*
X938270Y1725000D02*
X938270Y1671667D01*
X894937Y1655000D02*
X894937Y1631667D01*
X931603Y1621667D02*
X931603Y1655000D01*
X931603Y1655000D02*
X861603Y1655000D01*
X861603Y1655000D02*
X861603Y1621667D01*
X931603Y1591667D02*
X861603Y1591667D01*
X861603Y1591667D02*
X931603Y1551667D01*
X931603Y1551667D02*
X861603Y1551667D01*
X3654937Y1723333D02*
X3651603Y1730000D01*
X3651603Y1730000D02*
X3651603Y1740000D01*
X3651603Y1740000D02*
X3654937Y1750000D01*
X3654937Y1750000D02*
X3661603Y1756667D01*
X3661603Y1756667D02*
X3668270Y1760000D01*
X3668270Y1760000D02*
X3681603Y1763333D01*
X3681603Y1763333D02*
X3691603Y1763333D01*
X3691603Y1763333D02*
X3704937Y1760000D01*
X3704937Y1760000D02*
X3711603Y1756667D01*
X3711603Y1756667D02*
X3718270Y1750000D01*
X3718270Y1750000D02*
X3721603Y1740000D01*
X3721603Y1740000D02*
X3721603Y1733333D01*
X3721603Y1733333D02*
X3718270Y1723333D01*
X3718270Y1723333D02*
X3714937Y1720000D01*
X3714937Y1720000D02*
X3691603Y1720000D01*
X3691603Y1720000D02*
X3691603Y1733333D01*
X3721603Y1690000D02*
X3651603Y1690000D01*
X3651603Y1690000D02*
X3651603Y1663333D01*
X3651603Y1663333D02*
X3654937Y1656667D01*
X3654937Y1656667D02*
X3658270Y1653333D01*
X3658270Y1653333D02*
X3664937Y1650000D01*
X3664937Y1650000D02*
X3674937Y1650000D01*
X3674937Y1650000D02*
X3681603Y1653333D01*
X3681603Y1653333D02*
X3684937Y1656667D01*
X3684937Y1656667D02*
X3688270Y1663333D01*
X3688270Y1663333D02*
X3688270Y1690000D01*
X3658270Y1623333D02*
X3654937Y1620000D01*
X3654937Y1620000D02*
X3651603Y1613333D01*
X3651603Y1613333D02*
X3651603Y1596667D01*
X3651603Y1596667D02*
X3654937Y1590000D01*
X3654937Y1590000D02*
X3658270Y1586667D01*
X3658270Y1586667D02*
X3664937Y1583333D01*
X3664937Y1583333D02*
X3671603Y1583333D01*
X3671603Y1583333D02*
X3681603Y1586667D01*
X3681603Y1586667D02*
X3721603Y1626667D01*
X3721603Y1626667D02*
X3721603Y1583333D01*
X3651603Y1560000D02*
X3651603Y1516667D01*
X3651603Y1516667D02*
X3678270Y1540000D01*
X3678270Y1540000D02*
X3678270Y1530000D01*
X3678270Y1530000D02*
X3681603Y1523333D01*
X3681603Y1523333D02*
X3684937Y1520000D01*
X3684937Y1520000D02*
X3691603Y1516667D01*
X3691603Y1516667D02*
X3708270Y1516667D01*
X3708270Y1516667D02*
X3714937Y1520000D01*
X3714937Y1520000D02*
X3718270Y1523333D01*
X3718270Y1523333D02*
X3721603Y1530000D01*
X3721603Y1530000D02*
X3721603Y1550000D01*
X3721603Y1550000D02*
X3718270Y1556667D01*
X3718270Y1556667D02*
X3714937Y1560000D01*
X3914937Y539869D02*
X3911603Y546535D01*
X3911603Y546535D02*
X3911603Y556535D01*
X3911603Y556535D02*
X3914937Y566535D01*
X3914937Y566535D02*
X3921603Y573202D01*
X3921603Y573202D02*
X3928270Y576535D01*
X3928270Y576535D02*
X3941603Y579869D01*
X3941603Y579869D02*
X3951603Y579869D01*
X3951603Y579869D02*
X3964937Y576535D01*
X3964937Y576535D02*
X3971603Y573202D01*
X3971603Y573202D02*
X3978270Y566535D01*
X3978270Y566535D02*
X3981603Y556535D01*
X3981603Y556535D02*
X3981603Y549869D01*
X3981603Y549869D02*
X3978270Y539869D01*
X3978270Y539869D02*
X3974937Y536535D01*
X3974937Y536535D02*
X3951603Y536535D01*
X3951603Y536535D02*
X3951603Y549869D01*
X3981603Y506535D02*
X3911603Y506535D01*
X3911603Y506535D02*
X3911603Y479868D01*
X3911603Y479868D02*
X3914937Y473202D01*
X3914937Y473202D02*
X3918270Y469868D01*
X3918270Y469868D02*
X3924937Y466535D01*
X3924937Y466535D02*
X3934937Y466535D01*
X3934937Y466535D02*
X3941603Y469868D01*
X3941603Y469868D02*
X3944937Y473202D01*
X3944937Y473202D02*
X3948270Y479868D01*
X3948270Y479868D02*
X3948270Y506535D01*
X3981603Y399868D02*
X3981603Y439868D01*
X3981603Y419868D02*
X3911603Y419868D01*
X3911603Y419868D02*
X3921603Y426535D01*
X3921603Y426535D02*
X3928270Y433202D01*
X3928270Y433202D02*
X3931603Y439868D01*
X3911603Y336535D02*
X3911603Y369868D01*
X3911603Y369868D02*
X3944937Y373202D01*
X3944937Y373202D02*
X3941603Y369868D01*
X3941603Y369868D02*
X3938270Y363202D01*
X3938270Y363202D02*
X3938270Y346535D01*
X3938270Y346535D02*
X3941603Y339869D01*
X3941603Y339869D02*
X3944937Y336535D01*
X3944937Y336535D02*
X3951603Y333202D01*
X3951603Y333202D02*
X3968270Y333202D01*
X3968270Y333202D02*
X3974937Y336535D01*
X3974937Y336535D02*
X3978270Y339869D01*
X3978270Y339869D02*
X3981603Y346535D01*
X3981603Y346535D02*
X3981603Y363202D01*
X3981603Y363202D02*
X3978270Y369868D01*
X3978270Y369868D02*
X3974937Y373202D01*
X3654937Y549869D02*
X3651603Y556535D01*
X3651603Y556535D02*
X3651603Y566535D01*
X3651603Y566535D02*
X3654937Y576535D01*
X3654937Y576535D02*
X3661603Y583202D01*
X3661603Y583202D02*
X3668270Y586535D01*
X3668270Y586535D02*
X3681603Y589869D01*
X3681603Y589869D02*
X3691603Y589869D01*
X3691603Y589869D02*
X3704937Y586535D01*
X3704937Y586535D02*
X3711603Y583202D01*
X3711603Y583202D02*
X3718270Y576535D01*
X3718270Y576535D02*
X3721603Y566535D01*
X3721603Y566535D02*
X3721603Y559869D01*
X3721603Y559869D02*
X3718270Y549869D01*
X3718270Y549869D02*
X3714937Y546535D01*
X3714937Y546535D02*
X3691603Y546535D01*
X3691603Y546535D02*
X3691603Y559869D01*
X3721603Y516535D02*
X3651603Y516535D01*
X3651603Y516535D02*
X3651603Y489868D01*
X3651603Y489868D02*
X3654937Y483202D01*
X3654937Y483202D02*
X3658270Y479868D01*
X3658270Y479868D02*
X3664937Y476535D01*
X3664937Y476535D02*
X3674937Y476535D01*
X3674937Y476535D02*
X3681603Y479868D01*
X3681603Y479868D02*
X3684937Y483202D01*
X3684937Y483202D02*
X3688270Y489868D01*
X3688270Y489868D02*
X3688270Y516535D01*
X3721603Y409868D02*
X3721603Y449868D01*
X3721603Y429868D02*
X3651603Y429868D01*
X3651603Y429868D02*
X3661603Y436535D01*
X3661603Y436535D02*
X3668270Y443202D01*
X3668270Y443202D02*
X3671603Y449868D01*
X3674937Y349868D02*
X3721603Y349868D01*
X3648270Y366535D02*
X3698270Y383202D01*
X3698270Y383202D02*
X3698270Y339869D01*
X864937Y473202D02*
X861603Y479868D01*
X861603Y479868D02*
X861603Y489868D01*
X861603Y489868D02*
X864937Y499868D01*
X864937Y499868D02*
X871603Y506535D01*
X871603Y506535D02*
X878270Y509868D01*
X878270Y509868D02*
X891603Y513202D01*
X891603Y513202D02*
X901603Y513202D01*
X901603Y513202D02*
X914937Y509868D01*
X914937Y509868D02*
X921603Y506535D01*
X921603Y506535D02*
X928270Y499868D01*
X928270Y499868D02*
X931603Y489868D01*
X931603Y489868D02*
X931603Y483202D01*
X931603Y483202D02*
X928270Y473202D01*
X928270Y473202D02*
X924937Y469868D01*
X924937Y469868D02*
X901603Y469868D01*
X901603Y469868D02*
X901603Y483202D01*
X931603Y439868D02*
X861603Y439868D01*
X861603Y439868D02*
X861603Y413202D01*
X861603Y413202D02*
X864937Y406535D01*
X864937Y406535D02*
X868270Y403202D01*
X868270Y403202D02*
X874937Y399868D01*
X874937Y399868D02*
X884937Y399868D01*
X884937Y399868D02*
X891603Y403202D01*
X891603Y403202D02*
X894937Y406535D01*
X894937Y406535D02*
X898270Y413202D01*
X898270Y413202D02*
X898270Y439868D01*
X861603Y376535D02*
X861603Y333202D01*
X861603Y333202D02*
X888270Y356535D01*
X888270Y356535D02*
X888270Y346535D01*
X888270Y346535D02*
X891603Y339869D01*
X891603Y339869D02*
X894937Y336535D01*
X894937Y336535D02*
X901603Y333202D01*
X901603Y333202D02*
X918270Y333202D01*
X918270Y333202D02*
X924937Y336535D01*
X924937Y336535D02*
X928270Y339869D01*
X928270Y339869D02*
X931603Y346535D01*
X931603Y346535D02*
X931603Y366535D01*
X931603Y366535D02*
X928270Y373202D01*
X928270Y373202D02*
X924937Y376535D01*
D12*
%TO.C,kibuzzard-631DD76C*%
G36*
X4793447Y1002050D02*
G01*
X4793447Y1000827D01*
X4791669Y992993D01*
X4786780Y987881D01*
X4779390Y985103D01*
X4774903Y984478D01*
X4770000Y984270D01*
X4761332Y984936D01*
X4753887Y987270D01*
X4748720Y991826D01*
X4746775Y999271D01*
X4746830Y1001272D01*
X4747108Y1003272D01*
X4793336Y1003272D01*
X4793447Y1002050D01*
G37*
G36*
X4817469Y1129621D02*
G01*
X4817469Y970379D01*
X4817469Y956488D01*
X4722531Y956488D01*
X4722531Y970379D01*
X4722531Y1000494D01*
X4734885Y1000494D01*
X4735385Y994007D01*
X4736885Y988103D01*
X4739455Y982922D01*
X4743163Y978602D01*
X4748025Y975143D01*
X4754054Y972546D01*
X4761346Y970921D01*
X4770000Y970379D01*
X4778848Y970976D01*
X4786280Y972768D01*
X4792378Y975616D01*
X4797226Y979380D01*
X4800879Y984006D01*
X4803393Y989437D01*
X4804852Y995563D01*
X4805338Y1002272D01*
X4804949Y1009439D01*
X4803671Y1016940D01*
X4736551Y1016940D01*
X4735218Y1008161D01*
X4734885Y1000494D01*
X4722531Y1000494D01*
X4722531Y1063279D01*
X4735662Y1063279D01*
X4742330Y1063391D01*
X4749220Y1063502D01*
X4756207Y1063613D01*
X4763166Y1063724D01*
X4770028Y1063835D01*
X4776723Y1063946D01*
X4783127Y1064030D01*
X4789114Y1064057D01*
X4781335Y1061779D01*
X4773000Y1059335D01*
X4765444Y1057168D01*
X4759999Y1055612D01*
X4759999Y1045611D01*
X4765222Y1044277D01*
X4772111Y1042332D01*
X4780224Y1039999D01*
X4789114Y1037498D01*
X4783127Y1037526D01*
X4776723Y1037610D01*
X4770042Y1037721D01*
X4763221Y1037832D01*
X4756290Y1037943D01*
X4749275Y1038054D01*
X4742344Y1038137D01*
X4735662Y1038165D01*
X4735662Y1025497D01*
X4744233Y1025830D01*
X4753053Y1026164D01*
X4761971Y1026525D01*
X4770833Y1026942D01*
X4779598Y1027428D01*
X4788225Y1027997D01*
X4796559Y1028650D01*
X4804449Y1029386D01*
X4804449Y1040721D01*
X4797184Y1043166D01*
X4789391Y1045611D01*
X4781515Y1048055D01*
X4774001Y1050500D01*
X4781307Y1053000D01*
X4789225Y1055612D01*
X4797142Y1058168D01*
X4804449Y1060501D01*
X4804449Y1071836D01*
X4796545Y1072670D01*
X4788169Y1073392D01*
X4779501Y1074017D01*
X4770722Y1074559D01*
X4761860Y1075017D01*
X4752942Y1075392D01*
X4744150Y1075698D01*
X4735662Y1075948D01*
X4735662Y1063279D01*
X4722531Y1063279D01*
X4722531Y1105062D01*
X4734107Y1105062D01*
X4734468Y1099131D01*
X4735551Y1094006D01*
X4738774Y1086060D01*
X4749331Y1090061D01*
X4746664Y1096228D01*
X4745553Y1104062D01*
X4746429Y1110113D01*
X4749059Y1113743D01*
X4753442Y1114953D01*
X4756943Y1113841D01*
X4759610Y1111008D01*
X4761666Y1107118D01*
X4763333Y1102840D01*
X4766055Y1096117D01*
X4770056Y1089672D01*
X4776279Y1084838D01*
X4780487Y1083421D01*
X4785669Y1082949D01*
X4794239Y1084518D01*
X4800615Y1089227D01*
X4803547Y1094135D01*
X4805307Y1100488D01*
X4805893Y1108285D01*
X4805435Y1115981D01*
X4804060Y1121953D01*
X4800671Y1129621D01*
X4789558Y1125621D01*
X4792892Y1118453D01*
X4794059Y1113827D01*
X4794448Y1108285D01*
X4793725Y1102562D01*
X4791725Y1098951D01*
X4788836Y1097117D01*
X4785558Y1096617D01*
X4781779Y1097839D01*
X4778834Y1100951D01*
X4776501Y1105174D01*
X4774556Y1109841D01*
X4772000Y1116286D01*
X4768333Y1122342D01*
X4762832Y1126843D01*
X4754665Y1128621D01*
X4746053Y1127051D01*
X4739552Y1122342D01*
X4736527Y1117632D01*
X4734712Y1111872D01*
X4734107Y1105062D01*
X4722531Y1105062D01*
X4722531Y1129621D01*
X4722531Y1143512D01*
X4817469Y1143512D01*
X4817469Y1129621D01*
G37*
%TO.C,kibuzzard-661291DF*%
G36*
X387483Y1380388D02*
G01*
X370476Y1360119D01*
X349822Y1335506D01*
X302883Y1279565D01*
X294801Y1269934D01*
X277794Y1249666D01*
X182517Y1329612D01*
X187149Y1335132D01*
X217101Y1335132D01*
X277322Y1284601D01*
X285404Y1294232D01*
X281082Y1302638D01*
X276908Y1311197D01*
X272881Y1319910D01*
X268989Y1328784D01*
X265223Y1337830D01*
X261582Y1347047D01*
X301567Y1313495D01*
X310629Y1324294D01*
X250407Y1374825D01*
X242326Y1365194D01*
X244503Y1358725D01*
X247045Y1351950D01*
X249788Y1345068D01*
X252568Y1338280D01*
X255375Y1331697D01*
X258199Y1325431D01*
X260873Y1319727D01*
X263229Y1314829D01*
X226162Y1345931D01*
X217101Y1335132D01*
X187149Y1335132D01*
X199524Y1349881D01*
X225026Y1380272D01*
X260117Y1380272D01*
X272264Y1375386D01*
X274240Y1382680D01*
X278558Y1389999D01*
X286155Y1395892D01*
X294525Y1397075D01*
X303427Y1394248D01*
X307997Y1391470D01*
X312633Y1387932D01*
X318883Y1382043D01*
X323232Y1376459D01*
X325683Y1371180D01*
X325983Y1363758D01*
X322382Y1356873D01*
X320325Y1354620D01*
X318074Y1352530D01*
X296087Y1370979D01*
X286046Y1359013D01*
X316108Y1333788D01*
X323451Y1338983D01*
X328375Y1343369D01*
X333608Y1349111D01*
X337609Y1354893D01*
X340144Y1360951D01*
X341184Y1367229D01*
X340700Y1373665D01*
X338661Y1380225D01*
X335037Y1386872D01*
X329779Y1393522D01*
X322837Y1400093D01*
X315173Y1405654D01*
X307551Y1409438D01*
X300119Y1411571D01*
X293024Y1412178D01*
X286329Y1411288D01*
X280102Y1408929D01*
X274463Y1405247D01*
X269536Y1400387D01*
X264805Y1393664D01*
X261980Y1387827D01*
X260623Y1383246D01*
X260117Y1380272D01*
X225026Y1380272D01*
X275199Y1440066D01*
X292206Y1460334D01*
X387483Y1380388D01*
G37*
%TO.C,kibuzzard-6612913A*%
G36*
X326195Y1009028D02*
G01*
X330068Y1008711D01*
X330068Y983311D01*
X323718Y983311D01*
X317146Y984057D01*
X312415Y986295D01*
X309558Y990343D01*
X308605Y996519D01*
X309542Y1002377D01*
X312352Y1006234D01*
X316717Y1008377D01*
X322321Y1009092D01*
X326195Y1009028D01*
G37*
G36*
X391282Y1009028D02*
G01*
X393568Y1008711D01*
X393568Y955879D01*
X392171Y955752D01*
X390774Y955752D01*
X381821Y957784D01*
X375979Y963372D01*
X372804Y971817D01*
X372089Y976945D01*
X371851Y982549D01*
X372613Y992455D01*
X375280Y1000964D01*
X380487Y1006869D01*
X388996Y1009092D01*
X391282Y1009028D01*
G37*
G36*
X435648Y920996D02*
G01*
X409189Y920996D01*
X392425Y920996D01*
X330068Y920996D01*
X292603Y920996D01*
X266145Y920996D01*
X266145Y996392D01*
X292603Y996392D01*
X293528Y987862D01*
X296300Y981067D01*
X300922Y976008D01*
X307237Y972516D01*
X315089Y970420D01*
X324480Y969722D01*
X330068Y969722D01*
X330068Y943179D01*
X345689Y943179D01*
X345689Y982549D01*
X355976Y982549D01*
X356659Y972436D01*
X358707Y963943D01*
X361961Y956974D01*
X366263Y951434D01*
X371550Y947259D01*
X377757Y944385D01*
X384758Y942718D01*
X392425Y942163D01*
X400617Y942607D01*
X409189Y944068D01*
X409189Y1020776D01*
X399156Y1022300D01*
X390393Y1022681D01*
X382980Y1022109D01*
X376233Y1020395D01*
X370311Y1017458D01*
X365374Y1013219D01*
X361421Y1007663D01*
X358453Y1000773D01*
X356595Y992439D01*
X355976Y982549D01*
X345689Y982549D01*
X345689Y1020776D01*
X340546Y1021665D01*
X334767Y1022236D01*
X329052Y1022554D01*
X324099Y1022681D01*
X314857Y1021996D01*
X307110Y1019943D01*
X300858Y1016521D01*
X296272Y1011547D01*
X293521Y1004837D01*
X292603Y996392D01*
X266145Y996392D01*
X266145Y1043847D01*
X292603Y1043847D01*
X409189Y1043847D01*
X435648Y1043847D01*
X435648Y920996D01*
G37*
%TO.C,kibuzzard-661291DB*%
G36*
X297876Y727010D02*
G01*
X301678Y718429D01*
X298140Y711482D01*
X294115Y709265D01*
X290521Y709399D01*
X287262Y711307D01*
X284325Y714313D01*
X282055Y717216D01*
X280143Y720088D01*
X293958Y731680D01*
X297876Y727010D01*
G37*
G36*
X322844Y751193D02*
G01*
X325431Y748308D01*
X328437Y744033D01*
X330071Y739518D01*
X329525Y734833D01*
X326012Y730228D01*
X317411Y727735D01*
X309269Y733586D01*
X303881Y740007D01*
X320225Y753721D01*
X322844Y751193D01*
G37*
G36*
X293034Y840987D02*
G01*
X307156Y824156D01*
X351239Y771621D01*
X371076Y747980D01*
X388083Y727712D01*
X293973Y648745D01*
X276966Y669013D01*
X230644Y724217D01*
X260762Y724217D01*
X266026Y715869D01*
X272364Y707427D01*
X277901Y701545D01*
X283081Y697520D01*
X292411Y693909D01*
X300294Y694887D01*
X306671Y698746D01*
X310270Y702657D01*
X312505Y707205D01*
X313064Y717208D01*
X320008Y714268D01*
X326076Y713951D01*
X331345Y715574D01*
X335890Y718456D01*
X340501Y723112D01*
X343436Y727937D01*
X345069Y737845D01*
X344043Y742871D01*
X341896Y747949D01*
X338824Y753018D01*
X335024Y758015D01*
X331507Y761985D01*
X327648Y765917D01*
X323529Y769715D01*
X319232Y773279D01*
X260762Y724217D01*
X230644Y724217D01*
X198924Y762020D01*
X187028Y776197D01*
X215820Y776197D01*
X226432Y763550D01*
X232091Y767055D01*
X238749Y770900D01*
X246055Y774938D01*
X253657Y779016D01*
X261400Y783027D01*
X269127Y786858D01*
X276508Y790336D01*
X283212Y793288D01*
X279203Y787272D01*
X274490Y780664D01*
X269334Y773769D01*
X264000Y766889D01*
X258620Y760136D01*
X253329Y753624D01*
X248389Y747656D01*
X244065Y742535D01*
X254596Y729985D01*
X259682Y736470D01*
X265224Y743794D01*
X271075Y751812D01*
X277087Y760380D01*
X281140Y766351D01*
X285177Y772473D01*
X289196Y778747D01*
X293130Y785068D01*
X296908Y791333D01*
X300531Y797542D01*
X290164Y809898D01*
X280992Y806305D01*
X270823Y802124D01*
X263744Y799113D01*
X256729Y796046D01*
X249781Y792923D01*
X243012Y789804D01*
X236540Y786749D01*
X230364Y783759D01*
X222207Y779650D01*
X215820Y776197D01*
X187028Y776197D01*
X181917Y782288D01*
X276027Y861255D01*
X293034Y840987D01*
G37*
%TO.C,G\u002A\u002A\u002A*%
G36*
X2465752Y1356898D02*
G01*
X2470331Y1356892D01*
X2474041Y1356877D01*
X2476981Y1356847D01*
X2479253Y1356798D01*
X2480960Y1356724D01*
X2482201Y1356621D01*
X2483079Y1356484D01*
X2483696Y1356308D01*
X2484152Y1356088D01*
X2484549Y1355820D01*
X2484631Y1355758D01*
X2485898Y1354481D01*
X2486929Y1352956D01*
X2486973Y1352863D01*
X2487071Y1352591D01*
X2487162Y1352209D01*
X2487245Y1351679D01*
X2487321Y1350959D01*
X2487390Y1350008D01*
X2487453Y1348787D01*
X2487510Y1347255D01*
X2487561Y1345370D01*
X2487606Y1343093D01*
X2487647Y1340384D01*
X2487682Y1337200D01*
X2487713Y1333502D01*
X2487740Y1329250D01*
X2487762Y1324402D01*
X2487781Y1318919D01*
X2487797Y1312759D01*
X2487810Y1305883D01*
X2487820Y1298248D01*
X2487827Y1289816D01*
X2487833Y1280545D01*
X2487837Y1270395D01*
X2487839Y1259325D01*
X2487840Y1247295D01*
X2487841Y1234264D01*
X2487841Y1222699D01*
X2487840Y1210570D01*
X2487838Y1199406D01*
X2487835Y1189166D01*
X2487830Y1179810D01*
X2487824Y1171296D01*
X2487815Y1163585D01*
X2487803Y1156635D01*
X2487789Y1150405D01*
X2487771Y1144856D01*
X2487749Y1139947D01*
X2487724Y1135636D01*
X2487694Y1131883D01*
X2487660Y1128648D01*
X2487621Y1125889D01*
X2487577Y1123567D01*
X2487527Y1121640D01*
X2487472Y1120068D01*
X2487410Y1118811D01*
X2487341Y1117826D01*
X2487266Y1117075D01*
X2487184Y1116515D01*
X2487094Y1116107D01*
X2486996Y1115810D01*
X2486890Y1115584D01*
X2486831Y1115478D01*
X2485644Y1113998D01*
X2484164Y1112858D01*
X2483730Y1112650D01*
X2483121Y1112445D01*
X2482310Y1112282D01*
X2481192Y1112155D01*
X2479661Y1112060D01*
X2477613Y1111993D01*
X2474943Y1111948D01*
X2471547Y1111922D01*
X2467318Y1111910D01*
X2462153Y1111907D01*
X2461298Y1111907D01*
X2455997Y1111912D01*
X2451622Y1111934D01*
X2448075Y1111986D01*
X2445255Y1112080D01*
X2443062Y1112228D01*
X2441397Y1112443D01*
X2440160Y1112737D01*
X2439251Y1113121D01*
X2438570Y1113610D01*
X2438018Y1114214D01*
X2437494Y1114945D01*
X2437405Y1115098D01*
X2437307Y1115346D01*
X2437217Y1115707D01*
X2437134Y1116220D01*
X2437057Y1116925D01*
X2436988Y1117864D01*
X2436924Y1119076D01*
X2436867Y1120603D01*
X2436814Y1122484D01*
X2436767Y1124759D01*
X2436725Y1127470D01*
X2436687Y1130656D01*
X2436653Y1134359D01*
X2436622Y1138618D01*
X2436595Y1143474D01*
X2436570Y1148967D01*
X2436548Y1155138D01*
X2436529Y1162027D01*
X2436511Y1169674D01*
X2436494Y1178121D01*
X2436479Y1187407D01*
X2436464Y1197572D01*
X2436450Y1208658D01*
X2436435Y1220704D01*
X2436420Y1233752D01*
X2436412Y1240969D01*
X2436399Y1253479D01*
X2436387Y1265009D01*
X2436379Y1275601D01*
X2436372Y1285296D01*
X2436369Y1294132D01*
X2436368Y1302152D01*
X2436372Y1309395D01*
X2436378Y1315903D01*
X2436389Y1321714D01*
X2436404Y1326871D01*
X2436423Y1331413D01*
X2436447Y1335381D01*
X2436476Y1338815D01*
X2436511Y1341757D01*
X2436550Y1344245D01*
X2436596Y1346322D01*
X2436648Y1348027D01*
X2436706Y1349401D01*
X2436770Y1350484D01*
X2436842Y1351317D01*
X2436920Y1351940D01*
X2437006Y1352394D01*
X2437100Y1352719D01*
X2437201Y1352956D01*
X2437254Y1353057D01*
X2438322Y1354587D01*
X2439584Y1355820D01*
X2439854Y1356009D01*
X2440281Y1356244D01*
X2440835Y1356433D01*
X2441620Y1356582D01*
X2442735Y1356695D01*
X2444284Y1356777D01*
X2446366Y1356834D01*
X2449084Y1356869D01*
X2452539Y1356889D01*
X2456833Y1356897D01*
X2462067Y1356898D01*
X2465752Y1356898D01*
G37*
G36*
X3237437Y1356898D02*
G01*
X3242017Y1356892D01*
X3245726Y1356877D01*
X3248666Y1356847D01*
X3250938Y1356798D01*
X3252645Y1356724D01*
X3253886Y1356621D01*
X3254764Y1356484D01*
X3255381Y1356308D01*
X3255837Y1356088D01*
X3256234Y1355820D01*
X3256316Y1355758D01*
X3257583Y1354481D01*
X3258614Y1352956D01*
X3258658Y1352863D01*
X3258756Y1352591D01*
X3258847Y1352209D01*
X3258930Y1351679D01*
X3259006Y1350959D01*
X3259075Y1350008D01*
X3259138Y1348787D01*
X3259195Y1347255D01*
X3259246Y1345370D01*
X3259291Y1343093D01*
X3259332Y1340384D01*
X3259367Y1337200D01*
X3259398Y1333502D01*
X3259425Y1329250D01*
X3259447Y1324402D01*
X3259466Y1318919D01*
X3259482Y1312759D01*
X3259495Y1305883D01*
X3259505Y1298248D01*
X3259512Y1289816D01*
X3259518Y1280545D01*
X3259522Y1270395D01*
X3259524Y1259325D01*
X3259525Y1247295D01*
X3259526Y1234264D01*
X3259526Y1222699D01*
X3259525Y1210570D01*
X3259523Y1199406D01*
X3259520Y1189166D01*
X3259515Y1179810D01*
X3259509Y1171296D01*
X3259500Y1163585D01*
X3259488Y1156635D01*
X3259474Y1150405D01*
X3259456Y1144856D01*
X3259434Y1139947D01*
X3259409Y1135636D01*
X3259380Y1131883D01*
X3259345Y1128648D01*
X3259306Y1125889D01*
X3259262Y1123567D01*
X3259212Y1121640D01*
X3259157Y1120068D01*
X3259095Y1118811D01*
X3259026Y1117826D01*
X3258951Y1117075D01*
X3258869Y1116515D01*
X3258779Y1116107D01*
X3258681Y1115810D01*
X3258575Y1115584D01*
X3258516Y1115478D01*
X3257329Y1113998D01*
X3255849Y1112858D01*
X3255415Y1112650D01*
X3254806Y1112445D01*
X3253995Y1112282D01*
X3252877Y1112155D01*
X3251346Y1112060D01*
X3249298Y1111993D01*
X3246628Y1111948D01*
X3243232Y1111922D01*
X3239003Y1111910D01*
X3233838Y1111907D01*
X3232983Y1111907D01*
X3227682Y1111912D01*
X3223307Y1111934D01*
X3219760Y1111986D01*
X3216940Y1112080D01*
X3214747Y1112228D01*
X3213082Y1112443D01*
X3211845Y1112737D01*
X3210936Y1113121D01*
X3210255Y1113610D01*
X3209703Y1114214D01*
X3209179Y1114945D01*
X3209090Y1115098D01*
X3208992Y1115346D01*
X3208902Y1115707D01*
X3208819Y1116220D01*
X3208742Y1116925D01*
X3208673Y1117864D01*
X3208609Y1119076D01*
X3208552Y1120603D01*
X3208499Y1122484D01*
X3208452Y1124759D01*
X3208410Y1127470D01*
X3208372Y1130656D01*
X3208338Y1134359D01*
X3208307Y1138618D01*
X3208280Y1143474D01*
X3208255Y1148967D01*
X3208233Y1155138D01*
X3208214Y1162027D01*
X3208196Y1169674D01*
X3208179Y1178121D01*
X3208164Y1187407D01*
X3208149Y1197572D01*
X3208135Y1208658D01*
X3208120Y1220704D01*
X3208105Y1233752D01*
X3208097Y1240969D01*
X3208084Y1253479D01*
X3208072Y1265009D01*
X3208064Y1275601D01*
X3208057Y1285296D01*
X3208054Y1294132D01*
X3208053Y1302152D01*
X3208057Y1309395D01*
X3208063Y1315903D01*
X3208074Y1321714D01*
X3208089Y1326871D01*
X3208108Y1331413D01*
X3208132Y1335381D01*
X3208161Y1338815D01*
X3208196Y1341757D01*
X3208235Y1344245D01*
X3208281Y1346322D01*
X3208333Y1348027D01*
X3208391Y1349401D01*
X3208455Y1350484D01*
X3208527Y1351317D01*
X3208605Y1351940D01*
X3208691Y1352394D01*
X3208785Y1352719D01*
X3208886Y1352956D01*
X3208939Y1353057D01*
X3210007Y1354587D01*
X3211269Y1355820D01*
X3211539Y1356009D01*
X3211966Y1356244D01*
X3212520Y1356433D01*
X3213305Y1356582D01*
X3214420Y1356695D01*
X3215969Y1356777D01*
X3218051Y1356834D01*
X3220769Y1356869D01*
X3224224Y1356889D01*
X3228518Y1356897D01*
X3233752Y1356898D01*
X3237437Y1356898D01*
G37*
G36*
X1529537Y1357157D02*
G01*
X1539206Y1357155D01*
X1547931Y1357152D01*
X1555762Y1357145D01*
X1562748Y1357136D01*
X1568939Y1357123D01*
X1574385Y1357106D01*
X1579136Y1357084D01*
X1583240Y1357056D01*
X1586749Y1357023D01*
X1589712Y1356984D01*
X1592178Y1356937D01*
X1594197Y1356883D01*
X1595820Y1356821D01*
X1597095Y1356750D01*
X1598072Y1356670D01*
X1598802Y1356581D01*
X1599334Y1356480D01*
X1599717Y1356369D01*
X1600002Y1356247D01*
X1600102Y1356194D01*
X1601632Y1355128D01*
X1602866Y1353866D01*
X1602978Y1353709D01*
X1603256Y1353251D01*
X1603474Y1352685D01*
X1603641Y1351894D01*
X1603763Y1350762D01*
X1603847Y1349173D01*
X1603900Y1347008D01*
X1603929Y1344153D01*
X1603942Y1340490D01*
X1603944Y1335901D01*
X1603942Y1332046D01*
X1603928Y1328192D01*
X1603896Y1325170D01*
X1603842Y1322863D01*
X1603757Y1321156D01*
X1603637Y1319934D01*
X1603475Y1319081D01*
X1603266Y1318481D01*
X1603002Y1318020D01*
X1602826Y1317764D01*
X1602345Y1317139D01*
X1601794Y1316615D01*
X1601085Y1316184D01*
X1600130Y1315836D01*
X1598841Y1315563D01*
X1597128Y1315355D01*
X1594904Y1315203D01*
X1592080Y1315100D01*
X1588569Y1315035D01*
X1584281Y1314999D01*
X1579128Y1314984D01*
X1573022Y1314982D01*
X1568789Y1314981D01*
X1563745Y1314977D01*
X1559583Y1314965D01*
X1556213Y1314942D01*
X1553544Y1314905D01*
X1551482Y1314848D01*
X1549936Y1314769D01*
X1548816Y1314664D01*
X1548027Y1314529D01*
X1547480Y1314360D01*
X1547082Y1314153D01*
X1546741Y1313906D01*
X1545373Y1312829D01*
X1545239Y1214749D01*
X1545105Y1116669D01*
X1544026Y1115199D01*
X1543964Y1115116D01*
X1542687Y1113850D01*
X1541162Y1112819D01*
X1540866Y1112680D01*
X1540259Y1112471D01*
X1539450Y1112304D01*
X1538335Y1112172D01*
X1536808Y1112073D01*
X1534765Y1112002D01*
X1532101Y1111954D01*
X1528710Y1111926D01*
X1524488Y1111912D01*
X1519330Y1111908D01*
X1517619Y1111908D01*
X1512441Y1111915D01*
X1508178Y1111944D01*
X1504730Y1112007D01*
X1502000Y1112122D01*
X1499890Y1112301D01*
X1498300Y1112559D01*
X1497133Y1112911D01*
X1496291Y1113372D01*
X1495674Y1113956D01*
X1495186Y1114678D01*
X1494727Y1115551D01*
X1494699Y1115610D01*
X1494590Y1115893D01*
X1494491Y1116281D01*
X1494401Y1116820D01*
X1494319Y1117552D01*
X1494245Y1118524D01*
X1494179Y1119780D01*
X1494119Y1121363D01*
X1494067Y1123320D01*
X1494021Y1125694D01*
X1493981Y1128530D01*
X1493946Y1131872D01*
X1493917Y1135766D01*
X1493892Y1140255D01*
X1493872Y1145384D01*
X1493856Y1151199D01*
X1493843Y1157742D01*
X1493833Y1165060D01*
X1493826Y1173196D01*
X1493821Y1182196D01*
X1493818Y1192103D01*
X1493816Y1202962D01*
X1493816Y1214818D01*
X1493816Y1216368D01*
X1493816Y1228070D01*
X1493814Y1238780D01*
X1493812Y1248544D01*
X1493808Y1257405D01*
X1493802Y1265408D01*
X1493793Y1272598D01*
X1493782Y1279019D01*
X1493767Y1284716D01*
X1493748Y1289733D01*
X1493724Y1294114D01*
X1493696Y1297905D01*
X1493663Y1301149D01*
X1493623Y1303891D01*
X1493578Y1306175D01*
X1493526Y1308047D01*
X1493467Y1309550D01*
X1493401Y1310730D01*
X1493327Y1311629D01*
X1493244Y1312294D01*
X1493152Y1312768D01*
X1493052Y1313096D01*
X1492941Y1313323D01*
X1492820Y1313492D01*
X1491825Y1314721D01*
X1465353Y1314982D01*
X1463285Y1315002D01*
X1457645Y1315061D01*
X1452929Y1315119D01*
X1449049Y1315179D01*
X1445916Y1315244D01*
X1443442Y1315319D01*
X1441539Y1315407D01*
X1440118Y1315513D01*
X1439092Y1315639D01*
X1438371Y1315791D01*
X1437868Y1315971D01*
X1437494Y1316184D01*
X1437021Y1316517D01*
X1436295Y1317136D01*
X1435720Y1317875D01*
X1435278Y1318849D01*
X1434953Y1320172D01*
X1434727Y1321961D01*
X1434581Y1324329D01*
X1434499Y1327394D01*
X1434463Y1331269D01*
X1434455Y1336070D01*
X1434461Y1340712D01*
X1434493Y1344654D01*
X1434574Y1347775D01*
X1434724Y1350188D01*
X1434966Y1352004D01*
X1435322Y1353338D01*
X1435813Y1354301D01*
X1436460Y1355007D01*
X1437286Y1355567D01*
X1438312Y1356094D01*
X1438367Y1356121D01*
X1438675Y1356261D01*
X1439020Y1356388D01*
X1439452Y1356503D01*
X1440021Y1356606D01*
X1440777Y1356697D01*
X1441771Y1356778D01*
X1443053Y1356848D01*
X1444673Y1356910D01*
X1446682Y1356962D01*
X1449129Y1357007D01*
X1452065Y1357044D01*
X1455540Y1357075D01*
X1459605Y1357099D01*
X1464309Y1357119D01*
X1469703Y1357133D01*
X1475836Y1357143D01*
X1482760Y1357150D01*
X1490525Y1357155D01*
X1499180Y1357157D01*
X1508776Y1357158D01*
X1519364Y1357158D01*
X1529537Y1357157D01*
G37*
G36*
X1933084Y1357157D02*
G01*
X1942753Y1357155D01*
X1951478Y1357152D01*
X1959309Y1357145D01*
X1966295Y1357136D01*
X1972486Y1357123D01*
X1977932Y1357106D01*
X1982682Y1357084D01*
X1986787Y1357056D01*
X1990296Y1357023D01*
X1993258Y1356984D01*
X1995725Y1356937D01*
X1997744Y1356883D01*
X1999366Y1356821D01*
X2000641Y1356750D01*
X2001619Y1356670D01*
X2002349Y1356581D01*
X2002880Y1356480D01*
X2003264Y1356369D01*
X2003548Y1356247D01*
X2003649Y1356194D01*
X2005179Y1355128D01*
X2006412Y1353866D01*
X2006525Y1353709D01*
X2006802Y1353251D01*
X2007021Y1352685D01*
X2007188Y1351894D01*
X2007309Y1350762D01*
X2007393Y1349173D01*
X2007446Y1347008D01*
X2007476Y1344153D01*
X2007488Y1340490D01*
X2007491Y1335901D01*
X2007488Y1332046D01*
X2007474Y1328192D01*
X2007443Y1325170D01*
X2007388Y1322863D01*
X2007304Y1321156D01*
X2007184Y1319934D01*
X2007022Y1319081D01*
X2006812Y1318481D01*
X2006549Y1318020D01*
X2006372Y1317764D01*
X2005891Y1317139D01*
X2005341Y1316615D01*
X2004632Y1316184D01*
X2003677Y1315836D01*
X2002387Y1315563D01*
X2000675Y1315355D01*
X1998451Y1315203D01*
X1995627Y1315100D01*
X1992115Y1315035D01*
X1987827Y1314999D01*
X1982674Y1314984D01*
X1976568Y1314982D01*
X1972336Y1314981D01*
X1967291Y1314977D01*
X1963130Y1314965D01*
X1959760Y1314942D01*
X1957090Y1314905D01*
X1955028Y1314848D01*
X1953483Y1314769D01*
X1952362Y1314664D01*
X1951574Y1314529D01*
X1951027Y1314360D01*
X1950628Y1314153D01*
X1950287Y1313906D01*
X1948919Y1312829D01*
X1948785Y1214749D01*
X1948651Y1116669D01*
X1947573Y1115199D01*
X1947510Y1115116D01*
X1946234Y1113850D01*
X1944709Y1112819D01*
X1944413Y1112680D01*
X1943805Y1112471D01*
X1942996Y1112304D01*
X1941881Y1112172D01*
X1940354Y1112073D01*
X1938312Y1112002D01*
X1935647Y1111954D01*
X1932257Y1111926D01*
X1928035Y1111912D01*
X1922876Y1111908D01*
X1921166Y1111908D01*
X1915988Y1111915D01*
X1911725Y1111944D01*
X1908277Y1112007D01*
X1905547Y1112122D01*
X1903436Y1112301D01*
X1901847Y1112559D01*
X1900680Y1112911D01*
X1899837Y1113372D01*
X1899221Y1113956D01*
X1898733Y1114678D01*
X1898274Y1115551D01*
X1898245Y1115610D01*
X1898137Y1115893D01*
X1898038Y1116281D01*
X1897947Y1116820D01*
X1897865Y1117552D01*
X1897792Y1118524D01*
X1897725Y1119780D01*
X1897666Y1121363D01*
X1897614Y1123320D01*
X1897568Y1125694D01*
X1897527Y1128530D01*
X1897493Y1131872D01*
X1897464Y1135766D01*
X1897439Y1140255D01*
X1897419Y1145384D01*
X1897402Y1151199D01*
X1897389Y1157742D01*
X1897379Y1165060D01*
X1897372Y1173196D01*
X1897367Y1182196D01*
X1897364Y1192103D01*
X1897363Y1202962D01*
X1897362Y1214818D01*
X1897362Y1216368D01*
X1897362Y1228070D01*
X1897361Y1238780D01*
X1897359Y1248544D01*
X1897355Y1257405D01*
X1897348Y1265408D01*
X1897340Y1272598D01*
X1897328Y1279019D01*
X1897313Y1284716D01*
X1897294Y1289733D01*
X1897271Y1294114D01*
X1897243Y1297905D01*
X1897209Y1301149D01*
X1897170Y1303891D01*
X1897125Y1306175D01*
X1897073Y1308047D01*
X1897014Y1309550D01*
X1896948Y1310730D01*
X1896873Y1311629D01*
X1896790Y1312294D01*
X1896699Y1312768D01*
X1896598Y1313096D01*
X1896487Y1313323D01*
X1896367Y1313492D01*
X1895372Y1314721D01*
X1868899Y1314982D01*
X1866832Y1315002D01*
X1861192Y1315061D01*
X1856476Y1315119D01*
X1852595Y1315179D01*
X1849462Y1315244D01*
X1846988Y1315319D01*
X1845085Y1315407D01*
X1843665Y1315513D01*
X1842638Y1315639D01*
X1841917Y1315791D01*
X1841414Y1315971D01*
X1841040Y1316184D01*
X1840568Y1316517D01*
X1839841Y1317136D01*
X1839266Y1317875D01*
X1838825Y1318849D01*
X1838500Y1320172D01*
X1838273Y1321961D01*
X1838128Y1324329D01*
X1838046Y1327394D01*
X1838009Y1331269D01*
X1838001Y1336070D01*
X1838007Y1340712D01*
X1838039Y1344654D01*
X1838120Y1347775D01*
X1838271Y1350188D01*
X1838513Y1352004D01*
X1838869Y1353338D01*
X1839359Y1354301D01*
X1840007Y1355007D01*
X1840833Y1355567D01*
X1841859Y1356094D01*
X1841914Y1356121D01*
X1842222Y1356261D01*
X1842567Y1356388D01*
X1842998Y1356503D01*
X1843567Y1356606D01*
X1844324Y1356697D01*
X1845318Y1356778D01*
X1846600Y1356848D01*
X1848220Y1356910D01*
X1850228Y1356962D01*
X1852676Y1357007D01*
X1855612Y1357044D01*
X1859087Y1357075D01*
X1863151Y1357099D01*
X1867855Y1357119D01*
X1873249Y1357133D01*
X1879383Y1357143D01*
X1886307Y1357150D01*
X1894072Y1357155D01*
X1902727Y1357157D01*
X1912323Y1357158D01*
X1922910Y1357158D01*
X1933084Y1357157D01*
G37*
G36*
X2328820Y1357157D02*
G01*
X2338489Y1357155D01*
X2347214Y1357152D01*
X2355045Y1357145D01*
X2362031Y1357136D01*
X2368222Y1357123D01*
X2373668Y1357106D01*
X2378418Y1357084D01*
X2382523Y1357056D01*
X2386032Y1357023D01*
X2388995Y1356984D01*
X2391461Y1356937D01*
X2393480Y1356883D01*
X2395102Y1356821D01*
X2396377Y1356750D01*
X2397355Y1356670D01*
X2398085Y1356581D01*
X2398616Y1356480D01*
X2399000Y1356369D01*
X2399285Y1356247D01*
X2399385Y1356194D01*
X2400915Y1355128D01*
X2402148Y1353866D01*
X2402261Y1353709D01*
X2402538Y1353251D01*
X2402757Y1352685D01*
X2402924Y1351894D01*
X2403045Y1350762D01*
X2403129Y1349173D01*
X2403183Y1347008D01*
X2403212Y1344153D01*
X2403224Y1340490D01*
X2403227Y1335901D01*
X2403224Y1332046D01*
X2403210Y1328192D01*
X2403179Y1325170D01*
X2403124Y1322863D01*
X2403040Y1321156D01*
X2402920Y1319934D01*
X2402758Y1319081D01*
X2402548Y1318481D01*
X2402285Y1318020D01*
X2402108Y1317764D01*
X2401627Y1317139D01*
X2401077Y1316615D01*
X2400368Y1316184D01*
X2399413Y1315836D01*
X2398123Y1315563D01*
X2396411Y1315355D01*
X2394187Y1315203D01*
X2391363Y1315100D01*
X2387851Y1315035D01*
X2383563Y1314999D01*
X2378410Y1314984D01*
X2372305Y1314982D01*
X2368072Y1314981D01*
X2363027Y1314977D01*
X2358866Y1314965D01*
X2355496Y1314942D01*
X2352826Y1314905D01*
X2350764Y1314848D01*
X2349219Y1314769D01*
X2348098Y1314664D01*
X2347310Y1314529D01*
X2346763Y1314360D01*
X2346364Y1314153D01*
X2346024Y1313906D01*
X2344656Y1312829D01*
X2344521Y1214749D01*
X2344387Y1116669D01*
X2343309Y1115199D01*
X2343246Y1115116D01*
X2341970Y1113850D01*
X2340445Y1112819D01*
X2340149Y1112680D01*
X2339541Y1112471D01*
X2338732Y1112304D01*
X2337617Y1112172D01*
X2336091Y1112073D01*
X2334048Y1112002D01*
X2331383Y1111954D01*
X2327993Y1111926D01*
X2323771Y1111912D01*
X2318612Y1111908D01*
X2316902Y1111908D01*
X2311724Y1111915D01*
X2307461Y1111944D01*
X2304013Y1112007D01*
X2301283Y1112122D01*
X2299172Y1112301D01*
X2297583Y1112559D01*
X2296416Y1112911D01*
X2295573Y1113372D01*
X2294957Y1113956D01*
X2294469Y1114678D01*
X2294010Y1115551D01*
X2293981Y1115610D01*
X2293873Y1115893D01*
X2293774Y1116281D01*
X2293683Y1116820D01*
X2293602Y1117552D01*
X2293528Y1118524D01*
X2293461Y1119780D01*
X2293402Y1121363D01*
X2293350Y1123320D01*
X2293304Y1125694D01*
X2293264Y1128530D01*
X2293229Y1131872D01*
X2293200Y1135766D01*
X2293175Y1140255D01*
X2293155Y1145384D01*
X2293138Y1151199D01*
X2293125Y1157742D01*
X2293116Y1165060D01*
X2293108Y1173196D01*
X2293104Y1182196D01*
X2293101Y1192103D01*
X2293099Y1202962D01*
X2293098Y1214818D01*
X2293098Y1216368D01*
X2293098Y1228070D01*
X2293097Y1238780D01*
X2293095Y1248544D01*
X2293091Y1257405D01*
X2293085Y1265408D01*
X2293076Y1272598D01*
X2293064Y1279019D01*
X2293049Y1284716D01*
X2293030Y1289733D01*
X2293007Y1294114D01*
X2292979Y1297905D01*
X2292945Y1301149D01*
X2292906Y1303891D01*
X2292861Y1306175D01*
X2292809Y1308047D01*
X2292750Y1309550D01*
X2292684Y1310730D01*
X2292609Y1311629D01*
X2292527Y1312294D01*
X2292435Y1312768D01*
X2292334Y1313096D01*
X2292224Y1313323D01*
X2292103Y1313492D01*
X2291108Y1314721D01*
X2264636Y1314982D01*
X2262568Y1315002D01*
X2256928Y1315061D01*
X2252212Y1315119D01*
X2248331Y1315179D01*
X2245198Y1315244D01*
X2242724Y1315319D01*
X2240821Y1315407D01*
X2239401Y1315513D01*
X2238374Y1315639D01*
X2237654Y1315791D01*
X2237150Y1315971D01*
X2236776Y1316184D01*
X2236304Y1316517D01*
X2235577Y1317136D01*
X2235002Y1317875D01*
X2234561Y1318849D01*
X2234236Y1320172D01*
X2234009Y1321961D01*
X2233864Y1324329D01*
X2233782Y1327394D01*
X2233745Y1331269D01*
X2233737Y1336070D01*
X2233743Y1340712D01*
X2233775Y1344654D01*
X2233856Y1347775D01*
X2234007Y1350188D01*
X2234249Y1352004D01*
X2234605Y1353338D01*
X2235095Y1354301D01*
X2235743Y1355007D01*
X2236569Y1355567D01*
X2237595Y1356094D01*
X2237650Y1356121D01*
X2237958Y1356261D01*
X2238303Y1356388D01*
X2238734Y1356503D01*
X2239303Y1356606D01*
X2240060Y1356697D01*
X2241054Y1356778D01*
X2242336Y1356848D01*
X2243956Y1356910D01*
X2245965Y1356962D01*
X2248412Y1357007D01*
X2251348Y1357044D01*
X2254823Y1357075D01*
X2258887Y1357099D01*
X2263591Y1357119D01*
X2268985Y1357133D01*
X2275119Y1357143D01*
X2282043Y1357150D01*
X2289808Y1357155D01*
X2298463Y1357157D01*
X2308059Y1357158D01*
X2318646Y1357158D01*
X2328820Y1357157D01*
G37*
G36*
X1801589Y1199686D02*
G01*
X1804258Y1190088D01*
X1806814Y1180899D01*
X1809243Y1172162D01*
X1811532Y1163924D01*
X1813669Y1156231D01*
X1815642Y1149129D01*
X1817437Y1142663D01*
X1819042Y1136880D01*
X1820444Y1131825D01*
X1821630Y1127544D01*
X1822588Y1124083D01*
X1823304Y1121487D01*
X1823767Y1119803D01*
X1823963Y1119077D01*
X1823971Y1119043D01*
X1824331Y1116503D01*
X1823946Y1114535D01*
X1822780Y1112947D01*
X1822689Y1112864D01*
X1822381Y1112622D01*
X1821982Y1112425D01*
X1821397Y1112268D01*
X1820531Y1112147D01*
X1819289Y1112059D01*
X1817576Y1112001D01*
X1815296Y1111968D01*
X1812355Y1111958D01*
X1808658Y1111965D01*
X1804110Y1111988D01*
X1798615Y1112021D01*
X1775600Y1112167D01*
X1774254Y1113432D01*
X1774021Y1113651D01*
X1773697Y1113983D01*
X1773395Y1114382D01*
X1773088Y1114932D01*
X1772751Y1115720D01*
X1772355Y1116830D01*
X1771875Y1118348D01*
X1771284Y1120359D01*
X1770556Y1122950D01*
X1769663Y1126204D01*
X1768580Y1130208D01*
X1767279Y1135047D01*
X1765735Y1140806D01*
X1760151Y1161634D01*
X1721012Y1161767D01*
X1681873Y1161901D01*
X1681337Y1160205D01*
X1681193Y1159719D01*
X1680764Y1158196D01*
X1680131Y1155895D01*
X1679331Y1152959D01*
X1678402Y1149530D01*
X1677382Y1145750D01*
X1676311Y1141762D01*
X1675225Y1137709D01*
X1674163Y1133732D01*
X1673164Y1129973D01*
X1672264Y1126576D01*
X1671504Y1123683D01*
X1670920Y1121436D01*
X1670551Y1119977D01*
X1670015Y1117983D01*
X1669433Y1116140D01*
X1668947Y1114909D01*
X1668652Y1114341D01*
X1668261Y1113741D01*
X1667758Y1113248D01*
X1667049Y1112852D01*
X1666042Y1112544D01*
X1664643Y1112310D01*
X1662760Y1112143D01*
X1660300Y1112029D01*
X1657171Y1111959D01*
X1653278Y1111923D01*
X1648530Y1111909D01*
X1642833Y1111907D01*
X1642439Y1111907D01*
X1637095Y1111908D01*
X1632689Y1111916D01*
X1629122Y1111934D01*
X1626298Y1111967D01*
X1624118Y1112019D01*
X1622486Y1112095D01*
X1621302Y1112199D01*
X1620471Y1112336D01*
X1619895Y1112509D01*
X1619475Y1112725D01*
X1619115Y1112986D01*
X1618372Y1113691D01*
X1617871Y1114768D01*
X1617743Y1116425D01*
X1617787Y1116744D01*
X1618085Y1118091D01*
X1618662Y1120422D01*
X1619514Y1123727D01*
X1620640Y1127994D01*
X1622035Y1133212D01*
X1623697Y1139370D01*
X1625623Y1146457D01*
X1627809Y1154461D01*
X1630253Y1163371D01*
X1632951Y1173177D01*
X1635901Y1183866D01*
X1639099Y1195428D01*
X1640808Y1201596D01*
X1691270Y1201596D01*
X1691423Y1201453D01*
X1692021Y1201331D01*
X1693130Y1201229D01*
X1694815Y1201145D01*
X1697144Y1201079D01*
X1700182Y1201027D01*
X1703997Y1200990D01*
X1708653Y1200965D01*
X1714218Y1200951D01*
X1720759Y1200947D01*
X1750467Y1200947D01*
X1749746Y1203420D01*
X1749666Y1203707D01*
X1749313Y1205014D01*
X1748723Y1207220D01*
X1747916Y1210253D01*
X1746911Y1214042D01*
X1745728Y1218514D01*
X1744384Y1223595D01*
X1742900Y1229214D01*
X1741294Y1235299D01*
X1739586Y1241777D01*
X1737796Y1248575D01*
X1735941Y1255621D01*
X1735682Y1256603D01*
X1733434Y1265146D01*
X1731435Y1272744D01*
X1729669Y1279451D01*
X1728122Y1285324D01*
X1726777Y1290416D01*
X1725619Y1294784D01*
X1724634Y1298483D01*
X1723806Y1301569D01*
X1723119Y1304095D01*
X1722559Y1306119D01*
X1722109Y1307695D01*
X1721756Y1308878D01*
X1721482Y1309724D01*
X1721274Y1310288D01*
X1721116Y1310626D01*
X1720992Y1310792D01*
X1720888Y1310842D01*
X1720787Y1310832D01*
X1720675Y1310816D01*
X1720653Y1310799D01*
X1720378Y1310120D01*
X1719856Y1308477D01*
X1719098Y1305908D01*
X1718115Y1302450D01*
X1716916Y1298141D01*
X1715512Y1293019D01*
X1713913Y1287121D01*
X1712129Y1280486D01*
X1710171Y1273151D01*
X1708050Y1265154D01*
X1705776Y1256532D01*
X1705683Y1256182D01*
X1703760Y1248876D01*
X1701910Y1241851D01*
X1700151Y1235174D01*
X1698499Y1228910D01*
X1696974Y1223126D01*
X1695591Y1217887D01*
X1694368Y1213259D01*
X1693323Y1209308D01*
X1692474Y1206101D01*
X1691837Y1203703D01*
X1691430Y1202180D01*
X1691270Y1201598D01*
X1691270Y1201596D01*
X1640808Y1201596D01*
X1642542Y1207851D01*
X1646227Y1221125D01*
X1650152Y1235238D01*
X1682562Y1351691D01*
X1684713Y1353852D01*
X1685382Y1354509D01*
X1686054Y1355091D01*
X1686790Y1355583D01*
X1687672Y1355992D01*
X1688780Y1356325D01*
X1690197Y1356590D01*
X1692003Y1356793D01*
X1694281Y1356941D01*
X1697112Y1357041D01*
X1700576Y1357100D01*
X1704756Y1357124D01*
X1709733Y1357122D01*
X1715589Y1357099D01*
X1722405Y1357063D01*
X1752345Y1356898D01*
X1754805Y1355453D01*
X1756884Y1353863D01*
X1758572Y1351775D01*
X1758596Y1351729D01*
X1758935Y1350827D01*
X1759536Y1348959D01*
X1760401Y1346123D01*
X1761530Y1342316D01*
X1762924Y1337535D01*
X1764583Y1331777D01*
X1766510Y1325040D01*
X1768703Y1317320D01*
X1771165Y1308615D01*
X1773896Y1298923D01*
X1776896Y1288239D01*
X1780167Y1276562D01*
X1783710Y1263889D01*
X1787525Y1250216D01*
X1791612Y1235542D01*
X1793026Y1230463D01*
X1795960Y1219919D01*
X1798819Y1209644D01*
X1801238Y1200947D01*
X1801589Y1199686D01*
G37*
G36*
X2578566Y1357071D02*
G01*
X2581629Y1356994D01*
X2584037Y1356858D01*
X2585889Y1356649D01*
X2587284Y1356358D01*
X2588319Y1355972D01*
X2589093Y1355481D01*
X2589703Y1354873D01*
X2590248Y1354138D01*
X2590364Y1353938D01*
X2590473Y1353655D01*
X2590573Y1353249D01*
X2590664Y1352674D01*
X2590747Y1351884D01*
X2590822Y1350834D01*
X2590890Y1349476D01*
X2590952Y1347767D01*
X2591007Y1345658D01*
X2591057Y1343105D01*
X2591103Y1340062D01*
X2591144Y1336482D01*
X2591182Y1332321D01*
X2591217Y1327531D01*
X2591249Y1322067D01*
X2591280Y1315883D01*
X2591310Y1308933D01*
X2591339Y1301172D01*
X2591368Y1292552D01*
X2591398Y1283029D01*
X2591429Y1272557D01*
X2591462Y1261089D01*
X2591722Y1169444D01*
X2592939Y1165850D01*
X2594272Y1162825D01*
X2596616Y1159660D01*
X2599692Y1157234D01*
X2603498Y1155552D01*
X2604440Y1155264D01*
X2605355Y1155020D01*
X2606325Y1154823D01*
X2607460Y1154669D01*
X2608869Y1154552D01*
X2610661Y1154467D01*
X2612946Y1154409D01*
X2615834Y1154373D01*
X2619435Y1154353D01*
X2623858Y1154345D01*
X2629213Y1154344D01*
X2630104Y1154344D01*
X2635298Y1154346D01*
X2639576Y1154354D01*
X2643045Y1154374D01*
X2645815Y1154411D01*
X2647994Y1154470D01*
X2649689Y1154557D01*
X2651010Y1154678D01*
X2652064Y1154836D01*
X2652960Y1155039D01*
X2653807Y1155290D01*
X2654712Y1155596D01*
X2657358Y1156744D01*
X2660644Y1159062D01*
X2663189Y1162107D01*
X2664966Y1165850D01*
X2666183Y1169444D01*
X2666443Y1261089D01*
X2666475Y1272192D01*
X2666506Y1282697D01*
X2666536Y1292251D01*
X2666565Y1300900D01*
X2666594Y1308689D01*
X2666624Y1315665D01*
X2666655Y1321874D01*
X2666687Y1327361D01*
X2666722Y1332172D01*
X2666760Y1336354D01*
X2666801Y1339952D01*
X2666846Y1343012D01*
X2666896Y1345581D01*
X2666951Y1347703D01*
X2667013Y1349426D01*
X2667080Y1350794D01*
X2667155Y1351854D01*
X2667238Y1352652D01*
X2667329Y1353233D01*
X2667428Y1353644D01*
X2667538Y1353930D01*
X2667657Y1354138D01*
X2668160Y1354823D01*
X2668764Y1355441D01*
X2669523Y1355941D01*
X2670538Y1356334D01*
X2671905Y1356632D01*
X2673724Y1356846D01*
X2676092Y1356987D01*
X2679109Y1357068D01*
X2682872Y1357097D01*
X2687479Y1357089D01*
X2693030Y1357052D01*
X2695014Y1357037D01*
X2699983Y1356995D01*
X2704048Y1356944D01*
X2707311Y1356869D01*
X2709875Y1356755D01*
X2711842Y1356589D01*
X2713314Y1356355D01*
X2714392Y1356038D01*
X2715180Y1355625D01*
X2715778Y1355100D01*
X2716289Y1354450D01*
X2716814Y1353659D01*
X2716918Y1353469D01*
X2717023Y1353174D01*
X2717119Y1352744D01*
X2717206Y1352135D01*
X2717284Y1351301D01*
X2717354Y1350197D01*
X2717416Y1348778D01*
X2717471Y1346997D01*
X2717520Y1344810D01*
X2717562Y1342172D01*
X2717598Y1339036D01*
X2717629Y1335358D01*
X2717654Y1331093D01*
X2717675Y1326194D01*
X2717692Y1320617D01*
X2717706Y1314316D01*
X2717716Y1307246D01*
X2717723Y1299361D01*
X2717728Y1290616D01*
X2717731Y1280966D01*
X2717732Y1270365D01*
X2717733Y1258768D01*
X2717733Y1249201D01*
X2717731Y1238400D01*
X2717728Y1228555D01*
X2717724Y1219617D01*
X2717716Y1211539D01*
X2717706Y1204274D01*
X2717693Y1197774D01*
X2717676Y1191992D01*
X2717654Y1186880D01*
X2717628Y1182391D01*
X2717597Y1178477D01*
X2717560Y1175091D01*
X2717517Y1172185D01*
X2717467Y1169712D01*
X2717411Y1167625D01*
X2717347Y1165875D01*
X2717275Y1164415D01*
X2717195Y1163199D01*
X2717106Y1162178D01*
X2717007Y1161304D01*
X2716899Y1160531D01*
X2716781Y1159811D01*
X2715436Y1153586D01*
X2713138Y1146509D01*
X2710121Y1140125D01*
X2706355Y1134373D01*
X2701812Y1129194D01*
X2698271Y1126001D01*
X2692356Y1121803D01*
X2685736Y1118302D01*
X2678473Y1115525D01*
X2670632Y1113500D01*
X2662278Y1112253D01*
X2661335Y1112194D01*
X2659309Y1112130D01*
X2656464Y1112078D01*
X2652916Y1112037D01*
X2648782Y1112006D01*
X2644177Y1111987D01*
X2639219Y1111978D01*
X2634022Y1111978D01*
X2628705Y1111989D01*
X2623382Y1112008D01*
X2618171Y1112036D01*
X2613187Y1112073D01*
X2608547Y1112118D01*
X2604367Y1112171D01*
X2600763Y1112232D01*
X2597852Y1112299D01*
X2595750Y1112374D01*
X2594572Y1112455D01*
X2592635Y1112711D01*
X2586215Y1113828D01*
X2580429Y1115319D01*
X2574986Y1117268D01*
X2569592Y1119762D01*
X2564581Y1122651D01*
X2558810Y1126988D01*
X2553791Y1132033D01*
X2549518Y1137795D01*
X2545984Y1144283D01*
X2543183Y1151505D01*
X2541108Y1159470D01*
X2541003Y1160045D01*
X2540903Y1160751D01*
X2540811Y1161616D01*
X2540728Y1162688D01*
X2540652Y1164013D01*
X2540583Y1165636D01*
X2540521Y1167606D01*
X2540465Y1169967D01*
X2540415Y1172767D01*
X2540369Y1176052D01*
X2540328Y1179868D01*
X2540292Y1184261D01*
X2540259Y1189278D01*
X2540229Y1194966D01*
X2540202Y1201370D01*
X2540177Y1208537D01*
X2540153Y1216514D01*
X2540131Y1225347D01*
X2540110Y1235082D01*
X2540088Y1245765D01*
X2540067Y1257444D01*
X2540047Y1268492D01*
X2540029Y1279159D01*
X2540014Y1288873D01*
X2540003Y1297679D01*
X2539996Y1305625D01*
X2539993Y1312754D01*
X2539994Y1319112D01*
X2540001Y1324745D01*
X2540013Y1329699D01*
X2540031Y1334018D01*
X2540054Y1337749D01*
X2540084Y1340937D01*
X2540121Y1343627D01*
X2540165Y1345865D01*
X2540217Y1347697D01*
X2540276Y1349167D01*
X2540343Y1350322D01*
X2540419Y1351207D01*
X2540504Y1351867D01*
X2540598Y1352348D01*
X2540702Y1352696D01*
X2540816Y1352956D01*
X2540870Y1353059D01*
X2541941Y1354587D01*
X2543204Y1355820D01*
X2543352Y1355926D01*
X2543774Y1356182D01*
X2544302Y1356389D01*
X2545039Y1356556D01*
X2546090Y1356686D01*
X2547559Y1356787D01*
X2549550Y1356864D01*
X2552166Y1356923D01*
X2555511Y1356970D01*
X2559690Y1357011D01*
X2564806Y1357052D01*
X2570087Y1357087D01*
X2574752Y1357098D01*
X2578566Y1357071D01*
G37*
G36*
X2865215Y1357060D02*
G01*
X2870564Y1357012D01*
X2874884Y1356929D01*
X2878172Y1356811D01*
X2880424Y1356659D01*
X2888860Y1355493D01*
X2896631Y1353674D01*
X2903680Y1351190D01*
X2910067Y1348016D01*
X2915850Y1344125D01*
X2921090Y1339494D01*
X2921923Y1338641D01*
X2926056Y1333747D01*
X2929467Y1328436D01*
X2932218Y1322583D01*
X2934371Y1316057D01*
X2935986Y1308733D01*
X2936066Y1308268D01*
X2936197Y1307416D01*
X2936315Y1306486D01*
X2936419Y1305421D01*
X2936512Y1304166D01*
X2936593Y1302663D01*
X2936663Y1300856D01*
X2936724Y1298688D01*
X2936775Y1296102D01*
X2936818Y1293041D01*
X2936854Y1289450D01*
X2936882Y1285270D01*
X2936905Y1280447D01*
X2936921Y1274921D01*
X2936934Y1268638D01*
X2936942Y1261541D01*
X2936947Y1253572D01*
X2936949Y1244675D01*
X2936950Y1234793D01*
X2936948Y1225087D01*
X2936942Y1215671D01*
X2936931Y1207202D01*
X2936915Y1199633D01*
X2936893Y1192915D01*
X2936865Y1187000D01*
X2936831Y1181838D01*
X2936789Y1177383D01*
X2936740Y1173585D01*
X2936683Y1170396D01*
X2936618Y1167768D01*
X2936544Y1165652D01*
X2936460Y1164000D01*
X2936367Y1162764D01*
X2936264Y1161894D01*
X2935782Y1159070D01*
X2934028Y1151668D01*
X2931656Y1145024D01*
X2928623Y1139047D01*
X2924887Y1133648D01*
X2920404Y1128737D01*
X2917623Y1126215D01*
X2912904Y1122628D01*
X2907812Y1119614D01*
X2902224Y1117120D01*
X2896014Y1115094D01*
X2889059Y1113483D01*
X2881234Y1112236D01*
X2881134Y1112227D01*
X2880107Y1112194D01*
X2878155Y1112167D01*
X2875369Y1112146D01*
X2871843Y1112130D01*
X2867669Y1112121D01*
X2862939Y1112118D01*
X2857747Y1112121D01*
X2852186Y1112132D01*
X2846347Y1112149D01*
X2843405Y1112160D01*
X2836877Y1112189D01*
X2831275Y1112223D01*
X2826515Y1112264D01*
X2822515Y1112315D01*
X2819192Y1112377D01*
X2816464Y1112453D01*
X2814248Y1112544D01*
X2812462Y1112653D01*
X2811023Y1112781D01*
X2809849Y1112932D01*
X2808856Y1113107D01*
X2806964Y1113508D01*
X2798735Y1115761D01*
X2791301Y1118684D01*
X2784654Y1122285D01*
X2778787Y1126571D01*
X2773693Y1131548D01*
X2769364Y1137223D01*
X2765794Y1143604D01*
X2762974Y1150697D01*
X2760897Y1158510D01*
X2760638Y1159853D01*
X2760406Y1161392D01*
X2760229Y1163110D01*
X2760098Y1165152D01*
X2760009Y1167662D01*
X2759952Y1170782D01*
X2759923Y1174656D01*
X2759914Y1179428D01*
X2759914Y1180748D01*
X2759917Y1185036D01*
X2759933Y1188433D01*
X2759968Y1191055D01*
X2760030Y1193022D01*
X2760126Y1194449D01*
X2760262Y1195456D01*
X2760447Y1196161D01*
X2760686Y1196680D01*
X2760988Y1197132D01*
X2761076Y1197251D01*
X2761678Y1198033D01*
X2762295Y1198674D01*
X2763028Y1199189D01*
X2763981Y1199592D01*
X2765255Y1199896D01*
X2766955Y1200115D01*
X2769183Y1200264D01*
X2772041Y1200355D01*
X2775632Y1200403D01*
X2780059Y1200422D01*
X2785424Y1200425D01*
X2785530Y1200425D01*
X2791317Y1200440D01*
X2796151Y1200443D01*
X2800120Y1200372D01*
X2803310Y1200166D01*
X2805807Y1199762D01*
X2807699Y1199099D01*
X2809071Y1198116D01*
X2810011Y1196751D01*
X2810604Y1194942D01*
X2810938Y1192628D01*
X2811099Y1189746D01*
X2811173Y1186235D01*
X2811248Y1182034D01*
X2811336Y1178387D01*
X2811455Y1174654D01*
X2811607Y1171690D01*
X2811816Y1169343D01*
X2812107Y1167463D01*
X2812506Y1165898D01*
X2813036Y1164496D01*
X2813722Y1163106D01*
X2814590Y1161577D01*
X2815336Y1160509D01*
X2817535Y1158400D01*
X2820402Y1156584D01*
X2823686Y1155235D01*
X2824197Y1155089D01*
X2825092Y1154892D01*
X2826193Y1154733D01*
X2827604Y1154607D01*
X2829429Y1154511D01*
X2831773Y1154441D01*
X2834741Y1154393D01*
X2838437Y1154363D01*
X2842965Y1154348D01*
X2848430Y1154344D01*
X2848486Y1154344D01*
X2853828Y1154345D01*
X2858238Y1154353D01*
X2861823Y1154372D01*
X2864691Y1154407D01*
X2866951Y1154464D01*
X2868711Y1154548D01*
X2870077Y1154663D01*
X2871159Y1154815D01*
X2872063Y1155010D01*
X2872899Y1155251D01*
X2873774Y1155545D01*
X2874100Y1155660D01*
X2877664Y1157386D01*
X2880503Y1159745D01*
X2882662Y1162802D01*
X2884189Y1166622D01*
X2885130Y1171267D01*
X2885183Y1171794D01*
X2885276Y1173393D01*
X2885356Y1175794D01*
X2885424Y1179019D01*
X2885480Y1183092D01*
X2885524Y1188039D01*
X2885557Y1193883D01*
X2885579Y1200647D01*
X2885589Y1208357D01*
X2885588Y1217035D01*
X2885576Y1226707D01*
X2885553Y1237396D01*
X2885399Y1299100D01*
X2884233Y1302529D01*
X2883311Y1304900D01*
X2881522Y1308027D01*
X2879214Y1310443D01*
X2876222Y1312305D01*
X2872382Y1313769D01*
X2871859Y1313920D01*
X2870937Y1314136D01*
X2869861Y1314309D01*
X2868519Y1314445D01*
X2866801Y1314548D01*
X2864597Y1314622D01*
X2861794Y1314672D01*
X2858283Y1314702D01*
X2853952Y1314717D01*
X2848690Y1314721D01*
X2845180Y1314719D01*
X2840139Y1314702D01*
X2835961Y1314660D01*
X2832535Y1314582D01*
X2829751Y1314460D01*
X2827498Y1314284D01*
X2825665Y1314044D01*
X2824140Y1313730D01*
X2822814Y1313333D01*
X2821575Y1312843D01*
X2820312Y1312251D01*
X2818071Y1310873D01*
X2815565Y1308591D01*
X2813755Y1306016D01*
X2813088Y1304582D01*
X2812436Y1302706D01*
X2811944Y1300549D01*
X2811594Y1297960D01*
X2811366Y1294787D01*
X2811239Y1290879D01*
X2811196Y1286082D01*
X2811182Y1282525D01*
X2811144Y1279496D01*
X2811071Y1277214D01*
X2810953Y1275527D01*
X2810778Y1274282D01*
X2810535Y1273326D01*
X2810212Y1272505D01*
X2809991Y1272021D01*
X2809557Y1271183D01*
X2809054Y1270496D01*
X2808383Y1269945D01*
X2807447Y1269516D01*
X2806151Y1269192D01*
X2804395Y1268960D01*
X2802084Y1268804D01*
X2799119Y1268709D01*
X2795405Y1268660D01*
X2790843Y1268642D01*
X2785338Y1268639D01*
X2780900Y1268641D01*
X2776535Y1268652D01*
X2773018Y1268675D01*
X2770243Y1268717D01*
X2768107Y1268781D01*
X2766504Y1268871D01*
X2765329Y1268993D01*
X2764478Y1269150D01*
X2763845Y1269348D01*
X2763327Y1269590D01*
X2762333Y1270169D01*
X2761496Y1270836D01*
X2760853Y1271681D01*
X2760379Y1272827D01*
X2760049Y1274397D01*
X2759836Y1276515D01*
X2759715Y1279304D01*
X2759662Y1282888D01*
X2759650Y1287390D01*
X2759650Y1287872D01*
X2759682Y1293236D01*
X2759781Y1297754D01*
X2759960Y1301604D01*
X2760235Y1304967D01*
X2760618Y1308020D01*
X2761125Y1310943D01*
X2761770Y1313915D01*
X2763729Y1320439D01*
X2766733Y1327132D01*
X2770574Y1333268D01*
X2775202Y1338794D01*
X2780565Y1343657D01*
X2786612Y1347805D01*
X2793292Y1351186D01*
X2800554Y1353745D01*
X2801739Y1354079D01*
X2803788Y1354642D01*
X2805671Y1355120D01*
X2807491Y1355523D01*
X2809347Y1355857D01*
X2811339Y1356129D01*
X2813569Y1356348D01*
X2816136Y1356521D01*
X2819142Y1356655D01*
X2822687Y1356758D01*
X2826871Y1356838D01*
X2831795Y1356901D01*
X2837559Y1356955D01*
X2844264Y1357009D01*
X2851447Y1357054D01*
X2858841Y1357075D01*
X2865215Y1357060D01*
G37*
G36*
X3410914Y1357060D02*
G01*
X3416263Y1357012D01*
X3420583Y1356929D01*
X3423871Y1356811D01*
X3426123Y1356659D01*
X3434559Y1355493D01*
X3442330Y1353674D01*
X3449379Y1351190D01*
X3455766Y1348016D01*
X3461549Y1344125D01*
X3466790Y1339494D01*
X3467622Y1338641D01*
X3471755Y1333747D01*
X3475166Y1328436D01*
X3477917Y1322583D01*
X3480070Y1316057D01*
X3481686Y1308733D01*
X3481765Y1308268D01*
X3481896Y1307416D01*
X3482014Y1306486D01*
X3482118Y1305421D01*
X3482211Y1304166D01*
X3482292Y1302663D01*
X3482362Y1300856D01*
X3482423Y1298688D01*
X3482474Y1296102D01*
X3482517Y1293041D01*
X3482553Y1289450D01*
X3482581Y1285270D01*
X3482604Y1280447D01*
X3482620Y1274921D01*
X3482633Y1268638D01*
X3482641Y1261541D01*
X3482646Y1253572D01*
X3482648Y1244675D01*
X3482649Y1234793D01*
X3482647Y1225087D01*
X3482641Y1215671D01*
X3482630Y1207202D01*
X3482614Y1199633D01*
X3482592Y1192915D01*
X3482564Y1187000D01*
X3482530Y1181838D01*
X3482488Y1177383D01*
X3482439Y1173585D01*
X3482383Y1170396D01*
X3482317Y1167768D01*
X3482243Y1165652D01*
X3482159Y1164000D01*
X3482066Y1162764D01*
X3481963Y1161894D01*
X3481481Y1159070D01*
X3479727Y1151668D01*
X3477355Y1145024D01*
X3474322Y1139047D01*
X3470586Y1133648D01*
X3466103Y1128737D01*
X3463322Y1126215D01*
X3458603Y1122628D01*
X3453511Y1119614D01*
X3447923Y1117120D01*
X3441713Y1115094D01*
X3434758Y1113483D01*
X3426933Y1112236D01*
X3426833Y1112227D01*
X3425806Y1112194D01*
X3423854Y1112167D01*
X3421068Y1112146D01*
X3417542Y1112130D01*
X3413368Y1112121D01*
X3408638Y1112118D01*
X3403447Y1112121D01*
X3397885Y1112132D01*
X3392046Y1112149D01*
X3389104Y1112160D01*
X3382576Y1112189D01*
X3376974Y1112223D01*
X3372214Y1112264D01*
X3368214Y1112315D01*
X3364891Y1112377D01*
X3362163Y1112453D01*
X3359948Y1112544D01*
X3358161Y1112653D01*
X3356722Y1112781D01*
X3355548Y1112932D01*
X3354555Y1113107D01*
X3352663Y1113508D01*
X3344434Y1115761D01*
X3336999Y1118684D01*
X3330353Y1122285D01*
X3324486Y1126571D01*
X3319392Y1131548D01*
X3315063Y1137223D01*
X3311493Y1143604D01*
X3308672Y1150697D01*
X3306596Y1158510D01*
X3306337Y1159853D01*
X3306105Y1161392D01*
X3305928Y1163110D01*
X3305797Y1165152D01*
X3305707Y1167662D01*
X3305651Y1170782D01*
X3305622Y1174656D01*
X3305613Y1179428D01*
X3305613Y1180748D01*
X3305616Y1185036D01*
X3305632Y1188433D01*
X3305667Y1191055D01*
X3305729Y1193022D01*
X3305825Y1194449D01*
X3305961Y1195456D01*
X3306146Y1196161D01*
X3306385Y1196680D01*
X3306687Y1197132D01*
X3306775Y1197251D01*
X3307377Y1198033D01*
X3307994Y1198674D01*
X3308727Y1199189D01*
X3309680Y1199592D01*
X3310954Y1199896D01*
X3312654Y1200115D01*
X3314882Y1200264D01*
X3317740Y1200355D01*
X3321331Y1200403D01*
X3325758Y1200422D01*
X3331123Y1200425D01*
X3331229Y1200425D01*
X3337016Y1200440D01*
X3341850Y1200443D01*
X3345819Y1200372D01*
X3349009Y1200166D01*
X3351507Y1199762D01*
X3353398Y1199099D01*
X3354770Y1198116D01*
X3355710Y1196751D01*
X3356303Y1194942D01*
X3356637Y1192628D01*
X3356798Y1189746D01*
X3356872Y1186235D01*
X3356947Y1182034D01*
X3357035Y1178387D01*
X3357154Y1174654D01*
X3357306Y1171690D01*
X3357515Y1169343D01*
X3357806Y1167463D01*
X3358205Y1165898D01*
X3358735Y1164496D01*
X3359421Y1163106D01*
X3360289Y1161577D01*
X3361035Y1160509D01*
X3363234Y1158400D01*
X3366101Y1156584D01*
X3369385Y1155235D01*
X3369896Y1155089D01*
X3370791Y1154892D01*
X3371892Y1154733D01*
X3373303Y1154607D01*
X3375128Y1154511D01*
X3377472Y1154441D01*
X3380440Y1154393D01*
X3384136Y1154363D01*
X3388664Y1154348D01*
X3394129Y1154344D01*
X3394185Y1154344D01*
X3399527Y1154345D01*
X3403937Y1154353D01*
X3407522Y1154372D01*
X3410391Y1154407D01*
X3412650Y1154464D01*
X3414410Y1154548D01*
X3415776Y1154663D01*
X3416858Y1154815D01*
X3417762Y1155010D01*
X3418598Y1155251D01*
X3419473Y1155545D01*
X3419799Y1155660D01*
X3423363Y1157386D01*
X3426202Y1159745D01*
X3428361Y1162802D01*
X3429888Y1166622D01*
X3430829Y1171267D01*
X3430882Y1171794D01*
X3430975Y1173393D01*
X3431055Y1175794D01*
X3431123Y1179019D01*
X3431179Y1183092D01*
X3431224Y1188039D01*
X3431256Y1193883D01*
X3431278Y1200647D01*
X3431288Y1208357D01*
X3431287Y1217035D01*
X3431275Y1226707D01*
X3431252Y1237396D01*
X3431098Y1299100D01*
X3429932Y1302529D01*
X3429010Y1304900D01*
X3427221Y1308027D01*
X3424913Y1310443D01*
X3421921Y1312305D01*
X3418081Y1313769D01*
X3417558Y1313920D01*
X3416636Y1314136D01*
X3415560Y1314309D01*
X3414218Y1314445D01*
X3412500Y1314548D01*
X3410296Y1314622D01*
X3407493Y1314672D01*
X3403982Y1314702D01*
X3399651Y1314717D01*
X3394389Y1314721D01*
X3390879Y1314719D01*
X3385838Y1314702D01*
X3381660Y1314660D01*
X3378234Y1314582D01*
X3375450Y1314460D01*
X3373197Y1314284D01*
X3371364Y1314044D01*
X3369839Y1313730D01*
X3368513Y1313333D01*
X3367274Y1312843D01*
X3366011Y1312251D01*
X3363770Y1310873D01*
X3361264Y1308591D01*
X3359454Y1306016D01*
X3358787Y1304582D01*
X3358135Y1302706D01*
X3357643Y1300549D01*
X3357293Y1297960D01*
X3357065Y1294787D01*
X3356938Y1290879D01*
X3356895Y1286082D01*
X3356881Y1282525D01*
X3356843Y1279496D01*
X3356770Y1277214D01*
X3356652Y1275527D01*
X3356477Y1274282D01*
X3356234Y1273326D01*
X3355912Y1272505D01*
X3355690Y1272021D01*
X3355256Y1271183D01*
X3354753Y1270496D01*
X3354082Y1269945D01*
X3353147Y1269516D01*
X3351850Y1269192D01*
X3350094Y1268960D01*
X3347783Y1268804D01*
X3344818Y1268709D01*
X3341104Y1268660D01*
X3336542Y1268642D01*
X3331037Y1268639D01*
X3326598Y1268641D01*
X3322234Y1268652D01*
X3318716Y1268675D01*
X3315942Y1268717D01*
X3313806Y1268781D01*
X3312203Y1268871D01*
X3311028Y1268993D01*
X3310177Y1269150D01*
X3309544Y1269348D01*
X3309026Y1269590D01*
X3308032Y1270169D01*
X3307195Y1270836D01*
X3306552Y1271681D01*
X3306078Y1272827D01*
X3305748Y1274397D01*
X3305535Y1276515D01*
X3305414Y1279304D01*
X3305361Y1282888D01*
X3305349Y1287390D01*
X3305349Y1287872D01*
X3305381Y1293236D01*
X3305480Y1297754D01*
X3305659Y1301604D01*
X3305934Y1304967D01*
X3306317Y1308020D01*
X3306824Y1310943D01*
X3307469Y1313915D01*
X3309428Y1320439D01*
X3312432Y1327132D01*
X3316273Y1333268D01*
X3320900Y1338794D01*
X3326264Y1343657D01*
X3332311Y1347805D01*
X3338991Y1351186D01*
X3346253Y1353745D01*
X3347438Y1354079D01*
X3349487Y1354642D01*
X3351370Y1355120D01*
X3353190Y1355523D01*
X3355046Y1355857D01*
X3357038Y1356129D01*
X3359268Y1356348D01*
X3361835Y1356521D01*
X3364841Y1356655D01*
X3368386Y1356758D01*
X3372570Y1356838D01*
X3377494Y1356901D01*
X3383258Y1356955D01*
X3389963Y1357009D01*
X3397146Y1357054D01*
X3404540Y1357075D01*
X3410914Y1357060D01*
G37*
G36*
X1295975Y1357081D02*
G01*
X1303077Y1357075D01*
X1311060Y1357064D01*
X1319979Y1357049D01*
X1329885Y1357031D01*
X1338932Y1357013D01*
X1347905Y1356995D01*
X1355940Y1356977D01*
X1363088Y1356959D01*
X1369403Y1356939D01*
X1374939Y1356916D01*
X1379748Y1356890D01*
X1383884Y1356859D01*
X1387401Y1356823D01*
X1390352Y1356781D01*
X1392790Y1356732D01*
X1394768Y1356675D01*
X1396339Y1356609D01*
X1397558Y1356533D01*
X1398476Y1356447D01*
X1399149Y1356348D01*
X1399628Y1356237D01*
X1399968Y1356113D01*
X1400221Y1355974D01*
X1400441Y1355820D01*
X1400524Y1355757D01*
X1401791Y1354481D01*
X1402824Y1352956D01*
X1402880Y1352836D01*
X1402977Y1352556D01*
X1403066Y1352166D01*
X1403148Y1351625D01*
X1403223Y1350893D01*
X1403290Y1349929D01*
X1403351Y1348693D01*
X1403406Y1347145D01*
X1403454Y1345243D01*
X1403497Y1342948D01*
X1403533Y1340218D01*
X1403565Y1337014D01*
X1403591Y1333295D01*
X1403613Y1329020D01*
X1403630Y1324150D01*
X1403642Y1318642D01*
X1403651Y1312458D01*
X1403655Y1305556D01*
X1403656Y1297896D01*
X1403654Y1289438D01*
X1403649Y1280140D01*
X1403642Y1269964D01*
X1403631Y1258867D01*
X1403619Y1246810D01*
X1403605Y1233752D01*
X1403593Y1223413D01*
X1403578Y1211154D01*
X1403564Y1199864D01*
X1403549Y1189504D01*
X1403534Y1180031D01*
X1403517Y1171407D01*
X1403500Y1163590D01*
X1403480Y1156541D01*
X1403459Y1150219D01*
X1403435Y1144583D01*
X1403408Y1139593D01*
X1403378Y1135209D01*
X1403345Y1131390D01*
X1403307Y1128096D01*
X1403266Y1125287D01*
X1403220Y1122921D01*
X1403169Y1120960D01*
X1403112Y1119361D01*
X1403050Y1118086D01*
X1402982Y1117093D01*
X1402907Y1116343D01*
X1402825Y1115794D01*
X1402737Y1115406D01*
X1402640Y1115139D01*
X1402536Y1114953D01*
X1402534Y1114950D01*
X1401383Y1113736D01*
X1399933Y1112752D01*
X1399728Y1112669D01*
X1399302Y1112559D01*
X1398674Y1112459D01*
X1397792Y1112371D01*
X1396604Y1112293D01*
X1395057Y1112224D01*
X1393098Y1112165D01*
X1390675Y1112113D01*
X1387737Y1112069D01*
X1384229Y1112033D01*
X1380100Y1112002D01*
X1375296Y1111978D01*
X1369767Y1111959D01*
X1363459Y1111944D01*
X1356319Y1111933D01*
X1348295Y1111926D01*
X1339335Y1111921D01*
X1329386Y1111918D01*
X1326350Y1111918D01*
X1316595Y1111915D01*
X1307814Y1111914D01*
X1299954Y1111915D01*
X1292963Y1111922D01*
X1286787Y1111935D01*
X1281375Y1111958D01*
X1276673Y1111992D01*
X1272631Y1112040D01*
X1269194Y1112103D01*
X1266310Y1112184D01*
X1263927Y1112284D01*
X1261993Y1112406D01*
X1260454Y1112552D01*
X1259259Y1112724D01*
X1258354Y1112924D01*
X1257687Y1113154D01*
X1257207Y1113417D01*
X1256859Y1113713D01*
X1256592Y1114046D01*
X1256353Y1114418D01*
X1256090Y1114830D01*
X1255844Y1115231D01*
X1255604Y1115799D01*
X1255416Y1116572D01*
X1255271Y1117670D01*
X1255163Y1119213D01*
X1255082Y1121319D01*
X1255021Y1124108D01*
X1254972Y1127700D01*
X1254927Y1132214D01*
X1254894Y1136439D01*
X1254884Y1140461D01*
X1254924Y1143659D01*
X1255032Y1146149D01*
X1255225Y1148048D01*
X1255522Y1149471D01*
X1255940Y1150536D01*
X1256498Y1151359D01*
X1257213Y1152057D01*
X1258104Y1152745D01*
X1258369Y1152928D01*
X1258685Y1153094D01*
X1259110Y1153239D01*
X1259711Y1153365D01*
X1260555Y1153474D01*
X1261707Y1153568D01*
X1263236Y1153648D01*
X1265207Y1153717D01*
X1267686Y1153776D01*
X1270741Y1153828D01*
X1274439Y1153873D01*
X1278844Y1153916D01*
X1284025Y1153956D01*
X1290047Y1153996D01*
X1296978Y1154038D01*
X1304883Y1154084D01*
X1350193Y1154344D01*
X1351188Y1155573D01*
X1351209Y1155599D01*
X1351424Y1155911D01*
X1351604Y1156320D01*
X1351754Y1156912D01*
X1351876Y1157772D01*
X1351972Y1158987D01*
X1352046Y1160642D01*
X1352100Y1162823D01*
X1352138Y1165616D01*
X1352162Y1169107D01*
X1352176Y1173382D01*
X1352182Y1178526D01*
X1352183Y1184626D01*
X1352183Y1212450D01*
X1349627Y1215006D01*
X1311023Y1215006D01*
X1304175Y1215007D01*
X1298275Y1215012D01*
X1293247Y1215021D01*
X1289014Y1215039D01*
X1285502Y1215065D01*
X1282633Y1215103D01*
X1280333Y1215155D01*
X1278525Y1215222D01*
X1277134Y1215307D01*
X1276083Y1215412D01*
X1275297Y1215539D01*
X1274700Y1215689D01*
X1274216Y1215866D01*
X1273770Y1216071D01*
X1272795Y1216569D01*
X1271958Y1217125D01*
X1271300Y1217821D01*
X1270801Y1218768D01*
X1270439Y1220080D01*
X1270191Y1221870D01*
X1270036Y1224250D01*
X1269953Y1227333D01*
X1269919Y1231232D01*
X1269912Y1236060D01*
X1269914Y1238686D01*
X1269934Y1242999D01*
X1269992Y1246444D01*
X1270103Y1249137D01*
X1270284Y1251192D01*
X1270552Y1252724D01*
X1270924Y1253846D01*
X1271418Y1254674D01*
X1272049Y1255322D01*
X1272835Y1255905D01*
X1272903Y1255950D01*
X1273230Y1256138D01*
X1273647Y1256301D01*
X1274226Y1256441D01*
X1275040Y1256561D01*
X1276164Y1256664D01*
X1277670Y1256751D01*
X1279631Y1256826D01*
X1282121Y1256889D01*
X1285213Y1256945D01*
X1288980Y1256995D01*
X1293496Y1257041D01*
X1298833Y1257086D01*
X1305065Y1257133D01*
X1312266Y1257183D01*
X1350193Y1257444D01*
X1351188Y1258673D01*
X1351349Y1258889D01*
X1351548Y1259261D01*
X1351712Y1259787D01*
X1351845Y1260555D01*
X1351951Y1261655D01*
X1352032Y1263174D01*
X1352092Y1265202D01*
X1352133Y1267828D01*
X1352160Y1271140D01*
X1352175Y1275228D01*
X1352182Y1280179D01*
X1352183Y1286082D01*
X1352183Y1290323D01*
X1352178Y1295550D01*
X1352166Y1299887D01*
X1352143Y1303421D01*
X1352106Y1306243D01*
X1352052Y1308441D01*
X1351978Y1310103D01*
X1351880Y1311319D01*
X1351755Y1312177D01*
X1351600Y1312766D01*
X1351413Y1313175D01*
X1351188Y1313492D01*
X1350193Y1314721D01*
X1304715Y1314982D01*
X1302582Y1314994D01*
X1294897Y1315039D01*
X1288171Y1315082D01*
X1282336Y1315124D01*
X1277328Y1315168D01*
X1273079Y1315213D01*
X1269524Y1315264D01*
X1266597Y1315320D01*
X1264231Y1315384D01*
X1262360Y1315458D01*
X1260919Y1315543D01*
X1259840Y1315640D01*
X1259058Y1315753D01*
X1258507Y1315882D01*
X1258121Y1316029D01*
X1257832Y1316195D01*
X1257520Y1316416D01*
X1256758Y1317071D01*
X1256152Y1317871D01*
X1255684Y1318929D01*
X1255340Y1320356D01*
X1255103Y1322264D01*
X1254958Y1324766D01*
X1254890Y1327972D01*
X1254882Y1331996D01*
X1254919Y1336949D01*
X1254963Y1341089D01*
X1255012Y1344664D01*
X1255072Y1347431D01*
X1255151Y1349512D01*
X1255259Y1351028D01*
X1255404Y1352101D01*
X1255595Y1352850D01*
X1255841Y1353399D01*
X1256150Y1353867D01*
X1256213Y1353951D01*
X1257490Y1355217D01*
X1259014Y1356250D01*
X1259221Y1356345D01*
X1259584Y1356466D01*
X1260082Y1356574D01*
X1260768Y1356670D01*
X1261695Y1356755D01*
X1262917Y1356828D01*
X1264487Y1356890D01*
X1266458Y1356943D01*
X1268884Y1356986D01*
X1271818Y1357021D01*
X1275313Y1357047D01*
X1279423Y1357065D01*
X1284201Y1357077D01*
X1289701Y1357082D01*
X1295975Y1357081D01*
G37*
G36*
X2129311Y1356896D02*
G01*
X2135006Y1356888D01*
X2139838Y1356871D01*
X2143897Y1356843D01*
X2147274Y1356802D01*
X2150063Y1356744D01*
X2152353Y1356669D01*
X2154237Y1356572D01*
X2155806Y1356453D01*
X2157151Y1356307D01*
X2158364Y1356134D01*
X2159537Y1355930D01*
X2161737Y1355495D01*
X2169830Y1353403D01*
X2177128Y1350673D01*
X2183663Y1347293D01*
X2189469Y1343249D01*
X2189490Y1343232D01*
X2194903Y1338276D01*
X2199477Y1332775D01*
X2203230Y1326692D01*
X2206182Y1319990D01*
X2208353Y1312632D01*
X2209763Y1304581D01*
X2209893Y1303247D01*
X2210063Y1300402D01*
X2210185Y1296858D01*
X2210260Y1292825D01*
X2210288Y1288512D01*
X2210269Y1284130D01*
X2210204Y1279886D01*
X2210092Y1275992D01*
X2209934Y1272657D01*
X2209730Y1270091D01*
X2208705Y1263372D01*
X2206793Y1255899D01*
X2204158Y1248929D01*
X2200843Y1242532D01*
X2196893Y1236781D01*
X2192350Y1231748D01*
X2187260Y1227505D01*
X2181667Y1224125D01*
X2180057Y1223387D01*
X2177124Y1222218D01*
X2173549Y1220933D01*
X2169544Y1219601D01*
X2165324Y1218295D01*
X2161105Y1217083D01*
X2157098Y1216036D01*
X2153348Y1215155D01*
X2144681Y1213372D01*
X2135375Y1211768D01*
X2125699Y1210388D01*
X2115923Y1209276D01*
X2110648Y1208572D01*
X2104470Y1207216D01*
X2098963Y1205376D01*
X2094192Y1203082D01*
X2090219Y1200366D01*
X2087107Y1197261D01*
X2084922Y1193798D01*
X2084868Y1193683D01*
X2084379Y1192589D01*
X2084025Y1191592D01*
X2083783Y1190502D01*
X2083633Y1189130D01*
X2083552Y1187286D01*
X2083520Y1184779D01*
X2083514Y1181421D01*
X2083514Y1180595D01*
X2083535Y1177289D01*
X2083600Y1174768D01*
X2083729Y1172823D01*
X2083939Y1171244D01*
X2084250Y1169819D01*
X2084680Y1168340D01*
X2085953Y1165003D01*
X2088004Y1161556D01*
X2090655Y1158870D01*
X2094024Y1156835D01*
X2098226Y1155337D01*
X2098365Y1155300D01*
X2099503Y1155035D01*
X2100792Y1154820D01*
X2102358Y1154649D01*
X2104328Y1154514D01*
X2106831Y1154408D01*
X2109993Y1154324D01*
X2113942Y1154256D01*
X2118806Y1154195D01*
X2124171Y1154150D01*
X2128798Y1154149D01*
X2132646Y1154204D01*
X2135846Y1154325D01*
X2138531Y1154522D01*
X2140833Y1154804D01*
X2142884Y1155181D01*
X2144817Y1155664D01*
X2146764Y1156260D01*
X2148810Y1157058D01*
X2150813Y1158271D01*
X2152837Y1160073D01*
X2153054Y1160293D01*
X2154649Y1162164D01*
X2155877Y1164204D01*
X2156792Y1166585D01*
X2157446Y1169482D01*
X2157894Y1173069D01*
X2158188Y1177518D01*
X2158222Y1178217D01*
X2158456Y1181665D01*
X2158789Y1184257D01*
X2159276Y1186151D01*
X2159970Y1187505D01*
X2160925Y1188477D01*
X2162196Y1189223D01*
X2162664Y1189359D01*
X2164209Y1189567D01*
X2166563Y1189742D01*
X2169586Y1189882D01*
X2173134Y1189988D01*
X2177065Y1190061D01*
X2181237Y1190100D01*
X2185507Y1190106D01*
X2189733Y1190078D01*
X2193773Y1190016D01*
X2197483Y1189921D01*
X2200723Y1189792D01*
X2203348Y1189630D01*
X2205218Y1189435D01*
X2206189Y1189206D01*
X2206279Y1189159D01*
X2207453Y1188440D01*
X2208334Y1187582D01*
X2208963Y1186435D01*
X2209382Y1184849D01*
X2209631Y1182674D01*
X2209750Y1179758D01*
X2209780Y1175953D01*
X2209734Y1171984D01*
X2209466Y1166447D01*
X2208931Y1161501D01*
X2208098Y1156885D01*
X2206934Y1152338D01*
X2206239Y1150122D01*
X2203425Y1143334D01*
X2199769Y1137118D01*
X2195313Y1131507D01*
X2190097Y1126531D01*
X2184163Y1122221D01*
X2177553Y1118609D01*
X2170306Y1115725D01*
X2162465Y1113601D01*
X2154069Y1112268D01*
X2153396Y1112237D01*
X2151730Y1112200D01*
X2149206Y1112163D01*
X2145921Y1112128D01*
X2141974Y1112095D01*
X2137463Y1112065D01*
X2132486Y1112038D01*
X2127141Y1112017D01*
X2121525Y1112000D01*
X2118246Y1111993D01*
X2111659Y1111989D01*
X2105995Y1112001D01*
X2101173Y1112031D01*
X2097110Y1112079D01*
X2093724Y1112148D01*
X2090935Y1112238D01*
X2088659Y1112352D01*
X2086817Y1112491D01*
X2085325Y1112656D01*
X2079925Y1113543D01*
X2071822Y1115586D01*
X2064418Y1118386D01*
X2057725Y1121931D01*
X2051756Y1126212D01*
X2046522Y1131216D01*
X2042035Y1136934D01*
X2038309Y1143355D01*
X2035355Y1150468D01*
X2033185Y1158263D01*
X2032888Y1159676D01*
X2032614Y1161172D01*
X2032402Y1162688D01*
X2032244Y1164370D01*
X2032132Y1166365D01*
X2032057Y1168817D01*
X2032012Y1171873D01*
X2031989Y1175678D01*
X2031980Y1180379D01*
X2031988Y1185423D01*
X2032036Y1190115D01*
X2032138Y1194052D01*
X2032308Y1197384D01*
X2032557Y1200261D01*
X2032901Y1202833D01*
X2033352Y1205250D01*
X2033923Y1207662D01*
X2034628Y1210219D01*
X2035879Y1214045D01*
X2038981Y1221044D01*
X2042971Y1227513D01*
X2047824Y1233407D01*
X2047915Y1233503D01*
X2051217Y1236778D01*
X2054486Y1239523D01*
X2057935Y1241866D01*
X2061778Y1243938D01*
X2066228Y1245868D01*
X2071499Y1247787D01*
X2071895Y1247921D01*
X2081014Y1250729D01*
X2090570Y1253134D01*
X2100704Y1255164D01*
X2111556Y1256849D01*
X2123268Y1258215D01*
X2124204Y1258311D01*
X2130802Y1259108D01*
X2136470Y1260048D01*
X2141305Y1261159D01*
X2145400Y1262472D01*
X2148851Y1264016D01*
X2151751Y1265821D01*
X2154197Y1267916D01*
X2155150Y1268916D01*
X2156470Y1270587D01*
X2157432Y1272360D01*
X2158090Y1274422D01*
X2158495Y1276960D01*
X2158699Y1280160D01*
X2158756Y1284211D01*
X2158730Y1286949D01*
X2158451Y1292761D01*
X2157843Y1297687D01*
X2156878Y1301807D01*
X2155526Y1305204D01*
X2153758Y1307958D01*
X2151545Y1310149D01*
X2148859Y1311859D01*
X2148224Y1312176D01*
X2146706Y1312854D01*
X2145146Y1313400D01*
X2143420Y1313830D01*
X2141402Y1314155D01*
X2138967Y1314389D01*
X2135992Y1314547D01*
X2132350Y1314640D01*
X2127916Y1314683D01*
X2122567Y1314690D01*
X2121548Y1314688D01*
X2116997Y1314677D01*
X2113328Y1314653D01*
X2110411Y1314609D01*
X2108112Y1314538D01*
X2106299Y1314432D01*
X2104840Y1314285D01*
X2103602Y1314089D01*
X2102454Y1313837D01*
X2101263Y1313522D01*
X2097761Y1312374D01*
X2094492Y1310755D01*
X2091976Y1308697D01*
X2090082Y1306058D01*
X2088680Y1302691D01*
X2087639Y1298454D01*
X2087569Y1298064D01*
X2087228Y1295501D01*
X2086988Y1292563D01*
X2086898Y1289812D01*
X2086886Y1288773D01*
X2086659Y1285764D01*
X2086084Y1283501D01*
X2085091Y1281778D01*
X2083607Y1280392D01*
X2083489Y1280307D01*
X2083067Y1280046D01*
X2082547Y1279834D01*
X2081823Y1279664D01*
X2080791Y1279530D01*
X2079346Y1279427D01*
X2077383Y1279348D01*
X2074797Y1279286D01*
X2071484Y1279237D01*
X2067339Y1279194D01*
X2062258Y1279150D01*
X2061183Y1279141D01*
X2055529Y1279116D01*
X2050704Y1279127D01*
X2046749Y1279175D01*
X2043707Y1279259D01*
X2041622Y1279377D01*
X2040534Y1279529D01*
X2040245Y1279626D01*
X2038612Y1280492D01*
X2037149Y1281677D01*
X2035609Y1283284D01*
X2035439Y1291192D01*
X2035410Y1293783D01*
X2035725Y1302112D01*
X2036696Y1309721D01*
X2038340Y1316691D01*
X2040675Y1323106D01*
X2043720Y1329048D01*
X2046418Y1333142D01*
X2051102Y1338694D01*
X2056546Y1343547D01*
X2062733Y1347691D01*
X2069648Y1351114D01*
X2077273Y1353807D01*
X2085594Y1355759D01*
X2086619Y1355943D01*
X2087902Y1356153D01*
X2089190Y1356330D01*
X2090578Y1356477D01*
X2092160Y1356596D01*
X2094029Y1356690D01*
X2096281Y1356762D01*
X2099008Y1356816D01*
X2102306Y1356853D01*
X2106269Y1356877D01*
X2110991Y1356891D01*
X2116566Y1356897D01*
X2123087Y1356898D01*
X2129311Y1356896D01*
G37*
G36*
X3153745Y1305556D02*
G01*
X3153747Y1297896D01*
X3153745Y1289438D01*
X3153740Y1280140D01*
X3153732Y1269964D01*
X3153722Y1258867D01*
X3153709Y1246810D01*
X3153695Y1233752D01*
X3153683Y1223413D01*
X3153668Y1211154D01*
X3153654Y1199864D01*
X3153639Y1189504D01*
X3153624Y1180031D01*
X3153608Y1171407D01*
X3153590Y1163590D01*
X3153570Y1156541D01*
X3153549Y1150219D01*
X3153525Y1144583D01*
X3153498Y1139593D01*
X3153468Y1135209D01*
X3153435Y1131390D01*
X3153398Y1128096D01*
X3153356Y1125287D01*
X3153310Y1122921D01*
X3153259Y1120960D01*
X3153202Y1119361D01*
X3153140Y1118086D01*
X3153072Y1117093D01*
X3152997Y1116343D01*
X3152915Y1115794D01*
X3152827Y1115406D01*
X3152731Y1115139D01*
X3152626Y1114953D01*
X3152624Y1114950D01*
X3151473Y1113736D01*
X3150023Y1112752D01*
X3149982Y1112733D01*
X3149417Y1112524D01*
X3148620Y1112353D01*
X3147489Y1112218D01*
X3145925Y1112113D01*
X3143825Y1112036D01*
X3141089Y1111981D01*
X3137615Y1111946D01*
X3133302Y1111927D01*
X3128048Y1111919D01*
X3125858Y1111918D01*
X3120727Y1111923D01*
X3116503Y1111951D01*
X3113088Y1112015D01*
X3110385Y1112129D01*
X3108295Y1112309D01*
X3106722Y1112568D01*
X3105568Y1112920D01*
X3104735Y1113381D01*
X3104125Y1113963D01*
X3103641Y1114682D01*
X3103186Y1115551D01*
X3103155Y1115615D01*
X3102991Y1116020D01*
X3102849Y1116552D01*
X3102728Y1117281D01*
X3102624Y1118276D01*
X3102538Y1119609D01*
X3102466Y1121350D01*
X3102409Y1123568D01*
X3102365Y1126336D01*
X3102331Y1129722D01*
X3102307Y1133798D01*
X3102290Y1138634D01*
X3102281Y1144299D01*
X3102276Y1150866D01*
X3102274Y1158403D01*
X3102273Y1199432D01*
X3099701Y1202005D01*
X3085069Y1201866D01*
X3070437Y1201728D01*
X3050164Y1160332D01*
X3047478Y1154848D01*
X3044167Y1148083D01*
X3041265Y1142156D01*
X3038744Y1137008D01*
X3036576Y1132584D01*
X3034731Y1128828D01*
X3033181Y1125682D01*
X3031898Y1123090D01*
X3030851Y1120995D01*
X3030014Y1119341D01*
X3029357Y1118071D01*
X3028850Y1117129D01*
X3028467Y1116458D01*
X3028178Y1116002D01*
X3027953Y1115703D01*
X3027765Y1115506D01*
X3027585Y1115353D01*
X3027384Y1115189D01*
X3027133Y1114956D01*
X3027085Y1114907D01*
X3026322Y1114207D01*
X3025502Y1113624D01*
X3024525Y1113149D01*
X3023294Y1112770D01*
X3021710Y1112476D01*
X3019675Y1112257D01*
X3017090Y1112102D01*
X3013858Y1112000D01*
X3009879Y1111941D01*
X3005055Y1111913D01*
X2999288Y1111907D01*
X2997940Y1111907D01*
X2992812Y1111914D01*
X2988602Y1111934D01*
X2985212Y1111970D01*
X2982542Y1112025D01*
X2980493Y1112104D01*
X2978966Y1112210D01*
X2977861Y1112346D01*
X2977078Y1112516D01*
X2976520Y1112724D01*
X2976025Y1112988D01*
X2974483Y1114453D01*
X2973815Y1116441D01*
X2974054Y1118872D01*
X2974061Y1118897D01*
X2974410Y1119732D01*
X2975197Y1121420D01*
X2976386Y1123892D01*
X2977944Y1127080D01*
X2979835Y1130912D01*
X2982027Y1135321D01*
X2984483Y1140237D01*
X2987171Y1145591D01*
X2990054Y1151314D01*
X2993100Y1157336D01*
X2996274Y1163589D01*
X2996635Y1164298D01*
X2999777Y1170486D01*
X3002776Y1176408D01*
X3005600Y1181997D01*
X3008216Y1187187D01*
X3010589Y1191913D01*
X3012689Y1196108D01*
X3014480Y1199707D01*
X3015930Y1202642D01*
X3017007Y1204848D01*
X3017676Y1206258D01*
X3017905Y1206807D01*
X3017901Y1206840D01*
X3017377Y1207383D01*
X3016154Y1208149D01*
X3014476Y1208982D01*
X3010415Y1210980D01*
X3004109Y1214949D01*
X2998565Y1219623D01*
X2993798Y1224986D01*
X2989821Y1231021D01*
X2986650Y1237712D01*
X2984297Y1245041D01*
X2984153Y1245615D01*
X2983615Y1247964D01*
X2983168Y1250329D01*
X2982807Y1252823D01*
X2982524Y1255561D01*
X2982315Y1258656D01*
X2982171Y1262222D01*
X2982087Y1266374D01*
X2982057Y1271224D01*
X2982073Y1276888D01*
X2982083Y1278011D01*
X3033801Y1278011D01*
X3033802Y1274869D01*
X3033812Y1270061D01*
X3033835Y1266126D01*
X3033876Y1262957D01*
X3033938Y1260444D01*
X3034026Y1258480D01*
X3034144Y1256958D01*
X3034295Y1255770D01*
X3034485Y1254808D01*
X3034716Y1253963D01*
X3035264Y1252449D01*
X3037263Y1248959D01*
X3040083Y1246084D01*
X3043690Y1243854D01*
X3048048Y1242300D01*
X3048633Y1242163D01*
X3049693Y1241969D01*
X3050981Y1241808D01*
X3052600Y1241676D01*
X3054650Y1241570D01*
X3057234Y1241484D01*
X3060453Y1241416D01*
X3064409Y1241362D01*
X3069203Y1241317D01*
X3074936Y1241278D01*
X3078624Y1241259D01*
X3083293Y1241245D01*
X3087587Y1241242D01*
X3091394Y1241250D01*
X3094603Y1241269D01*
X3097103Y1241299D01*
X3098785Y1241338D01*
X3099535Y1241386D01*
X3099961Y1241475D01*
X3100433Y1241606D01*
X3100836Y1241828D01*
X3101176Y1242213D01*
X3101457Y1242834D01*
X3101686Y1243765D01*
X3101867Y1245079D01*
X3102007Y1246849D01*
X3102110Y1249148D01*
X3102183Y1252049D01*
X3102230Y1255626D01*
X3102257Y1259951D01*
X3102270Y1265098D01*
X3102273Y1271141D01*
X3102273Y1312425D01*
X3099645Y1315054D01*
X3075054Y1314864D01*
X3072865Y1314847D01*
X3067499Y1314802D01*
X3063038Y1314757D01*
X3059381Y1314706D01*
X3056429Y1314645D01*
X3054082Y1314570D01*
X3052238Y1314475D01*
X3050799Y1314356D01*
X3049663Y1314209D01*
X3048732Y1314027D01*
X3047904Y1313807D01*
X3047079Y1313545D01*
X3044993Y1312772D01*
X3041389Y1310902D01*
X3038572Y1308533D01*
X3036399Y1305531D01*
X3034729Y1301758D01*
X3034555Y1301218D01*
X3034352Y1300392D01*
X3034189Y1299376D01*
X3034061Y1298064D01*
X3033964Y1296350D01*
X3033894Y1294126D01*
X3033847Y1291287D01*
X3033819Y1287726D01*
X3033805Y1283336D01*
X3033801Y1278011D01*
X2982083Y1278011D01*
X2982130Y1283479D01*
X2982151Y1285402D01*
X2982211Y1290582D01*
X2982273Y1294873D01*
X2982342Y1298392D01*
X2982424Y1301253D01*
X2982525Y1303573D01*
X2982651Y1305465D01*
X2982807Y1307047D01*
X2982999Y1308432D01*
X2983234Y1309737D01*
X2983516Y1311076D01*
X2985037Y1316796D01*
X2987806Y1323997D01*
X2991373Y1330541D01*
X2995730Y1336415D01*
X3000864Y1341603D01*
X3006764Y1346091D01*
X3013419Y1349865D01*
X3016436Y1351242D01*
X3021476Y1353140D01*
X3026898Y1354671D01*
X3033025Y1355934D01*
X3033499Y1356016D01*
X3034438Y1356161D01*
X3035455Y1356289D01*
X3036612Y1356402D01*
X3037976Y1356500D01*
X3039609Y1356584D01*
X3041576Y1356656D01*
X3043942Y1356715D01*
X3046770Y1356765D01*
X3050126Y1356804D01*
X3054073Y1356835D01*
X3058676Y1356859D01*
X3063998Y1356876D01*
X3070105Y1356887D01*
X3077060Y1356894D01*
X3084928Y1356897D01*
X3093774Y1356898D01*
X3100760Y1356898D01*
X3108767Y1356897D01*
X3115839Y1356894D01*
X3122037Y1356888D01*
X3127420Y1356877D01*
X3132048Y1356860D01*
X3135982Y1356837D01*
X3139281Y1356807D01*
X3142004Y1356767D01*
X3144213Y1356717D01*
X3145967Y1356656D01*
X3147325Y1356583D01*
X3148348Y1356496D01*
X3149096Y1356395D01*
X3149628Y1356277D01*
X3150005Y1356143D01*
X3150285Y1355991D01*
X3150530Y1355820D01*
X3150614Y1355757D01*
X3151881Y1354481D01*
X3152914Y1352956D01*
X3152970Y1352836D01*
X3153067Y1352556D01*
X3153156Y1352166D01*
X3153238Y1351625D01*
X3153313Y1350893D01*
X3153381Y1349929D01*
X3153442Y1348693D01*
X3153496Y1347145D01*
X3153544Y1345243D01*
X3153587Y1342948D01*
X3153624Y1340218D01*
X3153655Y1337014D01*
X3153681Y1333295D01*
X3153703Y1329020D01*
X3153720Y1324150D01*
X3153732Y1318642D01*
X3153741Y1312458D01*
X3153741Y1312425D01*
X3153745Y1305556D01*
G37*
G36*
X3720839Y1283623D02*
G01*
X3720688Y1280248D01*
X3720076Y1277426D01*
X3719842Y1276795D01*
X3717906Y1273128D01*
X3715253Y1269987D01*
X3712042Y1267474D01*
X3708428Y1265694D01*
X3704570Y1264746D01*
X3700625Y1264736D01*
X3699021Y1264997D01*
X3694885Y1266284D01*
X3691263Y1268307D01*
X3688229Y1270952D01*
X3685859Y1274104D01*
X3684228Y1277646D01*
X3683410Y1281465D01*
X3683457Y1284097D01*
X3694548Y1284097D01*
X3694758Y1281710D01*
X3695527Y1279815D01*
X3697182Y1277569D01*
X3699333Y1276126D01*
X3700771Y1275669D01*
X3703374Y1275604D01*
X3705805Y1276547D01*
X3707989Y1278479D01*
X3708778Y1279596D01*
X3709704Y1282109D01*
X3709714Y1284729D01*
X3708825Y1287237D01*
X3707057Y1289411D01*
X3705122Y1290805D01*
X3703114Y1291450D01*
X3700836Y1291326D01*
X3700698Y1291298D01*
X3698422Y1290342D01*
X3696535Y1288659D01*
X3695192Y1286496D01*
X3694548Y1284097D01*
X3683457Y1284097D01*
X3683481Y1285443D01*
X3684516Y1289467D01*
X3684609Y1289712D01*
X3684891Y1290551D01*
X3685120Y1291472D01*
X3685305Y1292596D01*
X3685455Y1294041D01*
X3685576Y1295929D01*
X3685679Y1298378D01*
X3685770Y1301509D01*
X3685859Y1305441D01*
X3685953Y1310295D01*
X3686288Y1328260D01*
X3687766Y1332154D01*
X3688862Y1334780D01*
X3691694Y1339844D01*
X3695206Y1344143D01*
X3699448Y1347731D01*
X3704469Y1350662D01*
X3705469Y1351126D01*
X3707977Y1352163D01*
X3710384Y1353006D01*
X3712280Y1353506D01*
X3713024Y1353591D01*
X3714562Y1353679D01*
X3716852Y1353754D01*
X3719922Y1353818D01*
X3723802Y1353871D01*
X3728521Y1353912D01*
X3734107Y1353942D01*
X3740590Y1353960D01*
X3747998Y1353969D01*
X3756361Y1353966D01*
X3765707Y1353953D01*
X3776066Y1353930D01*
X3836728Y1353774D01*
X3840239Y1352408D01*
X3843502Y1350978D01*
X3848690Y1347899D01*
X3853118Y1344148D01*
X3856748Y1339762D01*
X3859546Y1334781D01*
X3861476Y1329244D01*
X3861619Y1328668D01*
X3861798Y1327839D01*
X3861952Y1326930D01*
X3862081Y1325859D01*
X3862189Y1324547D01*
X3862276Y1322914D01*
X3862346Y1320880D01*
X3862400Y1318364D01*
X3862440Y1315288D01*
X3862468Y1311570D01*
X3862486Y1307131D01*
X3862497Y1301891D01*
X3862502Y1295769D01*
X3862503Y1288686D01*
X3862503Y1283616D01*
X3862499Y1277215D01*
X3862490Y1271720D01*
X3862474Y1267050D01*
X3862449Y1263124D01*
X3862413Y1259865D01*
X3862364Y1257190D01*
X3862299Y1255020D01*
X3862217Y1253276D01*
X3862115Y1251876D01*
X3861993Y1250742D01*
X3861847Y1249792D01*
X3861675Y1248948D01*
X3861476Y1248128D01*
X3859829Y1243243D01*
X3857168Y1238215D01*
X3853727Y1233788D01*
X3849580Y1230053D01*
X3844799Y1227105D01*
X3843956Y1226680D01*
X3842915Y1226150D01*
X3841953Y1225679D01*
X3841006Y1225263D01*
X3840014Y1224900D01*
X3838913Y1224585D01*
X3837642Y1224315D01*
X3836138Y1224087D01*
X3834340Y1223898D01*
X3832184Y1223742D01*
X3829609Y1223619D01*
X3826552Y1223523D01*
X3822952Y1223451D01*
X3818746Y1223400D01*
X3813872Y1223366D01*
X3808267Y1223347D01*
X3801870Y1223337D01*
X3794618Y1223335D01*
X3786449Y1223336D01*
X3777301Y1223337D01*
X3776354Y1223337D01*
X3768765Y1223334D01*
X3761470Y1223325D01*
X3754536Y1223311D01*
X3748031Y1223292D01*
X3742024Y1223270D01*
X3736582Y1223243D01*
X3731774Y1223213D01*
X3727666Y1223179D01*
X3724329Y1223143D01*
X3721828Y1223104D01*
X3720234Y1223064D01*
X3719612Y1223021D01*
X3719445Y1222881D01*
X3719298Y1222540D01*
X3719174Y1221922D01*
X3719072Y1220951D01*
X3718989Y1219551D01*
X3718924Y1217645D01*
X3718874Y1215156D01*
X3718838Y1212009D01*
X3718813Y1208126D01*
X3718798Y1203432D01*
X3718791Y1197849D01*
X3718788Y1191301D01*
X3718794Y1185676D01*
X3718808Y1180332D01*
X3718832Y1175379D01*
X3718863Y1170910D01*
X3718901Y1167017D01*
X3718945Y1163794D01*
X3718994Y1161334D01*
X3719048Y1159729D01*
X3719104Y1159073D01*
X3719120Y1159042D01*
X3719277Y1158915D01*
X3719623Y1158802D01*
X3720214Y1158703D01*
X3721108Y1158616D01*
X3722362Y1158541D01*
X3724031Y1158477D01*
X3726174Y1158422D01*
X3728846Y1158377D01*
X3732105Y1158341D01*
X3736008Y1158311D01*
X3740611Y1158289D01*
X3745972Y1158273D01*
X3752146Y1158261D01*
X3759191Y1158254D01*
X3767164Y1158250D01*
X3776122Y1158249D01*
X3832823Y1158249D01*
X3832821Y1171918D01*
X3832819Y1174239D01*
X3832809Y1177898D01*
X3832778Y1180746D01*
X3832714Y1182933D01*
X3832608Y1184611D01*
X3832448Y1185929D01*
X3832222Y1187038D01*
X3831920Y1188089D01*
X3831530Y1189231D01*
X3830553Y1192901D01*
X3830422Y1195085D01*
X3841359Y1195085D01*
X3841396Y1194902D01*
X3842183Y1192711D01*
X3843440Y1190700D01*
X3844904Y1189298D01*
X3845158Y1189142D01*
X3847604Y1188249D01*
X3850140Y1188261D01*
X3852542Y1189104D01*
X3854590Y1190705D01*
X3856061Y1192990D01*
X3856086Y1193048D01*
X3856690Y1195605D01*
X3856452Y1198043D01*
X3855512Y1200234D01*
X3854013Y1202045D01*
X3852097Y1203348D01*
X3849906Y1204012D01*
X3847582Y1203905D01*
X3845267Y1202899D01*
X3845026Y1202730D01*
X3843453Y1201146D01*
X3842200Y1199109D01*
X3841443Y1196971D01*
X3841359Y1195085D01*
X3830422Y1195085D01*
X3830293Y1197215D01*
X3831044Y1201453D01*
X3831272Y1202181D01*
X3832560Y1205187D01*
X3834393Y1207842D01*
X3836993Y1210485D01*
X3838477Y1211676D01*
X3841977Y1213593D01*
X3845759Y1214643D01*
X3849672Y1214858D01*
X3853567Y1214267D01*
X3857294Y1212903D01*
X3860701Y1210796D01*
X3863640Y1207978D01*
X3865959Y1204480D01*
X3867078Y1201457D01*
X3867659Y1197638D01*
X3867604Y1195605D01*
X3867549Y1193580D01*
X3866732Y1189582D01*
X3866512Y1188832D01*
X3866241Y1187746D01*
X3866031Y1186582D01*
X3865875Y1185201D01*
X3865765Y1183468D01*
X3865693Y1181243D01*
X3865651Y1178390D01*
X3865632Y1174771D01*
X3865627Y1170247D01*
X3865621Y1166852D01*
X3865577Y1162196D01*
X3865480Y1158359D01*
X3865315Y1155203D01*
X3865068Y1152591D01*
X3864725Y1150388D01*
X3864270Y1148454D01*
X3863691Y1146655D01*
X3862973Y1144852D01*
X3861712Y1142315D01*
X3858837Y1138084D01*
X3855220Y1134185D01*
X3851048Y1130837D01*
X3849445Y1129780D01*
X3846998Y1128398D01*
X3844518Y1127374D01*
X3841506Y1126482D01*
X3840962Y1126347D01*
X3840316Y1126213D01*
X3839564Y1126094D01*
X3838648Y1125989D01*
X3837511Y1125897D01*
X3836093Y1125817D01*
X3834335Y1125748D01*
X3832180Y1125690D01*
X3829569Y1125641D01*
X3826443Y1125600D01*
X3822743Y1125567D01*
X3818412Y1125541D01*
X3813391Y1125520D01*
X3807620Y1125505D01*
X3801043Y1125493D01*
X3793599Y1125485D01*
X3785232Y1125478D01*
X3775881Y1125474D01*
X3771325Y1125471D01*
X3762240Y1125466D01*
X3754109Y1125462D01*
X3746874Y1125463D01*
X3740477Y1125471D01*
X3734858Y1125490D01*
X3729958Y1125521D01*
X3725718Y1125569D01*
X3722080Y1125635D01*
X3718984Y1125722D01*
X3716371Y1125834D01*
X3714183Y1125973D01*
X3712361Y1126142D01*
X3710845Y1126343D01*
X3709576Y1126580D01*
X3708496Y1126855D01*
X3707546Y1127172D01*
X3706667Y1127532D01*
X3705799Y1127939D01*
X3704884Y1128395D01*
X3703863Y1128904D01*
X3700159Y1131103D01*
X3696072Y1134500D01*
X3692488Y1138561D01*
X3689576Y1143093D01*
X3687502Y1147900D01*
X3686244Y1151740D01*
X3686244Y1191390D01*
X3686246Y1198649D01*
X3686251Y1204947D01*
X3686261Y1210358D01*
X3686278Y1214958D01*
X3686304Y1218820D01*
X3686341Y1222020D01*
X3686389Y1224631D01*
X3686452Y1226729D01*
X3686531Y1228388D01*
X3686627Y1229683D01*
X3686742Y1230688D01*
X3686878Y1231478D01*
X3687037Y1232127D01*
X3687220Y1232710D01*
X3688198Y1235293D01*
X3690986Y1240687D01*
X3694529Y1245374D01*
X3698800Y1249326D01*
X3703772Y1252516D01*
X3709416Y1254916D01*
X3709513Y1254948D01*
X3710014Y1255093D01*
X3710606Y1255223D01*
X3711350Y1255339D01*
X3712304Y1255442D01*
X3713527Y1255533D01*
X3715080Y1255614D01*
X3717021Y1255685D01*
X3719411Y1255748D01*
X3722307Y1255804D01*
X3725770Y1255854D01*
X3729858Y1255899D01*
X3734632Y1255941D01*
X3740151Y1255980D01*
X3746474Y1256018D01*
X3753660Y1256056D01*
X3761768Y1256096D01*
X3770859Y1256138D01*
X3829438Y1256402D01*
X3829582Y1287645D01*
X3829603Y1293076D01*
X3829614Y1298440D01*
X3829616Y1303423D01*
X3829608Y1307933D01*
X3829591Y1311874D01*
X3829565Y1315152D01*
X3829532Y1317672D01*
X3829490Y1319340D01*
X3829441Y1320061D01*
X3829157Y1321235D01*
X3774103Y1321102D01*
X3719049Y1320970D01*
X3718909Y1307431D01*
X3718874Y1303636D01*
X3718862Y1300249D01*
X3718885Y1297614D01*
X3718952Y1295582D01*
X3719071Y1293999D01*
X3719250Y1292713D01*
X3719497Y1291573D01*
X3719820Y1290428D01*
X3720537Y1287176D01*
X3720745Y1284729D01*
X3720839Y1283623D01*
G37*
G36*
X3954596Y1165314D02*
G01*
X3954589Y1154932D01*
X3954577Y1145462D01*
X3954560Y1136886D01*
X3954540Y1129185D01*
X3954514Y1122338D01*
X3954484Y1116328D01*
X3954450Y1111133D01*
X3954411Y1106736D01*
X3954367Y1103116D01*
X3954318Y1100254D01*
X3954265Y1098131D01*
X3954207Y1096728D01*
X3954143Y1096025D01*
X3952931Y1090956D01*
X3950472Y1084421D01*
X3947126Y1078285D01*
X3942956Y1072603D01*
X3938025Y1067433D01*
X3932395Y1062830D01*
X3926131Y1058852D01*
X3919295Y1055554D01*
X3911950Y1052995D01*
X3904159Y1051229D01*
X3904095Y1051219D01*
X3903401Y1051145D01*
X3902307Y1051077D01*
X3900780Y1051013D01*
X3898787Y1050954D01*
X3896292Y1050900D01*
X3893263Y1050851D01*
X3889665Y1050805D01*
X3885466Y1050764D01*
X3880630Y1050726D01*
X3875125Y1050693D01*
X3868917Y1050663D01*
X3861971Y1050636D01*
X3854254Y1050612D01*
X3845732Y1050591D01*
X3836371Y1050573D01*
X3826138Y1050558D01*
X3814999Y1050545D01*
X3802920Y1050534D01*
X3789866Y1050526D01*
X3775806Y1050519D01*
X3774919Y1050518D01*
X3761277Y1050512D01*
X3748633Y1050506D01*
X3736947Y1050500D01*
X3726178Y1050497D01*
X3716286Y1050496D01*
X3707229Y1050499D01*
X3698967Y1050507D01*
X3691460Y1050520D01*
X3684667Y1050541D01*
X3678547Y1050569D01*
X3673060Y1050605D01*
X3668165Y1050651D01*
X3663821Y1050708D01*
X3659988Y1050776D01*
X3656625Y1050857D01*
X3653692Y1050951D01*
X3651148Y1051060D01*
X3648953Y1051184D01*
X3647065Y1051324D01*
X3645444Y1051482D01*
X3644049Y1051658D01*
X3642841Y1051853D01*
X3641777Y1052069D01*
X3640819Y1052305D01*
X3639924Y1052564D01*
X3639053Y1052846D01*
X3638164Y1053152D01*
X3637218Y1053483D01*
X3636173Y1053840D01*
X3635317Y1054132D01*
X3627703Y1057269D01*
X3620808Y1061126D01*
X3614654Y1065687D01*
X3609264Y1070933D01*
X3604660Y1076844D01*
X3600863Y1083404D01*
X3600222Y1084708D01*
X3599362Y1086502D01*
X3598634Y1088146D01*
X3598026Y1089739D01*
X3597528Y1091381D01*
X3597126Y1093170D01*
X3596811Y1095207D01*
X3596569Y1097591D01*
X3596390Y1100420D01*
X3596262Y1103794D01*
X3596173Y1107813D01*
X3596111Y1112575D01*
X3596066Y1118180D01*
X3596024Y1124727D01*
X3595852Y1152908D01*
X3597049Y1153228D01*
X3597290Y1153268D01*
X3598531Y1153359D01*
X3600575Y1153437D01*
X3603252Y1153499D01*
X3606394Y1153540D01*
X3609831Y1153556D01*
X3621417Y1153563D01*
X3621421Y1165149D01*
X3621425Y1176734D01*
X3627669Y1180024D01*
X3628302Y1180359D01*
X3630503Y1181561D01*
X3632285Y1182588D01*
X3633478Y1183339D01*
X3633913Y1183715D01*
X3633832Y1183784D01*
X3632999Y1184230D01*
X3631338Y1185040D01*
X3628938Y1186172D01*
X3625886Y1187586D01*
X3622270Y1189242D01*
X3618178Y1191099D01*
X3613699Y1193115D01*
X3608920Y1195252D01*
X3606892Y1196156D01*
X3602228Y1198245D01*
X3597900Y1200195D01*
X3593997Y1201966D01*
X3590606Y1203518D01*
X3587815Y1204810D01*
X3585713Y1205801D01*
X3584387Y1206452D01*
X3584117Y1206610D01*
X3614664Y1206610D01*
X3614685Y1206586D01*
X3615334Y1206232D01*
X3616826Y1205507D01*
X3619071Y1204451D01*
X3621979Y1203107D01*
X3625459Y1201516D01*
X3629422Y1199720D01*
X3633777Y1197759D01*
X3638435Y1195675D01*
X3639410Y1195239D01*
X3644022Y1193170D01*
X3648320Y1191225D01*
X3652211Y1189448D01*
X3655604Y1187879D01*
X3658410Y1186563D01*
X3660535Y1185540D01*
X3661891Y1184853D01*
X3662385Y1184545D01*
X3662177Y1184331D01*
X3661165Y1183669D01*
X3659409Y1182633D01*
X3657015Y1181285D01*
X3654088Y1179683D01*
X3650734Y1177886D01*
X3647059Y1175953D01*
X3631570Y1167882D01*
X3631281Y1153563D01*
X3643922Y1153555D01*
X3646408Y1153545D01*
X3649744Y1153506D01*
X3652643Y1153441D01*
X3654954Y1153354D01*
X3656527Y1153252D01*
X3657210Y1153137D01*
X3657301Y1153010D01*
X3657449Y1152398D01*
X3657575Y1151237D01*
X3657681Y1149457D01*
X3657769Y1146987D01*
X3657842Y1143757D01*
X3657902Y1139696D01*
X3657951Y1134735D01*
X3657991Y1128802D01*
X3658126Y1104877D01*
X3775171Y1104746D01*
X3775579Y1104745D01*
X3789018Y1104731D01*
X3801451Y1104721D01*
X3812912Y1104713D01*
X3823437Y1104710D01*
X3833058Y1104710D01*
X3841812Y1104714D01*
X3849731Y1104722D01*
X3856851Y1104734D01*
X3863206Y1104751D01*
X3868831Y1104772D01*
X3873759Y1104798D01*
X3878025Y1104829D01*
X3881664Y1104864D01*
X3884710Y1104905D01*
X3887198Y1104951D01*
X3889161Y1105003D01*
X3890635Y1105060D01*
X3891654Y1105123D01*
X3892251Y1105192D01*
X3892463Y1105266D01*
X3892477Y1105524D01*
X3892497Y1106751D01*
X3892516Y1108948D01*
X3892533Y1112070D01*
X3892548Y1116074D01*
X3892562Y1120916D01*
X3892574Y1126552D01*
X3892585Y1132940D01*
X3892594Y1140034D01*
X3892601Y1147792D01*
X3892606Y1156170D01*
X3892609Y1165123D01*
X3892610Y1174610D01*
X3892610Y1184584D01*
X3892607Y1195004D01*
X3892603Y1205825D01*
X3892596Y1217004D01*
X3892588Y1228497D01*
X3892577Y1240260D01*
X3892444Y1374602D01*
X3658126Y1374602D01*
X3657856Y1325916D01*
X3644843Y1325916D01*
X3641956Y1325913D01*
X3638673Y1325901D01*
X3635867Y1325880D01*
X3633680Y1325854D01*
X3632253Y1325822D01*
X3631726Y1325786D01*
X3631710Y1325668D01*
X3631658Y1324720D01*
X3631590Y1322948D01*
X3631510Y1320504D01*
X3631423Y1317538D01*
X3631336Y1314200D01*
X3631050Y1302745D01*
X3623369Y1299648D01*
X3621699Y1298968D01*
X3619316Y1297969D01*
X3617414Y1297138D01*
X3616157Y1296545D01*
X3615705Y1296264D01*
X3615732Y1296238D01*
X3616407Y1295883D01*
X3617922Y1295156D01*
X3620188Y1294099D01*
X3623115Y1292753D01*
X3626613Y1291159D01*
X3630592Y1289358D01*
X3634961Y1287392D01*
X3639632Y1285301D01*
X3640800Y1284779D01*
X3645388Y1282716D01*
X3649641Y1280784D01*
X3653470Y1279025D01*
X3656788Y1277479D01*
X3659505Y1276190D01*
X3661535Y1275197D01*
X3662788Y1274541D01*
X3663177Y1274266D01*
X3662945Y1274131D01*
X3661873Y1273598D01*
X3660036Y1272719D01*
X3657549Y1271547D01*
X3654526Y1270136D01*
X3651082Y1268537D01*
X3647329Y1266802D01*
X3643383Y1264986D01*
X3639356Y1263139D01*
X3635363Y1261315D01*
X3631519Y1259566D01*
X3627936Y1257944D01*
X3624729Y1256503D01*
X3622013Y1255294D01*
X3620927Y1254808D01*
X3618613Y1253730D01*
X3616753Y1252801D01*
X3615516Y1252108D01*
X3615068Y1251738D01*
X3615276Y1251577D01*
X3616320Y1251015D01*
X3618155Y1250109D01*
X3620685Y1248903D01*
X3623813Y1247443D01*
X3627443Y1245775D01*
X3631478Y1243944D01*
X3635821Y1241996D01*
X3641697Y1239371D01*
X3646765Y1237102D01*
X3651014Y1235192D01*
X3654511Y1233609D01*
X3657324Y1232322D01*
X3659520Y1231299D01*
X3661166Y1230511D01*
X3662329Y1229924D01*
X3663076Y1229509D01*
X3663476Y1229233D01*
X3663594Y1229065D01*
X3663273Y1228729D01*
X3662330Y1228254D01*
X3661749Y1228018D01*
X3660148Y1227332D01*
X3657858Y1226328D01*
X3654988Y1225055D01*
X3651648Y1223562D01*
X3647947Y1221900D01*
X3643994Y1220118D01*
X3639899Y1218265D01*
X3635771Y1216392D01*
X3631719Y1214547D01*
X3627852Y1212781D01*
X3624280Y1211143D01*
X3621111Y1209682D01*
X3618457Y1208449D01*
X3616424Y1207493D01*
X3615124Y1206863D01*
X3614664Y1206610D01*
X3584117Y1206610D01*
X3583926Y1206722D01*
X3583970Y1206762D01*
X3584705Y1207152D01*
X3586276Y1207910D01*
X3588595Y1208994D01*
X3591571Y1210364D01*
X3595115Y1211978D01*
X3599140Y1213795D01*
X3603554Y1215776D01*
X3608269Y1217878D01*
X3609682Y1218507D01*
X3614336Y1220580D01*
X3618675Y1222519D01*
X3622608Y1224283D01*
X3626044Y1225830D01*
X3628892Y1227120D01*
X3631060Y1228111D01*
X3632459Y1228762D01*
X3632997Y1229032D01*
X3632964Y1229082D01*
X3632260Y1229490D01*
X3630721Y1230263D01*
X3628433Y1231359D01*
X3625484Y1232738D01*
X3621961Y1234361D01*
X3617951Y1236186D01*
X3613541Y1238173D01*
X3608817Y1240281D01*
X3607167Y1241015D01*
X3602524Y1243095D01*
X3598213Y1245044D01*
X3594323Y1246823D01*
X3590944Y1248389D01*
X3588163Y1249700D01*
X3586069Y1250717D01*
X3584752Y1251397D01*
X3584299Y1251700D01*
X3584335Y1251742D01*
X3585047Y1252153D01*
X3586596Y1252933D01*
X3588894Y1254039D01*
X3591851Y1255429D01*
X3595376Y1257062D01*
X3599381Y1258896D01*
X3603775Y1260889D01*
X3608469Y1262998D01*
X3609750Y1263572D01*
X3614376Y1265652D01*
X3618681Y1267601D01*
X3622575Y1269377D01*
X3625968Y1270939D01*
X3628770Y1272245D01*
X3630890Y1273253D01*
X3632239Y1273922D01*
X3632727Y1274209D01*
X3632682Y1274261D01*
X3631946Y1274679D01*
X3630375Y1275462D01*
X3628057Y1276569D01*
X3625081Y1277960D01*
X3621535Y1279592D01*
X3617508Y1281426D01*
X3613087Y1283420D01*
X3608361Y1285532D01*
X3606804Y1286226D01*
X3602147Y1288309D01*
X3597811Y1290261D01*
X3593886Y1292040D01*
X3590461Y1293604D01*
X3587629Y1294913D01*
X3585478Y1295925D01*
X3584099Y1296599D01*
X3583582Y1296892D01*
X3583526Y1297001D01*
X3583576Y1297622D01*
X3583628Y1297658D01*
X3584046Y1297857D01*
X3584914Y1298226D01*
X3586291Y1298786D01*
X3588235Y1299562D01*
X3590803Y1300574D01*
X3594054Y1301847D01*
X3598045Y1303403D01*
X3602834Y1305264D01*
X3608479Y1307454D01*
X3615038Y1309995D01*
X3621417Y1312466D01*
X3621417Y1325916D01*
X3595845Y1325916D01*
X3596020Y1354685D01*
X3596194Y1383454D01*
X3597613Y1388030D01*
X3600271Y1394985D01*
X3603804Y1401440D01*
X3608195Y1407311D01*
X3613454Y1412614D01*
X3619594Y1417363D01*
X3625166Y1420834D01*
X3631908Y1424150D01*
X3638839Y1426581D01*
X3646150Y1428202D01*
X3646426Y1428246D01*
X3647094Y1428335D01*
X3647889Y1428417D01*
X3648850Y1428492D01*
X3650017Y1428561D01*
X3651430Y1428623D01*
X3653128Y1428680D01*
X3655152Y1428731D01*
X3657541Y1428776D01*
X3660335Y1428815D01*
X3663574Y1428849D01*
X3667297Y1428879D01*
X3671545Y1428903D01*
X3676356Y1428923D01*
X3681772Y1428939D01*
X3687831Y1428950D01*
X3694573Y1428957D01*
X3702039Y1428961D01*
X3710267Y1428961D01*
X3719299Y1428958D01*
X3729172Y1428951D01*
X3739929Y1428942D01*
X3751607Y1428930D01*
X3764247Y1428916D01*
X3777888Y1428899D01*
X3904420Y1428739D01*
X3909550Y1427306D01*
X3915426Y1425434D01*
X3923110Y1422189D01*
X3930053Y1418256D01*
X3936234Y1413654D01*
X3941631Y1408400D01*
X3946225Y1402515D01*
X3949993Y1396016D01*
X3952914Y1388922D01*
X3954408Y1384496D01*
X3954561Y1241822D01*
X3954572Y1231599D01*
X3954585Y1216362D01*
X3954594Y1202133D01*
X3954599Y1188896D01*
X3954600Y1176629D01*
X3954599Y1174610D01*
X3954596Y1165314D01*
G37*
%TO.C,kibuzzard-66129132*%
G36*
X395703Y1161607D02*
G01*
X397989Y1161289D01*
X397989Y1108457D01*
X396592Y1108330D01*
X395195Y1108330D01*
X386242Y1110362D01*
X380400Y1115950D01*
X377225Y1124396D01*
X376511Y1129523D01*
X376272Y1135127D01*
X377034Y1145033D01*
X379701Y1153542D01*
X384908Y1159448D01*
X393417Y1161670D01*
X395703Y1161607D01*
G37*
G36*
X440069Y1073574D02*
G01*
X413610Y1073574D01*
X396846Y1073574D01*
X296390Y1073574D01*
X269931Y1073574D01*
X269931Y1095757D01*
X296390Y1095757D01*
X310741Y1095757D01*
X309979Y1156844D01*
X319631Y1123570D01*
X331061Y1123570D01*
X340332Y1156844D01*
X339697Y1095757D01*
X354047Y1095757D01*
X353651Y1105600D01*
X353222Y1115823D01*
X352762Y1126205D01*
X352336Y1135127D01*
X360397Y1135127D01*
X361080Y1125015D01*
X363128Y1116522D01*
X366382Y1109552D01*
X370684Y1104012D01*
X375971Y1099837D01*
X382178Y1096964D01*
X389179Y1095297D01*
X396846Y1094741D01*
X405038Y1095186D01*
X413610Y1096646D01*
X413610Y1173354D01*
X403577Y1174878D01*
X394814Y1175259D01*
X387401Y1174688D01*
X380654Y1172973D01*
X374733Y1170036D01*
X369795Y1165798D01*
X365843Y1160241D01*
X362874Y1153352D01*
X361017Y1145017D01*
X360397Y1135127D01*
X352336Y1135127D01*
X352269Y1136524D01*
X351714Y1146652D01*
X351063Y1156463D01*
X350317Y1165766D01*
X349476Y1174370D01*
X336522Y1174370D01*
X334299Y1167512D01*
X331442Y1158495D01*
X328394Y1148716D01*
X325473Y1139572D01*
X322298Y1149288D01*
X319123Y1158940D01*
X316329Y1167639D01*
X314043Y1174370D01*
X301089Y1174370D01*
X300215Y1164210D01*
X299374Y1154304D01*
X298612Y1144573D01*
X297977Y1134937D01*
X297453Y1125316D01*
X297025Y1115633D01*
X296675Y1105806D01*
X296390Y1095757D01*
X269931Y1095757D01*
X269931Y1196426D01*
X296390Y1196426D01*
X413610Y1196426D01*
X440069Y1196426D01*
X440069Y1073574D01*
G37*
%TD*%
M02*
